<svg width="136" height="136" viewBox="0 0 136 136" fill="none" xmlns="http://www.w3.org/2000/svg">
<path fill-rule="evenodd" clip-rule="evenodd" d="M84.9999 17H50.9999L39.6666 28.3333H16.9999C13.8703 28.3333 11.3333 30.8704 11.3333 34V113.333C11.3333 116.463 13.8703 119 16.9999 119H119C122.13 119 124.667 116.463 124.667 113.333V34C124.667 30.8704 122.13 28.3333 119 28.3333H96.3333L84.9999 17ZM44.3586 39.6667L55.6918 28.3333H80.3079L91.6413 39.6667H113.333V107.667H22.6666V39.6667H44.3586ZM67.9999 102C50.787 102 36.8333 88.0462 36.8333 70.8333C36.8333 53.6204 50.787 39.6667 67.9999 39.6667C85.2128 39.6667 99.1666 53.6204 99.1666 70.8333C99.1666 88.0462 85.2128 102 67.9999 102ZM87.8333 70.8333C87.8333 81.787 78.9536 90.6667 67.9999 90.6667C57.0463 90.6667 48.1665 81.787 48.1665 70.8333C48.1665 59.8797 57.0463 51 67.9999 51C78.9536 51 87.8333 59.8797 87.8333 70.8333Z" fill="#DBDBDB"/>
</svg>
