<svg width="36" height="36" viewBox="0 0 36 36" fill="none" xmlns="http://www.w3.org/2000/svg">
<path fill-rule="evenodd" clip-rule="evenodd" d="M27 11H18.414L16.414 9H9C8.73478 9 8.48043 9.10536 8.29289 9.29289C8.10536 9.48043 8 9.73478 8 10V26C8 26.2652 8.10536 26.5196 8.29289 26.7071C8.48043 26.8946 8.73478 27 9 27H27C27.2652 27 27.5196 26.8946 27.7071 26.7071C27.8946 26.5196 28 26.2652 28 26V12C28 11.7348 27.8946 11.4804 27.7071 11.2929C27.5196 11.1054 27.2652 11 27 11ZM10 25V13H26V25H10Z" fill="#808080"/>
</svg>
