<svg width="34" height="40" viewBox="0 0 34 40" fill="none" xmlns="http://www.w3.org/2000/svg">
<path d="M0 3C0 2.20435 0.31607 1.44129 0.87868 0.87868C1.44129 0.31607 2.20435 0 3 0H23.333L33.333 10V37C33.333 37.7956 33.0169 38.5587 32.4543 39.1213C31.8917 39.6839 31.1286 40 30.333 40H3C2.20435 40 1.44129 39.6839 0.87868 39.1213C0.31607 38.5587 0 37.7956 0 37V3Z" fill="#F5F5F5"/>
<path d="M0 28H33.333V37C33.333 37.7956 33.0169 38.5587 32.4543 39.1213C31.8917 39.6839 31.1286 40 30.333 40H3C2.20435 40 1.44129 39.6839 0.87868 39.1213C0.31607 38.5587 0 37.7956 0 37V28Z" fill="#A8A8A8"/>
<path d="M25.8648 9.9901C25.207 9.9901 24.5762 9.72882 24.1111 9.26373C23.646 8.79864 23.3848 8.16784 23.3848 7.5101V0.0581055L33.3308 9.9901H25.8648Z" fill="#DBDBDB"/>
<path fill-rule="evenodd" clip-rule="evenodd" d="M7.98047 14.1312V12.4702H22.9425V14.1322H7.98047V14.1312ZM17.9555 15.7942H7.98047V17.4562H17.9555V15.7942ZM7.98047 20.7802H22.9425V19.1202H7.98047V20.7822V20.7802Z" fill="#CFCFCF"/>
<path d="M11.9542 36H13.1442V34.229C13.1442 33.487 13.3262 33.242 13.7532 33.242C14.0752 33.242 14.2012 33.508 14.2012 33.935V36H15.3912V34.222C15.3912 33.634 15.4402 33.242 15.9512 33.242C16.2592 33.242 16.4482 33.473 16.4482 33.865V36H17.6382V33.83C17.6382 33.137 17.5122 32.262 16.3572 32.262C15.8672 32.262 15.5102 32.465 15.2232 32.85C15.0272 32.409 14.6212 32.262 14.1662 32.262C13.7252 32.262 13.3402 32.5 13.1232 32.864H13.1092V32.367H11.9542V36ZM20.1776 33.172C20.6956 33.172 20.8846 33.655 20.8846 34.18C20.8846 34.642 20.7586 35.195 20.1776 35.195C19.6316 35.195 19.4496 34.642 19.4496 34.145C19.4496 33.683 19.6316 33.172 20.1776 33.172ZM22.0326 31.002H20.8426V32.759H20.8286C20.5836 32.43 20.2406 32.262 19.7926 32.262C18.7636 32.262 18.2596 33.158 18.2596 34.103C18.2596 35.125 18.7426 36.105 19.8836 36.105C20.3036 36.105 20.6536 35.923 20.8846 35.58H20.8986V36H22.0326V31.002Z" fill="white"/>
</svg>
