<svg width="24" height="24" viewBox="0 0 24 24" fill="none" xmlns="http://www.w3.org/2000/svg">
<path fill-rule="evenodd" clip-rule="evenodd" d="M7.05004 7.05011C6.86257 7.23764 6.75725 7.49195 6.75725 7.75711C6.75725 8.02227 6.86257 8.27658 7.05004 8.46411L10.586 12.0001L7.05004 15.5361C6.95453 15.6284 6.87835 15.7387 6.82594 15.8607C6.77353 15.9827 6.74594 16.1139 6.74479 16.2467C6.74363 16.3795 6.76894 16.5112 6.81922 16.6341C6.8695 16.757 6.94375 16.8686 7.03764 16.9625C7.13154 17.0564 7.24319 17.1307 7.36609 17.1809C7.48898 17.2312 7.62066 17.2565 7.75344 17.2554C7.88622 17.2542 8.01744 17.2266 8.13944 17.1742C8.26145 17.1218 8.37179 17.0456 8.46404 16.9501L12 13.4141L15.536 16.9501C15.7246 17.1323 15.9772 17.2331 16.2394 17.2308C16.5016 17.2285 16.7524 17.1233 16.9379 16.9379C17.1233 16.7525 17.2284 16.5017 17.2307 16.2395C17.233 15.9773 17.1322 15.7247 16.95 15.5361L13.414 12.0001L16.95 8.46411C17.1322 8.27551 17.233 8.02291 17.2307 7.76071C17.2284 7.49851 17.1233 7.2477 16.9379 7.06229C16.7524 6.87688 16.5016 6.77171 16.2394 6.76944C15.9772 6.76716 15.7246 6.86795 15.536 7.05011L12 10.5861L8.46404 7.05011C8.27651 6.86264 8.0222 6.75732 7.75704 6.75732C7.49188 6.75732 7.23757 6.86264 7.05004 7.05011V7.05011Z" fill="white"/>
</svg>
