<svg width="24" height="24" viewBox="0 0 24 24" fill="none" xmlns="http://www.w3.org/2000/svg">
<path fill-rule="evenodd" clip-rule="evenodd" d="M14.3848 10.2113C14.5409 10.0954 14.6893 9.96758 14.8284 9.82843C15.5786 9.07828 16 8.06087 16 7C16 5.93913 15.5786 4.92172 14.8284 4.17157C14.0783 3.42143 13.0609 3 12 3C10.9391 3 9.92172 3.42143 9.17157 4.17157C8.42143 4.92172 8 5.93913 8 7C8 8.06087 8.42143 9.07828 9.17157 9.82843C9.31108 9.96795 9.45984 10.0961 9.6164 10.2123C4.66867 11.1287 2 14.8425 2 18C2 18.2652 2.10536 18.5196 2.29289 18.7071C2.48043 18.8946 2.73478 19 3 19C3.26522 19 3.51957 18.8946 3.70711 18.7071C3.89464 18.5196 4 18.2652 4 18C4 15.632 6.469 12 12 12C13.716 12 15.135 12.353 16.272 12.9C16.3909 12.9634 16.5214 13.0021 16.6556 13.0138C16.7898 13.0255 16.925 13.01 17.0531 12.9682C17.1812 12.9263 17.2995 12.859 17.4009 12.7703C17.5023 12.6816 17.5847 12.5733 17.6433 12.452C17.7018 12.3306 17.7352 12.1987 17.7414 12.0641C17.7477 11.9295 17.7267 11.795 17.6797 11.6688C17.6327 11.5425 17.5607 11.427 17.4679 11.3293C17.3752 11.2315 17.2636 11.1536 17.14 11.1C16.3179 10.7034 15.3984 10.3985 14.3848 10.2113ZM13.4142 8.41421C13.0391 8.78929 12.5304 9 12 9C11.4696 9 10.9609 8.78929 10.5858 8.41421C10.2107 8.03914 10 7.53043 10 7C10 6.46957 10.2107 5.96086 10.5858 5.58579C10.9609 5.21071 11.4696 5 12 5C12.5304 5 13.0391 5.21071 13.4142 5.58579C13.7893 5.96086 14 6.46957 14 7C14 7.53043 13.7893 8.03914 13.4142 8.41421ZM20.414 14.172L21.828 15.586L20.414 17L21.828 18.414L20.414 19.828L19 18.414L17.586 19.828L16.172 18.414L17.586 17L16.172 15.586L17.586 14.172L19 15.586L20.414 14.172Z" fill="#808080"/>
</svg>
