<svg width="16" height="16" viewBox="0 0 16 16" fill="none" xmlns="http://www.w3.org/2000/svg">
<path fill-rule="evenodd" clip-rule="evenodd" d="M2.66675 5.33339C2.66675 5.33342 2.66675 5.33346 2.66675 5.33349C2.66675 5.51032 2.73697 5.67991 2.86197 5.80499L4.86197 7.80499C4.92332 7.86941 4.99694 7.92091 5.07849 7.95645C5.16004 7.99199 5.24788 8.01086 5.33684 8.01194C5.42579 8.01302 5.51406 7.9963 5.59646 7.96276C5.67885 7.92922 5.7537 7.87953 5.81661 7.81663C5.87951 7.75373 5.9292 7.67887 5.96274 7.59648C5.99628 7.51408 6.013 7.42581 6.01192 7.33686C6.01083 7.2479 5.99197 7.16007 5.95642 7.07851C5.92088 6.99696 5.86939 6.92334 5.80497 6.86199L4.95612 6.01314C6.62432 6.04367 7.6477 6.12838 8.36399 6.27799C9.21799 6.45499 9.62699 6.72099 10.246 7.18499C10.882 7.74299 11.472 8.34299 11.912 9.16699C12.353 9.99599 12.667 11.094 12.667 12.667C12.6737 12.8393 12.7468 13.0023 12.8711 13.1219C12.9953 13.2414 13.1611 13.3082 13.3335 13.3082C13.5059 13.3082 13.6717 13.2414 13.7959 13.1219C13.9202 13.0023 13.9933 12.8393 14 12.667C14 10.906 13.647 9.58799 13.088 8.54099C12.532 7.49799 11.796 6.76899 11.106 6.16499L11.066 6.13299C10.364 5.60599 9.77199 5.20899 8.63599 4.97199C7.79563 4.79705 6.657 4.70933 4.93046 4.6793L5.80497 3.80479C5.86939 3.74344 5.92088 3.66982 5.95642 3.58827C5.99197 3.50671 6.01083 3.41887 6.01192 3.32992C6.013 3.24097 5.99628 3.1527 5.96274 3.0703C5.9292 2.98791 5.87951 2.91305 5.81661 2.85015C5.7537 2.78724 5.67885 2.73756 5.59646 2.70402C5.51406 2.67047 5.42579 2.65375 5.33684 2.65484C5.24788 2.65592 5.16004 2.67479 5.07849 2.71033C4.99694 2.74587 4.92332 2.79737 4.86197 2.86179L2.86197 4.86178C2.7795 4.9443 2.72087 5.0462 2.69053 5.15677C2.67586 5.21019 2.6678 5.26564 2.66684 5.32191C2.66678 5.3257 2.66675 5.32949 2.66675 5.33329" fill="#808080"/>
</svg>
