<svg width="24" height="24" viewBox="0 0 24 24" fill="none" xmlns="http://www.w3.org/2000/svg">
<path fill-rule="evenodd" clip-rule="evenodd" d="M2 12C2 6.477 6.477 2 12 2C17.523 2 22 6.477 22 12C22 17.523 17.523 22 12 22C6.477 22 2 17.523 2 12ZM6.34315 6.34315C4.84285 7.84344 4 9.87827 4 12C4 14.1217 4.84285 16.1566 6.34315 17.6569C7.84344 19.1571 9.87827 20 12 20C14.1217 20 16.1566 19.1571 17.6569 17.6569C19.1571 16.1566 20 14.1217 20 12C20 9.87827 19.1571 7.84344 17.6569 6.34315C16.1566 4.84285 14.1217 4 12 4C9.87827 4 7.84344 4.84285 6.34315 6.34315ZM14.4456 8.24707C14.3242 8.29735 14.2139 8.37105 14.121 8.46396L12 10.586L9.87895 8.46396C9.78604 8.37112 9.67575 8.29748 9.55439 8.24726C9.43302 8.19704 9.30295 8.17121 9.1716 8.17126C9.04025 8.1713 8.9102 8.19722 8.78886 8.24753C8.66753 8.29784 8.5573 8.37155 8.46445 8.46446C8.37161 8.55737 8.29797 8.66766 8.24775 8.78903C8.19753 8.91039 8.1717 9.04047 8.17175 9.17181C8.1718 9.30316 8.19771 9.43321 8.24802 9.55455C8.29833 9.67588 8.37204 9.78612 8.46495 9.87896L10.585 12L8.46495 14.121C8.37204 14.2138 8.29833 14.3241 8.24802 14.4454C8.19771 14.5667 8.1718 14.6968 8.17175 14.8281C8.1717 14.9595 8.19753 15.0896 8.24775 15.2109C8.29797 15.3323 8.37161 15.4426 8.46445 15.5355C8.5573 15.6284 8.66753 15.7021 8.78886 15.7524C8.9102 15.8027 9.04025 15.8287 9.1716 15.8287C9.30295 15.8287 9.43302 15.8029 9.55439 15.7527C9.67575 15.7025 9.78604 15.6288 9.87895 15.536L12.001 13.414L14.121 15.536C14.3086 15.7236 14.5631 15.8291 14.8285 15.8291C15.0939 15.8291 15.3484 15.7236 15.536 15.536C15.7236 15.3484 15.8291 15.0939 15.8291 14.8285C15.8291 14.5631 15.7236 14.3086 15.536 14.121L13.414 12L15.536 9.87896C15.6289 9.78605 15.7026 9.67575 15.7529 9.55436C15.8032 9.43296 15.8291 9.30286 15.8291 9.17146C15.8291 9.04007 15.8032 8.90996 15.7529 8.78856C15.7026 8.66717 15.6289 8.55687 15.536 8.46396C15.4431 8.37105 15.3328 8.29735 15.2114 8.24707C15.09 8.19678 14.9599 8.1709 14.8285 8.1709C14.6971 8.1709 14.567 8.19678 14.4456 8.24707Z" fill="#808080"/>
</svg>
