<svg width="24" height="24" viewBox="0 0 24 24" fill="none" xmlns="http://www.w3.org/2000/svg">
<path fill-rule="evenodd" clip-rule="evenodd" d="M12 4C11.7348 4 11.4804 4.10536 11.2929 4.29289C11.1054 4.48043 11 4.73478 11 5V14.529L6.782 10.306C6.68513 10.209 6.57009 10.1321 6.44346 10.0795C6.31683 10.027 6.18108 10 6.044 10C5.90692 10 5.77118 10.027 5.64454 10.0795C5.51791 10.1321 5.40287 10.209 5.306 10.306C5.11022 10.5021 5.00027 10.7679 5.00027 11.045C5.00027 11.3221 5.11022 11.5879 5.306 11.784L11.21 17.694C11.427 17.911 11.716 18.013 12 17.999C12.284 18.013 12.573 17.911 12.79 17.694L18.694 11.784C18.8898 11.5879 18.9997 11.3221 18.9997 11.045C18.9997 10.7679 18.8898 10.5021 18.694 10.306C18.5971 10.209 18.4821 10.1321 18.3555 10.0795C18.2288 10.027 18.0931 10 17.956 10C17.8189 10 17.6832 10.027 17.5565 10.0795C17.4299 10.1321 17.3149 10.209 17.218 10.306L13 14.529V5C13 4.73478 12.8946 4.48043 12.7071 4.29289C12.5196 4.10536 12.2652 4 12 4ZM5 21C5 20.7348 5.10536 20.4804 5.29289 20.2929C5.48043 20.1054 5.73478 20 6 20H18C18.2652 20 18.5196 20.1054 18.7071 20.2929C18.8946 20.4804 19 20.7348 19 21C19 21.2652 18.8946 21.5196 18.7071 21.7071C18.5196 21.8946 18.2652 22 18 22H6C5.73478 22 5.48043 21.8946 5.29289 21.7071C5.10536 21.5196 5 21.2652 5 21Z" fill="#808080"/>
</svg>
