<svg width="24" height="24" viewBox="0 0 24 24" fill="none" xmlns="http://www.w3.org/2000/svg">
<path fill-rule="evenodd" clip-rule="evenodd" d="M16 7C16 8.31528 15.3652 9.48229 14.3852 10.2113C15.3987 10.3984 16.318 10.7031 17.1402 11.0991C17.6378 11.3387 17.8469 11.9363 17.6072 12.4339C17.3676 12.9315 16.7699 13.1406 16.2724 12.9009C15.1351 12.3532 13.716 12 12 12C6.4686 12 4 15.6324 4 18C4 18.5523 3.55228 19 3 19C2.44771 19 2 18.5523 2 18C2 14.8422 4.66883 11.1288 9.61611 10.2123C8.63539 9.48334 8 8.31587 8 7C8 4.79086 9.79086 3 12 3C14.2091 3 16 4.79086 16 7ZM12 9C13.1046 9 14 8.10457 14 7C14 5.89543 13.1046 5 12 5C10.8954 5 10 5.89543 10 7C10 8.10457 10.8954 9 12 9ZM18 14H20V16H22V18H20V20H18V18H16V16H18V14Z" fill="#808080"/>
</svg>
