<svg width="24" height="24" viewBox="0 0 24 24" fill="none" xmlns="http://www.w3.org/2000/svg">
<path fill-rule="evenodd" clip-rule="evenodd" d="M6.78215 9.695L11 5.4725V17C11 17.5523 11.4477 18 12 18C12.5523 18 13 17.5523 13 17V5.4705L17.2188 9.694C17.6264 10.102 18.2872 10.102 18.6948 9.694C19.1024 9.286 19.1024 8.6244 18.6948 8.2164L12.7909 2.30602C12.5804 2.09522 12.3022 1.99332 12.0263 2.00034C12.0176 2.00011 12.0088 2 12 2C11.9849 2 11.9698 2.00034 11.9548 2.001C11.6855 1.99926 11.4156 2.10126 11.21 2.307L5.30617 8.2174C4.8986 8.6254 4.8986 9.2869 5.30617 9.695C5.71375 10.103 6.37457 10.103 6.78215 9.695ZM2 14C2 12.8954 2.89543 12 4 12H9V14H5C4.44772 14 4 14.4477 4 15V19C4 19.5523 4.44772 20 5 20H19C19.5523 20 20 19.5523 20 19V15C20 14.4477 19.5523 14 19 14H15V12H20C21.1046 12 22 12.8954 22 14V20C22 21.1046 21.1046 22 20 22H4C2.89543 22 2 21.1046 2 20V14Z" fill="black"/>
</svg>
