<svg width="24" height="24" viewBox="0 0 24 24" fill="none" xmlns="http://www.w3.org/2000/svg">
<path fill-rule="evenodd" clip-rule="evenodd" d="M6.34315 6.34315C7.84344 4.84285 9.87827 4 12 4C14.1217 4 16.1566 4.84285 17.6569 6.34315C19.1571 7.84344 20 9.87827 20 12C20 14.1217 19.1571 16.1566 17.6569 17.6569C16.1566 19.1571 14.1217 20 12 20C9.87827 20 7.84344 19.1571 6.34315 17.6569C4.84285 16.1566 4 14.1217 4 12C4 9.87827 4.84285 7.84344 6.34315 6.34315ZM12 2C6.477 2 2 6.477 2 12C2 17.523 6.477 22 12 22C17.523 22 22 17.523 22 12C22 6.477 17.523 2 12 2ZM10.5607 10.5607C10.842 10.2794 11 9.89782 11 9.5C11 9.10218 10.842 8.72064 10.5607 8.43934C10.2794 8.15804 9.89787 8 9.50004 8C9.10222 8 8.72069 8.15804 8.43938 8.43934C8.15808 8.72064 8.00004 9.10218 8.00004 9.5C8.00004 9.89782 8.15808 10.2794 8.43938 10.5607C8.72069 10.842 9.10222 11 9.50004 11C9.89787 11 10.2794 10.842 10.5607 10.5607ZM15.5607 10.5607C15.842 10.2794 16 9.89782 16 9.5C16 9.10218 15.842 8.72064 15.5607 8.43934C15.2794 8.15804 14.8979 8 14.5 8C14.1022 8 13.7207 8.15804 13.4394 8.43934C13.1581 8.72064 13 9.10218 13 9.5C13 9.89782 13.1581 10.2794 13.4394 10.5607C13.7207 10.842 14.1022 11 14.5 11C14.8979 11 15.2794 10.842 15.5607 10.5607ZM7.78345 13.023C7.65516 13.0514 7.53371 13.1047 7.42604 13.18V13.181C7.31848 13.2564 7.22681 13.3522 7.15629 13.463C7.08576 13.5738 7.03775 13.6974 7.01499 13.8268C6.99224 13.9561 6.9952 14.0887 7.02369 14.2169C7.05218 14.3451 7.10565 14.4665 7.18104 14.574C7.85804 15.541 9.15404 16.744 10.884 17.104C12.708 17.483 14.759 16.874 16.743 14.669C16.834 14.5719 16.9046 14.4577 16.9509 14.3331C16.9971 14.2084 17.018 14.0757 17.0124 13.9429C17.0067 13.81 16.9746 13.6796 16.918 13.5593C16.8613 13.439 16.7812 13.3312 16.6824 13.2422C16.5836 13.1532 16.468 13.0848 16.3424 13.041C16.2168 12.9973 16.0838 12.979 15.9511 12.9873C15.8183 12.9955 15.6886 13.0302 15.5694 13.0892C15.4503 13.1482 15.3441 13.2304 15.257 13.331C13.641 15.126 12.275 15.35 11.291 15.146C10.212 14.922 9.30904 14.125 8.81904 13.427C8.74383 13.3193 8.64812 13.2274 8.53739 13.1567C8.42667 13.086 8.30309 13.0378 8.17373 13.0149C8.04436 12.9919 7.91174 12.9947 7.78345 13.023Z" fill="#006CFF"/>
</svg>
