<svg width="24" height="24" viewBox="0 0 24 24" fill="none" xmlns="http://www.w3.org/2000/svg">
<path fill-rule="evenodd" clip-rule="evenodd" d="M12 22C17.5228 22 22 17.5228 22 12C22 6.47715 17.5228 2 12 2C6.47715 2 2 6.47715 2 12C2 17.5228 6.47715 22 12 22ZM12 20C16.4183 20 20 16.4183 20 12C20 7.58172 16.4183 4 12 4C7.58172 4 4 7.58172 4 12C4 16.4183 7.58172 20 12 20ZM13 8C12.4477 8 12 8.44772 12 9V12H9C8.44771 12 8 12.4477 8 13C8 13.5523 8.44772 14 9 14H13C13.5523 14 14 13.5523 14 13V9C14 8.44772 13.5523 8 13 8Z" fill="black"/>
</svg>
