<svg width="24" height="24" viewBox="0 0 24 24" fill="none" xmlns="http://www.w3.org/2000/svg">
<path fill-rule="evenodd" clip-rule="evenodd" d="M5 16.3185C5 15.0769 5.08724 13.2867 5.39357 12.7892C5.6999 12.2917 8.37046 9.82769 9.23394 7.8211C10.0974 5.81451 10.2463 3 11.6645 3C13.0826 3 13.5471 4.07299 13.3966 6.27715C13.2462 8.48132 12.1925 9.8417 12.9335 10.3785C13.437 10.7433 14.3252 10.1467 16.4795 10.1467C17.418 10.1467 19 10.1467 19 11.4049C19 12.663 18.7229 12.5186 18.5964 13.3727C18.47 14.2267 18.8508 14.6408 18.4302 15.6044C18.0095 16.568 17.4917 16.6862 17.2509 17.3763C17.0102 18.0664 17.0945 18.8083 15.9684 19.8194C14.8422 20.8305 13.0448 21 11.6645 21C10.2842 21 6.18342 20.5376 5.61863 19.2318C5.05383 17.9261 5 17.4502 5 16.3185Z" fill="black"/>
</svg>
