<svg width="17" height="16" viewBox="0 0 17 16" fill="none" xmlns="http://www.w3.org/2000/svg">
<path fill-rule="evenodd" clip-rule="evenodd" d="M11.3 4.86177C11.5611 5.12212 11.5611 5.54423 11.3 5.80458L8.43002 8.66658L9.4902 9.72383L14.3658 4.86177C14.6269 4.60142 15.0502 4.60142 15.3112 4.86177C15.5723 5.12212 15.5723 5.54423 15.3112 5.80458L9.97014 11.1309C9.96777 11.1333 9.96538 11.1357 9.96297 11.1381C9.70189 11.3984 9.27861 11.3984 9.01753 11.1381L7.48459 9.60939L5.96419 11.1256L5.95181 11.1382C5.69073 11.3985 5.26745 11.3985 5.00637 11.1382L2.33228 8.47156C2.0712 8.21121 2.0712 7.7891 2.33228 7.52876C2.59335 7.26841 3.01664 7.26841 3.27771 7.52876L5.47893 9.72388L10.3546 4.86177C10.6156 4.60142 11.0389 4.60142 11.3 4.86177Z" fill="#006CFF"/>
</svg>
