<svg width="24" height="24" viewBox="0 0 24 24" fill="none" xmlns="http://www.w3.org/2000/svg">
<path fill-rule="evenodd" clip-rule="evenodd" d="M4 6C2.89543 6 2 6.89543 2 8V16C2 17.1046 2.89543 18 4 18H12C13.1046 18 14 17.1046 14 16V8C14 6.89543 13.1046 6 12 6H4ZM4 8H12V16H4V8ZM22 7C22 6.63973 21.8062 6.30731 21.4927 6.1298C21.1792 5.95229 20.7944 5.95715 20.4855 6.14251L15.4855 9.14251C15.1843 9.32323 15 9.64874 15 10V14C15 14.3513 15.1843 14.6768 15.4855 14.8575L20.4855 17.8575C20.7944 18.0429 21.1792 18.0477 21.4927 17.8702C21.8062 17.6927 22 17.3603 22 17V7ZM17 13.4338V10.5662L20 8.76619V15.2338L17 13.4338Z" fill="black"/>
</svg>
