<svg width="24" height="24" viewBox="0 0 24 24" fill="none" xmlns="http://www.w3.org/2000/svg">
<path fill-rule="evenodd" clip-rule="evenodd" d="M12.954 7.459C11.6934 7.19579 9.98507 7.06374 7.39542 7.01852L8.70703 5.70692C8.88919 5.51831 8.98998 5.26572 8.9877 5.00351C8.98543 4.74132 8.88026 4.4905 8.69485 4.30509C8.50945 4.11969 8.25863 4.01453 7.99643 4.01224C7.73423 4.00997 7.48163 4.11077 7.29303 4.29292L4.30392 7.28203L4.29843 7.28743L4.29289 7.29289C4.10536 7.48043 4 7.73478 4 8C4 8.26522 4.10536 8.51957 4.29289 8.70711C4.29894 8.71316 4.30506 8.71912 4.31124 8.725L7.29303 11.7068C7.38528 11.8023 7.49562 11.8785 7.61763 11.9309C7.73963 11.9833 7.87085 12.0109 8.00363 12.0121C8.13641 12.0132 8.26809 11.9879 8.39098 11.9376C8.51388 11.8873 8.62553 11.8131 8.71942 11.7192C8.81332 11.6253 8.88758 11.5137 8.93785 11.3908C8.98813 11.2679 9.01343 11.1362 9.01228 11.0034C9.01113 10.8706 8.98354 10.7394 8.93113 10.6174C8.87872 10.4954 8.80254 10.385 8.70703 10.2928L7.43378 9.01954C9.93674 9.06498 11.4715 9.19141 12.546 9.417C13.828 9.683 14.441 10.082 15.37 10.777C16.324 11.614 17.208 12.515 17.868 13.752C18.53 14.994 19 16.64 19 19C19 19.2652 19.1054 19.5196 19.2929 19.7071C19.4804 19.8946 19.7348 20 20 20C20.2652 20 20.5196 19.8946 20.7071 19.7071C20.8946 19.5196 21 19.2652 21 19C21 16.36 20.47 14.38 19.632 12.811C18.798 11.247 17.694 10.153 16.658 9.247C16.6393 9.23062 16.6199 9.21494 16.6 9.2C15.546 8.409 14.658 7.814 12.954 7.459Z" fill="#808080"/>
</svg>
