<svg width="36" height="36" viewBox="0 0 36 36" fill="none" xmlns="http://www.w3.org/2000/svg">
<path fill-rule="evenodd" clip-rule="evenodd" d="M21 9H15L13 11H9C8.44771 11 8 11.4477 8 12V26C8 26.5523 8.44771 27 9 27H27C27.5523 27 28 26.5523 28 26V12C28 11.4477 27.5523 11 27 11H23L21 9ZM13.828 13L15.828 11H20.172L22.172 13H26V25H10V13H13.828ZM18 24C14.9624 24 12.5 21.5376 12.5 18.5C12.5 15.4624 14.9624 13 18 13C21.0376 13 23.5 15.4624 23.5 18.5C23.5 21.5376 21.0376 24 18 24ZM21.5 18.5C21.5 20.433 19.933 22 18 22C16.067 22 14.5 20.433 14.5 18.5C14.5 16.567 16.067 15 18 15C19.933 15 21.5 16.567 21.5 18.5Z" fill="black"/>
</svg>
