<svg width="36" height="36" viewBox="0 0 36 36" fill="none" xmlns="http://www.w3.org/2000/svg">
<path fill-rule="evenodd" clip-rule="evenodd" d="M8.87868 11.8787C8.31607 12.4413 8 13.2044 8 14V22C8 22.7956 8.31607 23.5587 8.87868 24.1213C9.44129 24.6839 10.2044 25 11 25H25C25.7956 25 26.5587 24.6839 27.1213 24.1213C27.6268 23.6158 27.9333 22.9485 27.9903 22.2411C28.0011 22.1938 28.0085 22.1457 28.0123 22.0971C28.019 22.0122 28.0148 21.9271 28 21.8436V14C28 13.2044 27.6839 12.4413 27.1213 11.8787C26.5587 11.3161 25.7956 11 25 11H11C10.2044 11 9.44129 11.3161 8.87868 11.8787ZM26 19.2384V14C26 13.7348 25.8946 13.4804 25.7071 13.2929C25.5196 13.1054 25.2652 13 25 13H11C10.7348 13 10.4804 13.1054 10.2929 13.2929C10.1054 13.4804 10 13.7348 10 14V20.5861L13.293 17.293C13.4632 17.1228 13.6891 17.0197 13.9292 17.0027C14.1693 16.9856 14.4075 17.0557 14.6 17.2L17.825 19.619L21.219 15.375C21.3117 15.2593 21.429 15.1656 21.5623 15.1007C21.6957 15.0359 21.8418 15.0015 21.99 15C22.1383 14.9986 22.285 15.0302 22.4196 15.0925C22.5541 15.1547 22.6732 15.2461 22.768 15.36L26 19.2384ZM10.4954 22.8633C10.6472 22.9521 10.8211 23 11 23H25C25.2652 23 25.5196 22.8946 25.7071 22.7071C25.8209 22.5934 25.9044 22.455 25.9525 22.3046L22.016 17.581L18.781 21.625C18.6187 21.8279 18.3838 21.9596 18.126 21.9923C17.8682 22.025 17.6079 21.956 17.4 21.8L14.094 19.32L10.707 22.707C10.6431 22.7688 10.5719 22.8212 10.4954 22.8633Z" fill="#006CFF"/>
</svg>
