<svg width="24" height="24" viewBox="0 0 24 24" fill="none" xmlns="http://www.w3.org/2000/svg">
<path d="M3.34006 16.9998C2.91733 16.2688 2.58873 15.4873 2.36206 14.6738C3.83887 13.9227 4.42716 12.1166 3.67604 10.6398C3.3885 10.0744 2.92918 9.61477 2.36406 9.32681C2.8161 7.6923 3.67679 6.19976 4.86506 4.98981C6.25415 5.89291 8.11234 5.49894 9.01544 4.10985C9.36139 3.57773 9.52966 2.94961 9.49606 2.31582C11.1382 1.89144 12.8613 1.89213 14.5031 2.31782C14.4161 3.97239 15.6869 5.38417 17.3415 5.47111C17.9752 5.50441 18.6032 5.3359 19.1351 4.98981C19.7141 5.57981 20.2281 6.25081 20.6601 6.99981C21.0931 7.74881 21.4171 8.52981 21.6381 9.32581C20.1612 10.0769 19.573 11.883 20.3241 13.3598C20.6116 13.9252 21.0709 14.3848 21.6361 14.6728C21.184 16.3073 20.3233 17.7999 19.1351 19.0098C17.746 18.1067 15.8878 18.5007 14.9847 19.8898C14.6387 20.4219 14.4705 21.05 14.5041 21.6838C12.8619 22.1082 11.1388 22.1075 9.49706 21.6818C9.58401 20.0272 8.31319 18.6154 6.65862 18.5285C6.02491 18.4952 5.39696 18.6637 4.86506 19.0098C4.27405 18.4067 3.76166 17.7314 3.34006 16.9998ZM9.00006 17.1958C10.0657 17.8104 10.8669 18.7968 11.2501 19.9658C11.7491 20.0128 12.2501 20.0138 12.7491 19.9668C13.1325 18.7977 13.9341 17.8112 15.0001 17.1968C16.0653 16.5805 17.3206 16.3793 18.5251 16.6318C18.8151 16.2238 19.0651 15.7888 19.2731 15.3338C18.4525 14.4172 17.9992 13.23 18.0001 11.9998C18.0001 10.7398 18.4701 9.56281 19.2731 8.66581C19.0636 8.21096 18.8125 7.77645 18.5231 7.36781C17.3193 7.62012 16.0648 7.41929 15.0001 6.80381C13.9344 6.18919 13.1332 5.20279 12.7501 4.03381C12.2511 3.98681 11.7501 3.98581 11.2511 4.03281C10.8677 5.20196 10.0661 6.18837 9.00006 6.80281C7.93484 7.41913 6.67954 7.62033 5.47506 7.36781C5.18563 7.7761 4.93519 8.21068 4.72706 8.66581C5.54763 9.58237 6.00094 10.7696 6.00006 11.9998C6.00006 13.2598 5.53006 14.4368 4.72706 15.3338C4.93653 15.7887 5.1876 16.2232 5.47706 16.6318C6.68078 16.3795 7.93527 16.5803 9.00006 17.1958ZM12.0001 14.9998C10.3432 14.9998 9.00006 13.6567 9.00006 11.9998C9.00006 10.343 10.3432 8.99981 12.0001 8.99981C13.6569 8.99981 15.0001 10.343 15.0001 11.9998C15.0001 13.6567 13.6569 14.9998 12.0001 14.9998ZM12.0001 12.9998C12.5523 12.9998 13.0001 12.5521 13.0001 11.9998C13.0001 11.4475 12.5523 10.9998 12.0001 10.9998C11.4478 10.9998 11.0001 11.4475 11.0001 11.9998C11.0001 12.5521 11.4478 12.9998 12.0001 12.9998Z" fill="black"/>
</svg>
