<svg width="24" height="24" viewBox="0 0 24 24" fill="none" xmlns="http://www.w3.org/2000/svg">
    <path
        d="M7.64051 18.958H9.69715C10.5321 18.958 10.954 18.5273 10.954 17.7012V5.61621C10.954 4.76367 10.5321 4.36816 9.69715 4.35938H7.64051C6.81434 4.35938 6.38368 4.79004 6.38368 5.61621V17.7012C6.37489 18.5273 6.80555 18.958 7.64051 18.958ZM14.2938 18.958H16.3505C17.1766 18.958 17.6073 18.5273 17.6073 17.7012V5.61621C17.6073 4.76367 17.1766 4.35938 16.3505 4.35938H14.2938C13.4589 4.35938 13.037 4.79004 13.037 5.61621V17.7012C13.037 18.5273 13.4589 18.958 14.2938 18.958Z"
        fill="black" />
</svg>
