<svg width="24" height="24" viewBox="0 0 24 24" fill="none" xmlns="http://www.w3.org/2000/svg">
    <path
        d="M8.64258 10.4941C8.64258 12.6035 10.0312 14.0801 12 14.0801C13.9775 14.0801 15.3574 12.6035 15.3574 10.4941V5.01855C15.3574 2.90039 13.9775 1.42383 12 1.42383C10.0312 1.42383 8.64258 2.90039 8.64258 5.01855V10.4941ZM10.3037 10.5205V4.9834C10.3037 3.81445 10.9629 3.01465 12 3.01465C13.0371 3.01465 13.6963 3.81445 13.6963 4.9834V10.5205C13.6963 11.6982 13.0371 12.4893 12 12.4893C10.9629 12.4893 10.3037 11.6982 10.3037 10.5205ZM5.3291 10.8809C5.3291 14.4932 7.72852 16.9717 11.2002 17.3057V19.1074H7.96582C7.51758 19.1074 7.13965 19.4766 7.13965 19.9336C7.13965 20.3818 7.51758 20.751 7.96582 20.751H16.0342C16.4912 20.751 16.8691 20.3818 16.8691 19.9336C16.8691 19.4766 16.4912 19.1074 16.0342 19.1074H12.8086V17.3057C16.2715 16.9717 18.6797 14.4932 18.6797 10.8809V9.14062C18.6797 8.68359 18.3105 8.32324 17.8535 8.32324C17.3965 8.32324 17.0186 8.68359 17.0186 9.14062V10.8193C17.0186 13.8076 14.9971 15.7852 12 15.7852C9.00293 15.7852 6.98145 13.8076 6.98145 10.8193V9.14062C6.98145 8.68359 6.6123 8.32324 6.15527 8.32324C5.69824 8.32324 5.3291 8.68359 5.3291 9.14062V10.8809Z"
        fill="black" />
</svg>
