<svg width="136" height="136" viewBox="0 0 136 136" fill="none" xmlns="http://www.w3.org/2000/svg">
<path fill-rule="evenodd" clip-rule="evenodd" d="M11.3333 45.3333C11.3333 35.9445 18.9444 28.3333 28.3333 28.3333H107.667C117.055 28.3333 124.667 35.9445 124.667 45.3333V90.6667C124.667 100.055 117.055 107.667 107.667 107.667H28.3333C18.9444 107.667 11.3333 100.055 11.3333 90.6667V45.3333ZM28.3333 39.6666C25.2036 39.6666 22.6666 42.2037 22.6666 45.3333V90.6666C22.6666 93.7963 25.2036 96.3333 28.3333 96.3333H107.667C110.796 96.3333 113.333 93.7963 113.333 90.6666V45.3333C113.333 42.2037 110.796 39.6666 107.667 39.6666H28.3333Z" fill="#D6D6D6"/>
<path fill-rule="evenodd" clip-rule="evenodd" d="M90.61 51.0003C92.3115 50.9833 93.9306 51.7318 95.0199 53.039L123.353 87.039C125.357 89.4432 125.032 93.0164 122.628 95.0199C120.223 97.0234 116.65 96.6986 114.647 94.2944L90.7563 65.6258L72.4249 88.5399C70.5129 90.9299 67.0486 91.3698 64.6 89.5333L45.8651 75.4821L26.6736 94.6736C24.4606 96.8866 20.8727 96.8866 18.6597 94.6736C16.4468 92.4606 16.4468 88.8727 18.6597 86.6597L41.3264 63.9931C43.3204 61.999 46.4773 61.7747 48.7333 63.4667L67.0061 77.1713L86.2417 53.1267C87.3047 51.798 88.9085 51.0173 90.61 51.0003Z" fill="#D6D6D6"/>
</svg>
