<svg width="136" height="136" viewBox="0 0 136 136" fill="none" xmlns="http://www.w3.org/2000/svg">
<path fill-rule="evenodd" clip-rule="evenodd" d="M28.3333 28.3335C18.9444 28.3335 11.3333 35.9447 11.3333 45.3335V90.6669C11.3333 100.055 18.9444 107.667 28.3333 107.667H107.667C117.055 107.667 124.667 100.055 124.667 90.6669V45.3335C124.667 35.9447 117.055 28.3335 107.667 28.3335H28.3333ZM22.6666 45.3335C22.6666 42.2039 25.2036 39.6668 28.3333 39.6668H107.667C110.796 39.6668 113.333 42.2039 113.333 45.3335V75.0149L95.0199 53.039C93.9306 51.7318 92.3115 50.9833 90.61 51.0003C88.9085 51.0173 87.3047 51.798 86.2417 53.1267L67.0061 77.1713L48.7333 63.4667C46.4773 61.7747 43.3204 61.999 41.3264 63.9931L22.6666 82.6528V45.3335ZM25.5002 95.5756C26.3336 96.0576 27.3012 96.3335 28.3333 96.3335H107.667C110.193 96.3335 112.334 94.6797 113.064 92.3954L90.7563 65.6258L72.4249 88.5399C70.5129 90.9299 67.0486 91.3698 64.6 89.5333L45.8651 75.4821L26.6736 94.6736C26.3147 95.0325 25.9197 95.3331 25.5002 95.5756Z" fill="#D6D6D6"/>
</svg>
