<svg width="136" height="136" viewBox="0 0 136 136" fill="none" xmlns="http://www.w3.org/2000/svg">
<path fill-rule="evenodd" clip-rule="evenodd" d="M68 28.3333C42.3172 28.3333 22.6666 46.7017 22.6666 68C22.6666 89.2982 42.3172 107.667 68 107.667C71.5184 107.667 74.936 107.316 78.213 106.655C78.8975 106.517 79.6013 106.507 80.2893 106.625L110.112 111.73L104.192 96.428C103.462 94.5387 103.795 92.4029 105.067 90.8265C110.315 84.3194 113.333 76.4456 113.333 68C113.333 46.7017 93.683 28.3333 68 28.3333ZM11.3333 68C11.3333 39.2244 37.3497 17 68 17C98.6504 17 124.667 39.2244 124.667 68C124.667 78.0719 121.423 87.4265 115.899 95.2754L124.285 116.955C125.021 118.858 124.677 121.009 123.386 122.588C122.095 124.167 120.055 124.93 118.044 124.586L79.3922 117.969C75.7072 118.646 71.8969 119 68 119C37.3497 119 11.3333 96.7753 11.3333 68Z" fill="#DBDBDB"/>
</svg>
