<svg width="24" height="24" viewBox="0 0 24 24" fill="none" xmlns="http://www.w3.org/2000/svg">
<path fill-rule="evenodd" clip-rule="evenodd" d="M22.819 12C21.878 6.88 17.392 3 12 3C6.60803 3 2.12103 6.88 1.18103 12C2.12203 17.12 6.60803 21 12 21C17.392 21 21.879 17.12 22.819 12V12ZM20.777 12C20.3229 13.9883 19.2074 15.7635 17.6129 17.0352C16.0184 18.3068 14.0395 18.9996 12 19C9.96056 18.9996 7.98164 18.3068 6.38717 17.0352C4.7927 15.7635 3.67713 13.9883 3.22303 12C3.6788 10.0133 4.79509 8.24 6.38941 6.97003C7.98372 5.70005 9.96173 5.00853 12 5.00853C14.0383 5.00853 16.0163 5.70005 17.6107 6.97003C19.205 8.24 20.3213 10.0133 20.777 12V12ZM12 16.5C11.3076 16.4997 10.6246 16.3397 10.0041 16.0323C9.38361 15.7249 8.84244 15.2785 8.4227 14.7278C8.00297 14.177 7.71598 13.5369 7.58409 12.8571C7.4522 12.1774 7.47896 11.4763 7.66229 10.8086C7.84561 10.1409 8.18056 9.52446 8.64106 9.00734C9.10156 8.49021 9.67518 8.08634 10.3173 7.82715C10.9594 7.56795 11.6526 7.46044 12.3431 7.51297C13.0335 7.5655 13.7025 7.77665 14.298 8.13C13.7637 7.95036 13.1843 7.95658 12.654 8.14766C12.1236 8.33874 11.6734 8.70345 11.3764 9.18261C11.0794 9.66176 10.9531 10.2272 11.018 10.7872C11.0828 11.3472 11.335 11.8688 11.7336 12.2674C12.1322 12.666 12.6538 12.9182 13.2138 12.9831C13.7738 13.0479 14.3393 12.9216 14.8184 12.6246C15.2976 12.3276 15.6623 11.8774 15.8534 11.3471C16.0444 10.8167 16.0507 10.2373 15.871 9.703C16.2767 10.3863 16.4941 11.1649 16.5012 11.9595C16.5084 12.7541 16.305 13.5365 15.9117 14.227C15.5185 14.9175 14.9494 15.4916 14.2623 15.8908C13.5752 16.2901 12.7947 16.5002 12 16.5ZM15.87 9.702C15.7465 9.33673 15.5405 9.00487 15.2678 8.73222C14.9952 8.45958 14.6633 8.25349 14.298 8.13C14.9447 8.51506 15.485 9.05538 15.87 9.702Z" fill="black"/>
</svg>
