<svg width="34" height="40" viewBox="0 0 34 40" fill="none" xmlns="http://www.w3.org/2000/svg">
<path d="M0 3C0 2.20435 0.31607 1.44129 0.87868 0.87868C1.44129 0.31607 2.20435 0 3 0H23.333L33.333 10V37C33.333 37.7956 33.0169 38.5587 32.4543 39.1213C31.8917 39.6839 31.1286 40 30.333 40H3C2.20435 40 1.44129 39.6839 0.87868 39.1213C0.31607 38.5587 0 37.7956 0 37V3Z" fill="#F5F5F5"/>
<path d="M0 28H33.333V37C33.333 37.7956 33.0169 38.5587 32.4543 39.1213C31.8917 39.6839 31.1286 40 30.333 40H3C2.20435 40 1.44129 39.6839 0.87868 39.1213C0.31607 38.5587 0 37.7956 0 37V28Z" fill="#A8A8A8"/>
<path d="M25.8648 9.9901C25.207 9.9901 24.5762 9.72882 24.1111 9.26373C23.646 8.79864 23.3848 8.16784 23.3848 7.5101V0.0581055L33.3308 9.9901H25.8648Z" fill="#DBDBDB"/>
<path fill-rule="evenodd" clip-rule="evenodd" d="M8 0.207C8 0.093 8.093 0 8.207 0H9.447C9.561 0 9.653 0.093 9.653 0.207V1.447C9.65274 1.50155 9.63095 1.5538 9.59237 1.59237C9.5538 1.63095 9.50155 1.65274 9.447 1.653H8.207C8.15227 1.653 8.09977 1.63133 8.06098 1.59273C8.02219 1.55412 8.00026 1.50173 8 1.447V0.207ZM8 14.88C8 14.423 8.37 14.053 8.827 14.053H10.48C10.937 14.053 11.307 14.423 11.307 14.88V19.84C11.307 20.297 10.937 20.667 10.48 20.667H8.827C8.7184 20.667 8.61086 20.6456 8.51052 20.604C8.41018 20.5625 8.31902 20.5016 8.24222 20.4248C8.16543 20.348 8.10451 20.2568 8.06295 20.1565C8.02139 20.0561 8 19.9486 8 19.84V14.88ZM8.827 17.36V19.84H10.48V17.36H8.827ZM9.86 1.653C9.8051 1.653 9.75245 1.67481 9.71363 1.71363C9.67481 1.75245 9.653 1.8051 9.653 1.86V3.1C9.653 3.214 9.746 3.307 9.86 3.307H11.1C11.1549 3.307 11.2076 3.28519 11.2464 3.24637C11.2852 3.20755 11.307 3.1549 11.307 3.1V1.86C11.307 1.8051 11.2852 1.75245 11.2464 1.71363C11.2076 1.67481 11.1549 1.653 11.1 1.653H9.86ZM8.207 3.307C8.15227 3.307 8.09977 3.32867 8.06098 3.36727C8.02219 3.40588 8.00026 3.45827 8 3.513V4.753C8 4.867 8.093 4.96 8.207 4.96H9.447C9.50173 4.95974 9.55412 4.93781 9.59272 4.89902C9.63133 4.86023 9.653 4.80773 9.653 4.753V3.513C9.65274 3.45845 9.63095 3.4062 9.59237 3.36763C9.5538 3.32905 9.50155 3.30726 9.447 3.307H8.207ZM9.86 4.96C9.8051 4.96 9.75245 4.98181 9.71363 5.02063C9.67481 5.05945 9.653 5.1121 9.653 5.167V6.407C9.653 6.521 9.746 6.613 9.86 6.613H11.1C11.1547 6.613 11.2072 6.59133 11.246 6.55273C11.2848 6.51412 11.3067 6.46173 11.307 6.407V5.167C11.307 5.1121 11.2852 5.05945 11.2464 5.02063C11.2076 4.98181 11.1549 4.96 11.1 4.96H9.86ZM8.207 6.613C8.17982 6.613 8.1529 6.61835 8.12778 6.62876C8.10267 6.63916 8.07985 6.65441 8.06063 6.67363C8.04141 6.69285 8.02616 6.71567 8.01576 6.74078C8.00535 6.7659 8 6.79282 8 6.82V8.06C8 8.174 8.093 8.267 8.207 8.267H9.447C9.50173 8.26674 9.55412 8.24481 9.59272 8.20602C9.63133 8.16723 9.653 8.11473 9.653 8.06V6.82C9.653 6.76527 9.63133 6.71277 9.59272 6.67398C9.55412 6.63519 9.50173 6.61326 9.447 6.613H8.207ZM9.86 8.267C9.80527 8.267 9.75277 8.28867 9.71398 8.32728C9.67519 8.36588 9.65326 8.41827 9.653 8.473V9.713C9.653 9.827 9.746 9.92 9.86 9.92H11.1C11.1549 9.92 11.2076 9.89819 11.2464 9.85937C11.2852 9.82055 11.307 9.7679 11.307 9.713V8.473C11.3067 8.41827 11.2848 8.36588 11.246 8.32728C11.2072 8.28867 11.1547 8.267 11.1 8.267H9.86ZM8.207 9.92C8.17982 9.92 8.1529 9.92535 8.12778 9.93576C8.10267 9.94616 8.07985 9.96141 8.06063 9.98063C8.04141 9.99985 8.02616 10.0227 8.01576 10.0478C8.00535 10.0729 8 10.0998 8 10.127V11.367C8 11.481 8.093 11.573 8.207 11.573H9.447C9.50155 11.5727 9.5538 11.5509 9.59237 11.5124C9.63095 11.4738 9.65274 11.4216 9.653 11.367V10.127C9.653 10.0723 9.63133 10.0198 9.59272 9.98098C9.55412 9.94219 9.50173 9.92026 9.447 9.92H8.207ZM9.86 11.573C9.83282 11.573 9.8059 11.5784 9.78078 11.5888C9.75567 11.5992 9.73285 11.6144 9.71363 11.6336C9.69441 11.6529 9.67916 11.6757 9.66876 11.7008C9.65835 11.7259 9.653 11.7528 9.653 11.78V13.02C9.653 13.134 9.746 13.227 9.86 13.227H11.1C11.1549 13.227 11.2076 13.2052 11.2464 13.1664C11.2852 13.1276 11.307 13.0749 11.307 13.02V11.78C11.307 11.7528 11.3016 11.7259 11.2912 11.7008C11.2808 11.6757 11.2656 11.6529 11.2464 11.6336C11.2271 11.6144 11.2043 11.5992 11.1792 11.5888C11.1541 11.5784 11.1272 11.573 11.1 11.573H9.86Z" fill="#CFCFCF"/>
<path fill-rule="evenodd" clip-rule="evenodd" d="M16.3192 34.9572C16.3192 34.6702 16.5431 34.5582 16.8092 34.4952C16.8985 34.4711 16.9937 34.4527 17.0869 34.4348C17.264 34.4007 17.4341 34.368 17.5442 34.2992C17.5722 35.0482 17.3832 35.3702 16.8162 35.3702C16.5501 35.3702 16.3192 35.2512 16.3192 34.9572ZM16.3892 33.4872C16.4452 33.1792 16.6551 33.0322 16.9841 33.0322C17.2292 33.0322 17.5582 33.1372 17.5582 33.4102C17.5582 33.6342 17.4461 33.7042 17.2432 33.7462C17.0933 33.7767 16.9282 33.7986 16.7583 33.8212H16.7583C15.9921 33.9231 15.1292 34.0379 15.1292 35.0062C15.1292 35.7552 15.6752 36.1052 16.3682 36.1052C16.8022 36.1052 17.2572 35.9792 17.5652 35.6572C17.5792 35.7762 17.5932 35.8882 17.6352 36.0002H18.8321C18.6922 35.7132 18.6922 35.3772 18.6922 35.0692V33.4802C18.6922 32.4512 17.8591 32.2622 16.9981 32.2622C16.5851 32.2622 16.1651 32.3322 15.8432 32.5142C15.5212 32.7032 15.2972 33.0112 15.2762 33.4872H16.3892ZM12.3867 35.9999H13.5767V34.2009C13.5767 33.7459 13.8847 33.3399 14.4727 33.3399C14.6337 33.3399 14.7737 33.3679 14.9277 33.4099V32.3249C14.8367 32.3039 14.7387 32.2969 14.6477 32.2969C14.1367 32.2969 13.7307 32.5419 13.5557 33.0039H13.5417V32.3669H12.3867V35.9999ZM20.7066 35.9999H19.5166V32.3669H20.6716V33.0039H20.6856C20.8606 32.5419 21.2666 32.2969 21.7776 32.2969C21.8686 32.2969 21.9666 32.3039 22.0576 32.3249V33.4099C21.9036 33.3679 21.7636 33.3399 21.6026 33.3399C21.0146 33.3399 20.7066 33.7459 20.7066 34.2009V35.9999Z" fill="white"/>
</svg>
