<svg width="34" height="40" viewBox="0 0 34 40" fill="none" xmlns="http://www.w3.org/2000/svg">
<path fill-rule="evenodd" clip-rule="evenodd" d="M0 3C0 2.20435 0.31607 1.44129 0.87868 0.87868C1.44129 0.31607 2.20435 0 3 0H23.333L33.333 10V37C33.333 37.7956 33.0169 38.5587 32.4543 39.1213C31.8917 39.6839 31.1286 40 30.333 40H3C2.20435 40 1.44129 39.6839 0.87868 39.1213C0.31607 38.5587 0 37.7956 0 37V3Z" fill="url(#paint0_linear)"/>
<path d="M25.8648 9.9901C25.207 9.9901 24.5762 9.72882 24.1111 9.26373C23.646 8.79864 23.3848 8.16784 23.3848 7.5101V0.0581055L33.3308 9.9901H25.8648Z" fill="#AB381D"/>
<path fill-rule="evenodd" clip-rule="evenodd" d="M9.667 10.667H19.667C20.583 10.667 21.333 11.417 21.333 12.333V19C21.333 19.917 20.583 20.667 19.667 20.667H9.667C8.75 20.667 8 19.917 8 19V12.333C8 11.417 8.75 10.667 9.667 10.667ZM23 14H24.667V22.333C24.667 23.25 23.917 24 23 24H11.333V22.333H23V14ZM19.667 19H9.667V12.333H19.667V19Z" fill="white" fill-opacity="0.4"/>
<path fill-rule="evenodd" clip-rule="evenodd" d="M21.2744 32.6171H22.0094V33.3871H21.2744V35.0391C21.2744 35.3261 21.4424 35.3891 21.7014 35.3891C21.7496 35.3891 21.7994 35.3857 21.8501 35.3823C21.9026 35.3787 21.956 35.3751 22.0094 35.3751V36.2501C21.9164 36.2531 21.8234 36.2599 21.7304 36.2668C21.6064 36.2759 21.4824 36.2851 21.3584 36.2851C20.3434 36.2851 20.0844 35.9911 20.0844 35.0041V33.3871H19.4824V32.6171H20.0844V31.5181H21.2744V32.6171ZM12.876 33.4222C13.401 33.4222 13.583 33.9332 13.583 34.3952C13.583 34.8922 13.401 35.4452 12.869 35.4452C12.33 35.4452 12.148 35.0322 12.148 34.3952C12.148 33.6462 12.554 33.4222 12.876 33.4222ZM11 37.4682H12.19V35.8582H12.204C12.449 36.1872 12.792 36.3552 13.24 36.3552C14.269 36.3552 14.773 35.4592 14.773 34.5142C14.773 33.4922 14.29 32.5122 13.149 32.5122C12.729 32.5122 12.379 32.6942 12.148 33.0372H12.134V32.6172H11V37.4682ZM17.2852 33.4222C17.8102 33.4222 17.9922 33.9332 17.9922 34.3952C17.9922 34.8922 17.8102 35.4452 17.2782 35.4452C16.7392 35.4452 16.5572 35.0322 16.5572 34.3952C16.5572 33.6462 16.9632 33.4222 17.2852 33.4222ZM15.4092 37.4682H16.5992V35.8582H16.6132C16.8582 36.1872 17.2012 36.3552 17.6492 36.3552C18.6782 36.3552 19.1822 35.4592 19.1822 34.5142C19.1822 33.4922 18.6992 32.5122 17.5582 32.5122C17.1382 32.5122 16.7882 32.6942 16.5572 33.0372H16.5432V32.6172H15.4092V37.4682Z" fill="white"/>
<defs>
<linearGradient id="paint0_linear" x1="0" y1="0" x2="0" y2="40" gradientUnits="userSpaceOnUse">
<stop stop-color="#DC7259"/>
<stop offset="1" stop-color="#D14423"/>
</linearGradient>
</defs>
</svg>
