<svg width="34" height="40" viewBox="0 0 34 40" fill="none" xmlns="http://www.w3.org/2000/svg">
<path fill-rule="evenodd" clip-rule="evenodd" d="M0 3.99C0 2.93179 0.420374 1.91691 1.16864 1.16864C1.91691 0.420374 2.93179 0 3.99 0H23.275L33.25 9.975V35.91C33.25 36.9682 32.8296 37.9831 32.0814 38.7314C31.3331 39.4796 30.3182 39.9 29.26 39.9H3.99C2.93179 39.9 1.91691 39.4796 1.16864 38.7314C0.420374 37.9831 0 36.9682 0 35.91V3.99Z" fill="url(#paint0_linear)"/>
<path d="M26.6242 9.9651C26.191 9.9651 25.762 9.87976 25.3619 9.71396C24.9617 9.54816 24.598 9.30514 24.2918 8.99879C23.9855 8.69244 23.7426 8.32875 23.5769 7.9285C23.4112 7.52825 23.326 7.09929 23.3262 6.6661V0.0581055L33.2462 9.9651H26.6242Z" fill="#254A80"/>
<path d="M13.1624 34.3299C13.1624 34.4889 13.1474 34.6419 13.1174 34.7899C13.0874 34.9389 13.0374 35.0729 12.9694 35.1909C12.9001 35.3049 12.8031 35.3995 12.6874 35.4659C12.5564 35.5395 12.4076 35.5755 12.2574 35.5699C12.1093 35.5739 11.9628 35.538 11.8334 35.4659C11.7193 35.3917 11.6208 35.2959 11.5434 35.1839C11.4673 35.0605 11.4122 34.9253 11.3804 34.7839C11.346 34.6377 11.3285 34.4881 11.3284 34.3379C11.3284 34.1789 11.3434 34.0279 11.3734 33.8849C11.4084 33.7369 11.4604 33.6049 11.5294 33.4919C11.6029 33.3786 11.7023 33.2843 11.8194 33.2169C11.9532 33.144 12.1041 33.1081 12.2564 33.1129C12.4294 33.1129 12.5734 33.1479 12.6864 33.2169C12.799 33.2849 12.8934 33.3793 12.9614 33.4919C13.0354 33.6009 13.0874 33.7289 13.1174 33.8779C13.1474 34.0209 13.1614 34.1719 13.1614 34.3299H13.1624ZM13.1764 35.7699V36.2599H14.1784V30.9609H13.1244V32.8909H13.1104C12.993 32.7041 12.8223 32.5568 12.6204 32.4679C12.4194 32.3691 12.1983 32.3181 11.9744 32.3189C11.729 32.315 11.486 32.3679 11.2644 32.4735C11.0429 32.5792 10.8488 32.7347 10.6974 32.9279C10.5547 33.1202 10.447 33.3362 10.3794 33.5659C10.3094 33.8029 10.2754 34.0509 10.2754 34.3079C10.2754 34.5749 10.3094 34.8329 10.3794 35.0799C10.4534 35.3269 10.5594 35.5479 10.6984 35.7399C10.8414 35.9279 11.0224 36.0799 11.2394 36.1929C11.4574 36.3029 11.7094 36.3559 11.9964 36.3559C12.2494 36.3559 12.4744 36.3119 12.6724 36.2229C12.8754 36.1289 13.0384 35.9779 13.1624 35.7699H13.1764ZM15.9104 34.3449C15.9104 34.1919 15.9254 34.0409 15.9544 33.8929C15.9844 33.7439 16.0344 33.6129 16.1034 33.4989C16.1771 33.386 16.2765 33.2921 16.3934 33.2249C16.5282 33.1463 16.6825 33.1075 16.8384 33.1129C17.0164 33.1129 17.1644 33.1499 17.2834 33.2249C17.4064 33.2939 17.5034 33.3849 17.5734 33.4989C17.6464 33.6129 17.6984 33.7439 17.7284 33.8929C17.7883 34.1916 17.7883 34.4992 17.7284 34.7979C17.7003 34.9372 17.6474 35.0703 17.5724 35.1909C17.5015 35.3064 17.4015 35.4012 17.2824 35.4659C17.1463 35.5394 16.993 35.5753 16.8384 35.5699C16.6831 35.5756 16.5291 35.5397 16.3924 35.4659C16.2754 35.3984 16.176 35.3042 16.1024 35.1909C16.032 35.0688 15.982 34.9361 15.9544 34.7979C15.9244 34.6499 15.9104 34.4979 15.9104 34.3449ZM14.8564 34.3449C14.8564 34.6519 14.9034 34.9289 14.9974 35.1759C15.0914 35.4239 15.2254 35.6359 15.3974 35.8149C15.5714 35.9879 15.7794 36.1209 16.0214 36.2149C16.2644 36.3089 16.5364 36.3559 16.8384 36.3559C17.1394 36.3559 17.4114 36.3089 17.6544 36.2159C17.9014 36.1209 18.1124 35.9879 18.2844 35.8149C18.4611 35.632 18.598 35.4144 18.6864 35.1759C18.7794 34.9289 18.8264 34.6519 18.8264 34.3459C18.8264 34.0389 18.7794 33.7619 18.6864 33.5139C18.6005 33.2747 18.4637 33.057 18.2854 32.8759C18.1078 32.695 17.8923 32.5556 17.6544 32.4679C17.3947 32.3655 17.1175 32.3149 16.8384 32.3189C16.5364 32.3189 16.2644 32.3689 16.0214 32.4679C15.7854 32.5582 15.5718 32.6984 15.3951 32.879C15.2183 33.0595 15.0827 33.2761 14.9974 33.5139C14.9005 33.7801 14.853 34.0617 14.8574 34.3449H14.8564ZM22.1244 33.7739H23.1564C23.1503 33.5591 23.0942 33.3488 22.9924 33.1595C22.8907 32.9703 22.7462 32.8074 22.5704 32.6839C22.4013 32.5568 22.2095 32.4632 22.0054 32.4079C21.7929 32.3479 21.5731 32.3179 21.3524 32.3189C21.0414 32.3189 20.7634 32.3709 20.5214 32.4749C20.2794 32.5789 20.0734 32.7249 19.9054 32.9129C19.7325 33.1039 19.6011 33.3286 19.5194 33.5729C19.4332 33.839 19.3906 34.1172 19.3934 34.3969C19.3934 34.6839 19.4404 34.9489 19.5344 35.1909C19.6284 35.4289 19.7594 35.6339 19.9274 35.8069C20.0964 35.9799 20.2984 36.1169 20.5364 36.2149C20.7784 36.3089 21.0434 36.3559 21.3304 36.3559C21.8404 36.3559 22.2584 36.2229 22.5844 35.9559C22.9114 35.6889 23.1094 35.2999 23.1784 34.7909H22.1604C22.1367 35.0041 22.0457 35.2041 21.9004 35.3619C21.7674 35.5009 21.5744 35.5699 21.3224 35.5699C21.1758 35.5746 21.0311 35.536 20.9064 35.4589C20.7945 35.3866 20.7004 35.2899 20.6314 35.1759C20.5658 35.0524 20.5186 34.92 20.4914 34.7829C20.4325 34.5016 20.4325 34.2112 20.4914 33.9299C20.5204 33.7809 20.5694 33.6479 20.6394 33.5289C20.7093 33.4096 20.8058 33.3079 20.9214 33.2319C21.0466 33.1493 21.1945 33.1077 21.3444 33.1129C21.7944 33.1129 22.0544 33.3329 22.1234 33.7729L22.1244 33.7739Z" fill="white"/>
<path fill-rule="evenodd" clip-rule="evenodd" d="M7.98047 14.1312V12.4702H22.9425V14.1322H7.98047V14.1312ZM17.9555 15.7942H7.98047V17.4562H17.9555V15.7942ZM7.98047 20.7802H22.9425V19.1202H7.98047V20.7822V20.7802Z" fill="white" fill-opacity="0.4"/>
<defs>
<linearGradient id="paint0_linear" x1="0" y1="0" x2="0" y2="39.9" gradientUnits="userSpaceOnUse">
<stop stop-color="#5E7FB0"/>
<stop offset="1" stop-color="#2C5898"/>
</linearGradient>
</defs>
</svg>
