<svg width="34" height="40" viewBox="0 0 34 40" fill="none" xmlns="http://www.w3.org/2000/svg">
<path fill-rule="evenodd" clip-rule="evenodd" d="M0 3C0 2.20435 0.31607 1.44129 0.87868 0.87868C1.44129 0.31607 2.20435 0 3 0H23.333L33.333 10V37C33.333 37.7956 33.0169 38.5587 32.4543 39.1213C31.8917 39.6839 31.1286 40 30.333 40H3C2.20435 40 1.44129 39.6839 0.87868 39.1213C0.31607 38.5587 0 37.7956 0 37V3Z" fill="url(#paint0_linear)"/>
<path d="M25.8648 9.9901C25.207 9.9901 24.5762 9.72882 24.1111 9.26373C23.646 8.79864 23.3848 8.16784 23.3848 7.5101V0.0581055L33.3308 9.9901H25.8648Z" fill="#AB381D"/>
<path fill-rule="evenodd" clip-rule="evenodd" d="M9.667 10.667H19.667C20.583 10.667 21.333 11.417 21.333 12.333V19C21.333 19.917 20.583 20.667 19.667 20.667H9.667C8.75 20.667 8 19.917 8 19V12.333C8 11.417 8.75 10.667 9.667 10.667ZM23 14H24.667V22.333C24.667 23.25 23.917 24 23 24H11.333V22.333H23V14ZM19.667 19H9.667V12.333H19.667V19Z" fill="white" fill-opacity="0.4"/>
<path fill-rule="evenodd" clip-rule="evenodd" d="M20.7594 32.6171H20.0244V31.5181H18.8344V32.6171H18.2324V33.3871H18.8344V35.0041C18.8344 35.9911 19.0934 36.2851 20.1084 36.2851C20.2324 36.2851 20.3564 36.2759 20.4804 36.2668C20.5734 36.2599 20.6664 36.2531 20.7594 36.2501V35.3751C20.706 35.3751 20.6526 35.3787 20.6001 35.3823H20.6001C20.5494 35.3857 20.4996 35.3891 20.4514 35.3891C20.1924 35.3891 20.0244 35.3261 20.0244 35.0391V33.3871H20.7594V32.6171ZM12.333 34.3952C12.333 33.9332 12.151 33.4222 11.626 33.4222C11.304 33.4222 10.898 33.6462 10.898 34.3952C10.898 35.0322 11.08 35.4452 11.619 35.4452C12.151 35.4452 12.333 34.8922 12.333 34.3952ZM10.94 37.4682H9.75V32.6172H10.884V33.0372H10.898C11.129 32.6942 11.479 32.5122 11.899 32.5122C13.04 32.5122 13.523 33.4922 13.523 34.5142C13.523 35.4592 13.019 36.3552 11.99 36.3552C11.542 36.3552 11.199 36.1872 10.954 35.8582H10.94V37.4682ZM16.7422 34.3952C16.7422 33.9332 16.5602 33.4222 16.0352 33.4222C15.7132 33.4222 15.3072 33.6462 15.3072 34.3952C15.3072 35.0322 15.4892 35.4452 16.0282 35.4452C16.5602 35.4452 16.7422 34.8922 16.7422 34.3952ZM15.3492 37.4682H14.1592V32.6172H15.2932V33.0372H15.3072C15.5382 32.6942 15.8882 32.5122 16.3082 32.5122C17.4492 32.5122 17.9322 33.4922 17.9322 34.5142C17.9322 35.4592 17.4282 36.3552 16.3992 36.3552C15.9512 36.3552 15.6082 36.1872 15.3632 35.8582H15.3492V37.4682ZM22.1571 36.2502H20.8411L22.1011 34.3462L20.9461 32.6172H22.2621L22.7731 33.4852L23.2841 32.6172H24.5441L23.4101 34.3252L24.6981 36.2502H23.3821L22.7521 35.2002L22.1571 36.2502Z" fill="white"/>
<defs>
<linearGradient id="paint0_linear" x1="0" y1="0" x2="0" y2="40" gradientUnits="userSpaceOnUse">
<stop stop-color="#DC7259"/>
<stop offset="1" stop-color="#D14423"/>
</linearGradient>
</defs>
</svg>
