<svg width="34" height="40" viewBox="0 0 34 40" fill="none" xmlns="http://www.w3.org/2000/svg">
<path fill-rule="evenodd" clip-rule="evenodd" d="M0 3C0 2.20435 0.31607 1.44129 0.87868 0.87868C1.44129 0.31607 2.20435 0 3 0L23.333 0L33.333 10V37C33.333 37.7956 33.0169 38.5587 32.4543 39.1213C31.8917 39.6839 31.1286 40 30.333 40H3C2.20435 40 1.44129 39.6839 0.87868 39.1213C0.31607 38.5587 0 37.7956 0 37L0 3Z" fill="url(#paint0_linear)"/>
<path d="M25.864 9.99011C25.2063 9.99011 24.5755 9.72882 24.1104 9.26373C23.6453 8.79864 23.384 8.16784 23.384 7.51011V0.0581055L33.33 9.99011H25.864V9.99011Z" fill="#AB381D"/>
<path d="M14.112 35.8408C14.0056 35.8437 13.9002 35.8197 13.8056 35.7709C13.7111 35.7221 13.6303 35.6502 13.571 35.5618C13.5166 35.4703 13.4771 35.3707 13.454 35.2668C13.4079 35.0402 13.4079 34.8065 13.454 34.5798C13.4735 34.4758 13.511 34.3759 13.565 34.2848C13.6215 34.193 13.7013 34.1178 13.7964 34.0668C13.8914 34.0159 13.9982 33.991 14.106 33.9948C14.2133 33.994 14.3189 34.0207 14.4128 34.0726C14.5067 34.1244 14.5856 34.1996 14.642 34.2908C14.6998 34.3807 14.7399 34.4809 14.76 34.5858C14.786 34.6968 14.799 34.8108 14.799 34.9258C14.799 35.0418 14.788 35.1548 14.765 35.2658C14.7453 35.3711 14.7056 35.4716 14.648 35.5618C14.5907 35.6511 14.5111 35.7238 14.4171 35.7729C14.3232 35.822 14.218 35.8458 14.112 35.8418V35.8408ZM12.656 33.4748V37.3698H13.448V36.0028H13.459C13.556 36.1448 13.679 36.2528 13.828 36.3268C13.98 36.3968 14.146 36.4328 14.324 36.4328C14.5068 36.4391 14.6885 36.4013 14.8537 36.3226C15.0188 36.244 15.1626 36.1267 15.273 35.9808C15.381 35.8428 15.461 35.6848 15.513 35.5068C15.6157 35.1324 15.6157 34.7373 15.513 34.3628C15.4659 34.1832 15.3844 34.0144 15.273 33.8658C15.1642 33.7238 15.0252 33.6076 14.866 33.5258C14.684 33.4359 14.4829 33.3916 14.28 33.3968C14.1105 33.3949 13.9426 33.4311 13.789 33.5028C13.6354 33.5776 13.507 33.6958 13.42 33.8428H13.41V33.4748H12.656V33.4748ZM17.523 35.8408C17.4168 35.8436 17.3116 35.8194 17.2172 35.7706C17.1228 35.7219 17.0422 35.65 16.983 35.5618C16.9283 35.4704 16.8884 35.3708 16.865 35.2668C16.8189 35.0402 16.8189 34.8065 16.865 34.5798C16.8848 34.4757 16.9227 34.3759 16.977 34.2848C17.0335 34.193 17.1133 34.1178 17.2084 34.0668C17.3034 34.0159 17.4102 33.991 17.518 33.9948C17.6253 33.994 17.7309 34.0207 17.8248 34.0726C17.9187 34.1244 17.9976 34.1996 18.054 34.2908C18.1115 34.3808 18.1512 34.4809 18.171 34.5858C18.197 34.6968 18.21 34.8108 18.21 34.9258C18.21 35.0418 18.199 35.1548 18.176 35.2658C18.1563 35.3711 18.1166 35.4716 18.059 35.5618C18.0017 35.6511 17.9221 35.7238 17.8281 35.7729C17.7342 35.822 17.629 35.8458 17.523 35.8418V35.8408ZM16.067 33.4748V37.3698H16.86V36.0028H16.87C16.967 36.1448 17.09 36.2528 17.239 36.3268C17.391 36.3968 17.557 36.4328 17.735 36.4328C17.9178 36.4391 18.0995 36.4013 18.2647 36.3226C18.4298 36.244 18.5736 36.1267 18.684 35.9808C18.792 35.8428 18.872 35.6848 18.924 35.5068C19.0267 35.1324 19.0267 34.7373 18.924 34.3628C18.8769 34.1832 18.7954 34.0144 18.684 33.8658C18.5752 33.7238 18.4362 33.6076 18.277 33.5258C18.095 33.4359 17.8939 33.3916 17.691 33.3968C17.5215 33.3949 17.3536 33.4311 17.2 33.5028C17.0467 33.5777 16.9188 33.6959 16.832 33.8428H16.82V33.4748H16.067V33.4748ZM20.483 33.4748V32.6108H19.69V33.4748H19.21V34.0048H19.69V35.7068C19.69 35.8518 19.715 35.9698 19.763 36.0588C19.811 36.1488 19.876 36.2168 19.958 36.2648C20.044 36.3138 20.141 36.3448 20.248 36.3598C20.36 36.3788 20.478 36.3878 20.6 36.3878C20.678 36.3878 20.758 36.3858 20.84 36.3828C20.922 36.3788 20.996 36.3708 21.063 36.3598V35.7458C20.9824 35.7625 20.9003 35.7702 20.818 35.7688C20.684 35.7688 20.594 35.7458 20.55 35.7018C20.505 35.6568 20.483 35.5678 20.483 35.4338V34.0058H21.063V33.4758H20.483V33.4748Z" fill="white"/>
<path fill-rule="evenodd" clip-rule="evenodd" d="M9.667 10.667H19.667C20.583 10.667 21.333 11.417 21.333 12.333V19C21.333 19.917 20.583 20.667 19.667 20.667H9.667C8.75 20.667 8 19.917 8 19V12.333C8 11.417 8.75 10.667 9.667 10.667ZM23 14H24.667V22.333C24.667 23.25 23.917 24 23 24H11.333V22.333H23V14ZM19.667 19H9.667V12.333H19.667V19Z" fill="white" fill-opacity="0.4"/>
<defs>
<linearGradient id="paint0_linear" x1="0" y1="0" x2="0" y2="40" gradientUnits="userSpaceOnUse">
<stop stop-color="#DC7259"/>
<stop offset="1" stop-color="#D14423"/>
</linearGradient>
</defs>
</svg>
