<svg width="34" height="40" viewBox="0 0 34 40" fill="none" xmlns="http://www.w3.org/2000/svg">
<path d="M0 4C0 2.93913 0.421427 1.92172 1.17157 1.17157C1.92172 0.421427 2.93913 0 4 0H23.333L33.333 10V36C33.333 37.0609 32.9116 38.0783 32.1614 38.8284C31.4113 39.5786 30.3939 40 29.333 40H4C2.93913 40 1.92172 39.5786 1.17157 38.8284C0.421427 38.0783 0 37.0609 0 36V4Z" fill="#F5F5F5"/>
<path d="M0 28H33.333V36C33.333 37.0609 32.9116 38.0783 32.1614 38.8284C31.4113 39.5786 30.3939 40 29.333 40H4C2.93913 40 1.92172 39.5786 1.17157 38.8284C0.421427 38.0783 0 37.0609 0 36V28Z" fill="#A8A8A8"/>
<path d="M26.6918 9.9901C25.8147 9.9901 24.9735 9.64169 24.3534 9.02151C23.7332 8.40132 23.3848 7.56017 23.3848 6.6831V0.0581055L33.3308 9.9901H26.6908H26.6918Z" fill="#DBDBDB"/>
<path d="M8.70086 32.487V31.334H7.64586V32.487H7.00586V33.194H7.64586V35.463C7.64586 35.656 7.67886 35.813 7.74286 35.932C7.80786 36.051 7.89386 36.142 8.00286 36.207C8.11786 36.271 8.24686 36.313 8.38986 36.333C8.53986 36.358 8.69486 36.371 8.85986 36.371C8.96286 36.371 9.06986 36.368 9.17886 36.363C9.28886 36.358 9.38686 36.348 9.47686 36.333V35.515C9.36899 35.5372 9.25897 35.5473 9.14886 35.545C8.97086 35.545 8.85186 35.515 8.79186 35.455C8.73186 35.395 8.70186 35.277 8.70186 35.098V33.194H9.47686V32.487H8.70086ZM9.93386 33.67C9.94786 33.422 10.0099 33.216 10.1199 33.052C10.2289 32.889 10.3679 32.757 10.5359 32.658C10.7049 32.558 10.8929 32.489 11.1019 32.45C11.3149 32.405 11.5279 32.383 11.7419 32.383C11.9349 32.383 12.1309 32.398 12.3289 32.427C12.5279 32.452 12.7089 32.504 12.8719 32.584C13.0359 32.663 13.1699 32.774 13.2739 32.918C13.3779 33.058 13.4299 33.243 13.4299 33.476V35.478C13.4299 35.651 13.4399 35.818 13.4599 35.976C13.4693 36.1009 13.5047 36.2225 13.5639 36.333H12.4929C12.4732 36.2743 12.4559 36.215 12.4409 36.155C12.431 36.0906 12.4237 36.0259 12.4189 35.961C12.2549 36.1318 12.0496 36.2576 11.8229 36.326C11.5963 36.3951 11.3607 36.4301 11.1239 36.43C10.9506 36.4313 10.778 36.4087 10.6109 36.363C10.4594 36.3221 10.3176 36.2514 10.1939 36.155C10.0735 36.0592 9.97665 35.9371 9.91086 35.798C9.84289 35.6354 9.81017 35.4602 9.81486 35.284C9.81486 35.066 9.85186 34.888 9.92586 34.749C10.0059 34.605 10.1049 34.491 10.2239 34.406C10.3479 34.322 10.4869 34.26 10.6399 34.22C10.7999 34.176 10.9579 34.141 11.1169 34.116C11.2749 34.091 11.4319 34.072 11.5849 34.056C11.7389 34.042 11.8749 34.02 11.9949 33.99C12.0967 33.9678 12.1927 33.9245 12.2769 33.863C12.3469 33.803 12.3789 33.719 12.3739 33.61C12.3787 33.5168 12.358 33.4242 12.3139 33.342C12.2821 33.2757 12.2303 33.2212 12.1659 33.186C12.1008 33.1444 12.0267 33.1191 11.9499 33.112C11.8641 33.0963 11.777 33.0886 11.6899 33.089C11.4809 33.089 11.3169 33.134 11.1979 33.223C11.0789 33.313 11.0099 33.462 10.9899 33.67H9.93386ZM12.3739 34.451C12.3236 34.494 12.2656 34.527 12.2029 34.548C12.0541 34.5897 11.9023 34.6198 11.7489 34.638C11.6649 34.647 11.5799 34.659 11.4959 34.674C11.4159 34.689 11.3369 34.709 11.2579 34.734C11.186 34.7576 11.1185 34.7927 11.0579 34.838C10.9953 34.8837 10.9453 34.9446 10.9126 35.0149C10.8799 35.0852 10.8655 35.1626 10.8709 35.24C10.8709 35.334 10.8879 35.413 10.9229 35.478C10.9562 35.5409 11.0047 35.5945 11.0639 35.634C11.1239 35.669 11.1939 35.694 11.2729 35.708C11.3529 35.723 11.4339 35.731 11.5179 35.731C11.7269 35.731 11.8879 35.696 12.0019 35.626C12.1055 35.5669 12.1925 35.4826 12.2549 35.381C12.3071 35.2893 12.3402 35.1879 12.3519 35.083C12.3659 34.984 12.3739 34.905 12.3739 34.845V34.451ZM14.2499 32.487V36.333H15.3069V34.6C15.3069 34.426 15.3239 34.265 15.3589 34.116C15.3939 33.967 15.4509 33.838 15.5299 33.729C15.6155 33.6143 15.7282 33.5225 15.8579 33.462C15.9909 33.397 16.1549 33.365 16.3479 33.365C16.4129 33.365 16.4799 33.37 16.5489 33.38C16.6189 33.385 16.6789 33.392 16.7279 33.402V32.42C16.6533 32.3968 16.5759 32.3844 16.4979 32.383C16.3629 32.383 16.2339 32.403 16.1099 32.443C15.9859 32.482 15.8699 32.539 15.7599 32.613C15.6519 32.683 15.5549 32.77 15.4699 32.873C15.3859 32.973 15.3199 33.082 15.2699 33.201H15.2549V32.487H14.2499ZM16.5039 35.187V36.333H17.6719V35.188H16.5039V35.187ZM20.3229 35.426C20.1869 35.4313 20.052 35.3995 19.9327 35.334C19.8134 35.2685 19.7143 35.1716 19.6459 35.054C19.5795 34.9406 19.5316 34.8174 19.5039 34.689C19.4792 34.5514 19.4668 34.4118 19.4669 34.272C19.4669 34.129 19.4819 33.992 19.5119 33.863C19.5469 33.729 19.5989 33.613 19.6679 33.513C19.7383 33.4128 19.8297 33.3291 19.9359 33.268C20.0459 33.208 20.1739 33.178 20.3229 33.178C20.4969 33.178 20.6399 33.211 20.7539 33.276C20.8661 33.3383 20.961 33.4277 21.0299 33.536C21.0999 33.645 21.1489 33.772 21.1779 33.916C21.2079 34.054 21.2229 34.203 21.2229 34.362C21.2229 34.501 21.2029 34.635 21.1629 34.763C21.1289 34.888 21.0739 34.999 20.9999 35.098C20.9247 35.1977 20.828 35.2791 20.7169 35.336C20.5948 35.3976 20.4596 35.4285 20.3229 35.426ZM22.2279 36.088V32.487H21.2229V33H21.2079C21.0987 32.7961 20.9303 32.6302 20.7249 32.524C20.5179 32.4258 20.2908 32.3775 20.0619 32.383C19.7949 32.383 19.5569 32.435 19.3479 32.539C19.1476 32.6407 18.9724 32.7855 18.8349 32.963C18.6916 33.1449 18.5831 33.3517 18.5149 33.573C18.445 33.8045 18.41 34.0451 18.4109 34.287C18.4109 34.55 18.4409 34.801 18.5009 35.039C18.5649 35.272 18.6639 35.478 18.7979 35.656C18.9319 35.83 19.1029 35.969 19.3109 36.073C19.5189 36.173 19.7669 36.222 20.0549 36.222C20.2879 36.222 20.5089 36.175 20.7169 36.08C20.9299 35.981 21.0939 35.83 21.2079 35.627H21.2229V36.132C21.2279 36.405 21.1609 36.631 21.0229 36.81C20.8879 36.988 20.6729 37.077 20.3749 37.077C20.1869 37.077 20.0199 37.037 19.8769 36.958C19.7329 36.884 19.6359 36.748 19.5869 36.549H18.5369C18.5519 36.767 18.6119 36.953 18.7159 37.107C18.8249 37.266 18.9589 37.395 19.1179 37.494C19.2809 37.594 19.4599 37.665 19.6529 37.71C19.8519 37.76 20.0449 37.784 20.2329 37.784C20.6749 37.784 21.0269 37.724 21.2899 37.606C21.5529 37.486 21.7539 37.34 21.8929 37.166C22.0267 37.0079 22.1189 36.8188 22.1609 36.616C22.2049 36.418 22.2279 36.242 22.2279 36.088ZM22.8399 35.538V36.333H26.3739V35.537H24.2309L26.2329 33.283V32.487H22.9889V33.283H24.8409L22.8409 35.537L22.8399 35.538Z" fill="white"/>
<path fill-rule="evenodd" clip-rule="evenodd" d="M8 0.207C8 0.093 8.093 0 8.207 0H9.447C9.561 0 9.653 0.093 9.653 0.207V1.447C9.65274 1.50155 9.63095 1.5538 9.59237 1.59237C9.5538 1.63095 9.50155 1.65274 9.447 1.653H8.207C8.15227 1.653 8.09977 1.63133 8.06098 1.59273C8.02219 1.55412 8.00026 1.50173 8 1.447V0.207ZM8 14.88C8 14.423 8.37 14.053 8.827 14.053H10.48C10.937 14.053 11.307 14.423 11.307 14.88V19.84C11.307 20.297 10.937 20.667 10.48 20.667H8.827C8.7184 20.667 8.61086 20.6456 8.51052 20.604C8.41018 20.5625 8.31902 20.5016 8.24222 20.4248C8.16543 20.348 8.10451 20.2568 8.06295 20.1565C8.02139 20.0561 8 19.9486 8 19.84V14.88ZM8.827 17.36V19.84H10.48V17.36H8.827ZM9.86 1.653C9.8051 1.653 9.75245 1.67481 9.71363 1.71363C9.67481 1.75245 9.653 1.8051 9.653 1.86V3.1C9.653 3.214 9.746 3.307 9.86 3.307H11.1C11.1549 3.307 11.2076 3.28519 11.2464 3.24637C11.2852 3.20755 11.307 3.1549 11.307 3.1V1.86C11.307 1.8051 11.2852 1.75245 11.2464 1.71363C11.2076 1.67481 11.1549 1.653 11.1 1.653H9.86ZM8.207 3.307C8.15227 3.307 8.09977 3.32867 8.06098 3.36727C8.02219 3.40588 8.00026 3.45827 8 3.513V4.753C8 4.867 8.093 4.96 8.207 4.96H9.447C9.50173 4.95974 9.55412 4.93781 9.59272 4.89902C9.63133 4.86023 9.653 4.80773 9.653 4.753V3.513C9.65274 3.45845 9.63095 3.4062 9.59237 3.36763C9.5538 3.32905 9.50155 3.30726 9.447 3.307H8.207ZM9.86 4.96C9.8051 4.96 9.75245 4.98181 9.71363 5.02063C9.67481 5.05945 9.653 5.1121 9.653 5.167V6.407C9.653 6.521 9.746 6.613 9.86 6.613H11.1C11.1547 6.613 11.2072 6.59133 11.246 6.55273C11.2848 6.51412 11.3067 6.46173 11.307 6.407V5.167C11.307 5.1121 11.2852 5.05945 11.2464 5.02063C11.2076 4.98181 11.1549 4.96 11.1 4.96H9.86ZM8.207 6.613C8.17982 6.613 8.1529 6.61835 8.12778 6.62876C8.10267 6.63916 8.07985 6.65441 8.06063 6.67363C8.04141 6.69285 8.02616 6.71567 8.01576 6.74078C8.00535 6.7659 8 6.79282 8 6.82V8.06C8 8.174 8.093 8.267 8.207 8.267H9.447C9.50173 8.26674 9.55412 8.24481 9.59272 8.20602C9.63133 8.16723 9.653 8.11473 9.653 8.06V6.82C9.653 6.76527 9.63133 6.71277 9.59272 6.67398C9.55412 6.63519 9.50173 6.61326 9.447 6.613H8.207ZM9.86 8.267C9.80527 8.267 9.75277 8.28867 9.71398 8.32728C9.67519 8.36588 9.65326 8.41827 9.653 8.473V9.713C9.653 9.827 9.746 9.92 9.86 9.92H11.1C11.1549 9.92 11.2076 9.89819 11.2464 9.85937C11.2852 9.82055 11.307 9.7679 11.307 9.713V8.473C11.3067 8.41827 11.2848 8.36588 11.246 8.32728C11.2072 8.28867 11.1547 8.267 11.1 8.267H9.86ZM8.207 9.92C8.17982 9.92 8.1529 9.92535 8.12778 9.93576C8.10267 9.94616 8.07985 9.96141 8.06063 9.98063C8.04141 9.99985 8.02616 10.0227 8.01576 10.0478C8.00535 10.0729 8 10.0998 8 10.127V11.367C8 11.481 8.093 11.573 8.207 11.573H9.447C9.50155 11.5727 9.5538 11.5509 9.59237 11.5124C9.63095 11.4738 9.65274 11.4216 9.653 11.367V10.127C9.653 10.0723 9.63133 10.0198 9.59272 9.98098C9.55412 9.94219 9.50173 9.92026 9.447 9.92H8.207ZM9.86 11.573C9.83282 11.573 9.8059 11.5784 9.78078 11.5888C9.75567 11.5992 9.73285 11.6144 9.71363 11.6336C9.69441 11.6529 9.67916 11.6757 9.66876 11.7008C9.65835 11.7259 9.653 11.7528 9.653 11.78V13.02C9.653 13.134 9.746 13.227 9.86 13.227H11.1C11.1549 13.227 11.2076 13.2052 11.2464 13.1664C11.2852 13.1276 11.307 13.0749 11.307 13.02V11.78C11.307 11.7528 11.3016 11.7259 11.2912 11.7008C11.2808 11.6757 11.2656 11.6529 11.2464 11.6336C11.2271 11.6144 11.2043 11.5992 11.1792 11.5888C11.1541 11.5784 11.1272 11.573 11.1 11.573H9.86Z" fill="#CFCFCF"/>
</svg>
