<svg width="34" height="40" viewBox="0 0 34 40" fill="none" xmlns="http://www.w3.org/2000/svg">
<path d="M0 3C0 2.20435 0.31607 1.44129 0.87868 0.87868C1.44129 0.31607 2.20435 0 3 0H23.333L33.333 10V37C33.333 37.7956 33.0169 38.5587 32.4543 39.1213C31.8917 39.6839 31.1286 40 30.333 40H3C2.20435 40 1.44129 39.6839 0.87868 39.1213C0.31607 38.5587 0 37.7956 0 37V3Z" fill="#F5F5F5"/>
<path d="M0 28H33.333V37C33.333 37.7956 33.0169 38.5587 32.4543 39.1213C31.8917 39.6839 31.1286 40 30.333 40H3C2.20435 40 1.44129 39.6839 0.87868 39.1213C0.31607 38.5587 0 37.7956 0 37V28Z" fill="#A8A8A8"/>
<path d="M25.8648 9.9901C25.207 9.9901 24.5762 9.72882 24.1111 9.26373C23.646 8.79864 23.3848 8.16784 23.3848 7.5101V0.0581055L33.3308 9.9901H25.8648Z" fill="#DBDBDB"/>
<path fill-rule="evenodd" clip-rule="evenodd" d="M14.9899 32.3671H14.2549V31.2681H13.0649V32.3671H12.4629V33.1371H13.0649V34.7541C13.0649 35.7411 13.3239 36.0351 14.3389 36.0351C14.4629 36.0351 14.5869 36.0259 14.7109 36.0168C14.8039 36.0099 14.8969 36.0031 14.9899 36.0001V35.1251C14.9365 35.1251 14.8832 35.1287 14.8307 35.1322L14.8306 35.1323C14.7799 35.1357 14.73 35.1391 14.6819 35.1391C14.4229 35.1391 14.2549 35.0761 14.2549 34.7891V33.1371H14.9899V32.3671ZM15.0717 36.0002H16.3877L16.9827 34.9502L17.6127 36.0002H18.9287L17.6407 34.0752L18.7747 32.3672H17.5147L17.0037 33.2352L16.4927 32.3672H15.1767L16.3317 34.0962L15.0717 36.0002ZM20.7354 32.3671H21.4704V33.1371H20.7354V34.7891C20.7354 35.0761 20.9034 35.1391 21.1624 35.1391C21.2105 35.1391 21.2604 35.1357 21.3111 35.1323C21.3635 35.1287 21.417 35.1251 21.4704 35.1251V36.0001C21.3774 36.0031 21.2844 36.0099 21.1914 36.0168C21.0674 36.0259 20.9434 36.0351 20.8194 36.0351C19.8044 36.0351 19.5454 35.7411 19.5454 34.7541V33.1371H18.9434V32.3671H19.5454V31.2681H20.7354V32.3671Z" fill="white"/>
<path fill-rule="evenodd" clip-rule="evenodd" d="M7.98047 14.1312V12.4702H22.9425V14.1322H7.98047V14.1312ZM17.9555 15.7942H7.98047V17.4562H17.9555V15.7942ZM7.98047 20.7802H22.9425V19.1202H7.98047V20.7822V20.7802Z" fill="#CFCFCF"/>
</svg>
