<svg width="34" height="40" viewBox="0 0 34 40" fill="none" xmlns="http://www.w3.org/2000/svg">
<path d="M0 3C0 2.20435 0.31607 1.44129 0.87868 0.87868C1.44129 0.31607 2.20435 0 3 0H23.333L33.333 10V37C33.333 37.7956 33.0169 38.5587 32.4543 39.1213C31.8917 39.6839 31.1286 40 30.333 40H3C2.20435 40 1.44129 39.6839 0.87868 39.1213C0.31607 38.5587 0 37.7956 0 37V3Z" fill="#F5F5F5"/>
<path d="M0 28H33.333V37C33.333 37.7956 33.0169 38.5587 32.4543 39.1213C31.8917 39.6839 31.1286 40 30.333 40H3C2.20435 40 1.44129 39.6839 0.87868 39.1213C0.31607 38.5587 0 37.7956 0 37V28Z" fill="#EC7421"/>
<path d="M25.8648 9.9901C25.207 9.9901 24.5762 9.72882 24.1111 9.26373C23.646 8.79864 23.3848 8.16784 23.3848 7.5101V0.0581055L33.3308 9.9901H25.8648Z" fill="#DBDBDB"/>
<path fill-rule="evenodd" clip-rule="evenodd" d="M10.7486 36H9.55859V31.002H10.7486V32.864H10.7626C10.9446 32.493 11.4346 32.262 11.8686 32.262C13.0796 32.262 13.1776 33.144 13.1776 33.669V36H11.9876V34.243C11.9876 34.2063 11.9879 34.1696 11.9882 34.1331C11.992 33.6744 11.9956 33.242 11.3926 33.242C10.9446 33.242 10.7486 33.62 10.7486 34.019V36ZM15.4238 32.3671H16.1588V33.1371H15.4238V34.7891C15.4238 35.0761 15.5918 35.1391 15.8508 35.1391C15.899 35.1391 15.9488 35.1357 15.9995 35.1323H15.9995H15.9995L15.9996 35.1322C16.0521 35.1287 16.1055 35.1251 16.1588 35.1251V36.0001C16.0658 36.0031 15.9728 36.0099 15.8798 36.0168C15.7558 36.0259 15.6318 36.0351 15.5078 36.0351C14.4928 36.0351 14.2338 35.7411 14.2338 34.7541V33.1371H13.6318V32.3671H14.2338V31.2681H15.4238V32.3671ZM16.6885 36.0002H17.8785V34.2292C17.8785 33.4872 18.0605 33.2422 18.4875 33.2422C18.8095 33.2422 18.9355 33.5082 18.9355 33.9352V36.0002H20.1255V34.2222C20.1255 33.6342 20.1745 33.2422 20.6855 33.2422C20.9935 33.2422 21.1825 33.4732 21.1825 33.8652V36.0002H22.3725V33.8302C22.3725 33.1372 22.2465 32.2622 21.0915 32.2622C20.6015 32.2622 20.2445 32.4652 19.9575 32.8502C19.7615 32.4092 19.3555 32.2622 18.9005 32.2622C18.4595 32.2622 18.0745 32.5002 17.8575 32.8642H17.8435V32.3672H16.6885V36.0002ZM24.4009 36H23.2109V31.002H24.4009V36Z" fill="white"/>
<path d="M14.5608 19.096V17.248L10.8768 15.976V15.952L14.5608 14.68V12.832L8.46484 15.112V16.816L14.5608 19.096Z" fill="#CFCFCF"/>
<path d="M19.4453 19.096L25.5413 16.816V15.112L19.4453 12.832V14.68L23.1293 15.952V15.976L19.4453 17.248V19.096Z" fill="#CFCFCF"/>
</svg>
