<svg width="34" height="40" viewBox="0 0 34 40" fill="none" xmlns="http://www.w3.org/2000/svg">
<path d="M0 3C0 2.20435 0.31607 1.44129 0.87868 0.87868C1.44129 0.31607 2.20435 0 3 0H23.333L33.333 10V37C33.333 37.7956 33.0169 38.5587 32.4543 39.1213C31.8917 39.6839 31.1286 40 30.333 40H3C2.20435 40 1.44129 39.6839 0.87868 39.1213C0.31607 38.5587 0 37.7956 0 37V3Z" fill="#F5F5F5"/>
<path d="M0 28H33.333V37C33.333 37.7956 33.0169 38.5587 32.4543 39.1213C31.8917 39.6839 31.1286 40 30.333 40H3C2.20435 40 1.44129 39.6839 0.87868 39.1213C0.31607 38.5587 0 37.7956 0 37V28Z" fill="#A8A8A8"/>
<path d="M25.8648 9.9901C25.207 9.9901 24.5762 9.72882 24.1111 9.26373C23.646 8.79864 23.3848 8.16784 23.3848 7.5101V0.0581055L33.3308 9.9901H25.8648Z" fill="#DBDBDB"/>
<path fill-rule="evenodd" clip-rule="evenodd" d="M20.4032 36H19.2132V33.137H18.6392V32.367H19.2132C19.2132 31.324 19.5772 31.002 20.5922 31.002C20.7192 31.002 20.8494 31.0083 20.9786 31.0146C21.0415 31.0176 21.1042 31.0207 21.1662 31.023V31.863C21.0542 31.849 20.9492 31.842 20.8442 31.842C20.5712 31.842 20.4032 31.877 20.4032 32.206V32.367H21.1172V33.137H20.4032V36ZM18.4245 32.3671H17.6895V31.2681H16.4995V32.3671H15.8975V33.1371H16.4995V34.7541C16.4995 35.7411 16.7585 36.0351 17.7735 36.0351C17.8975 36.0351 18.0215 36.0259 18.1455 36.0168C18.2385 36.0099 18.3315 36.0031 18.4245 36.0001V35.1251C18.3711 35.1251 18.3176 35.1287 18.2652 35.1323H18.2651C18.2144 35.1357 18.1646 35.1391 18.1165 35.1391C17.8575 35.1391 17.6895 35.0761 17.6895 34.7891V33.1371H18.4245V32.3671ZM13.2949 35.9999H14.4849V34.2009C14.4849 33.7459 14.7929 33.3399 15.3809 33.3399C15.5419 33.3399 15.6819 33.3679 15.8359 33.4099V32.3249C15.7449 32.3039 15.6469 32.2969 15.5559 32.2969C15.0449 32.2969 14.6389 32.5419 14.4639 33.0039H14.4499V32.3669H13.2949V35.9999Z" fill="white"/>
<path fill-rule="evenodd" clip-rule="evenodd" d="M7.98047 14.1312V12.4702H22.9425V14.1322H7.98047V14.1312ZM17.9555 15.7942H7.98047V17.4562H17.9555V15.7942ZM7.98047 20.7802H22.9425V19.1202H7.98047V20.7822V20.7802Z" fill="#CFCFCF"/>
</svg>
