<svg width="16" height="16" viewBox="0 0 16 16" fill="none" xmlns="http://www.w3.org/2000/svg">
<path opacity="0.5" fill-rule="evenodd" clip-rule="evenodd" d="M15.213 8.00022C14.9005 6.31539 14.0081 4.79309 12.6906 3.69745C11.3731 2.60181 9.71355 2.00195 7.99999 2.00195C6.28642 2.00195 4.62692 2.60181 3.3094 3.69745C1.99187 4.79309 1.09946 6.31539 0.786987 8.00022C1.09946 9.68506 1.99187 11.2073 3.3094 12.303C4.62692 13.3986 6.28642 13.9985 7.99999 13.9985C9.71355 13.9985 11.3731 13.3986 12.6906 12.303C14.0081 11.2073 14.9005 9.68506 15.213 8.00022V8.00022ZM13.85 8.00022C13.5474 9.3256 12.804 10.509 11.7412 11.3569C10.6785 12.2047 9.35947 12.6667 7.99999 12.6672C6.64034 12.6669 5.32107 12.205 4.25814 11.3572C3.19521 10.5093 2.45158 9.32577 2.14899 8.00022C2.45323 6.67633 3.1975 5.49476 4.26017 4.6486C5.32284 3.80244 6.64108 3.34171 7.99949 3.34171C9.35789 3.34171 10.6761 3.80244 11.7388 4.6486C12.8015 5.49476 13.5457 6.67633 13.85 8.00022V8.00022ZM7.99999 11.0002C7.53836 11 7.083 10.8933 6.66935 10.6884C6.2557 10.4835 5.89493 10.1859 5.6151 9.81873C5.33528 9.45159 5.14396 9.02482 5.05603 8.57164C4.9681 8.11846 4.98594 7.65111 5.10816 7.20596C5.23038 6.7608 5.45367 6.34986 5.76067 6.00511C6.06767 5.66036 6.45009 5.39111 6.87815 5.21832C7.30622 5.04552 7.76839 4.97385 8.22869 5.00887C8.68898 5.04389 9.13499 5.18466 9.53199 5.42022C9.17569 5.30027 8.7893 5.30428 8.43556 5.4316C8.08183 5.55892 7.78152 5.80208 7.58339 6.12158C7.38526 6.44109 7.30096 6.81819 7.34416 7.19165C7.38736 7.56511 7.55553 7.913 7.82137 8.17884C8.0872 8.44468 8.4351 8.61285 8.80856 8.65605C9.18202 8.69925 9.55912 8.61495 9.87862 8.41682C10.1981 8.21869 10.4413 7.91838 10.5686 7.56464C10.6959 7.21091 10.6999 6.82452 10.58 6.46822C10.8505 6.92374 10.9956 7.44279 11.0005 7.97257C11.0054 8.50236 10.8699 9.02399 10.6078 9.48442C10.3457 9.94485 9.9663 10.3277 9.50824 10.5939C9.05019 10.8601 8.5298 11.0003 7.99999 11.0002V11.0002ZM10.58 6.46822C10.4977 6.2247 10.3603 6.00344 10.1785 5.82168C9.99677 5.63991 9.77551 5.50253 9.53199 5.42022C9.96199 5.67622 10.324 6.03722 10.58 6.46822Z" fill="black"/>
</svg>
