<svg width="24" height="24" viewBox="0 0 24 24" fill="none" xmlns="http://www.w3.org/2000/svg">
<path fill-rule="evenodd" clip-rule="evenodd" d="M18.125 16.81C18.2702 16.7988 18.4075 16.7393 18.515 16.641C18.5678 16.5937 18.6097 16.5355 18.6376 16.4704C18.6656 16.4053 18.6791 16.3348 18.677 16.264C18.753 15.426 18.937 14.144 19.229 12.419C19.52 10.694 19.834 9.014 20.172 7.379C20.509 5.745 20.778 4.634 20.977 4.048C20.9922 3.99329 20.9999 3.93678 21 3.88C20.9937 3.73899 20.9365 3.60504 20.839 3.503C20.532 3.196 20.252 3.035 19.999 3.021C19.8345 3.01052 19.6698 3.00352 19.505 3C19.171 2.99954 18.8383 3.04189 18.515 3.126C18.1917 3.21046 17.8762 3.32254 17.572 3.461C17.358 3.545 17.235 3.691 17.204 3.901C17.0133 5.15788 16.8256 6.41522 16.641 7.673C16.372 9.489 16.161 11.078 16.008 12.44C15.855 13.802 15.778 14.756 15.778 15.3C15.778 15.664 15.801 15.922 15.848 16.076C16.031 16.369 16.346 16.565 16.79 16.662C17.235 16.76 17.603 16.809 17.895 16.809H18.125V16.81ZM9.165 16.369C9.0984 16.4491 9.01597 16.5146 8.92288 16.5615C8.82979 16.6083 8.72804 16.6353 8.624 16.641C8.317 16.641 8.007 16.603 7.692 16.526C7.378 16.449 7.19 16.292 7.129 16.055C7.083 15.845 7.059 15.545 7.059 15.154C7.059 14.972 7.071 14.647 7.094 14.179C7.117 13.711 7.205 13.135 7.359 12.45C7.512 11.766 7.749 11.277 8.072 10.984C8.317 10.802 8.593 10.607 8.9 10.397C9.64611 9.93899 10.3269 9.38229 10.924 8.742C11.308 8.336 11.499 7.896 11.499 7.422C11.499 7.156 11.438 6.884 11.315 6.604C11.208 6.339 11.047 6.15 10.832 6.038C10.632 5.927 10.342 5.871 9.958 5.871H9.843C8.463 5.941 7.619 6.346 7.313 7.086C7.21115 7.32493 7.15648 7.58131 7.152 7.841C7.152 8.301 7.328 8.735 7.681 9.14C7.77817 9.24219 7.83501 9.37612 7.841 9.517C7.841 9.559 7.823 9.639 7.784 9.757C7.746 9.877 7.627 9.977 7.428 10.062C7.0802 10.184 6.71458 10.2476 6.346 10.25C5.902 10.25 5.415 10.104 4.886 9.81C4.356 9.517 4.061 8.867 4 7.861V7.778C4 7.079 4.203 6.36 4.61 5.619C5.016 4.879 5.695 4.257 6.645 3.754C7.505 3.307 8.616 3.084 9.981 3.084H10.349C11.591 3.126 12.646 3.52 13.512 4.268C14.379 5.015 14.866 5.948 14.972 7.065V7.191C14.972 8.057 14.666 8.77 14.052 9.328C13.426 9.89565 12.7304 10.3815 11.982 10.774C11.092 11.235 10.48 11.724 10.142 12.241C9.85597 12.799 9.63968 13.3901 9.498 14.001C9.39431 14.4053 9.34025 14.8207 9.337 15.238C9.337 15.433 9.352 15.628 9.383 15.824V15.866C9.383 16.034 9.31 16.201 9.164 16.369H9.165ZM9.601 20.466C9.22353 20.8167 8.72518 21.008 8.21 21C7.6871 21.0112 7.18011 20.8199 6.795 20.466C6.404 20.109 6.208 19.686 6.208 19.198C6.208 18.695 6.404 18.265 6.795 17.909C7.18011 17.5551 7.6871 17.3638 8.21 17.375C8.746 17.375 9.21 17.553 9.601 17.909C9.993 18.265 10.188 18.695 10.188 19.198C10.188 19.687 9.993 20.109 9.601 20.466ZM18.32 20.466C17.9349 20.8199 17.4279 21.0112 16.905 21C16.368 21 15.905 20.822 15.513 20.466C15.123 20.109 14.927 19.686 14.927 19.198C14.927 18.695 15.123 18.265 15.514 17.909C15.8915 17.5583 16.3898 17.367 16.905 17.375C17.457 17.375 17.929 17.553 18.32 17.909C18.711 18.265 18.907 18.695 18.907 19.198C18.907 19.687 18.711 20.109 18.32 20.466Z" fill="#808080"/>
</svg>
