<svg width="36" height="36" viewBox="0 0 36 36" fill="none" xmlns="http://www.w3.org/2000/svg">
<path fill-rule="evenodd" clip-rule="evenodd" d="M10 12C8.89543 12 8 12.8954 8 14V22C8 23.1046 8.89543 24 10 24H18C19.1046 24 20 23.1046 20 22V14C20 12.8954 19.1046 12 18 12H10ZM10 14H18V22H10V14ZM28 13C28 12.6397 27.8062 12.3073 27.4927 12.1298C27.1792 11.9523 26.7944 11.9572 26.4855 12.1425L21.4855 15.1425C21.1843 15.3232 21 15.6487 21 16V20C21 20.3513 21.1843 20.6768 21.4855 20.8575L26.4855 23.8575C26.7944 24.0429 27.1792 24.0477 27.4927 23.8702C27.8062 23.6927 28 23.3603 28 23V13ZM23 19.4338V16.5662L26 14.7662V21.2338L23 19.4338Z" fill="black"/>
</svg>
