<svg width="24" height="24" viewBox="0 0 24 24" fill="none" xmlns="http://www.w3.org/2000/svg">
<path fill-rule="evenodd" clip-rule="evenodd" d="M7 6V3C7 2.73478 7.10536 2.48043 7.29289 2.29289C7.48043 2.10536 7.73478 2 8 2H20C20.2652 2 20.5196 2.10536 20.7071 2.29289C20.8946 2.48043 21 2.73478 21 3V17C21 17.2652 20.8946 17.5196 20.7071 17.7071C20.5196 17.8946 20.2652 18 20 18H17V21C17 21.552 16.55 22 15.993 22H4.007C3.87555 22.0008 3.74522 21.9757 3.62347 21.9261C3.50172 21.8765 3.39093 21.8035 3.29742 21.7111C3.20391 21.6187 3.12952 21.5088 3.07849 21.3876C3.02746 21.2665 3.00079 21.1365 3 21.005V21L3.003 7C3.003 6.448 3.453 6 4.01 6H7ZM5.003 8L5 20H15V8H5.003ZM17 6H9V4H19V16H17V6Z" fill="#808080"/>
</svg>
