<svg width="24" height="24" viewBox="0 0 24 24" fill="none" xmlns="http://www.w3.org/2000/svg">
<path fill-rule="evenodd" clip-rule="evenodd" d="M12 2C6.477 2 2 6.477 2 12C2 17.523 6.477 22 12 22C17.523 22 22 17.523 22 12C22 6.477 17.523 2 12 2ZM15.707 9.293C15.8945 9.48053 15.9998 9.73484 15.9998 10C15.9998 10.2652 15.8945 10.5195 15.707 10.707L11.707 14.707C11.5195 14.8945 11.2652 14.9998 11 14.9998C10.7348 14.9998 10.4805 14.8945 10.293 14.707L8.293 12.707C8.19749 12.6148 8.12131 12.5044 8.0689 12.3824C8.01649 12.2604 7.9889 12.1292 7.98775 11.9964C7.9866 11.8636 8.0119 11.7319 8.06218 11.609C8.11246 11.4861 8.18671 11.3745 8.28061 11.2806C8.3745 11.1867 8.48615 11.1125 8.60905 11.0622C8.73194 11.0119 8.86362 10.9866 8.9964 10.9877C9.12918 10.9889 9.2604 11.0165 9.3824 11.0689C9.50441 11.1213 9.61475 11.1975 9.707 11.293L11 12.586L14.293 9.293C14.4805 9.10553 14.7348 9.00021 15 9.00021C15.2652 9.00021 15.5195 9.10553 15.707 9.293V9.293Z" fill="#006CFF"/>
</svg>
