<svg width="24" height="24" viewBox="0 0 24 24" fill="none" xmlns="http://www.w3.org/2000/svg">
<path fill-rule="evenodd" clip-rule="evenodd" d="M12 4C11.4477 4 11 4.44771 11 5V14.529L6.78165 10.306C6.37408 9.89799 5.71326 9.89799 5.30568 10.306C4.8981 10.714 4.89811 11.3756 5.30568 11.7836L11.2096 17.694C11.4267 17.9114 11.7157 18.0129 12 17.9987C12.2843 18.0129 12.5733 17.9113 12.7905 17.694L18.6944 11.7836C19.1019 11.3756 19.1019 10.714 18.6944 10.306C18.2868 9.89799 17.626 9.89799 17.2184 10.306L13 14.529V5C13 4.44771 12.5523 4 12 4Z" fill="black"/>
<path fill-rule="evenodd" clip-rule="evenodd" d="M5 21C5 20.4477 5.44771 20 6 20H18C18.5523 20 19 20.4477 19 21C19 21.5523 18.5523 22 18 22H6C5.44772 22 5 21.5523 5 21Z" fill="black"/>
</svg>
