<svg width="24" height="24" viewBox="0 0 24 24" fill="none" xmlns="http://www.w3.org/2000/svg">
<path fill-rule="evenodd" clip-rule="evenodd" d="M12 4C14.1217 4 16.1566 4.84285 17.6569 6.34315C19.1571 7.84344 20 9.87827 20 12V13.5C20 13.8978 19.842 14.2794 19.5607 14.5607C19.2794 14.842 18.8978 15 18.5 15C18.1022 15 17.7206 14.842 17.4393 14.5607C17.158 14.2794 17 13.8978 17 13.5V8H15C14.2297 7.42232 13.309 7.07934 12.3485 7.01227C11.3879 6.94519 10.4285 7.15688 9.58537 7.6219C8.74225 8.08692 8.05133 8.78549 7.59562 9.63367C7.13991 10.4819 6.9388 11.4436 7.01644 12.4033C7.09408 13.363 7.44718 14.2799 8.03331 15.0438C8.61943 15.8077 9.41366 16.3861 10.3206 16.7096C11.2275 17.033 12.2085 17.0877 13.1457 16.8671C14.083 16.6465 14.9366 16.16 15.604 15.466C16.0245 16.0855 16.6326 16.5539 17.3389 16.8023C18.0453 17.0507 18.8126 17.066 19.5283 16.846C20.244 16.626 20.8703 16.1823 21.3152 15.5801C21.7601 14.9778 22.0001 14.2488 22 13.5V12C22 6.477 17.523 2 12 2C6.477 2 2 6.477 2 12C2 17.523 6.477 22 12 22C13.9745 22.0033 15.9054 21.4192 17.547 20.322L16.437 18.657C15.3979 19.3499 14.211 19.7898 12.9713 19.9417C11.7316 20.0935 10.4736 19.953 9.298 19.5313C8.12238 19.1097 7.06182 18.4186 6.20121 17.5135C5.34061 16.6084 4.70388 15.5144 4.34199 14.319C3.9801 13.1237 3.90312 11.8602 4.11719 10.6297C4.33127 9.39928 4.83047 8.23604 5.57481 7.23315C6.31916 6.23025 7.28798 5.41556 8.4037 4.8543C9.51942 4.29304 10.7511 4.00081 12 4.001V4ZM9 12C9 11.2044 9.31607 10.4413 9.87868 9.87868C10.4413 9.31607 11.2044 9 12 9C12.7956 9 13.5587 9.31607 14.1213 9.87868C14.6839 10.4413 15 11.2044 15 12C15 12.7956 14.6839 13.5587 14.1213 14.1213C13.5587 14.6839 12.7956 15 12 15C11.2044 15 10.4413 14.6839 9.87868 14.1213C9.31607 13.5587 9 12.7956 9 12Z" fill="#006BFE"/>
</svg>
