<svg width="25" height="24" viewBox="0 0 25 24" fill="none" xmlns="http://www.w3.org/2000/svg">
<path fill-rule="evenodd" clip-rule="evenodd" d="M16.9113 7C16.9113 8.31528 16.2783 9.4823 15.301 10.2113C16.3117 10.3984 17.2284 10.7031 18.0483 11.0991C18.5445 11.3387 18.753 11.9363 18.514 12.4339C18.2751 12.9315 17.6791 13.1406 17.1829 12.9009C16.0488 12.3532 14.6336 12 12.9223 12C7.4063 12 4.94453 15.6324 4.94453 18C4.94453 18.5523 4.49806 19 3.9473 19C3.39655 19 2.95007 18.5523 2.95007 18C2.95007 14.8422 5.61152 11.1288 10.5451 10.2123C9.56709 9.48333 8.93347 8.31587 8.93347 7C8.93347 4.79086 10.7193 3 12.9224 3C15.1254 3 16.9113 4.79086 16.9113 7ZM12.9224 9C14.0239 9 14.9168 8.10457 14.9168 7C14.9168 5.89543 14.0239 5 12.9224 5C11.8208 5 10.9279 5.89543 10.9279 7C10.9279 8.10457 11.8208 9 12.9224 9ZM22.8948 18V16H16.9114V18H22.8948Z" fill="#808080"/>
</svg>
