<svg width="24" height="24" viewBox="0 0 24 24" fill="none" xmlns="http://www.w3.org/2000/svg">
<path fill-rule="evenodd" clip-rule="evenodd" d="M4 5C3.73478 5 3.48043 5.10536 3.29289 5.29289C3.10536 5.48043 3 5.73478 3 6C3 6.26522 3.10536 6.51957 3.29289 6.70711C3.48043 6.89464 3.73478 7 4 7H20C20.2652 7 20.5196 6.89464 20.7071 6.70711C20.8946 6.51957 21 6.26522 21 6C21 5.73478 20.8946 5.48043 20.7071 5.29289C20.5196 5.10536 20.2652 5 20 5H4ZM3 12C3 11.7348 3.10536 11.4804 3.29289 11.2929C3.48043 11.1054 3.73478 11 4 11H13C13.2652 11 13.5196 11.1054 13.7071 11.2929C13.8946 11.4804 14 11.7348 14 12C14 12.2652 13.8946 12.5196 13.7071 12.7071C13.5196 12.8946 13.2652 13 13 13H4C3.73478 13 3.48043 12.8946 3.29289 12.7071C3.10536 12.5196 3 12.2652 3 12ZM10 18C10 17.7348 10.1054 17.4804 10.2929 17.2929C10.4804 17.1054 10.7348 17 11 17H20C20.2652 17 20.5196 17.1054 20.7071 17.2929C20.8946 17.4804 21 17.7348 21 18C21 18.2652 20.8946 18.5196 20.7071 18.7071C20.5196 18.8946 20.2652 19 20 19H11C10.7348 19 10.4804 18.8946 10.2929 18.7071C10.1054 18.5196 10 18.2652 10 18Z" fill="#808080"/>
</svg>
