<svg width="24" height="24" viewBox="0 0 24 24" fill="none" xmlns="http://www.w3.org/2000/svg">
<path d="M8.30597 18.6938C8.71397 19.1018 9.37598 19.1018 9.78398 18.6938L15.697 12.7938C15.8045 12.6868 15.8873 12.5576 15.9397 12.4153C15.992 12.273 16.0126 12.1209 16 11.9698C16.0032 11.8288 15.9778 11.6886 15.9252 11.5578C15.8726 11.427 15.7939 11.3082 15.694 11.2088L9.78398 5.30476C9.58786 5.10898 9.32208 4.99902 9.04498 4.99902C8.76787 4.99902 8.50209 5.10898 8.30597 5.30476C8.20898 5.40163 8.13203 5.51667 8.07952 5.6433C8.02702 5.76993 8 5.90567 8 6.04276C8 6.17984 8.02702 6.31558 8.07952 6.44221C8.13203 6.56885 8.20898 6.68389 8.30597 6.78076L13.533 12.0008L8.30597 17.2178C8.20901 17.3145 8.13208 17.4295 8.07959 17.556C8.0271 17.6826 8.00008 17.8183 8.00008 17.9553C8.00008 18.0923 8.0271 18.2279 8.07959 18.3545C8.13208 18.481 8.20901 18.596 8.30597 18.6928V18.6938Z" fill="black"/>
</svg>
