<svg width="24" height="24" viewBox="0 0 24 24" fill="none" xmlns="http://www.w3.org/2000/svg">
<path fill-rule="evenodd" clip-rule="evenodd" d="M13.468 2.88798C14.5039 2.78848 15.5454 3.01018 16.451 3.52298C17.3476 4.05069 18.0602 4.84146 18.492 5.78798C18.942 6.79798 19.038 8.04198 18.348 9.23698L13.848 17.031C13.5149 17.5973 13.0171 18.0487 12.421 18.325C11.664 18.667 10.725 18.692 9.74998 18.129C8.77498 17.566 8.32798 16.74 8.24398 15.914C8.18545 15.2594 8.32777 14.6026 8.65198 14.031L12.652 7.10298C12.7855 6.87518 13.0038 6.70944 13.2591 6.64195C13.5144 6.57445 13.786 6.61067 14.0147 6.74271C14.2434 6.87475 14.4106 7.09188 14.4797 7.34672C14.5489 7.60156 14.5145 7.87343 14.384 8.10298L10.384 15.031C10.297 15.181 10.208 15.456 10.234 15.713C10.254 15.909 10.339 16.16 10.75 16.397C11.16 16.634 11.421 16.582 11.6 16.502C11.836 16.395 12.03 16.182 12.116 16.032L16.616 8.23698C16.926 7.69898 16.906 7.14398 16.665 6.60098C16.4049 6.04043 15.9818 5.57134 15.451 5.25498C14.9115 4.9535 14.2936 4.82176 13.678 4.87698C13.087 4.93898 12.596 5.19898 12.286 5.73698L7.28598 14.397C6.63198 15.53 6.99998 17.697 9.24998 18.995C11.5 20.295 13.56 19.53 14.214 18.397L17.714 12.335C17.7792 12.2203 17.8664 12.1197 17.9706 12.0389C18.0748 11.9581 18.194 11.8987 18.3213 11.8642C18.4486 11.8296 18.5814 11.8206 18.7122 11.8376C18.843 11.8546 18.9691 11.8973 19.0833 11.9632C19.1975 12.0292 19.2976 12.1171 19.3777 12.2218C19.4578 12.3266 19.5164 12.4461 19.5501 12.5736C19.5838 12.7011 19.592 12.8341 19.5741 12.9647C19.5562 13.0954 19.5127 13.2212 19.446 13.335L15.946 19.397C14.601 21.727 11.196 22.428 8.24998 20.727C5.30398 19.027 4.20798 15.727 5.55398 13.397L10.554 4.73698C11.244 3.54198 12.369 3.00398 13.468 2.88698V2.88798Z" fill="#808080"/>
</svg>
