<svg width="25" height="24" viewBox="0 0 25 24" fill="none" xmlns="http://www.w3.org/2000/svg">
<path d="M4.72998 5C4.72998 4.73478 4.83534 4.48043 5.02287 4.29289C5.21041 4.10536 5.46476 4 5.72998 4H7.72998C7.9952 4 8.24955 4.10536 8.43709 4.29289C8.62462 4.48043 8.72998 4.73478 8.72998 5V7C8.72998 7.26522 8.62462 7.51957 8.43709 7.70711C8.24955 7.89464 7.9952 8 7.72998 8H5.72998C5.46476 8 5.21041 7.89464 5.02287 7.70711C4.83534 7.51957 4.72998 7.26522 4.72998 7V5ZM10.73 5C10.73 4.73478 10.8353 4.48043 11.0229 4.29289C11.2104 4.10536 11.4648 4 11.73 4H13.73C13.9952 4 14.2496 4.10536 14.4371 4.29289C14.6246 4.48043 14.73 4.73478 14.73 5V7C14.73 7.26522 14.6246 7.51957 14.4371 7.70711C14.2496 7.89464 13.9952 8 13.73 8H11.73C11.4648 8 11.2104 7.89464 11.0229 7.70711C10.8353 7.51957 10.73 7.26522 10.73 7V5ZM17.73 4C17.4648 4 17.2104 4.10536 17.0229 4.29289C16.8353 4.48043 16.73 4.73478 16.73 5V7C16.73 7.26522 16.8353 7.51957 17.0229 7.70711C17.2104 7.89464 17.4648 8 17.73 8H19.73C19.9952 8 20.2496 7.89464 20.4371 7.70711C20.6246 7.51957 20.73 7.26522 20.73 7V5C20.73 4.73478 20.6246 4.48043 20.4371 4.29289C20.2496 4.10536 19.9952 4 19.73 4H17.73ZM4.72998 11C4.72998 10.7348 4.83534 10.4804 5.02287 10.2929C5.21041 10.1054 5.46476 10 5.72998 10H7.72998C7.9952 10 8.24955 10.1054 8.43709 10.2929C8.62462 10.4804 8.72998 10.7348 8.72998 11V13C8.72998 13.2652 8.62462 13.5196 8.43709 13.7071C8.24955 13.8946 7.9952 14 7.72998 14H5.72998C5.46476 14 5.21041 13.8946 5.02287 13.7071C4.83534 13.5196 4.72998 13.2652 4.72998 13V11ZM11.73 10C11.4648 10 11.2104 10.1054 11.0229 10.2929C10.8353 10.4804 10.73 10.7348 10.73 11V13C10.73 13.2652 10.8353 13.5196 11.0229 13.7071C11.2104 13.8946 11.4648 14 11.73 14H13.73C13.9952 14 14.2496 13.8946 14.4371 13.7071C14.6246 13.5196 14.73 13.2652 14.73 13V11C14.73 10.7348 14.6246 10.4804 14.4371 10.2929C14.2496 10.1054 13.9952 10 13.73 10H11.73ZM16.73 11C16.73 10.7348 16.8353 10.4804 17.0229 10.2929C17.2104 10.1054 17.4648 10 17.73 10H19.73C19.9952 10 20.2496 10.1054 20.4371 10.2929C20.6246 10.4804 20.73 10.7348 20.73 11V13C20.73 13.2652 20.6246 13.5196 20.4371 13.7071C20.2496 13.8946 19.9952 14 19.73 14H17.73C17.4648 14 17.2104 13.8946 17.0229 13.7071C16.8353 13.5196 16.73 13.2652 16.73 13V11ZM5.72998 16C5.46476 16 5.21041 16.1054 5.02287 16.2929C4.83534 16.4804 4.72998 16.7348 4.72998 17V19C4.72998 19.2652 4.83534 19.5196 5.02287 19.7071C5.21041 19.8946 5.46476 20 5.72998 20H7.72998C7.9952 20 8.24955 19.8946 8.43709 19.7071C8.62462 19.5196 8.72998 19.2652 8.72998 19V17C8.72998 16.7348 8.62462 16.4804 8.43709 16.2929C8.24955 16.1054 7.9952 16 7.72998 16H5.72998ZM10.73 17C10.73 16.7348 10.8353 16.4804 11.0229 16.2929C11.2104 16.1054 11.4648 16 11.73 16H13.73C13.9952 16 14.2496 16.1054 14.4371 16.2929C14.6246 16.4804 14.73 16.7348 14.73 17V19C14.73 19.2652 14.6246 19.5196 14.4371 19.7071C14.2496 19.8946 13.9952 20 13.73 20H11.73C11.4648 20 11.2104 19.8946 11.0229 19.7071C10.8353 19.5196 10.73 19.2652 10.73 19V17ZM17.73 16C17.4648 16 17.2104 16.1054 17.0229 16.2929C16.8353 16.4804 16.73 16.7348 16.73 17V19C16.73 19.2652 16.8353 19.5196 17.0229 19.7071C17.2104 19.8946 17.4648 20 17.73 20H19.73C19.9952 20 20.2496 19.8946 20.4371 19.7071C20.6246 19.5196 20.73 19.2652 20.73 19V17C20.73 16.7348 20.6246 16.4804 20.4371 16.2929C20.2496 16.1054 19.9952 16 19.73 16H17.73Z" fill="black"/>
</svg>
