<svg width="24" height="24" viewBox="0 0 24 24" fill="none" xmlns="http://www.w3.org/2000/svg">
<path fill-rule="evenodd" clip-rule="evenodd" d="M14 5C14 6.10457 13.1046 7 12 7C10.8954 7 10 6.10457 10 5C10 3.89543 10.8954 3 12 3C13.1046 3 14 3.89543 14 5Z" fill="black"/>
<path fill-rule="evenodd" clip-rule="evenodd" d="M16 16V11C16 8.79086 14.2091 7 12 7C9.79086 7 8 8.79086 8 11V16H16ZM12 5C8.68629 5 6 7.68629 6 11V18H18V11C18 7.68629 15.3137 5 12 5Z" fill="black"/>
<path fill-rule="evenodd" clip-rule="evenodd" d="M4 17C4 16.4477 4.44771 16 5 16H19C19.5523 16 20 16.4477 20 17C20 17.5523 19.5523 18 19 18H5C4.44771 18 4 17.5523 4 17Z" fill="black"/>
<path fill-rule="evenodd" clip-rule="evenodd" d="M10 19C10 20.1046 10.8954 21 12 21C13.1046 21 14 20.1046 14 19H10Z" fill="black"/>
</svg>
