<svg width="24" height="24" viewBox="0 0 24 24" fill="none" xmlns="http://www.w3.org/2000/svg">
    <path
        d="M7.87793 20.1797H16.1133C17.4492 20.1797 18.1436 19.4678 18.1436 18.0264V11.8037C18.1436 10.5293 17.5986 9.82617 16.5439 9.68555V7.59375C16.5439 4.35059 14.3994 2.67188 12 2.67188C9.60059 2.67188 7.45605 4.35059 7.45605 7.59375V9.68555C6.40137 9.82617 5.84766 10.5293 5.84766 11.8037V18.0264C5.84766 19.4678 6.54199 20.1797 7.87793 20.1797ZM9.09961 7.43555C9.09961 5.37891 10.4268 4.25391 12 4.25391C13.5645 4.25391 14.9004 5.37891 14.9004 7.43555V9.65918H9.09961V7.43555ZM8.13281 18.6064C7.77246 18.6064 7.55273 18.3867 7.55273 17.9648V11.8652C7.55273 11.4434 7.77246 11.2324 8.13281 11.2324H15.8672C16.2363 11.2324 16.4385 11.4434 16.4385 11.8652V17.9648C16.4385 18.3867 16.2363 18.6064 15.8672 18.6064H8.13281Z"
        fill="black" />
</svg>
