<svg width="24" height="24" viewBox="0 0 24 24" fill="none" xmlns="http://www.w3.org/2000/svg">
    <path
        d="M11.9668 20.4336C16.5986 20.4336 20.4336 16.5903 20.4336 11.9668C20.4336 7.33496 16.5903 3.5 11.9585 3.5C7.33496 3.5 3.5 7.33496 3.5 11.9668C3.5 16.5903 7.34326 20.4336 11.9668 20.4336ZM11.9668 19.0225C8.04883 19.0225 4.91943 15.8848 4.91943 11.9668C4.91943 8.04883 8.04053 4.91113 11.9585 4.91113C15.8765 4.91113 19.0142 8.04883 19.0225 11.9668C19.0308 15.8848 15.8848 19.0225 11.9668 19.0225ZM9.76709 14.9883H14.1499C14.6729 14.9883 14.98 14.6812 14.98 14.1748V9.75879C14.98 9.24414 14.6729 8.94531 14.1499 8.94531H9.76709C9.25244 8.94531 8.93701 9.24414 8.93701 9.75879V14.1748C8.93701 14.6812 9.25244 14.9883 9.76709 14.9883Z"
        fill="black" />
</svg>
