<svg width="24" height="24" viewBox="0 0 24 24" fill="none" xmlns="http://www.w3.org/2000/svg">
<path fill-rule="evenodd" clip-rule="evenodd" d="M18.1245 16.8091C18.2779 16.7951 18.4082 16.7392 18.5156 16.6414C18.6229 16.5437 18.6766 16.4179 18.6766 16.2643C18.7533 15.4261 18.9373 14.1444 19.2287 12.4191C19.5201 10.6938 19.8345 9.01397 20.1719 7.37951C20.5092 5.74505 20.7776 4.63446 20.977 4.04773C20.9923 3.99185 21 3.93597 21 3.88009C21 3.75437 20.9463 3.62864 20.839 3.50291C20.5322 3.19558 20.2524 3.03492 19.9993 3.02095C19.7463 3.00698 19.5814 3 19.5047 3C19.1673 3 18.8376 3.04191 18.5156 3.12573C18.1168 3.23749 17.8024 3.34924 17.5724 3.461C17.3577 3.54482 17.235 3.6915 17.2043 3.90105C17.097 4.59953 16.9091 5.85681 16.6407 7.67288C16.3723 9.48894 16.1615 11.078 16.0081 12.44C15.8548 13.8021 15.7781 14.7555 15.7781 15.3003C15.7781 15.6636 15.8011 15.922 15.8471 16.0757C16.0311 16.369 16.3455 16.5646 16.7903 16.6624C17.235 16.7602 17.6031 16.8091 17.8945 16.8091H18.1245ZM9.16441 16.369C9.01872 16.5367 8.83852 16.6275 8.62382 16.6414C8.3171 16.6414 8.00654 16.603 7.69215 16.5262C7.37776 16.4494 7.1899 16.2922 7.12855 16.0547C7.08254 15.8452 7.05954 15.5448 7.05954 15.1537C7.05954 14.9721 7.07104 14.6473 7.09405 14.1793C7.11705 13.7113 7.20523 13.135 7.35859 12.4505C7.51195 11.766 7.74966 11.2771 8.07172 10.9837C8.3171 10.8021 8.59314 10.6065 8.89986 10.397C9.66667 9.922 10.3415 9.3702 10.9242 8.74156C11.3076 8.33644 11.4993 7.89639 11.4993 7.42142C11.4993 7.156 11.438 6.88359 11.3153 6.60419C11.2079 6.33877 11.0469 6.15017 10.8322 6.03842C10.6328 5.92666 10.3415 5.87078 9.95805 5.87078H9.84303C8.46279 5.94063 7.61931 6.34575 7.31258 7.08615C7.20523 7.35157 7.15156 7.60303 7.15156 7.84051C7.15156 8.30151 7.32792 8.73458 7.68065 9.1397C7.788 9.26543 7.84168 9.39115 7.84168 9.51688C7.84168 9.55879 7.82251 9.63911 7.78417 9.75786C7.74583 9.8766 7.62697 9.97788 7.4276 10.0617C7.05954 10.1874 6.69914 10.2503 6.34641 10.2503C5.90167 10.2503 5.41475 10.1036 4.88566 9.81024C4.35656 9.51688 4.06134 8.86729 4 7.86147V7.77765C4 7.07916 4.2032 6.35972 4.60961 5.61932C5.01601 4.87893 5.69463 4.25728 6.64547 3.75437C7.50429 3.30733 8.61615 3.08382 9.98106 3.08382H10.3491C11.5913 3.12573 12.6457 3.52037 13.5122 4.26775C14.3787 5.01513 14.8656 5.94761 14.9729 7.06519V7.19092C14.9729 8.05704 14.6662 8.7695 14.0528 9.32829C13.4393 9.88708 12.7492 10.369 11.9824 10.7742C11.0929 11.2352 10.4795 11.7241 10.1421 12.241C9.86604 12.7718 9.65133 13.3586 9.49797 14.0012C9.39062 14.4342 9.33694 14.8463 9.33694 15.2375C9.33694 15.4331 9.35228 15.6286 9.38295 15.8242V15.8661C9.38295 16.0338 9.3101 16.2014 9.16441 16.369ZM9.60149 20.4657C9.21042 20.8219 8.7465 21 8.20974 21C7.65765 21 7.18606 20.8219 6.79499 20.4657C6.40392 20.1094 6.20839 19.6868 6.20839 19.1979C6.20839 18.695 6.40392 18.2654 6.79499 17.9092C7.18606 17.553 7.65765 17.3749 8.20974 17.3749C8.7465 17.3749 9.21042 17.553 9.60149 17.9092C9.99256 18.2654 10.1881 18.695 10.1881 19.1979C10.1881 19.6868 9.99256 20.1094 9.60149 20.4657ZM18.32 20.4657C17.929 20.8219 17.4574 21 16.9053 21C16.3685 21 15.9046 20.8219 15.5135 20.4657C15.1225 20.1094 14.9269 19.6868 14.9269 19.1979C14.9269 18.695 15.1225 18.2654 15.5135 17.9092C15.9046 17.553 16.3685 17.3749 16.9053 17.3749C17.4574 17.3749 17.929 17.553 18.32 17.9092C18.7111 18.2654 18.9066 18.695 18.9066 19.1979C18.9066 19.6868 18.7111 20.1094 18.32 20.4657Z" fill="black"/>
</svg>
