<svg width="24" height="24" viewBox="0 0 24 24" fill="none" xmlns="http://www.w3.org/2000/svg">
<path fill-rule="evenodd" clip-rule="evenodd" d="M6.67671 21.168L5.89671 21.5206C4.02881 22.365 3.07001 22.562 3.02001 22.1116C2.96201 21.5883 2.93741 19.6566 2.94601 16.3168C2.95671 14.1008 2.97401 11.8946 2.99801 9.6981C3.04401 9.4089 3.40661 9.1108 4.08581 8.8038C4.75441 8.5015 5.17971 8.4179 5.36181 8.5529C5.41241 8.6067 5.45321 8.7736 5.48421 9.0535C5.60831 10.1733 5.63801 13.0549 5.57321 17.6982C5.56351 18.2138 5.56041 18.6882 5.56381 19.1212L8.40521 17.76C8.68381 17.6597 8.88741 17.737 9.01601 17.992C9.14461 18.247 9.22031 18.478 9.24331 18.6849C9.32561 19.4273 9.10871 19.9344 8.59281 20.206L8.06951 20.4617C7.56411 20.7285 7.09981 20.9639 6.67671 21.168Z" fill="black"/>
<path fill-rule="evenodd" clip-rule="evenodd" d="M12.127 18.7617C10.868 19.2669 10.0196 19.0784 9.58195 18.1963C9.14425 17.3141 8.86335 16.3132 8.73925 15.1934C8.68255 14.6822 8.64835 14.1225 8.63665 13.5143C8.58155 11.6092 8.78765 9.8992 9.25495 8.3843C9.72225 6.8693 10.5819 5.8288 11.8342 5.2627L11.8661 5.2483C13.1278 4.7674 13.9792 4.9577 14.4201 5.8192C14.8611 6.6807 15.1417 7.6531 15.2617 8.7364C15.3211 9.2719 15.352 9.8523 15.3544 10.4775C15.4818 14.9445 14.406 17.7059 12.127 18.7617ZM12.0506 16.1121C12.6608 15.7852 12.9355 14.2422 12.8749 11.4833C12.8643 10.7851 12.828 10.1561 12.766 9.5962C12.7295 9.2676 12.6601 8.842 12.5576 8.3196C12.4551 7.7971 12.23 7.5762 11.8823 7.6567C11.5427 7.8102 11.311 8.3335 11.1871 9.2267C11.0632 10.1199 11.0129 11.1236 11.0361 12.2379C11.048 12.9482 11.0849 13.5834 11.147 14.1433C11.1848 14.4841 11.2579 14.9175 11.3664 15.4437C11.4749 15.9698 11.7029 16.1926 12.0506 16.1121Z" fill="black"/>
<path fill-rule="evenodd" clip-rule="evenodd" d="M20.0009 15.1448L19.2209 15.4974C17.3531 16.3417 16.3942 16.5387 16.3443 16.0884C16.2863 15.565 16.2616 13.6334 16.2703 10.2936C16.281 8.0776 16.2983 5.8713 16.3223 3.6749C16.3682 3.3857 16.7308 3.0876 17.41 2.7805C18.0786 2.4783 18.504 2.3947 18.6861 2.5296C18.7366 2.5835 18.7774 2.7503 18.8085 3.0303C18.9326 4.1501 18.9623 7.0316 18.8975 11.675C18.8878 12.1906 18.8846 12.6649 18.8881 13.098L21.7295 11.7368C22.0081 11.6364 22.2117 11.7137 22.3402 11.9687C22.4688 12.2238 22.5446 12.4547 22.5675 12.6617C22.6498 13.4041 22.433 13.9111 21.917 14.1827L21.3937 14.4385C20.8883 14.7053 20.4241 14.9407 20.0009 15.1448Z" fill="black"/>
</svg>
