<svg width="24" height="24" viewBox="0 0 24 24" fill="none" xmlns="http://www.w3.org/2000/svg">
<path fill-rule="evenodd" clip-rule="evenodd" d="M5 7.68147C5 8.9231 5.08724 10.7133 5.39357 11.2108C5.6999 11.7083 8.37046 14.1723 9.23394 16.1789C10.0974 18.1855 10.2463 21 11.6645 21C13.0826 21 13.5471 19.927 13.3966 17.7228C13.2462 15.5187 12.1925 14.1583 12.9335 13.6215C13.437 13.2567 14.3252 13.8533 16.4795 13.8533C17.418 13.8533 19 13.8533 19 12.5951C19 11.337 18.7229 11.4814 18.5964 10.6273C18.47 9.77329 18.8508 9.35923 18.4302 8.39561C18.0095 7.432 17.4917 7.31376 17.2509 6.62367C17.0102 5.93359 17.0945 5.19169 15.9684 4.1806C14.8422 3.1695 13.0448 3 11.6645 3C10.2842 3 6.18342 3.46243 5.61863 4.76815C5.05383 6.07387 5 6.54983 5 7.68147Z" fill="black"/>
</svg>
