<svg width="34" height="40" viewBox="0 0 34 40" fill="none" xmlns="http://www.w3.org/2000/svg">
<path d="M0 3C0 1.34315 1.34315 0 3 0H23L34 11V37C34 38.6569 32.6569 40 31 40H3C1.34315 40 0 38.6569 0 37V3Z" fill="url(#paint0_linear_10597_522)"/>
<path d="M34 11L26 11C24.3431 11 23 9.65685 23 8V0L34 11Z" fill="#AB381D"/>
<path fill-rule="evenodd" clip-rule="evenodd" d="M7 12C7 10.8954 7.89543 10 9 10H19C20.1046 10 21 10.8954 21 12V18C21 19.1046 20.1046 20 19 20H9C7.89543 20 7 19.1046 7 18V12ZM9 12H19V18H9V12ZM25 22C25 23.1046 24.1046 24 23 24H11V22H23V15H25V22Z" fill="#FFB3A0"/>
<path d="M13.2437 33.0127V37.4219H12.2593V32.3018H13.1719L13.2437 33.0127ZM15.585 34.1099V34.1816C15.585 34.4505 15.5531 34.7 15.4893 34.9302C15.4277 35.1603 15.3366 35.3608 15.2158 35.5317C15.0951 35.7004 14.9447 35.8325 14.7646 35.9282C14.5869 36.0216 14.3818 36.0684 14.1494 36.0684C13.9238 36.0684 13.7279 36.0228 13.5615 35.9316C13.3952 35.8405 13.255 35.7129 13.1411 35.5488C13.0295 35.3825 12.9395 35.1899 12.8711 34.9712C12.8027 34.7524 12.7503 34.5177 12.7139 34.2671V34.0791C12.7503 33.8102 12.8027 33.5641 12.8711 33.3408C12.9395 33.1152 13.0295 32.9204 13.1411 32.7563C13.255 32.59 13.394 32.4613 13.5581 32.3701C13.7244 32.279 13.9193 32.2334 14.1426 32.2334C14.3773 32.2334 14.5835 32.2778 14.7612 32.3667C14.9412 32.4556 15.0916 32.5832 15.2124 32.7495C15.3354 32.9159 15.4277 33.1141 15.4893 33.3442C15.5531 33.5744 15.585 33.8296 15.585 34.1099ZM14.5972 34.1816V34.1099C14.5972 33.9526 14.5835 33.8079 14.5562 33.6758C14.5311 33.5413 14.4901 33.424 14.4331 33.3237C14.3784 33.2235 14.3055 33.146 14.2144 33.0913C14.1255 33.0343 14.0173 33.0059 13.8896 33.0059C13.7552 33.0059 13.6401 33.0275 13.5444 33.0708C13.451 33.1141 13.3747 33.1768 13.3154 33.2588C13.2562 33.3408 13.2118 33.4388 13.1821 33.5527C13.1525 33.6667 13.1343 33.7954 13.1274 33.939V34.4141C13.1388 34.5827 13.1707 34.7342 13.2231 34.8687C13.2756 35.0008 13.3564 35.1056 13.4658 35.1831C13.5752 35.2606 13.7188 35.2993 13.8965 35.2993C14.0264 35.2993 14.1357 35.2708 14.2246 35.2139C14.3135 35.1546 14.3853 35.0737 14.4399 34.9712C14.4969 34.8687 14.5368 34.7502 14.5596 34.6157C14.5846 34.4813 14.5972 34.3366 14.5972 34.1816ZM17.1812 33.0127V37.4219H16.1968V32.3018H17.1094L17.1812 33.0127ZM19.5225 34.1099V34.1816C19.5225 34.4505 19.4906 34.7 19.4268 34.9302C19.3652 35.1603 19.2741 35.3608 19.1533 35.5317C19.0326 35.7004 18.8822 35.8325 18.7021 35.9282C18.5244 36.0216 18.3193 36.0684 18.0869 36.0684C17.8613 36.0684 17.6654 36.0228 17.499 35.9316C17.3327 35.8405 17.1925 35.7129 17.0786 35.5488C16.967 35.3825 16.877 35.1899 16.8086 34.9712C16.7402 34.7524 16.6878 34.5177 16.6514 34.2671V34.0791C16.6878 33.8102 16.7402 33.5641 16.8086 33.3408C16.877 33.1152 16.967 32.9204 17.0786 32.7563C17.1925 32.59 17.3315 32.4613 17.4956 32.3701C17.6619 32.279 17.8568 32.2334 18.0801 32.2334C18.3148 32.2334 18.521 32.2778 18.6987 32.3667C18.8787 32.4556 19.0291 32.5832 19.1499 32.7495C19.2729 32.9159 19.3652 33.1141 19.4268 33.3442C19.4906 33.5744 19.5225 33.8296 19.5225 34.1099ZM18.5347 34.1816V34.1099C18.5347 33.9526 18.521 33.8079 18.4937 33.6758C18.4686 33.5413 18.4276 33.424 18.3706 33.3237C18.3159 33.2235 18.243 33.146 18.1519 33.0913C18.063 33.0343 17.9548 33.0059 17.8271 33.0059C17.6927 33.0059 17.5776 33.0275 17.4819 33.0708C17.3885 33.1141 17.3122 33.1768 17.2529 33.2588C17.1937 33.3408 17.1493 33.4388 17.1196 33.5527C17.09 33.6667 17.0718 33.7954 17.0649 33.939V34.4141C17.0763 34.5827 17.1082 34.7342 17.1606 34.8687C17.2131 35.0008 17.2939 35.1056 17.4033 35.1831C17.5127 35.2606 17.6562 35.2993 17.834 35.2993C17.9639 35.2993 18.0732 35.2708 18.1621 35.2139C18.251 35.1546 18.3228 35.0737 18.3774 34.9712C18.4344 34.8687 18.4743 34.7502 18.4971 34.6157C18.5221 34.4813 18.5347 34.3366 18.5347 34.1816ZM21.9458 32.3018V32.999H19.7925V32.3018H21.9458ZM20.3257 31.3892H21.3101V34.8857C21.3101 34.9928 21.3237 35.0749 21.3511 35.1318C21.3807 35.1888 21.424 35.2287 21.481 35.2515C21.5379 35.272 21.6097 35.2822 21.6963 35.2822C21.7578 35.2822 21.8125 35.2799 21.8604 35.2754C21.9105 35.2686 21.9526 35.2617 21.9868 35.2549L21.9902 35.9795C21.9059 36.0068 21.8148 36.0285 21.7168 36.0444C21.6188 36.0604 21.5106 36.0684 21.3921 36.0684C21.1756 36.0684 20.9865 36.033 20.8247 35.9624C20.6652 35.8895 20.5422 35.7733 20.4556 35.6138C20.369 35.4543 20.3257 35.2446 20.3257 34.9849V31.3892Z" fill="white"/>
<defs>
<linearGradient id="paint0_linear_10597_522" x1="0" y1="0" x2="0" y2="40" gradientUnits="userSpaceOnUse">
<stop stop-color="#DC7259"/>
<stop offset="1" stop-color="#D14423"/>
</linearGradient>
</defs>
</svg>
