<svg width="34" height="40" viewBox="0 0 34 40" fill="none" xmlns="http://www.w3.org/2000/svg">
<path fill-rule="evenodd" clip-rule="evenodd" d="M17.7168 33.172C18.2348 33.172 18.4238 33.655 18.4238 34.18C18.4238 34.642 18.2978 35.195 17.7168 35.195C17.1708 35.195 16.9888 34.642 16.9888 34.145C16.9888 33.683 17.1708 33.172 17.7168 33.172ZM19.5718 31.002H18.3818V32.7589H18.3678C18.1228 32.43 17.7798 32.262 17.3318 32.262C16.3028 32.262 15.7988 33.158 15.7988 34.103C15.7988 35.125 16.2818 36.1049 17.4228 36.1049C17.8428 36.1049 18.1928 35.923 18.4238 35.58H18.4378V36H19.5718V31.002ZM12.7095 34.1872C12.7095 33.7252 12.8775 33.1722 13.4305 33.1722C13.9835 33.1722 14.1585 33.7252 14.1585 34.1872C14.1585 34.6492 13.9835 35.1952 13.4305 35.1952C12.8775 35.1952 12.7095 34.6492 12.7095 34.1872ZM11.5195 34.1872C11.5195 35.2792 12.3035 36.1052 13.4305 36.1052C14.5575 36.1052 15.3485 35.2792 15.3485 34.1872C15.3485 33.0952 14.5575 32.2622 13.4305 32.2622C12.3035 32.2622 11.5195 33.0952 11.5195 34.1872ZM21.839 32.3671H22.574V33.1371H21.839V34.7891C21.839 35.0761 22.007 35.1391 22.266 35.1391C22.3142 35.1391 22.364 35.1357 22.4147 35.1323C22.4672 35.1287 22.5206 35.1251 22.574 35.1251V36.0001C22.481 36.0031 22.388 36.0099 22.295 36.0168C22.171 36.0259 22.047 36.0351 21.923 36.0351C20.908 36.0351 20.649 35.7411 20.649 34.7541V33.1371H20.047V32.3671H20.649V31.2681H21.839V32.3671Z" fill="white"/>
<path d="M0 28H34V37C34 38.6569 32.6569 40 31 40H3C1.34315 40 0 38.6569 0 37V28Z" fill="#F8B859"/>
<path d="M0 3C0 1.34315 1.34315 0 3 0H23L34 11V28H0V3Z" fill="#F5F5F5"/>
<path d="M34 11L26 11C24.3431 11 23 9.65685 23 8V0L34 11Z" fill="#DBDBDB"/>
<path fill-rule="evenodd" clip-rule="evenodd" d="M10 0H8V2H10V4H8V6H10V8H8V10H10V12H8V14H10V12H12V10H10V8H12V6H10V4H12V2H10V0ZM8 17C8 16.4477 8.44771 16 9 16H11C11.5523 16 12 16.4477 12 17V23C12 23.5523 11.5523 24 11 24H9C8.44771 24 8 23.5523 8 23V17ZM9 23V20H11V23H9Z" fill="#F8B859"/>
<path d="M12.5635 33.0127V37.4219H11.5791V32.3018H12.4917L12.5635 33.0127ZM14.9048 34.1099V34.1816C14.9048 34.4505 14.8729 34.7 14.8091 34.9302C14.7476 35.1603 14.6564 35.3608 14.5356 35.5317C14.4149 35.7004 14.2645 35.8325 14.0845 35.9282C13.9067 36.0216 13.7017 36.0684 13.4692 36.0684C13.2437 36.0684 13.0477 36.0228 12.8813 35.9316C12.715 35.8405 12.5749 35.7129 12.4609 35.5488C12.3493 35.3825 12.2593 35.1899 12.1909 34.9712C12.1226 34.7524 12.0701 34.5177 12.0337 34.2671V34.0791C12.0701 33.8102 12.1226 33.5641 12.1909 33.3408C12.2593 33.1152 12.3493 32.9204 12.4609 32.7563C12.5749 32.59 12.7139 32.4613 12.8779 32.3701C13.0443 32.279 13.2391 32.2334 13.4624 32.2334C13.6971 32.2334 13.9033 32.2778 14.0811 32.3667C14.2611 32.4556 14.4115 32.5832 14.5322 32.7495C14.6553 32.9159 14.7476 33.1141 14.8091 33.3442C14.8729 33.5744 14.9048 33.8296 14.9048 34.1099ZM13.917 34.1816V34.1099C13.917 33.9526 13.9033 33.8079 13.876 33.6758C13.8509 33.5413 13.8099 33.424 13.7529 33.3237C13.6982 33.2235 13.6253 33.146 13.5342 33.0913C13.4453 33.0343 13.3371 33.0059 13.2095 33.0059C13.075 33.0059 12.96 33.0275 12.8643 33.0708C12.7708 33.1141 12.6945 33.1768 12.6353 33.2588C12.576 33.3408 12.5316 33.4388 12.502 33.5527C12.4723 33.6667 12.4541 33.7954 12.4473 33.939V34.4141C12.4587 34.5827 12.4906 34.7342 12.543 34.8687C12.5954 35.0008 12.6763 35.1056 12.7856 35.1831C12.895 35.2606 13.0386 35.2993 13.2163 35.2993C13.3462 35.2993 13.4556 35.2708 13.5444 35.2139C13.6333 35.1546 13.7051 35.0737 13.7598 34.9712C13.8167 34.8687 13.8566 34.7502 13.8794 34.6157C13.9045 34.4813 13.917 34.3366 13.917 34.1816ZM16.501 30.7466V36H15.5166V30.7466H16.501ZM18.832 32.3018L17.2256 34.1338L16.3643 35.0054L16.0054 34.2944L16.689 33.4263L17.6494 32.3018H18.832ZM17.8101 36L16.7163 34.291L17.3965 33.6963L18.9448 36H17.8101ZM21.5288 32.3018H22.4209V35.877C22.4209 36.2142 22.3457 36.5002 22.1953 36.7349C22.0472 36.9718 21.8398 37.1507 21.5732 37.2715C21.3066 37.3945 20.9967 37.4561 20.6436 37.4561C20.4886 37.4561 20.3245 37.4355 20.1514 37.3945C19.9805 37.3535 19.8164 37.2897 19.6592 37.2031C19.5042 37.1165 19.3743 37.0072 19.2695 36.875L19.7036 36.2939C19.8175 36.4261 19.9497 36.5286 20.1001 36.6016C20.2505 36.6768 20.4168 36.7144 20.5991 36.7144C20.7769 36.7144 20.9272 36.6813 21.0503 36.6152C21.1733 36.5514 21.2679 36.4569 21.334 36.3315C21.4001 36.2085 21.4331 36.0592 21.4331 35.8838V33.1562L21.5288 32.3018ZM19.0405 34.1953V34.1235C19.0405 33.841 19.0747 33.5846 19.1431 33.3545C19.2137 33.1221 19.3128 32.9227 19.4404 32.7563C19.5703 32.59 19.7275 32.4613 19.9121 32.3701C20.0967 32.279 20.3052 32.2334 20.5376 32.2334C20.7837 32.2334 20.9899 32.279 21.1562 32.3701C21.3226 32.4613 21.4593 32.5911 21.5664 32.7598C21.6735 32.9261 21.7567 33.1232 21.8159 33.3511C21.8774 33.5767 21.9253 33.8239 21.9595 34.0928V34.25C21.9253 34.5075 21.874 34.7467 21.8057 34.9678C21.7373 35.1888 21.6473 35.3825 21.5356 35.5488C21.424 35.7129 21.285 35.8405 21.1187 35.9316C20.9546 36.0228 20.7586 36.0684 20.5308 36.0684C20.3029 36.0684 20.0967 36.0216 19.9121 35.9282C19.7298 35.8348 19.5737 35.7038 19.4438 35.5352C19.314 35.3665 19.2137 35.1683 19.1431 34.9404C19.0747 34.7126 19.0405 34.4642 19.0405 34.1953ZM20.0249 34.1235V34.1953C20.0249 34.348 20.0397 34.4904 20.0693 34.6226C20.099 34.7547 20.1445 34.8721 20.2061 34.9746C20.2699 35.0749 20.3485 35.1535 20.4419 35.2104C20.5376 35.2651 20.6504 35.2925 20.7803 35.2925C20.9603 35.2925 21.1073 35.2549 21.2212 35.1797C21.3351 35.1022 21.4206 34.9963 21.4775 34.8618C21.5345 34.7274 21.5675 34.5724 21.5767 34.397V33.9492C21.5721 33.8057 21.5527 33.6769 21.5186 33.563C21.4844 33.4468 21.4365 33.3477 21.375 33.2656C21.3135 33.1836 21.2337 33.1198 21.1357 33.0742C21.0378 33.0286 20.9215 33.0059 20.7871 33.0059C20.6572 33.0059 20.5444 33.0355 20.4487 33.0947C20.3553 33.1517 20.2767 33.2303 20.2129 33.3306C20.1514 33.4308 20.1047 33.5493 20.0728 33.686C20.0409 33.8205 20.0249 33.9663 20.0249 34.1235Z" fill="white"/>
</svg>
