<svg width="34" height="40" viewBox="0 0 34 40" fill="none" xmlns="http://www.w3.org/2000/svg">
<path d="M0 28H34V37C34 38.6569 32.6569 40 31 40H3C1.34315 40 0 38.6569 0 37V28Z" fill="#00ACA1"/>
<path d="M0 3C0 1.34315 1.34315 0 3 0H23L34 11V28H0V3Z" fill="#F5F5F5"/>
<path d="M34 11L26 11C24.3431 11 23 9.65685 23 8V0L34 11Z" fill="#DBDBDB"/>
<path fill-rule="evenodd" clip-rule="evenodd" d="M15 21V18.984L11.5 18L15 17V15L9 17V19L15 21ZM19 15V17.016L22.5 18L19 19V21L25 19V17L19 15Z" fill="#00ACA1"/>
<path d="M14.8535 32.3018V32.999H12.7002V32.3018H14.8535ZM13.2334 31.3892H14.2178V34.8857C14.2178 34.9928 14.2314 35.0749 14.2588 35.1318C14.2884 35.1888 14.3317 35.2287 14.3887 35.2515C14.4456 35.272 14.5174 35.2822 14.604 35.2822C14.6655 35.2822 14.7202 35.2799 14.7681 35.2754C14.8182 35.2686 14.8604 35.2617 14.8945 35.2549L14.8979 35.9795C14.8136 36.0068 14.7225 36.0285 14.6245 36.0444C14.5265 36.0604 14.4183 36.0684 14.2998 36.0684C14.0833 36.0684 13.8942 36.033 13.7324 35.9624C13.5729 35.8895 13.4499 35.7733 13.3633 35.6138C13.2767 35.4543 13.2334 35.2446 13.2334 34.9849V31.3892ZM17.4102 35.166V33.5186C17.4102 33.4001 17.3908 33.2987 17.3521 33.2144C17.3133 33.1278 17.2529 33.0605 17.1709 33.0127C17.0911 32.9648 16.9875 32.9409 16.8599 32.9409C16.7505 32.9409 16.6559 32.9603 16.5762 32.999C16.4964 33.0355 16.4349 33.089 16.3916 33.1597C16.3483 33.228 16.3267 33.3089 16.3267 33.4023H15.3423C15.3423 33.2451 15.3787 33.0959 15.4517 32.9546C15.5246 32.8133 15.6305 32.6891 15.7695 32.582C15.9085 32.4727 16.0737 32.3872 16.2651 32.3257C16.4588 32.2642 16.6753 32.2334 16.9146 32.2334C17.2017 32.2334 17.4569 32.2812 17.6802 32.377C17.9035 32.4727 18.0789 32.6162 18.2065 32.8076C18.3364 32.999 18.4014 33.2383 18.4014 33.5254V35.1079C18.4014 35.3107 18.4139 35.4771 18.439 35.6069C18.464 35.7345 18.5005 35.8462 18.5483 35.9419V36H17.5537C17.5059 35.8997 17.4694 35.7744 17.4443 35.624C17.4215 35.4714 17.4102 35.3187 17.4102 35.166ZM17.54 33.7476L17.5469 34.3047H16.9966C16.8667 34.3047 16.7539 34.3195 16.6582 34.3491C16.5625 34.3787 16.4839 34.4209 16.4224 34.4756C16.3608 34.528 16.3153 34.5895 16.2856 34.6602C16.2583 34.7308 16.2446 34.8083 16.2446 34.8926C16.2446 34.9769 16.264 35.0532 16.3027 35.1216C16.3415 35.1877 16.3973 35.2401 16.4702 35.2788C16.5431 35.3153 16.6286 35.3335 16.7266 35.3335C16.8747 35.3335 17.0034 35.3039 17.1128 35.2446C17.2222 35.1854 17.3065 35.1125 17.3657 35.0259C17.4272 34.9393 17.4591 34.8573 17.4614 34.7798L17.7212 35.1968C17.6847 35.2902 17.6346 35.387 17.5708 35.4873C17.5093 35.5876 17.4307 35.6821 17.335 35.771C17.2393 35.8576 17.1242 35.9294 16.9897 35.9863C16.8553 36.041 16.6958 36.0684 16.5112 36.0684C16.2765 36.0684 16.0635 36.0216 15.8721 35.9282C15.6829 35.8325 15.5326 35.7015 15.4209 35.5352C15.3115 35.3665 15.2568 35.1751 15.2568 34.9609C15.2568 34.7673 15.2933 34.5952 15.3662 34.4448C15.4391 34.2944 15.5462 34.168 15.6875 34.0654C15.8311 33.9606 16.0099 33.882 16.2241 33.8296C16.4383 33.7749 16.6867 33.7476 16.9692 33.7476H17.54ZM20.1445 33.1084V36H19.1602V32.3018H20.0864L20.1445 33.1084ZM21.2588 32.2778L21.2417 33.1904C21.1938 33.1836 21.1357 33.1779 21.0674 33.1733C21.0013 33.1665 20.9409 33.1631 20.8862 33.1631C20.7472 33.1631 20.6265 33.1813 20.5239 33.2178C20.4237 33.252 20.3394 33.3032 20.271 33.3716C20.2049 33.4399 20.1548 33.5231 20.1206 33.6211C20.0887 33.7191 20.0705 33.8307 20.0659 33.9561L19.8677 33.8945C19.8677 33.6553 19.8916 33.4354 19.9395 33.2349C19.9873 33.0321 20.0568 32.8555 20.1479 32.7051C20.2414 32.5547 20.3553 32.4385 20.4897 32.3564C20.6242 32.2744 20.778 32.2334 20.9512 32.2334C21.0059 32.2334 21.0617 32.238 21.1187 32.2471C21.1756 32.2539 21.2223 32.2642 21.2588 32.2778Z" fill="white"/>
</svg>
