<svg width="34" height="40" viewBox="0 0 34 40" fill="none" xmlns="http://www.w3.org/2000/svg">
<path fill-rule="evenodd" clip-rule="evenodd" d="M17.7168 33.172C18.2348 33.172 18.4238 33.655 18.4238 34.18C18.4238 34.642 18.2978 35.195 17.7168 35.195C17.1708 35.195 16.9888 34.642 16.9888 34.145C16.9888 33.683 17.1708 33.172 17.7168 33.172ZM19.5718 31.002H18.3818V32.7589H18.3678C18.1228 32.43 17.7798 32.262 17.3318 32.262C16.3028 32.262 15.7988 33.158 15.7988 34.103C15.7988 35.125 16.2818 36.1049 17.4228 36.1049C17.8428 36.1049 18.1928 35.923 18.4238 35.58H18.4378V36H19.5718V31.002ZM12.7095 34.1872C12.7095 33.7252 12.8775 33.1722 13.4305 33.1722C13.9835 33.1722 14.1585 33.7252 14.1585 34.1872C14.1585 34.6492 13.9835 35.1952 13.4305 35.1952C12.8775 35.1952 12.7095 34.6492 12.7095 34.1872ZM11.5195 34.1872C11.5195 35.2792 12.3035 36.1052 13.4305 36.1052C14.5575 36.1052 15.3485 35.2792 15.3485 34.1872C15.3485 33.0952 14.5575 32.2622 13.4305 32.2622C12.3035 32.2622 11.5195 33.0952 11.5195 34.1872ZM21.839 32.3671H22.574V33.1371H21.839V34.7891C21.839 35.0761 22.007 35.1391 22.266 35.1391C22.3142 35.1391 22.364 35.1357 22.4147 35.1323C22.4672 35.1287 22.5206 35.1251 22.574 35.1251V36.0001C22.481 36.0031 22.388 36.0099 22.295 36.0168C22.171 36.0259 22.047 36.0351 21.923 36.0351C20.908 36.0351 20.649 35.7411 20.649 34.7541V33.1371H20.047V32.3671H20.649V31.2681H21.839V32.3671Z" fill="white"/>
<path d="M0 28H34V37C34 38.6569 32.6569 40 31 40H3C1.34315 40 0 38.6569 0 37V28Z" fill="#2727B0"/>
<path d="M0 3C0 1.34315 1.34315 0 3 0H23L34 11V28H0V3Z" fill="#F5F5F5"/>
<path d="M34 11L26 11C24.3431 11 23 9.65685 23 8V0L34 11Z" fill="#DBDBDB"/>
<path fill-rule="evenodd" clip-rule="evenodd" d="M8.87912 21.941H12.298L16.9521 24.7493C17.0307 24.8138 17.1293 24.849 17.2311 24.849C17.4738 24.8488 17.6705 24.6519 17.6703 24.4092V12.4399C17.6704 12.3381 17.6352 12.2396 17.5707 12.1609C17.4168 11.9732 17.1398 11.9457 16.9521 12.0996L12.298 14.908H8.87912C8.3936 14.908 8 15.3016 8 15.7871V21.0619C8 21.5474 8.3936 21.941 8.87912 21.941ZM12.9258 16.6664L15.9122 15.2224V21.6268L12.9258 20.1829H9.7583V16.6664H12.9258ZM19.8511 16.3517C19.474 16.4092 19.2397 16.6637 19.3283 16.9191L19.3262 16.92C19.5295 17.4995 19.6305 18.098 19.6284 18.6953C19.6305 19.2975 19.5237 19.9014 19.3196 20.4909C19.229 20.7462 19.4682 20.9996 19.8474 21.06C19.9008 21.0683 19.9542 21.072 20.0076 21.072C20.3259 21.072 20.6156 20.9234 20.6922 20.7057C20.9194 20.0451 21.0337 19.37 21.0374 18.6953C21.0349 18.0251 20.9211 17.3575 20.6955 16.7035C20.6053 16.4477 20.229 16.2908 19.8511 16.3517ZM22.1605 14.6028C22.5252 14.5163 22.9259 14.6454 23.055 14.8938C23.6891 16.1157 24 17.4042 24 18.6923C24.0004 19.9895 23.6796 21.2839 23.0521 22.5153C22.9503 22.7123 22.6763 22.8344 22.3828 22.8344C22.3071 22.8344 22.2301 22.8261 22.1543 22.8092C21.7863 22.7251 21.5914 22.4536 21.7185 22.2077C22.2988 21.0761 22.5922 19.8836 22.5931 18.6919C22.5931 17.5056 22.3054 16.3222 21.7276 15.2025C21.6001 14.9563 21.795 14.686 22.1605 14.6028Z" fill="#2727B0"/>
<path d="M14.0708 35.166V33.5186C14.0708 33.4001 14.0514 33.2987 14.0127 33.2144C13.974 33.1278 13.9136 33.0605 13.8315 33.0127C13.7518 32.9648 13.6481 32.9409 13.5205 32.9409C13.4111 32.9409 13.3166 32.9603 13.2368 32.999C13.1571 33.0355 13.0955 33.089 13.0522 33.1597C13.009 33.228 12.9873 33.3089 12.9873 33.4023H12.0029C12.0029 33.2451 12.0394 33.0959 12.1123 32.9546C12.1852 32.8133 12.2912 32.6891 12.4302 32.582C12.5692 32.4727 12.7344 32.3872 12.9258 32.3257C13.1195 32.2642 13.3359 32.2334 13.5752 32.2334C13.8623 32.2334 14.1175 32.2812 14.3408 32.377C14.5641 32.4727 14.7396 32.6162 14.8672 32.8076C14.9971 32.999 15.062 33.2383 15.062 33.5254V35.1079C15.062 35.3107 15.0745 35.4771 15.0996 35.6069C15.1247 35.7345 15.1611 35.8462 15.209 35.9419V36H14.2144C14.1665 35.8997 14.13 35.7744 14.105 35.624C14.0822 35.4714 14.0708 35.3187 14.0708 35.166ZM14.2007 33.7476L14.2075 34.3047H13.6572C13.5273 34.3047 13.4146 34.3195 13.3188 34.3491C13.2231 34.3787 13.1445 34.4209 13.083 34.4756C13.0215 34.528 12.9759 34.5895 12.9463 34.6602C12.9189 34.7308 12.9053 34.8083 12.9053 34.8926C12.9053 34.9769 12.9246 35.0532 12.9634 35.1216C13.0021 35.1877 13.0579 35.2401 13.1309 35.2788C13.2038 35.3153 13.2892 35.3335 13.3872 35.3335C13.5353 35.3335 13.6641 35.3039 13.7734 35.2446C13.8828 35.1854 13.9671 35.1125 14.0264 35.0259C14.0879 34.9393 14.1198 34.8573 14.1221 34.7798L14.3818 35.1968C14.3454 35.2902 14.2952 35.387 14.2314 35.4873C14.1699 35.5876 14.0913 35.6821 13.9956 35.771C13.8999 35.8576 13.7848 35.9294 13.6504 35.9863C13.516 36.041 13.3564 36.0684 13.1719 36.0684C12.9372 36.0684 12.7241 36.0216 12.5327 35.9282C12.3436 35.8325 12.1932 35.7015 12.0815 35.5352C11.9722 35.3665 11.9175 35.1751 11.9175 34.9609C11.9175 34.7673 11.9539 34.5952 12.0269 34.4448C12.0998 34.2944 12.2069 34.168 12.3481 34.0654C12.4917 33.9606 12.6706 33.882 12.8848 33.8296C13.099 33.7749 13.3473 33.7476 13.6299 33.7476H14.2007ZM16.8599 32.3018V36H15.8721V32.3018H16.8599ZM15.8105 31.3379C15.8105 31.1943 15.8607 31.0758 15.9609 30.9824C16.0612 30.889 16.1956 30.8423 16.3643 30.8423C16.5306 30.8423 16.6639 30.889 16.7642 30.9824C16.8667 31.0758 16.918 31.1943 16.918 31.3379C16.918 31.4814 16.8667 31.5999 16.7642 31.6934C16.6639 31.7868 16.5306 31.8335 16.3643 31.8335C16.1956 31.8335 16.0612 31.7868 15.9609 31.6934C15.8607 31.5999 15.8105 31.4814 15.8105 31.3379ZM18.9277 36H17.9365V31.9736C17.9365 31.6934 17.9912 31.4575 18.1006 31.2661C18.2122 31.0724 18.3683 30.9266 18.5688 30.8286C18.7716 30.7284 19.012 30.6782 19.29 30.6782C19.3812 30.6782 19.4689 30.6851 19.5532 30.6987C19.6375 30.7101 19.7196 30.7249 19.7993 30.7432L19.7891 31.4849C19.7458 31.4735 19.7002 31.4655 19.6523 31.4609C19.6045 31.4564 19.5487 31.4541 19.4849 31.4541C19.3664 31.4541 19.265 31.4746 19.1807 31.5156C19.0986 31.5544 19.036 31.6125 18.9927 31.6899C18.9494 31.7674 18.9277 31.862 18.9277 31.9736V36ZM19.666 32.3018V32.999H17.3862V32.3018H19.666ZM21.4365 36H20.4453V31.9736C20.4453 31.6934 20.5 31.4575 20.6094 31.2661C20.721 31.0724 20.8771 30.9266 21.0776 30.8286C21.2804 30.7284 21.5208 30.6782 21.7988 30.6782C21.89 30.6782 21.9777 30.6851 22.062 30.6987C22.1463 30.7101 22.2284 30.7249 22.3081 30.7432L22.2979 31.4849C22.2546 31.4735 22.209 31.4655 22.1611 31.4609C22.1133 31.4564 22.0575 31.4541 21.9937 31.4541C21.8752 31.4541 21.7738 31.4746 21.6895 31.5156C21.6074 31.5544 21.5448 31.6125 21.5015 31.6899C21.4582 31.7674 21.4365 31.862 21.4365 31.9736V36ZM22.1748 32.3018V32.999H19.895V32.3018H22.1748Z" fill="white"/>
</svg>
