<svg width="34" height="40" viewBox="0 0 34 40" fill="none" xmlns="http://www.w3.org/2000/svg">
<path d="M0 3C0 1.34315 1.34315 0 3 0H23L34 11V37C34 38.6569 32.6569 40 31 40H3C1.34315 40 0 38.6569 0 37V3Z" fill="url(#paint0_linear_10597_507)"/>
<path d="M34 11L26 11C24.3431 11 23 9.65685 23 8V0L34 11Z" fill="#0C864B"/>
<path fill-rule="evenodd" clip-rule="evenodd" d="M12 13H7V15H12V13ZM12 17H7V19H12V17ZM7 21H12V23H7V21ZM23 13H14V15H23V13ZM14 17H23V19H14V17ZM23 21H14V23H23V21Z" fill="#A8E7C9"/>
<path d="M11.8901 32.3018L12.502 33.4263L13.1309 32.3018H14.1802L13.1343 34.1099L14.228 36H13.1753L12.5088 34.8105L11.8423 36H10.7896L11.8833 34.1099L10.8374 32.3018H11.8901ZM15.6978 30.75V36H14.71V30.75H15.6978ZM18.5107 34.978C18.5107 34.9074 18.4902 34.8436 18.4492 34.7866C18.4082 34.7297 18.3319 34.6772 18.2202 34.6294C18.1108 34.5793 17.9525 34.5337 17.7451 34.4927C17.5583 34.4517 17.384 34.4004 17.2222 34.3389C17.0627 34.2751 16.9237 34.1987 16.8052 34.1099C16.689 34.021 16.5978 33.9162 16.5317 33.7954C16.4657 33.6724 16.4326 33.5322 16.4326 33.375C16.4326 33.2201 16.4657 33.0742 16.5317 32.9375C16.6001 32.8008 16.6969 32.68 16.8223 32.5752C16.9499 32.4681 17.1048 32.3849 17.2871 32.3257C17.4717 32.2642 17.679 32.2334 17.9092 32.2334C18.2305 32.2334 18.5062 32.2847 18.7363 32.3872C18.9688 32.4897 19.1465 32.631 19.2695 32.811C19.3949 32.9888 19.4575 33.1916 19.4575 33.4194H18.4731C18.4731 33.3237 18.4526 33.2383 18.4116 33.1631C18.3729 33.0856 18.3114 33.0252 18.2271 32.9819C18.145 32.9364 18.0379 32.9136 17.9058 32.9136C17.7964 32.9136 17.7018 32.9329 17.6221 32.9717C17.5423 33.0081 17.4808 33.0583 17.4375 33.1221C17.3965 33.1836 17.376 33.252 17.376 33.3271C17.376 33.3841 17.3874 33.4354 17.4102 33.481C17.4352 33.5243 17.4751 33.5641 17.5298 33.6006C17.5845 33.637 17.6551 33.6712 17.7417 33.7031C17.8306 33.7327 17.9399 33.7601 18.0698 33.7852C18.3364 33.8398 18.5745 33.9116 18.7842 34.0005C18.9938 34.0871 19.1602 34.2056 19.2832 34.356C19.4062 34.5041 19.4678 34.6989 19.4678 34.9404C19.4678 35.1045 19.4313 35.2549 19.3584 35.3916C19.2855 35.5283 19.1807 35.6479 19.0439 35.7505C18.9072 35.8507 18.7432 35.9294 18.5518 35.9863C18.3626 36.041 18.1496 36.0684 17.9126 36.0684C17.5685 36.0684 17.2769 36.0068 17.0376 35.8838C16.8006 35.7607 16.6206 35.6047 16.4976 35.4155C16.3768 35.2241 16.3164 35.0282 16.3164 34.8276H17.2495C17.2541 34.9621 17.2882 35.0703 17.3521 35.1523C17.4181 35.2344 17.5013 35.2936 17.6016 35.3301C17.7041 35.3665 17.8146 35.3848 17.9331 35.3848C18.0607 35.3848 18.1667 35.3677 18.251 35.3335C18.3353 35.297 18.3991 35.2492 18.4424 35.1899C18.488 35.1284 18.5107 35.0578 18.5107 34.978ZM20.8999 32.3018L21.5117 33.4263L22.1406 32.3018H23.1899L22.144 34.1099L23.2378 36H22.1851L21.5186 34.8105L20.8521 36H19.7993L20.8931 34.1099L19.8472 32.3018H20.8999Z" fill="white"/>
<defs>
<linearGradient id="paint0_linear_10597_507" x1="0" y1="0" x2="0" y2="40" gradientUnits="userSpaceOnUse">
<stop stop-color="#64AD8A"/>
<stop offset="1" stop-color="#0C864B"/>
</linearGradient>
</defs>
</svg>
