<svg width="34" height="40" viewBox="0 0 34 40" fill="none" xmlns="http://www.w3.org/2000/svg">
<path d="M0 3C0 1.34315 1.34315 0 3 0H23L34 11V37C34 38.6569 32.6569 40 31 40H3C1.34315 40 0 38.6569 0 37V3Z" fill="url(#paint0_linear_11086_1152)"/>
<path d="M34 11L26 11C24.3431 11 23 9.65685 23 8V0L34 11Z" fill="#00ACA1"/>
<path fill-rule="evenodd" clip-rule="evenodd" d="M15 21V18.984L11.5 18L15 17V15L9 17V19L15 21ZM19 15V17.016L22.5 18L19 19V21L25 19V17L19 15Z" fill="#A3DCD8"/>
<path d="M11.2373 30.75V36H10.2529V30.75H11.2373ZM11.0972 34.021H10.8271C10.8294 33.7635 10.8636 33.5265 10.9297 33.3101C10.9958 33.0913 11.0903 32.9022 11.2134 32.7427C11.3364 32.5809 11.4834 32.4556 11.6543 32.3667C11.8275 32.2778 12.0189 32.2334 12.2285 32.2334C12.4108 32.2334 12.576 32.2596 12.7241 32.312C12.8745 32.3621 13.0033 32.4442 13.1104 32.5581C13.2197 32.6698 13.304 32.8167 13.3633 32.999C13.4225 33.1813 13.4521 33.4023 13.4521 33.6621V36H12.4609V33.6553C12.4609 33.4912 12.437 33.3625 12.3892 33.269C12.3436 33.1733 12.2764 33.1061 12.1875 33.0674C12.1009 33.0264 11.9938 33.0059 11.8662 33.0059C11.7249 33.0059 11.6042 33.0321 11.5039 33.0845C11.4059 33.1369 11.3273 33.2098 11.2681 33.3032C11.2088 33.3944 11.1655 33.5015 11.1382 33.6245C11.1108 33.7476 11.0972 33.8797 11.0972 34.021ZM16.0122 32.3018V32.999H13.8589V32.3018H16.0122ZM14.3921 31.3892H15.3765V34.8857C15.3765 34.9928 15.3901 35.0749 15.4175 35.1318C15.4471 35.1888 15.4904 35.2287 15.5474 35.2515C15.6043 35.272 15.6761 35.2822 15.7627 35.2822C15.8242 35.2822 15.8789 35.2799 15.9268 35.2754C15.9769 35.2686 16.019 35.2617 16.0532 35.2549L16.0566 35.9795C15.9723 36.0068 15.8812 36.0285 15.7832 36.0444C15.6852 36.0604 15.577 36.0684 15.4585 36.0684C15.242 36.0684 15.0529 36.033 14.8911 35.9624C14.7316 35.8895 14.6086 35.7733 14.522 35.6138C14.4354 35.4543 14.3921 35.2446 14.3921 34.9849V31.3892ZM17.5571 33.0674V36H16.5693V32.3018H17.4956L17.5571 33.0674ZM17.4204 34.021H17.147C17.147 33.7635 17.1777 33.5265 17.2393 33.3101C17.3031 33.0913 17.3953 32.9022 17.5161 32.7427C17.6392 32.5809 17.7907 32.4556 17.9707 32.3667C18.1507 32.2778 18.3592 32.2334 18.5962 32.2334C18.7603 32.2334 18.9106 32.2585 19.0474 32.3086C19.1841 32.3564 19.3014 32.4328 19.3994 32.5376C19.4997 32.6401 19.5771 32.7746 19.6318 32.9409C19.6865 33.105 19.7139 33.3021 19.7139 33.5322V36H18.7295V33.6416C18.7295 33.473 18.7067 33.3431 18.6611 33.252C18.6156 33.1608 18.5506 33.097 18.4663 33.0605C18.3843 33.0241 18.2852 33.0059 18.1689 33.0059C18.0413 33.0059 17.9297 33.0321 17.834 33.0845C17.7406 33.1369 17.6631 33.2098 17.6016 33.3032C17.54 33.3944 17.4945 33.5015 17.4648 33.6245C17.4352 33.7476 17.4204 33.8797 17.4204 34.021ZM19.6216 33.9082L19.2695 33.9526C19.2695 33.7111 19.2992 33.4867 19.3584 33.2793C19.4199 33.0719 19.5099 32.8896 19.6284 32.7324C19.7492 32.5752 19.8984 32.4533 20.0762 32.3667C20.2539 32.2778 20.459 32.2334 20.6914 32.2334C20.8691 32.2334 21.0309 32.2596 21.1768 32.312C21.3226 32.3621 21.4468 32.443 21.5493 32.5547C21.6541 32.6641 21.7339 32.8076 21.7886 32.9854C21.8455 33.1631 21.874 33.3807 21.874 33.6382V36H20.8862V33.6382C20.8862 33.4673 20.8634 33.3374 20.8179 33.2485C20.7746 33.1574 20.7108 33.0947 20.6265 33.0605C20.5444 33.0241 20.4465 33.0059 20.3325 33.0059C20.214 33.0059 20.1104 33.0298 20.0215 33.0776C19.9326 33.1232 19.8586 33.187 19.7993 33.269C19.7401 33.3511 19.6956 33.4468 19.666 33.5562C19.6364 33.6632 19.6216 33.7806 19.6216 33.9082ZM23.6753 30.75V36H22.6875V30.75H23.6753Z" fill="white"/>
<defs>
<linearGradient id="paint0_linear_11086_1152" x1="0" y1="0" x2="0" y2="40" gradientUnits="userSpaceOnUse">
<stop stop-color="#7FC4BD"/>
<stop offset="1" stop-color="#00ACA1"/>
</linearGradient>
</defs>
</svg>
