<svg width="34" height="40" viewBox="0 0 34 40" fill="none" xmlns="http://www.w3.org/2000/svg">
<path fill-rule="evenodd" clip-rule="evenodd" d="M17.7168 33.172C18.2348 33.172 18.4238 33.655 18.4238 34.18C18.4238 34.642 18.2978 35.195 17.7168 35.195C17.1708 35.195 16.9888 34.642 16.9888 34.145C16.9888 33.683 17.1708 33.172 17.7168 33.172ZM19.5718 31.002H18.3818V32.7589H18.3678C18.1228 32.43 17.7798 32.262 17.3318 32.262C16.3028 32.262 15.7988 33.158 15.7988 34.103C15.7988 35.125 16.2818 36.1049 17.4228 36.1049C17.8428 36.1049 18.1928 35.923 18.4238 35.58H18.4378V36H19.5718V31.002ZM12.7095 34.1872C12.7095 33.7252 12.8775 33.1722 13.4305 33.1722C13.9835 33.1722 14.1585 33.7252 14.1585 34.1872C14.1585 34.6492 13.9835 35.1952 13.4305 35.1952C12.8775 35.1952 12.7095 34.6492 12.7095 34.1872ZM11.5195 34.1872C11.5195 35.2792 12.3035 36.1052 13.4305 36.1052C14.5575 36.1052 15.3485 35.2792 15.3485 34.1872C15.3485 33.0952 14.5575 32.2622 13.4305 32.2622C12.3035 32.2622 11.5195 33.0952 11.5195 34.1872ZM21.839 32.3671H22.574V33.1371H21.839V34.7891C21.839 35.0761 22.007 35.1391 22.266 35.1391C22.3142 35.1391 22.364 35.1357 22.4147 35.1323C22.4672 35.1287 22.5206 35.1251 22.574 35.1251V36.0001C22.481 36.0031 22.388 36.0099 22.295 36.0168C22.171 36.0259 22.047 36.0351 21.923 36.0351C20.908 36.0351 20.649 35.7411 20.649 34.7541V33.1371H20.047V32.3671H20.649V31.2681H21.839V32.3671Z" fill="white"/>
<path d="M0 28H34V37C34 38.6569 32.6569 40 31 40H3C1.34315 40 0 38.6569 0 37V28Z" fill="#0F9D58"/>
<path d="M0 3C0 1.34315 1.34315 0 3 0H23L34 11V28H0V3Z" fill="#F5F5F5"/>
<path d="M34 11L26 11C24.3431 11 23 9.65685 23 8V0L34 11Z" fill="#DBDBDB"/>
<path fill-rule="evenodd" clip-rule="evenodd" d="M12 13H7V15H12V13ZM12 17H7V19H12V17ZM7 21H12V23H7V21ZM23 13H14V15H23V13ZM14 17H23V19H14V17ZM23 21H14V23H23V21Z" fill="#0F9D58"/>
<path d="M11.48 34.1885V34.1167C11.48 33.8455 11.5187 33.596 11.5962 33.3682C11.6737 33.138 11.7865 32.9386 11.9346 32.77C12.0827 32.6014 12.265 32.4704 12.4814 32.377C12.6979 32.2812 12.9463 32.2334 13.2266 32.2334C13.5068 32.2334 13.7563 32.2812 13.9751 32.377C14.1938 32.4704 14.3773 32.6014 14.5254 32.77C14.6758 32.9386 14.7897 33.138 14.8672 33.3682C14.9447 33.596 14.9834 33.8455 14.9834 34.1167V34.1885C14.9834 34.4574 14.9447 34.7069 14.8672 34.937C14.7897 35.1649 14.6758 35.3643 14.5254 35.5352C14.3773 35.7038 14.195 35.8348 13.9785 35.9282C13.762 36.0216 13.5137 36.0684 13.2334 36.0684C12.9531 36.0684 12.7036 36.0216 12.4849 35.9282C12.2684 35.8348 12.085 35.7038 11.9346 35.5352C11.7865 35.3643 11.6737 35.1649 11.5962 34.937C11.5187 34.7069 11.48 34.4574 11.48 34.1885ZM12.4644 34.1167V34.1885C12.4644 34.3434 12.478 34.4881 12.5054 34.6226C12.5327 34.757 12.576 34.8755 12.6353 34.978C12.6968 35.0783 12.7765 35.1569 12.8745 35.2139C12.9725 35.2708 13.0921 35.2993 13.2334 35.2993C13.3701 35.2993 13.4875 35.2708 13.5854 35.2139C13.6834 35.1569 13.762 35.0783 13.8213 34.978C13.8805 34.8755 13.9238 34.757 13.9512 34.6226C13.9808 34.4881 13.9956 34.3434 13.9956 34.1885V34.1167C13.9956 33.9663 13.9808 33.825 13.9512 33.6929C13.9238 33.5584 13.8794 33.4399 13.8179 33.3374C13.7586 33.2326 13.68 33.1506 13.582 33.0913C13.484 33.0321 13.3656 33.0024 13.2266 33.0024C13.0876 33.0024 12.9691 33.0321 12.8711 33.0913C12.7754 33.1506 12.6968 33.2326 12.6353 33.3374C12.576 33.4399 12.5327 33.5584 12.5054 33.6929C12.478 33.825 12.4644 33.9663 12.4644 34.1167ZM17.7725 35.1934V30.75H18.7637V36H17.8716L17.7725 35.1934ZM15.4346 34.1953V34.1235C15.4346 33.841 15.4665 33.5846 15.5303 33.3545C15.5941 33.1221 15.6875 32.9227 15.8105 32.7563C15.9336 32.59 16.0851 32.4613 16.2651 32.3701C16.4451 32.279 16.6502 32.2334 16.8804 32.2334C17.0968 32.2334 17.286 32.279 17.4478 32.3701C17.6118 32.4613 17.7508 32.5911 17.8647 32.7598C17.981 32.9261 18.0744 33.1232 18.145 33.3511C18.2157 33.5767 18.2669 33.8239 18.2988 34.0928V34.25C18.2669 34.5075 18.2157 34.7467 18.145 34.9678C18.0744 35.1888 17.981 35.3825 17.8647 35.5488C17.7508 35.7129 17.6118 35.8405 17.4478 35.9316C17.2837 36.0228 17.0923 36.0684 16.8735 36.0684C16.6434 36.0684 16.4383 36.0216 16.2583 35.9282C16.0806 35.8348 15.9302 35.7038 15.8071 35.5352C15.6864 35.3665 15.5941 35.1683 15.5303 34.9404C15.4665 34.7126 15.4346 34.4642 15.4346 34.1953ZM16.4189 34.1235V34.1953C16.4189 34.348 16.4303 34.4904 16.4531 34.6226C16.4782 34.7547 16.5181 34.8721 16.5728 34.9746C16.6297 35.0749 16.7026 35.1535 16.7915 35.2104C16.8826 35.2651 16.9932 35.2925 17.123 35.2925C17.2917 35.2925 17.4307 35.2549 17.54 35.1797C17.6494 35.1022 17.7326 34.9963 17.7896 34.8618C17.8488 34.7274 17.883 34.5724 17.8921 34.397V33.9492C17.8853 33.8057 17.8647 33.6769 17.8306 33.563C17.7987 33.4468 17.7508 33.3477 17.687 33.2656C17.6255 33.1836 17.548 33.1198 17.4546 33.0742C17.3634 33.0286 17.2552 33.0059 17.1299 33.0059C17.0023 33.0059 16.8929 33.0355 16.8018 33.0947C16.7106 33.1517 16.6366 33.2303 16.5796 33.3306C16.5249 33.4308 16.4839 33.5493 16.4565 33.686C16.4315 33.8205 16.4189 33.9663 16.4189 34.1235ZM21.5322 34.978C21.5322 34.9074 21.5117 34.8436 21.4707 34.7866C21.4297 34.7297 21.3534 34.6772 21.2417 34.6294C21.1323 34.5793 20.974 34.5337 20.7666 34.4927C20.5798 34.4517 20.4054 34.4004 20.2437 34.3389C20.0841 34.2751 19.9451 34.1987 19.8267 34.1099C19.7104 34.021 19.6193 33.9162 19.5532 33.7954C19.4871 33.6724 19.4541 33.5322 19.4541 33.375C19.4541 33.2201 19.4871 33.0742 19.5532 32.9375C19.6216 32.8008 19.7184 32.68 19.8438 32.5752C19.9714 32.4681 20.1263 32.3849 20.3086 32.3257C20.4932 32.2642 20.7005 32.2334 20.9307 32.2334C21.252 32.2334 21.5277 32.2847 21.7578 32.3872C21.9902 32.4897 22.168 32.631 22.291 32.811C22.4163 32.9888 22.479 33.1916 22.479 33.4194H21.4946C21.4946 33.3237 21.4741 33.2383 21.4331 33.1631C21.3944 33.0856 21.3328 33.0252 21.2485 32.9819C21.1665 32.9364 21.0594 32.9136 20.9272 32.9136C20.8179 32.9136 20.7233 32.9329 20.6436 32.9717C20.5638 33.0081 20.5023 33.0583 20.459 33.1221C20.418 33.1836 20.3975 33.252 20.3975 33.3271C20.3975 33.3841 20.4089 33.4354 20.4316 33.481C20.4567 33.5243 20.4966 33.5641 20.5513 33.6006C20.606 33.637 20.6766 33.6712 20.7632 33.7031C20.8521 33.7327 20.9614 33.7601 21.0913 33.7852C21.3579 33.8398 21.596 33.9116 21.8057 34.0005C22.0153 34.0871 22.1816 34.2056 22.3047 34.356C22.4277 34.5041 22.4893 34.6989 22.4893 34.9404C22.4893 35.1045 22.4528 35.2549 22.3799 35.3916C22.307 35.5283 22.2021 35.6479 22.0654 35.7505C21.9287 35.8507 21.7646 35.9294 21.5732 35.9863C21.3841 36.041 21.1711 36.0684 20.9341 36.0684C20.59 36.0684 20.2983 36.0068 20.0591 35.8838C19.8221 35.7607 19.6421 35.6047 19.519 35.4155C19.3983 35.2241 19.3379 35.0282 19.3379 34.8276H20.271C20.2756 34.9621 20.3097 35.0703 20.3735 35.1523C20.4396 35.2344 20.5228 35.2936 20.623 35.3301C20.7256 35.3665 20.8361 35.3848 20.9546 35.3848C21.0822 35.3848 21.1882 35.3677 21.2725 35.3335C21.3568 35.297 21.4206 35.2492 21.4639 35.1899C21.5094 35.1284 21.5322 35.0578 21.5322 34.978Z" fill="white"/>
</svg>
