<svg width="34" height="40" viewBox="0 0 34 40" fill="none" xmlns="http://www.w3.org/2000/svg">
<path d="M0 3C0 1.34315 1.34315 0 3 0H23L34 11V37C34 38.6569 32.6569 40 31 40H3C1.34315 40 0 38.6569 0 37V3Z" fill="#F5F5F5"/>
<path d="M0 28H34V37C34 38.6569 32.6569 40 31 40H3C1.34315 40 0 38.6569 0 37V28Z" fill="#E71A01"/>
<path d="M34 11L26 11C24.3431 11 23 9.65685 23 8V0L34 11Z" fill="#DBDBDB"/>
<path fill-rule="evenodd" clip-rule="evenodd" d="M16.39 8.90641C16.215 8.27341 15.787 7.95841 15.426 8.00441C14.99 8.06141 14.526 8.32041 14.34 8.72941C13.854 9.82141 14.768 12.8934 15.028 13.7674L15.073 13.9194C14.015 17.1134 10.394 23.4264 8.62002 23.8534C8.58302 23.4364 8.80602 22.2294 11.146 20.7244C11.266 20.5944 11.406 20.4374 11.471 20.3344C9.49302 21.3004 6.93108 22.8514 8.47102 24.0114C8.55602 24.0774 8.68502 24.1314 8.83402 24.1874C10.014 24.6244 11.666 23.1954 13.327 19.9544C15.157 19.3504 16.633 18.8964 18.722 18.5804C21.005 20.1304 22.538 20.4464 23.578 20.0474C23.866 19.9354 24.32 19.5734 24.45 19.1004C24.515 18.8774 24.608 18.5154 24.432 18.2274C23.842 17.2664 21.452 17.5954 20.032 17.7904C19.779 17.8254 19.557 17.8564 19.381 17.8744C17.552 16.7704 16.289 14.8014 15.778 13.3804C15.857 13.0784 15.936 12.7894 16.012 12.5124C16.397 11.1124 16.701 10.0064 16.392 8.90641H16.39ZM24.45 19.1004C23.605 20.1404 21.628 19.4164 20.05 18.4224C21.507 18.2644 23.01 18.1724 23.661 18.3764C24.488 18.6364 24.459 19.0444 24.451 19.1004H24.45ZM15.601 12.7404C15.296 11.6544 14.868 9.24041 15.555 8.46041C16.701 9.11641 16.266 10.5384 15.825 11.9834C15.748 12.2364 15.671 12.4894 15.601 12.7404ZM13.439 19.5834C15.156 18.9054 16.354 18.4494 18.118 18.1254C16.818 16.9554 16.028 15.6834 15.378 14.3834C14.915 16.0554 13.948 18.5894 13.438 19.5834H13.439Z" fill="#E71A01"/>
</svg>
