<svg width="34" height="40" viewBox="0 0 34 40" fill="none" xmlns="http://www.w3.org/2000/svg">
<path fill-rule="evenodd" clip-rule="evenodd" d="M17.7168 33.172C18.2348 33.172 18.4238 33.655 18.4238 34.18C18.4238 34.642 18.2978 35.195 17.7168 35.195C17.1708 35.195 16.9888 34.642 16.9888 34.145C16.9888 33.683 17.1708 33.172 17.7168 33.172ZM19.5718 31.002H18.3818V32.7589H18.3678C18.1228 32.43 17.7798 32.262 17.3318 32.262C16.3028 32.262 15.7988 33.158 15.7988 34.103C15.7988 35.125 16.2818 36.1049 17.4228 36.1049C17.8428 36.1049 18.1928 35.923 18.4238 35.58H18.4378V36H19.5718V31.002ZM12.7095 34.1872C12.7095 33.7252 12.8775 33.1722 13.4305 33.1722C13.9835 33.1722 14.1585 33.7252 14.1585 34.1872C14.1585 34.6492 13.9835 35.1952 13.4305 35.1952C12.8775 35.1952 12.7095 34.6492 12.7095 34.1872ZM11.5195 34.1872C11.5195 35.2792 12.3035 36.1052 13.4305 36.1052C14.5575 36.1052 15.3485 35.2792 15.3485 34.1872C15.3485 33.0952 14.5575 32.2622 13.4305 32.2622C12.3035 32.2622 11.5195 33.0952 11.5195 34.1872ZM21.839 32.3671H22.574V33.1371H21.839V34.7891C21.839 35.0761 22.007 35.1391 22.266 35.1391C22.3142 35.1391 22.364 35.1357 22.4147 35.1323C22.4672 35.1287 22.5206 35.1251 22.574 35.1251V36.0001C22.481 36.0031 22.388 36.0099 22.295 36.0168C22.171 36.0259 22.047 36.0351 21.923 36.0351C20.908 36.0351 20.649 35.7411 20.649 34.7541V33.1371H20.047V32.3671H20.649V31.2681H21.839V32.3671Z" fill="white"/>
<path d="M0 28H34V37C34 38.6569 32.6569 40 31 40H3C1.34315 40 0 38.6569 0 37V28Z" fill="#D65537"/>
<path d="M0 3C0 1.34315 1.34315 0 3 0H23L34 11V28H0V3Z" fill="#F5F5F5"/>
<path d="M34 11L26 11C24.3431 11 23 9.65685 23 8V0L34 11Z" fill="#DBDBDB"/>
<path fill-rule="evenodd" clip-rule="evenodd" d="M7 12C7 10.8954 7.89543 10 9 10H19C20.1046 10 21 10.8954 21 12V18C21 19.1046 20.1046 20 19 20H9C7.89543 20 7 19.1046 7 18V12ZM9 12H19V18H9V12ZM25 22C25 23.1046 24.1046 24 23 24H11V22H23V15H25V22Z" fill="#D65537"/>
<path d="M11.3091 34.1885V34.1167C11.3091 33.8455 11.3478 33.596 11.4253 33.3682C11.5028 33.138 11.6156 32.9386 11.7637 32.77C11.9118 32.6014 12.0941 32.4704 12.3105 32.377C12.527 32.2812 12.7754 32.2334 13.0557 32.2334C13.3359 32.2334 13.5854 32.2812 13.8042 32.377C14.0229 32.4704 14.2064 32.6014 14.3545 32.77C14.5049 32.9386 14.6188 33.138 14.6963 33.3682C14.7738 33.596 14.8125 33.8455 14.8125 34.1167V34.1885C14.8125 34.4574 14.7738 34.7069 14.6963 34.937C14.6188 35.1649 14.5049 35.3643 14.3545 35.5352C14.2064 35.7038 14.0241 35.8348 13.8076 35.9282C13.5911 36.0216 13.3428 36.0684 13.0625 36.0684C12.7822 36.0684 12.5327 36.0216 12.314 35.9282C12.0975 35.8348 11.9141 35.7038 11.7637 35.5352C11.6156 35.3643 11.5028 35.1649 11.4253 34.937C11.3478 34.7069 11.3091 34.4574 11.3091 34.1885ZM12.2935 34.1167V34.1885C12.2935 34.3434 12.3071 34.4881 12.3345 34.6226C12.3618 34.757 12.4051 34.8755 12.4644 34.978C12.5259 35.0783 12.6056 35.1569 12.7036 35.2139C12.8016 35.2708 12.9212 35.2993 13.0625 35.2993C13.1992 35.2993 13.3166 35.2708 13.4146 35.2139C13.5125 35.1569 13.5911 35.0783 13.6504 34.978C13.7096 34.8755 13.7529 34.757 13.7803 34.6226C13.8099 34.4881 13.8247 34.3434 13.8247 34.1885V34.1167C13.8247 33.9663 13.8099 33.825 13.7803 33.6929C13.7529 33.5584 13.7085 33.4399 13.647 33.3374C13.5877 33.2326 13.5091 33.1506 13.4111 33.0913C13.3132 33.0321 13.1947 33.0024 13.0557 33.0024C12.9167 33.0024 12.7982 33.0321 12.7002 33.0913C12.6045 33.1506 12.5259 33.2326 12.4644 33.3374C12.4051 33.4399 12.3618 33.5584 12.3345 33.6929C12.3071 33.825 12.2935 33.9663 12.2935 34.1167ZM17.6016 35.1934V30.75H18.5928V36H17.7007L17.6016 35.1934ZM15.2637 34.1953V34.1235C15.2637 33.841 15.2956 33.5846 15.3594 33.3545C15.4232 33.1221 15.5166 32.9227 15.6396 32.7563C15.7627 32.59 15.9142 32.4613 16.0942 32.3701C16.2743 32.279 16.4793 32.2334 16.7095 32.2334C16.9259 32.2334 17.1151 32.279 17.2769 32.3701C17.4409 32.4613 17.5799 32.5911 17.6938 32.7598C17.8101 32.9261 17.9035 33.1232 17.9741 33.3511C18.0448 33.5767 18.096 33.8239 18.1279 34.0928V34.25C18.096 34.5075 18.0448 34.7467 17.9741 34.9678C17.9035 35.1888 17.8101 35.3825 17.6938 35.5488C17.5799 35.7129 17.4409 35.8405 17.2769 35.9316C17.1128 36.0228 16.9214 36.0684 16.7026 36.0684C16.4725 36.0684 16.2674 36.0216 16.0874 35.9282C15.9097 35.8348 15.7593 35.7038 15.6362 35.5352C15.5155 35.3665 15.4232 35.1683 15.3594 34.9404C15.2956 34.7126 15.2637 34.4642 15.2637 34.1953ZM16.248 34.1235V34.1953C16.248 34.348 16.2594 34.4904 16.2822 34.6226C16.3073 34.7547 16.3472 34.8721 16.4019 34.9746C16.4588 35.0749 16.5317 35.1535 16.6206 35.2104C16.7118 35.2651 16.8223 35.2925 16.9521 35.2925C17.1208 35.2925 17.2598 35.2549 17.3691 35.1797C17.4785 35.1022 17.5617 34.9963 17.6187 34.8618C17.6779 34.7274 17.7121 34.5724 17.7212 34.397V33.9492C17.7144 33.8057 17.6938 33.6769 17.6597 33.563C17.6278 33.4468 17.5799 33.3477 17.5161 33.2656C17.4546 33.1836 17.3771 33.1198 17.2837 33.0742C17.1925 33.0286 17.0843 33.0059 16.959 33.0059C16.8314 33.0059 16.722 33.0355 16.6309 33.0947C16.5397 33.1517 16.4657 33.2303 16.4087 33.3306C16.354 33.4308 16.313 33.5493 16.2856 33.686C16.2606 33.8205 16.248 33.9663 16.248 34.1235ZM20.3462 33.0127V37.4219H19.3618V32.3018H20.2744L20.3462 33.0127ZM22.6875 34.1099V34.1816C22.6875 34.4505 22.6556 34.7 22.5918 34.9302C22.5303 35.1603 22.4391 35.3608 22.3184 35.5317C22.1976 35.7004 22.0472 35.8325 21.8672 35.9282C21.6895 36.0216 21.4844 36.0684 21.252 36.0684C21.0264 36.0684 20.8304 36.0228 20.6641 35.9316C20.4977 35.8405 20.3576 35.7129 20.2437 35.5488C20.132 35.3825 20.042 35.1899 19.9736 34.9712C19.9053 34.7524 19.8529 34.5177 19.8164 34.2671V34.0791C19.8529 33.8102 19.9053 33.5641 19.9736 33.3408C20.042 33.1152 20.132 32.9204 20.2437 32.7563C20.3576 32.59 20.4966 32.4613 20.6606 32.3701C20.827 32.279 21.0218 32.2334 21.2451 32.2334C21.4798 32.2334 21.686 32.2778 21.8638 32.3667C22.0438 32.4556 22.1942 32.5832 22.3149 32.7495C22.438 32.9159 22.5303 33.1141 22.5918 33.3442C22.6556 33.5744 22.6875 33.8296 22.6875 34.1099ZM21.6997 34.1816V34.1099C21.6997 33.9526 21.686 33.8079 21.6587 33.6758C21.6336 33.5413 21.5926 33.424 21.5356 33.3237C21.481 33.2235 21.408 33.146 21.3169 33.0913C21.228 33.0343 21.1198 33.0059 20.9922 33.0059C20.8577 33.0059 20.7427 33.0275 20.647 33.0708C20.5535 33.1141 20.4772 33.1768 20.418 33.2588C20.3587 33.3408 20.3143 33.4388 20.2847 33.5527C20.255 33.6667 20.2368 33.7954 20.23 33.939V34.4141C20.2414 34.5827 20.2733 34.7342 20.3257 34.8687C20.3781 35.0008 20.459 35.1056 20.5684 35.1831C20.6777 35.2606 20.8213 35.2993 20.999 35.2993C21.1289 35.2993 21.2383 35.2708 21.3271 35.2139C21.416 35.1546 21.4878 35.0737 21.5425 34.9712C21.5994 34.8687 21.6393 34.7502 21.6621 34.6157C21.6872 34.4813 21.6997 34.3366 21.6997 34.1816Z" fill="white"/>
</svg>
