<svg width="34" height="40" viewBox="0 0 34 40" fill="none" xmlns="http://www.w3.org/2000/svg">
<path fill-rule="evenodd" clip-rule="evenodd" d="M17.7168 33.172C18.2348 33.172 18.4238 33.655 18.4238 34.18C18.4238 34.642 18.2978 35.195 17.7168 35.195C17.1708 35.195 16.9888 34.642 16.9888 34.145C16.9888 33.683 17.1708 33.172 17.7168 33.172ZM19.5718 31.002H18.3818V32.7589H18.3678C18.1228 32.43 17.7798 32.262 17.3318 32.262C16.3028 32.262 15.7988 33.158 15.7988 34.103C15.7988 35.125 16.2818 36.1049 17.4228 36.1049C17.8428 36.1049 18.1928 35.923 18.4238 35.58H18.4378V36H19.5718V31.002ZM12.7095 34.1872C12.7095 33.7252 12.8775 33.1722 13.4305 33.1722C13.9835 33.1722 14.1585 33.7252 14.1585 34.1872C14.1585 34.6492 13.9835 35.1952 13.4305 35.1952C12.8775 35.1952 12.7095 34.6492 12.7095 34.1872ZM11.5195 34.1872C11.5195 35.2792 12.3035 36.1052 13.4305 36.1052C14.5575 36.1052 15.3485 35.2792 15.3485 34.1872C15.3485 33.0952 14.5575 32.2622 13.4305 32.2622C12.3035 32.2622 11.5195 33.0952 11.5195 34.1872ZM21.839 32.3671H22.574V33.1371H21.839V34.7891C21.839 35.0761 22.007 35.1391 22.266 35.1391C22.3142 35.1391 22.364 35.1357 22.4147 35.1323C22.4672 35.1287 22.5206 35.1251 22.574 35.1251V36.0001C22.481 36.0031 22.388 36.0099 22.295 36.0168C22.171 36.0259 22.047 36.0351 21.923 36.0351C20.908 36.0351 20.649 35.7411 20.649 34.7541V33.1371H20.047V32.3671H20.649V31.2681H21.839V32.3671Z" fill="white"/>
<path d="M0 28H34V37C34 38.6569 32.6569 40 31 40H3C1.34315 40 0 38.6569 0 37V28Z" fill="#2727B0"/>
<path d="M0 3C0 1.34315 1.34315 0 3 0H23L34 11V28H0V3Z" fill="#F5F5F5"/>
<path d="M34 11L26 11C24.3431 11 23 9.65685 23 8V0L34 11Z" fill="#DBDBDB"/>
<path fill-rule="evenodd" clip-rule="evenodd" d="M8.87912 21.941H12.298L16.9521 24.7493C17.0307 24.8138 17.1293 24.849 17.2311 24.849C17.4738 24.8488 17.6705 24.6519 17.6703 24.4092V12.4399C17.6704 12.3381 17.6352 12.2396 17.5707 12.1609C17.4168 11.9732 17.1398 11.9457 16.9521 12.0996L12.298 14.908H8.87912C8.3936 14.908 8 15.3016 8 15.7871V21.0619C8 21.5474 8.3936 21.941 8.87912 21.941ZM12.9258 16.6664L15.9122 15.2224V21.6268L12.9258 20.1829H9.7583V16.6664H12.9258ZM19.8511 16.3517C19.474 16.4092 19.2397 16.6637 19.3283 16.9191L19.3262 16.92C19.5295 17.4995 19.6305 18.098 19.6284 18.6953C19.6305 19.2975 19.5237 19.9014 19.3196 20.4909C19.229 20.7462 19.4682 20.9996 19.8474 21.06C19.9008 21.0683 19.9542 21.072 20.0076 21.072C20.3259 21.072 20.6156 20.9234 20.6922 20.7057C20.9194 20.0451 21.0337 19.37 21.0374 18.6953C21.0349 18.0251 20.9211 17.3575 20.6955 16.7035C20.6053 16.4477 20.229 16.2908 19.8511 16.3517ZM22.1605 14.6028C22.5252 14.5163 22.9259 14.6454 23.055 14.8938C23.6891 16.1157 24 17.4042 24 18.6923C24.0004 19.9895 23.6796 21.2839 23.0521 22.5153C22.9503 22.7123 22.6763 22.8344 22.3828 22.8344C22.3071 22.8344 22.2301 22.8261 22.1543 22.8092C21.7863 22.7251 21.5914 22.4536 21.7185 22.2077C22.2988 21.0761 22.5922 19.8836 22.5931 18.6919C22.5931 17.5056 22.3054 16.3222 21.7276 15.2025C21.6001 14.9563 21.795 14.686 22.1605 14.6028Z" fill="#2727B0"/>
<path d="M11.4526 33.0674V36H10.4648V32.3018H11.3911L11.4526 33.0674ZM11.3159 34.021H11.0425C11.0425 33.7635 11.0732 33.5265 11.1348 33.3101C11.1986 33.0913 11.2909 32.9022 11.4116 32.7427C11.5347 32.5809 11.6862 32.4556 11.8662 32.3667C12.0462 32.2778 12.2547 32.2334 12.4917 32.2334C12.6558 32.2334 12.8062 32.2585 12.9429 32.3086C13.0796 32.3564 13.1969 32.4328 13.2949 32.5376C13.3952 32.6401 13.4727 32.7746 13.5273 32.9409C13.582 33.105 13.6094 33.3021 13.6094 33.5322V36H12.625V33.6416C12.625 33.473 12.6022 33.3431 12.5566 33.252C12.5111 33.1608 12.4461 33.097 12.3618 33.0605C12.2798 33.0241 12.1807 33.0059 12.0645 33.0059C11.9368 33.0059 11.8252 33.0321 11.7295 33.0845C11.6361 33.1369 11.5586 33.2098 11.4971 33.3032C11.4355 33.3944 11.39 33.5015 11.3604 33.6245C11.3307 33.7476 11.3159 33.8797 11.3159 34.021ZM13.5171 33.9082L13.165 33.9526C13.165 33.7111 13.1947 33.4867 13.2539 33.2793C13.3154 33.0719 13.4054 32.8896 13.5239 32.7324C13.6447 32.5752 13.7939 32.4533 13.9717 32.3667C14.1494 32.2778 14.3545 32.2334 14.5869 32.2334C14.7646 32.2334 14.9264 32.2596 15.0723 32.312C15.2181 32.3621 15.3423 32.443 15.4448 32.5547C15.5496 32.6641 15.6294 32.8076 15.6841 32.9854C15.741 33.1631 15.7695 33.3807 15.7695 33.6382V36H14.7817V33.6382C14.7817 33.4673 14.759 33.3374 14.7134 33.2485C14.6701 33.1574 14.6063 33.0947 14.522 33.0605C14.4399 33.0241 14.342 33.0059 14.228 33.0059C14.1095 33.0059 14.0059 33.0298 13.917 33.0776C13.8281 33.1232 13.7541 33.187 13.6948 33.269C13.6356 33.3511 13.5911 33.4468 13.5615 33.5562C13.5319 33.6632 13.5171 33.7806 13.5171 33.9082ZM19.9771 34.1406V34.9131H16.3916L16.3438 34.3149L18.4185 31.0234H19.2012L18.3535 32.4419L17.3213 34.1406H19.9771ZM19.4131 31.0234V36H18.4287V31.0234H19.4131ZM22.5474 35.166V33.5186C22.5474 33.4001 22.528 33.2987 22.4893 33.2144C22.4505 33.1278 22.3901 33.0605 22.3081 33.0127C22.2284 32.9648 22.1247 32.9409 21.9971 32.9409C21.8877 32.9409 21.7931 32.9603 21.7134 32.999C21.6336 33.0355 21.5721 33.089 21.5288 33.1597C21.4855 33.228 21.4639 33.3089 21.4639 33.4023H20.4795C20.4795 33.2451 20.516 33.0959 20.5889 32.9546C20.6618 32.8133 20.7677 32.6891 20.9067 32.582C21.0457 32.4727 21.2109 32.3872 21.4023 32.3257C21.596 32.2642 21.8125 32.2334 22.0518 32.2334C22.3389 32.2334 22.5941 32.2812 22.8174 32.377C23.0407 32.4727 23.2161 32.6162 23.3438 32.8076C23.4736 32.999 23.5386 33.2383 23.5386 33.5254V35.1079C23.5386 35.3107 23.5511 35.4771 23.5762 35.6069C23.6012 35.7345 23.6377 35.8462 23.6855 35.9419V36H22.6909C22.6431 35.8997 22.6066 35.7744 22.5815 35.624C22.5588 35.4714 22.5474 35.3187 22.5474 35.166ZM22.6772 33.7476L22.6841 34.3047H22.1338C22.0039 34.3047 21.8911 34.3195 21.7954 34.3491C21.6997 34.3787 21.6211 34.4209 21.5596 34.4756C21.498 34.528 21.4525 34.5895 21.4229 34.6602C21.3955 34.7308 21.3818 34.8083 21.3818 34.8926C21.3818 34.9769 21.4012 35.0532 21.4399 35.1216C21.4787 35.1877 21.5345 35.2401 21.6074 35.2788C21.6803 35.3153 21.7658 35.3335 21.8638 35.3335C22.0119 35.3335 22.1406 35.3039 22.25 35.2446C22.3594 35.1854 22.4437 35.1125 22.5029 35.0259C22.5645 34.9393 22.5964 34.8573 22.5986 34.7798L22.8584 35.1968C22.8219 35.2902 22.7718 35.387 22.708 35.4873C22.6465 35.5876 22.5679 35.6821 22.4722 35.771C22.3765 35.8576 22.2614 35.9294 22.127 35.9863C21.9925 36.041 21.833 36.0684 21.6484 36.0684C21.4137 36.0684 21.2007 36.0216 21.0093 35.9282C20.8201 35.8325 20.6698 35.7015 20.5581 35.5352C20.4487 35.3665 20.394 35.1751 20.394 34.9609C20.394 34.7673 20.4305 34.5952 20.5034 34.4448C20.5763 34.2944 20.6834 34.168 20.8247 34.0654C20.9683 33.9606 21.1471 33.882 21.3613 33.8296C21.5755 33.7749 21.8239 33.7476 22.1064 33.7476H22.6772Z" fill="white"/>
</svg>
