<svg width="34" height="40" viewBox="0 0 34 40" fill="none" xmlns="http://www.w3.org/2000/svg">
<path fill-rule="evenodd" clip-rule="evenodd" d="M17.7168 33.172C18.2348 33.172 18.4238 33.655 18.4238 34.18C18.4238 34.642 18.2978 35.195 17.7168 35.195C17.1708 35.195 16.9888 34.642 16.9888 34.145C16.9888 33.683 17.1708 33.172 17.7168 33.172ZM19.5718 31.002H18.3818V32.7589H18.3678C18.1228 32.43 17.7798 32.262 17.3318 32.262C16.3028 32.262 15.7988 33.158 15.7988 34.103C15.7988 35.125 16.2818 36.1049 17.4228 36.1049C17.8428 36.1049 18.1928 35.923 18.4238 35.58H18.4378V36H19.5718V31.002ZM12.7095 34.1872C12.7095 33.7252 12.8775 33.1722 13.4305 33.1722C13.9835 33.1722 14.1585 33.7252 14.1585 34.1872C14.1585 34.6492 13.9835 35.1952 13.4305 35.1952C12.8775 35.1952 12.7095 34.6492 12.7095 34.1872ZM11.5195 34.1872C11.5195 35.2792 12.3035 36.1052 13.4305 36.1052C14.5575 36.1052 15.3485 35.2792 15.3485 34.1872C15.3485 33.0952 14.5575 32.2622 13.4305 32.2622C12.3035 32.2622 11.5195 33.0952 11.5195 34.1872ZM21.839 32.3671H22.574V33.1371H21.839V34.7891C21.839 35.0761 22.007 35.1391 22.266 35.1391C22.3142 35.1391 22.364 35.1357 22.4147 35.1323C22.4672 35.1287 22.5206 35.1251 22.574 35.1251V36.0001C22.481 36.0031 22.388 36.0099 22.295 36.0168C22.171 36.0259 22.047 36.0351 21.923 36.0351C20.908 36.0351 20.649 35.7411 20.649 34.7541V33.1371H20.047V32.3671H20.649V31.2681H21.839V32.3671Z" fill="white"/>
<path d="M0 28H34V37C34 38.6569 32.6569 40 31 40H3C1.34315 40 0 38.6569 0 37V28Z" fill="#2727B0"/>
<path d="M0 3C0 1.34315 1.34315 0 3 0H23L34 11V28H0V3Z" fill="#F5F5F5"/>
<path d="M34 11L26 11C24.3431 11 23 9.65685 23 8V0L34 11Z" fill="#DBDBDB"/>
<path fill-rule="evenodd" clip-rule="evenodd" d="M8.87912 21.941H12.298L16.9521 24.7493C17.0307 24.8138 17.1293 24.849 17.2311 24.849C17.4738 24.8488 17.6705 24.6519 17.6703 24.4092V12.4399C17.6704 12.3381 17.6352 12.2396 17.5707 12.1609C17.4168 11.9732 17.1398 11.9457 16.9521 12.0996L12.298 14.908H8.87912C8.3936 14.908 8 15.3016 8 15.7871V21.0619C8 21.5474 8.3936 21.941 8.87912 21.941ZM12.9258 16.6664L15.9122 15.2224V21.6268L12.9258 20.1829H9.7583V16.6664H12.9258ZM19.8511 16.3517C19.474 16.4092 19.2397 16.6637 19.3283 16.9191L19.3262 16.92C19.5295 17.4995 19.6305 18.098 19.6284 18.6953C19.6305 19.2975 19.5237 19.9014 19.3196 20.4909C19.229 20.7462 19.4682 20.9996 19.8474 21.06C19.9008 21.0683 19.9542 21.072 20.0076 21.072C20.3259 21.072 20.6156 20.9234 20.6922 20.7057C20.9194 20.0451 21.0337 19.37 21.0374 18.6953C21.0349 18.0251 20.9211 17.3575 20.6955 16.7035C20.6053 16.4477 20.229 16.2908 19.8511 16.3517ZM22.1605 14.6028C22.5252 14.5163 22.9259 14.6454 23.055 14.8938C23.6891 16.1157 24 17.4042 24 18.6923C24.0004 19.9895 23.6796 21.2839 23.0521 22.5153C22.9503 22.7123 22.6763 22.8344 22.3828 22.8344C22.3071 22.8344 22.2301 22.8261 22.1543 22.8092C21.7863 22.7251 21.5914 22.4536 21.7185 22.2077C22.2988 21.0761 22.5922 19.8836 22.5931 18.6919C22.5931 17.5056 22.3054 16.3222 21.7276 15.2025C21.6001 14.9563 21.795 14.686 22.1605 14.6028Z" fill="#2727B0"/>
<path d="M12.7925 36H11.8013V32.0181C11.8013 31.7287 11.8617 31.4849 11.9824 31.2866C12.1032 31.0861 12.2775 30.9346 12.5054 30.832C12.7332 30.7295 13.0078 30.6782 13.3291 30.6782C13.4635 30.6782 13.631 30.6851 13.8315 30.6987C14.0343 30.7101 14.2406 30.7249 14.4502 30.7432C14.6621 30.7591 14.8478 30.7762 15.0073 30.7944L14.5972 31.5703C14.3921 31.5339 14.195 31.5054 14.0059 31.4849C13.8167 31.4644 13.6367 31.4541 13.4658 31.4541C13.32 31.4541 13.1969 31.4757 13.0967 31.519C12.9964 31.5623 12.9201 31.6261 12.8677 31.7104C12.8175 31.7925 12.7925 31.895 12.7925 32.0181V36ZM14.0229 36V30.7944H15.0073V36H14.0229ZM13.5308 32.3018V32.999H11.251V32.3018H13.5308ZM17.8271 35.166V33.5186C17.8271 33.4001 17.8078 33.2987 17.769 33.2144C17.7303 33.1278 17.6699 33.0605 17.5879 33.0127C17.5081 32.9648 17.4045 32.9409 17.2769 32.9409C17.1675 32.9409 17.0729 32.9603 16.9932 32.999C16.9134 33.0355 16.8519 33.089 16.8086 33.1597C16.7653 33.228 16.7437 33.3089 16.7437 33.4023H15.7593C15.7593 33.2451 15.7957 33.0959 15.8687 32.9546C15.9416 32.8133 16.0475 32.6891 16.1865 32.582C16.3255 32.4727 16.4907 32.3872 16.6821 32.3257C16.8758 32.2642 17.0923 32.2334 17.3315 32.2334C17.6187 32.2334 17.8739 32.2812 18.0972 32.377C18.3205 32.4727 18.4959 32.6162 18.6235 32.8076C18.7534 32.999 18.8184 33.2383 18.8184 33.5254V35.1079C18.8184 35.3107 18.8309 35.4771 18.856 35.6069C18.881 35.7345 18.9175 35.8462 18.9653 35.9419V36H17.9707C17.9229 35.8997 17.8864 35.7744 17.8613 35.624C17.8385 35.4714 17.8271 35.3187 17.8271 35.166ZM17.957 33.7476L17.9639 34.3047H17.4136C17.2837 34.3047 17.1709 34.3195 17.0752 34.3491C16.9795 34.3787 16.9009 34.4209 16.8394 34.4756C16.7778 34.528 16.7323 34.5895 16.7026 34.6602C16.6753 34.7308 16.6616 34.8083 16.6616 34.8926C16.6616 34.9769 16.681 35.0532 16.7197 35.1216C16.7585 35.1877 16.8143 35.2401 16.8872 35.2788C16.9601 35.3153 17.0456 35.3335 17.1436 35.3335C17.2917 35.3335 17.4204 35.3039 17.5298 35.2446C17.6392 35.1854 17.7235 35.1125 17.7827 35.0259C17.8442 34.9393 17.8761 34.8573 17.8784 34.7798L18.1382 35.1968C18.1017 35.2902 18.0516 35.387 17.9878 35.4873C17.9263 35.5876 17.8477 35.6821 17.752 35.771C17.6562 35.8576 17.5412 35.9294 17.4067 35.9863C17.2723 36.041 17.1128 36.0684 16.9282 36.0684C16.6935 36.0684 16.4805 36.0216 16.2891 35.9282C16.0999 35.8325 15.9495 35.7015 15.8379 35.5352C15.7285 35.3665 15.6738 35.1751 15.6738 34.9609C15.6738 34.7673 15.7103 34.5952 15.7832 34.4448C15.8561 34.2944 15.9632 34.168 16.1045 34.0654C16.248 33.9606 16.4269 33.882 16.6411 33.8296C16.8553 33.7749 17.1037 33.7476 17.3862 33.7476H17.957ZM21.105 35.2993C21.2257 35.2993 21.3328 35.2765 21.4263 35.231C21.5197 35.1831 21.5926 35.117 21.645 35.0327C21.6997 34.9461 21.7282 34.8447 21.7305 34.7285H22.6567C22.6545 34.9883 22.585 35.2196 22.4482 35.4224C22.3115 35.6229 22.1281 35.7812 21.8979 35.8975C21.6678 36.0114 21.4103 36.0684 21.1255 36.0684C20.8384 36.0684 20.5877 36.0205 20.3735 35.9248C20.1616 35.8291 19.985 35.6969 19.8438 35.5283C19.7025 35.3574 19.5965 35.1592 19.5259 34.9336C19.4552 34.7057 19.4199 34.4619 19.4199 34.2021V34.103C19.4199 33.841 19.4552 33.5972 19.5259 33.3716C19.5965 33.1437 19.7025 32.9455 19.8438 32.7769C19.985 32.606 20.1616 32.4727 20.3735 32.377C20.5854 32.2812 20.8338 32.2334 21.1187 32.2334C21.4217 32.2334 21.6872 32.2915 21.915 32.4077C22.1452 32.5239 22.3252 32.6903 22.4551 32.9067C22.5872 33.1209 22.6545 33.375 22.6567 33.6689H21.7305C21.7282 33.5459 21.702 33.4342 21.6519 33.334C21.604 33.2337 21.5334 33.154 21.4399 33.0947C21.3488 33.0332 21.236 33.0024 21.1016 33.0024C20.958 33.0024 20.8407 33.0332 20.7495 33.0947C20.6584 33.154 20.5877 33.236 20.5376 33.3408C20.4875 33.4434 20.4521 33.5607 20.4316 33.6929C20.4134 33.8228 20.4043 33.9595 20.4043 34.103V34.2021C20.4043 34.3457 20.4134 34.4836 20.4316 34.6157C20.4499 34.7479 20.484 34.8652 20.5342 34.9678C20.5866 35.0703 20.6584 35.1512 20.7495 35.2104C20.8407 35.2697 20.9591 35.2993 21.105 35.2993Z" fill="white"/>
</svg>
