<svg width="34" height="40" viewBox="0 0 34 40" fill="none" xmlns="http://www.w3.org/2000/svg">
<path fill-rule="evenodd" clip-rule="evenodd" d="M17.7168 33.172C18.2348 33.172 18.4238 33.655 18.4238 34.18C18.4238 34.642 18.2978 35.195 17.7168 35.195C17.1708 35.195 16.9888 34.642 16.9888 34.145C16.9888 33.683 17.1708 33.172 17.7168 33.172ZM19.5718 31.002H18.3818V32.7589H18.3678C18.1228 32.43 17.7798 32.262 17.3318 32.262C16.3028 32.262 15.7988 33.158 15.7988 34.103C15.7988 35.125 16.2818 36.1049 17.4228 36.1049C17.8428 36.1049 18.1928 35.923 18.4238 35.58H18.4378V36H19.5718V31.002ZM12.7095 34.1872C12.7095 33.7252 12.8775 33.1722 13.4305 33.1722C13.9835 33.1722 14.1585 33.7252 14.1585 34.1872C14.1585 34.6492 13.9835 35.1952 13.4305 35.1952C12.8775 35.1952 12.7095 34.6492 12.7095 34.1872ZM11.5195 34.1872C11.5195 35.2792 12.3035 36.1052 13.4305 36.1052C14.5575 36.1052 15.3485 35.2792 15.3485 34.1872C15.3485 33.0952 14.5575 32.2622 13.4305 32.2622C12.3035 32.2622 11.5195 33.0952 11.5195 34.1872ZM21.839 32.3671H22.574V33.1371H21.839V34.7891C21.839 35.0761 22.007 35.1391 22.266 35.1391C22.3142 35.1391 22.364 35.1357 22.4147 35.1323C22.4672 35.1287 22.5206 35.1251 22.574 35.1251V36.0001C22.481 36.0031 22.388 36.0099 22.295 36.0168C22.171 36.0259 22.047 36.0351 21.923 36.0351C20.908 36.0351 20.649 35.7411 20.649 34.7541V33.1371H20.047V32.3671H20.649V31.2681H21.839V32.3671Z" fill="white"/>
<path d="M0 28H34V37C34 38.6569 32.6569 40 31 40H3C1.34315 40 0 38.6569 0 37V28Z" fill="#2727B0"/>
<path d="M0 3C0 1.34315 1.34315 0 3 0H23L34 11V28H0V3Z" fill="#F5F5F5"/>
<path d="M34 11L26 11C24.3431 11 23 9.65685 23 8V0L34 11Z" fill="#DBDBDB"/>
<path fill-rule="evenodd" clip-rule="evenodd" d="M8.87912 21.941H12.298L16.9521 24.7493C17.0307 24.8138 17.1293 24.849 17.2311 24.849C17.4738 24.8488 17.6705 24.6519 17.6703 24.4092V12.4399C17.6704 12.3381 17.6352 12.2396 17.5707 12.1609C17.4168 11.9732 17.1398 11.9457 16.9521 12.0996L12.298 14.908H8.87912C8.3936 14.908 8 15.3016 8 15.7871V21.0619C8 21.5474 8.3936 21.941 8.87912 21.941ZM12.9258 16.6664L15.9122 15.2224V21.6268L12.9258 20.1829H9.7583V16.6664H12.9258ZM19.8511 16.3517C19.474 16.4092 19.2397 16.6637 19.3283 16.9191L19.3262 16.92C19.5295 17.4995 19.6305 18.098 19.6284 18.6953C19.6305 19.2975 19.5237 19.9014 19.3196 20.4909C19.229 20.7462 19.4682 20.9996 19.8474 21.06C19.9008 21.0683 19.9542 21.072 20.0076 21.072C20.3259 21.072 20.6156 20.9234 20.6922 20.7057C20.9194 20.0451 21.0337 19.37 21.0374 18.6953C21.0349 18.0251 20.9211 17.3575 20.6955 16.7035C20.6053 16.4477 20.229 16.2908 19.8511 16.3517ZM22.1605 14.6028C22.5252 14.5163 22.9259 14.6454 23.055 14.8938C23.6891 16.1157 24 17.4042 24 18.6923C24.0004 19.9895 23.6796 21.2839 23.0521 22.5153C22.9503 22.7123 22.6763 22.8344 22.3828 22.8344C22.3071 22.8344 22.2301 22.8261 22.1543 22.8092C21.7863 22.7251 21.5914 22.4536 21.7185 22.2077C22.2988 21.0761 22.5922 19.8836 22.5931 18.6919C22.5931 17.5056 22.3054 16.3222 21.7276 15.2025C21.6001 14.9563 21.795 14.686 22.1605 14.6028Z" fill="#2727B0"/>
<path d="M11.251 34.1885V34.1167C11.251 33.8455 11.2897 33.596 11.3672 33.3682C11.4447 33.138 11.5575 32.9386 11.7056 32.77C11.8537 32.6014 12.036 32.4704 12.2524 32.377C12.4689 32.2812 12.7173 32.2334 12.9976 32.2334C13.2778 32.2334 13.5273 32.2812 13.7461 32.377C13.9648 32.4704 14.1483 32.6014 14.2964 32.77C14.4468 32.9386 14.5607 33.138 14.6382 33.3682C14.7157 33.596 14.7544 33.8455 14.7544 34.1167V34.1885C14.7544 34.4574 14.7157 34.7069 14.6382 34.937C14.5607 35.1649 14.4468 35.3643 14.2964 35.5352C14.1483 35.7038 13.966 35.8348 13.7495 35.9282C13.533 36.0216 13.2847 36.0684 13.0044 36.0684C12.7241 36.0684 12.4746 36.0216 12.2559 35.9282C12.0394 35.8348 11.856 35.7038 11.7056 35.5352C11.5575 35.3643 11.4447 35.1649 11.3672 34.937C11.2897 34.7069 11.251 34.4574 11.251 34.1885ZM12.2354 34.1167V34.1885C12.2354 34.3434 12.249 34.4881 12.2764 34.6226C12.3037 34.757 12.347 34.8755 12.4062 34.978C12.4678 35.0783 12.5475 35.1569 12.6455 35.2139C12.7435 35.2708 12.8631 35.2993 13.0044 35.2993C13.1411 35.2993 13.2585 35.2708 13.3564 35.2139C13.4544 35.1569 13.533 35.0783 13.5923 34.978C13.6515 34.8755 13.6948 34.757 13.7222 34.6226C13.7518 34.4881 13.7666 34.3434 13.7666 34.1885V34.1167C13.7666 33.9663 13.7518 33.825 13.7222 33.6929C13.6948 33.5584 13.6504 33.4399 13.5889 33.3374C13.5296 33.2326 13.451 33.1506 13.353 33.0913C13.255 33.0321 13.1366 33.0024 12.9976 33.0024C12.8586 33.0024 12.7401 33.0321 12.6421 33.0913C12.5464 33.1506 12.4678 33.2326 12.4062 33.3374C12.347 33.4399 12.3037 33.5584 12.2764 33.6929C12.249 33.825 12.2354 33.9663 12.2354 34.1167ZM17.7007 32.3018H18.5928V35.877C18.5928 36.2142 18.5176 36.5002 18.3672 36.7349C18.2191 36.9718 18.0117 37.1507 17.7451 37.2715C17.4785 37.3945 17.1686 37.4561 16.8154 37.4561C16.6605 37.4561 16.4964 37.4355 16.3232 37.3945C16.1523 37.3535 15.9883 37.2897 15.8311 37.2031C15.6761 37.1165 15.5462 37.0072 15.4414 36.875L15.8755 36.2939C15.9894 36.4261 16.1216 36.5286 16.272 36.6016C16.4224 36.6768 16.5887 36.7144 16.771 36.7144C16.9487 36.7144 17.0991 36.6813 17.2222 36.6152C17.3452 36.5514 17.4398 36.4569 17.5059 36.3315C17.5719 36.2085 17.605 36.0592 17.605 35.8838V33.1562L17.7007 32.3018ZM15.2124 34.1953V34.1235C15.2124 33.841 15.2466 33.5846 15.3149 33.3545C15.3856 33.1221 15.4847 32.9227 15.6123 32.7563C15.7422 32.59 15.8994 32.4613 16.084 32.3701C16.2686 32.279 16.4771 32.2334 16.7095 32.2334C16.9556 32.2334 17.1618 32.279 17.3281 32.3701C17.4945 32.4613 17.6312 32.5911 17.7383 32.7598C17.8454 32.9261 17.9285 33.1232 17.9878 33.3511C18.0493 33.5767 18.0972 33.8239 18.1313 34.0928V34.25C18.0972 34.5075 18.0459 34.7467 17.9775 34.9678C17.9092 35.1888 17.8192 35.3825 17.7075 35.5488C17.5959 35.7129 17.4569 35.8405 17.2905 35.9316C17.1265 36.0228 16.9305 36.0684 16.7026 36.0684C16.4748 36.0684 16.2686 36.0216 16.084 35.9282C15.9017 35.8348 15.7456 35.7038 15.6157 35.5352C15.4858 35.3665 15.3856 35.1683 15.3149 34.9404C15.2466 34.7126 15.2124 34.4642 15.2124 34.1953ZM16.1968 34.1235V34.1953C16.1968 34.348 16.2116 34.4904 16.2412 34.6226C16.2708 34.7547 16.3164 34.8721 16.3779 34.9746C16.4417 35.0749 16.5203 35.1535 16.6138 35.2104C16.7095 35.2651 16.8223 35.2925 16.9521 35.2925C17.1322 35.2925 17.2791 35.2549 17.3931 35.1797C17.507 35.1022 17.5924 34.9963 17.6494 34.8618C17.7064 34.7274 17.7394 34.5724 17.7485 34.397V33.9492C17.744 33.8057 17.7246 33.6769 17.6904 33.563C17.6562 33.4468 17.6084 33.3477 17.5469 33.2656C17.4854 33.1836 17.4056 33.1198 17.3076 33.0742C17.2096 33.0286 17.0934 33.0059 16.959 33.0059C16.8291 33.0059 16.7163 33.0355 16.6206 33.0947C16.5272 33.1517 16.4486 33.2303 16.3848 33.3306C16.3232 33.4308 16.2765 33.5493 16.2446 33.686C16.2127 33.8205 16.1968 33.9663 16.1968 34.1235ZM21.6997 32.3018H22.5918V35.877C22.5918 36.2142 22.5166 36.5002 22.3662 36.7349C22.2181 36.9718 22.0107 37.1507 21.7441 37.2715C21.4775 37.3945 21.1676 37.4561 20.8145 37.4561C20.6595 37.4561 20.4954 37.4355 20.3223 37.3945C20.1514 37.3535 19.9873 37.2897 19.8301 37.2031C19.6751 37.1165 19.5452 37.0072 19.4404 36.875L19.8745 36.2939C19.9884 36.4261 20.1206 36.5286 20.271 36.6016C20.4214 36.6768 20.5877 36.7144 20.77 36.7144C20.9478 36.7144 21.0981 36.6813 21.2212 36.6152C21.3442 36.5514 21.4388 36.4569 21.5049 36.3315C21.571 36.2085 21.604 36.0592 21.604 35.8838V33.1562L21.6997 32.3018ZM19.2114 34.1953V34.1235C19.2114 33.841 19.2456 33.5846 19.314 33.3545C19.3846 33.1221 19.4837 32.9227 19.6113 32.7563C19.7412 32.59 19.8984 32.4613 20.083 32.3701C20.2676 32.279 20.4761 32.2334 20.7085 32.2334C20.9546 32.2334 21.1608 32.279 21.3271 32.3701C21.4935 32.4613 21.6302 32.5911 21.7373 32.7598C21.8444 32.9261 21.9276 33.1232 21.9868 33.3511C22.0483 33.5767 22.0962 33.8239 22.1304 34.0928V34.25C22.0962 34.5075 22.0449 34.7467 21.9766 34.9678C21.9082 35.1888 21.8182 35.3825 21.7065 35.5488C21.5949 35.7129 21.4559 35.8405 21.2896 35.9316C21.1255 36.0228 20.9295 36.0684 20.7017 36.0684C20.4738 36.0684 20.2676 36.0216 20.083 35.9282C19.9007 35.8348 19.7446 35.7038 19.6147 35.5352C19.4849 35.3665 19.3846 35.1683 19.314 34.9404C19.2456 34.7126 19.2114 34.4642 19.2114 34.1953ZM20.1958 34.1235V34.1953C20.1958 34.348 20.2106 34.4904 20.2402 34.6226C20.2699 34.7547 20.3154 34.8721 20.377 34.9746C20.4408 35.0749 20.5194 35.1535 20.6128 35.2104C20.7085 35.2651 20.8213 35.2925 20.9512 35.2925C21.1312 35.2925 21.2782 35.2549 21.3921 35.1797C21.506 35.1022 21.5915 34.9963 21.6484 34.8618C21.7054 34.7274 21.7384 34.5724 21.7476 34.397V33.9492C21.743 33.8057 21.7236 33.6769 21.6895 33.563C21.6553 33.4468 21.6074 33.3477 21.5459 33.2656C21.4844 33.1836 21.4046 33.1198 21.3066 33.0742C21.2087 33.0286 21.0924 33.0059 20.958 33.0059C20.8281 33.0059 20.7153 33.0355 20.6196 33.0947C20.5262 33.1517 20.4476 33.2303 20.3838 33.3306C20.3223 33.4308 20.2756 33.5493 20.2437 33.686C20.2118 33.8205 20.1958 33.9663 20.1958 34.1235Z" fill="white"/>
</svg>
