<svg width="34" height="40" viewBox="0 0 34 40" fill="none" xmlns="http://www.w3.org/2000/svg">
<path fill-rule="evenodd" clip-rule="evenodd" d="M17.7168 33.172C18.2348 33.172 18.4238 33.655 18.4238 34.18C18.4238 34.642 18.2978 35.195 17.7168 35.195C17.1708 35.195 16.9888 34.642 16.9888 34.145C16.9888 33.683 17.1708 33.172 17.7168 33.172ZM19.5718 31.002H18.3818V32.7589H18.3678C18.1228 32.43 17.7798 32.262 17.3318 32.262C16.3028 32.262 15.7988 33.158 15.7988 34.103C15.7988 35.125 16.2818 36.1049 17.4228 36.1049C17.8428 36.1049 18.1928 35.923 18.4238 35.58H18.4378V36H19.5718V31.002ZM12.7095 34.1872C12.7095 33.7252 12.8775 33.1722 13.4305 33.1722C13.9835 33.1722 14.1585 33.7252 14.1585 34.1872C14.1585 34.6492 13.9835 35.1952 13.4305 35.1952C12.8775 35.1952 12.7095 34.6492 12.7095 34.1872ZM11.5195 34.1872C11.5195 35.2792 12.3035 36.1052 13.4305 36.1052C14.5575 36.1052 15.3485 35.2792 15.3485 34.1872C15.3485 33.0952 14.5575 32.2622 13.4305 32.2622C12.3035 32.2622 11.5195 33.0952 11.5195 34.1872ZM21.839 32.3671H22.574V33.1371H21.839V34.7891C21.839 35.0761 22.007 35.1391 22.266 35.1391C22.3142 35.1391 22.364 35.1357 22.4147 35.1323C22.4672 35.1287 22.5206 35.1251 22.574 35.1251V36.0001C22.481 36.0031 22.388 36.0099 22.295 36.0168C22.171 36.0259 22.047 36.0351 21.923 36.0351C20.908 36.0351 20.649 35.7411 20.649 34.7541V33.1371H20.047V32.3671H20.649V31.2681H21.839V32.3671Z" fill="white"/>
<path d="M0 28H34V37C34 38.6569 32.6569 40 31 40H3C1.34315 40 0 38.6569 0 37V28Z" fill="#F8B859"/>
<path d="M0 3C0 1.34315 1.34315 0 3 0H23L34 11V28H0V3Z" fill="#F5F5F5"/>
<path d="M34 11L26 11C24.3431 11 23 9.65685 23 8V0L34 11Z" fill="#DBDBDB"/>
<path fill-rule="evenodd" clip-rule="evenodd" d="M10 0H8V2H10V4H8V6H10V8H8V10H10V12H8V14H10V12H12V10H10V8H12V6H10V4H12V2H10V0ZM8 17C8 16.4477 8.44771 16 9 16H11C11.5523 16 12 16.4477 12 17V23C12 23.5523 11.5523 24 11 24H9C8.44771 24 8 23.5523 8 23V17ZM9 23V20H11V23H9Z" fill="#F8B859"/>
<path d="M12.085 33.1084V36H11.1006V32.3018H12.0269L12.085 33.1084ZM13.1992 32.2778L13.1821 33.1904C13.1343 33.1836 13.0762 33.1779 13.0078 33.1733C12.9417 33.1665 12.8813 33.1631 12.8267 33.1631C12.6877 33.1631 12.5669 33.1813 12.4644 33.2178C12.3641 33.252 12.2798 33.3032 12.2114 33.3716C12.1453 33.4399 12.0952 33.5231 12.061 33.6211C12.0291 33.7191 12.0109 33.8307 12.0063 33.9561L11.8081 33.8945C11.8081 33.6553 11.832 33.4354 11.8799 33.2349C11.9277 33.0321 11.9972 32.8555 12.0884 32.7051C12.1818 32.5547 12.2957 32.4385 12.4302 32.3564C12.5646 32.2744 12.7184 32.2334 12.8916 32.2334C12.9463 32.2334 13.0021 32.238 13.0591 32.2471C13.116 32.2539 13.1628 32.2642 13.1992 32.2778ZM14.6484 33.0127V37.4219H13.6641V32.3018H14.5767L14.6484 33.0127ZM16.9897 34.1099V34.1816C16.9897 34.4505 16.9578 34.7 16.894 34.9302C16.8325 35.1603 16.7414 35.3608 16.6206 35.5317C16.4998 35.7004 16.3494 35.8325 16.1694 35.9282C15.9917 36.0216 15.7866 36.0684 15.5542 36.0684C15.3286 36.0684 15.1326 36.0228 14.9663 35.9316C14.8 35.8405 14.6598 35.7129 14.5459 35.5488C14.4342 35.3825 14.3442 35.1899 14.2759 34.9712C14.2075 34.7524 14.1551 34.5177 14.1187 34.2671V34.0791C14.1551 33.8102 14.2075 33.5641 14.2759 33.3408C14.3442 33.1152 14.4342 32.9204 14.5459 32.7563C14.6598 32.59 14.7988 32.4613 14.9629 32.3701C15.1292 32.279 15.3241 32.2334 15.5474 32.2334C15.7821 32.2334 15.9883 32.2778 16.166 32.3667C16.346 32.4556 16.4964 32.5832 16.6172 32.7495C16.7402 32.9159 16.8325 33.1141 16.894 33.3442C16.9578 33.5744 16.9897 33.8296 16.9897 34.1099ZM16.002 34.1816V34.1099C16.002 33.9526 15.9883 33.8079 15.9609 33.6758C15.9359 33.5413 15.8949 33.424 15.8379 33.3237C15.7832 33.2235 15.7103 33.146 15.6191 33.0913C15.5303 33.0343 15.422 33.0059 15.2944 33.0059C15.16 33.0059 15.0449 33.0275 14.9492 33.0708C14.8558 33.1141 14.7795 33.1768 14.7202 33.2588C14.661 33.3408 14.6165 33.4388 14.5869 33.5527C14.5573 33.6667 14.5391 33.7954 14.5322 33.939V34.4141C14.5436 34.5827 14.5755 34.7342 14.6279 34.8687C14.6803 35.0008 14.7612 35.1056 14.8706 35.1831C14.98 35.2606 15.1235 35.2993 15.3013 35.2993C15.4312 35.2993 15.5405 35.2708 15.6294 35.2139C15.7183 35.1546 15.79 35.0737 15.8447 34.9712C15.9017 34.8687 15.9416 34.7502 15.9644 34.6157C15.9894 34.4813 16.002 34.3366 16.002 34.1816ZM18.5859 33.0674V36H17.5981V32.3018H18.5244L18.5859 33.0674ZM18.4492 34.021H18.1758C18.1758 33.7635 18.2065 33.5265 18.2681 33.3101C18.3319 33.0913 18.4242 32.9022 18.5449 32.7427C18.668 32.5809 18.8195 32.4556 18.9995 32.3667C19.1795 32.2778 19.388 32.2334 19.625 32.2334C19.7891 32.2334 19.9395 32.2585 20.0762 32.3086C20.2129 32.3564 20.3302 32.4328 20.4282 32.5376C20.5285 32.6401 20.606 32.7746 20.6606 32.9409C20.7153 33.105 20.7427 33.3021 20.7427 33.5322V36H19.7583V33.6416C19.7583 33.473 19.7355 33.3431 19.6899 33.252C19.6444 33.1608 19.5794 33.097 19.4951 33.0605C19.4131 33.0241 19.314 33.0059 19.1978 33.0059C19.0701 33.0059 18.9585 33.0321 18.8628 33.0845C18.7694 33.1369 18.6919 33.2098 18.6304 33.3032C18.5688 33.3944 18.5233 33.5015 18.4937 33.6245C18.464 33.7476 18.4492 33.8797 18.4492 34.021ZM20.6504 33.9082L20.2983 33.9526C20.2983 33.7111 20.328 33.4867 20.3872 33.2793C20.4487 33.0719 20.5387 32.8896 20.6572 32.7324C20.778 32.5752 20.9272 32.4533 21.105 32.3667C21.2827 32.2778 21.4878 32.2334 21.7202 32.2334C21.8979 32.2334 22.0597 32.2596 22.2056 32.312C22.3514 32.3621 22.4756 32.443 22.5781 32.5547C22.6829 32.6641 22.7627 32.8076 22.8174 32.9854C22.8743 33.1631 22.9028 33.3807 22.9028 33.6382V36H21.915V33.6382C21.915 33.4673 21.8923 33.3374 21.8467 33.2485C21.8034 33.1574 21.7396 33.0947 21.6553 33.0605C21.5732 33.0241 21.4753 33.0059 21.3613 33.0059C21.2428 33.0059 21.1392 33.0298 21.0503 33.0776C20.9614 33.1232 20.8874 33.187 20.8281 33.269C20.7689 33.3511 20.7244 33.4468 20.6948 33.5562C20.6652 33.6632 20.6504 33.7806 20.6504 33.9082Z" fill="white"/>
</svg>
