<svg width="34" height="40" viewBox="0 0 34 40" fill="none" xmlns="http://www.w3.org/2000/svg">
<path fill-rule="evenodd" clip-rule="evenodd" d="M17.7168 33.172C18.2348 33.172 18.4238 33.655 18.4238 34.18C18.4238 34.642 18.2978 35.195 17.7168 35.195C17.1708 35.195 16.9888 34.642 16.9888 34.145C16.9888 33.683 17.1708 33.172 17.7168 33.172ZM19.5718 31.002H18.3818V32.7589H18.3678C18.1228 32.43 17.7798 32.262 17.3318 32.262C16.3028 32.262 15.7988 33.158 15.7988 34.103C15.7988 35.125 16.2818 36.1049 17.4228 36.1049C17.8428 36.1049 18.1928 35.923 18.4238 35.58H18.4378V36H19.5718V31.002ZM12.7095 34.1872C12.7095 33.7252 12.8775 33.1722 13.4305 33.1722C13.9835 33.1722 14.1585 33.7252 14.1585 34.1872C14.1585 34.6492 13.9835 35.1952 13.4305 35.1952C12.8775 35.1952 12.7095 34.6492 12.7095 34.1872ZM11.5195 34.1872C11.5195 35.2792 12.3035 36.1052 13.4305 36.1052C14.5575 36.1052 15.3485 35.2792 15.3485 34.1872C15.3485 33.0952 14.5575 32.2622 13.4305 32.2622C12.3035 32.2622 11.5195 33.0952 11.5195 34.1872ZM21.839 32.3671H22.574V33.1371H21.839V34.7891C21.839 35.0761 22.007 35.1391 22.266 35.1391C22.3142 35.1391 22.364 35.1357 22.4147 35.1323C22.4672 35.1287 22.5206 35.1251 22.574 35.1251V36.0001C22.481 36.0031 22.388 36.0099 22.295 36.0168C22.171 36.0259 22.047 36.0351 21.923 36.0351C20.908 36.0351 20.649 35.7411 20.649 34.7541V33.1371H20.047V32.3671H20.649V31.2681H21.839V32.3671Z" fill="white"/>
<path d="M0 28H34V37C34 38.6569 32.6569 40 31 40H3C1.34315 40 0 38.6569 0 37V28Z" fill="#0F9D58"/>
<path d="M0 3C0 1.34315 1.34315 0 3 0H23L34 11V28H0V3Z" fill="#F5F5F5"/>
<path d="M34 11L26 11C24.3431 11 23 9.65685 23 8V0L34 11Z" fill="#DBDBDB"/>
<path fill-rule="evenodd" clip-rule="evenodd" d="M12 13H7V15H12V13ZM12 17H7V19H12V17ZM7 21H12V23H7V21ZM23 13H14V15H23V13ZM14 17H23V19H14V17ZM23 21H14V23H23V21Z" fill="#0F9D58"/>
<path d="M10.6392 32.3018L11.251 33.4263L11.8799 32.3018H12.9292L11.8833 34.1099L12.9771 36H11.9243L11.2578 34.8105L10.5913 36H9.53857L10.6323 34.1099L9.58643 32.3018H10.6392ZM14.4468 30.75V36H13.459V30.75H14.4468ZM17.2598 34.978C17.2598 34.9074 17.2393 34.8436 17.1982 34.7866C17.1572 34.7297 17.0809 34.6772 16.9692 34.6294C16.8599 34.5793 16.7015 34.5337 16.4941 34.4927C16.3073 34.4517 16.133 34.4004 15.9712 34.3389C15.8117 34.2751 15.6727 34.1987 15.5542 34.1099C15.438 34.021 15.3468 33.9162 15.2808 33.7954C15.2147 33.6724 15.1816 33.5322 15.1816 33.375C15.1816 33.2201 15.2147 33.0742 15.2808 32.9375C15.3491 32.8008 15.446 32.68 15.5713 32.5752C15.6989 32.4681 15.8538 32.3849 16.0361 32.3257C16.2207 32.2642 16.4281 32.2334 16.6582 32.2334C16.9795 32.2334 17.2552 32.2847 17.4854 32.3872C17.7178 32.4897 17.8955 32.631 18.0186 32.811C18.1439 32.9888 18.2065 33.1916 18.2065 33.4194H17.2222C17.2222 33.3237 17.2017 33.2383 17.1606 33.1631C17.1219 33.0856 17.0604 33.0252 16.9761 32.9819C16.894 32.9364 16.7869 32.9136 16.6548 32.9136C16.5454 32.9136 16.4508 32.9329 16.3711 32.9717C16.2913 33.0081 16.2298 33.0583 16.1865 33.1221C16.1455 33.1836 16.125 33.252 16.125 33.3271C16.125 33.3841 16.1364 33.4354 16.1592 33.481C16.1842 33.5243 16.2241 33.5641 16.2788 33.6006C16.3335 33.637 16.4041 33.6712 16.4907 33.7031C16.5796 33.7327 16.689 33.7601 16.8188 33.7852C17.0854 33.8398 17.3236 33.9116 17.5332 34.0005C17.7428 34.0871 17.9092 34.2056 18.0322 34.356C18.1553 34.5041 18.2168 34.6989 18.2168 34.9404C18.2168 35.1045 18.1803 35.2549 18.1074 35.3916C18.0345 35.5283 17.9297 35.6479 17.793 35.7505C17.6562 35.8507 17.4922 35.9294 17.3008 35.9863C17.1117 36.041 16.8986 36.0684 16.6616 36.0684C16.3175 36.0684 16.0259 36.0068 15.7866 35.8838C15.5496 35.7607 15.3696 35.6047 15.2466 35.4155C15.1258 35.2241 15.0654 35.0282 15.0654 34.8276H15.9985C16.0031 34.9621 16.0373 35.0703 16.1011 35.1523C16.1672 35.2344 16.2503 35.2936 16.3506 35.3301C16.4531 35.3665 16.5636 35.3848 16.6821 35.3848C16.8097 35.3848 16.9157 35.3677 17 35.3335C17.0843 35.297 17.1481 35.2492 17.1914 35.1899C17.237 35.1284 17.2598 35.0578 17.2598 34.978ZM19.8403 33.0674V36H18.8525V32.3018H19.7788L19.8403 33.0674ZM19.7036 34.021H19.4302C19.4302 33.7635 19.4609 33.5265 19.5225 33.3101C19.5863 33.0913 19.6785 32.9022 19.7993 32.7427C19.9224 32.5809 20.0739 32.4556 20.2539 32.3667C20.4339 32.2778 20.6424 32.2334 20.8794 32.2334C21.0435 32.2334 21.1938 32.2585 21.3306 32.3086C21.4673 32.3564 21.5846 32.4328 21.6826 32.5376C21.7829 32.6401 21.8604 32.7746 21.915 32.9409C21.9697 33.105 21.9971 33.3021 21.9971 33.5322V36H21.0127V33.6416C21.0127 33.473 20.9899 33.3431 20.9443 33.252C20.8988 33.1608 20.8338 33.097 20.7495 33.0605C20.6675 33.0241 20.5684 33.0059 20.4521 33.0059C20.3245 33.0059 20.2129 33.0321 20.1172 33.0845C20.0238 33.1369 19.9463 33.2098 19.8848 33.3032C19.8232 33.3944 19.7777 33.5015 19.748 33.6245C19.7184 33.7476 19.7036 33.8797 19.7036 34.021ZM21.9048 33.9082L21.5527 33.9526C21.5527 33.7111 21.5824 33.4867 21.6416 33.2793C21.7031 33.0719 21.7931 32.8896 21.9116 32.7324C22.0324 32.5752 22.1816 32.4533 22.3594 32.3667C22.5371 32.2778 22.7422 32.2334 22.9746 32.2334C23.1523 32.2334 23.3141 32.2596 23.46 32.312C23.6058 32.3621 23.73 32.443 23.8325 32.5547C23.9373 32.6641 24.0171 32.8076 24.0718 32.9854C24.1287 33.1631 24.1572 33.3807 24.1572 33.6382V36H23.1694V33.6382C23.1694 33.4673 23.1466 33.3374 23.1011 33.2485C23.0578 33.1574 22.994 33.0947 22.9097 33.0605C22.8276 33.0241 22.7297 33.0059 22.6157 33.0059C22.4972 33.0059 22.3936 33.0298 22.3047 33.0776C22.2158 33.1232 22.1418 33.187 22.0825 33.269C22.0233 33.3511 21.9788 33.4468 21.9492 33.5562C21.9196 33.6632 21.9048 33.7806 21.9048 33.9082Z" fill="white"/>
</svg>
