<svg width="34" height="40" viewBox="0 0 34 40" fill="none" xmlns="http://www.w3.org/2000/svg">
<path d="M0 3C0 1.34315 1.34315 0 3 0H23L34 11V37C34 38.6569 32.6569 40 31 40H3C1.34315 40 0 38.6569 0 37V3Z" fill="#F5F5F5"/>
<path d="M0 28H34V37C34 38.6569 32.6569 40 31 40H3C1.34315 40 0 38.6569 0 37V28Z" fill="#E71A01"/>
<path d="M34 11L26 11C24.3431 11 23 9.65685 23 8V0L34 11Z" fill="#DBDBDB"/>
<path fill-rule="evenodd" clip-rule="evenodd" d="M16.39 8.90641C16.215 8.27341 15.787 7.95841 15.426 8.00441C14.99 8.06141 14.526 8.32041 14.34 8.72941C13.854 9.82141 14.768 12.8934 15.028 13.7674L15.073 13.9194C14.015 17.1134 10.394 23.4264 8.62002 23.8534C8.58302 23.4364 8.80602 22.2294 11.146 20.7244C11.266 20.5944 11.406 20.4374 11.471 20.3344C9.49302 21.3004 6.93108 22.8514 8.47102 24.0114C8.55602 24.0774 8.68502 24.1314 8.83402 24.1874C10.014 24.6244 11.666 23.1954 13.327 19.9544C15.157 19.3504 16.633 18.8964 18.722 18.5804C21.005 20.1304 22.538 20.4464 23.578 20.0474C23.866 19.9354 24.32 19.5734 24.45 19.1004C24.515 18.8774 24.608 18.5154 24.432 18.2274C23.842 17.2664 21.452 17.5954 20.032 17.7904C19.779 17.8254 19.557 17.8564 19.381 17.8744C17.552 16.7704 16.289 14.8014 15.778 13.3804C15.857 13.0784 15.936 12.7894 16.012 12.5124C16.397 11.1124 16.701 10.0064 16.392 8.90641H16.39ZM24.45 19.1004C23.605 20.1404 21.628 19.4164 20.05 18.4224C21.507 18.2644 23.01 18.1724 23.661 18.3764C24.488 18.6364 24.459 19.0444 24.451 19.1004H24.45ZM15.601 12.7404C15.296 11.6544 14.868 9.24041 15.555 8.46041C16.701 9.11641 16.266 10.5384 15.825 11.9834C15.748 12.2364 15.671 12.4894 15.601 12.7404ZM13.439 19.5834C15.156 18.9054 16.354 18.4494 18.118 18.1254C16.818 16.9554 16.028 15.6834 15.378 14.3834C14.915 16.0554 13.948 18.5894 13.438 19.5834H13.439Z" fill="#E71A01"/>
<path d="M13.1719 33.0127V37.4219H12.1875V32.3018H13.1001L13.1719 33.0127ZM15.5132 34.1099V34.1816C15.5132 34.4505 15.4813 34.7 15.4175 34.9302C15.356 35.1603 15.2648 35.3608 15.144 35.5317C15.0233 35.7004 14.8729 35.8325 14.6929 35.9282C14.5151 36.0216 14.3101 36.0684 14.0776 36.0684C13.8521 36.0684 13.6561 36.0228 13.4897 35.9316C13.3234 35.8405 13.1833 35.7129 13.0693 35.5488C12.9577 35.3825 12.8677 35.1899 12.7993 34.9712C12.731 34.7524 12.6785 34.5177 12.6421 34.2671V34.0791C12.6785 33.8102 12.731 33.5641 12.7993 33.3408C12.8677 33.1152 12.9577 32.9204 13.0693 32.7563C13.1833 32.59 13.3223 32.4613 13.4863 32.3701C13.6527 32.279 13.8475 32.2334 14.0708 32.2334C14.3055 32.2334 14.5117 32.2778 14.6895 32.3667C14.8695 32.4556 15.0199 32.5832 15.1406 32.7495C15.2637 32.9159 15.356 33.1141 15.4175 33.3442C15.4813 33.5744 15.5132 33.8296 15.5132 34.1099ZM14.5254 34.1816V34.1099C14.5254 33.9526 14.5117 33.8079 14.4844 33.6758C14.4593 33.5413 14.4183 33.424 14.3613 33.3237C14.3066 33.2235 14.2337 33.146 14.1426 33.0913C14.0537 33.0343 13.9455 33.0059 13.8179 33.0059C13.6834 33.0059 13.5684 33.0275 13.4727 33.0708C13.3792 33.1141 13.3029 33.1768 13.2437 33.2588C13.1844 33.3408 13.14 33.4388 13.1104 33.5527C13.0807 33.6667 13.0625 33.7954 13.0557 33.939V34.4141C13.0671 34.5827 13.099 34.7342 13.1514 34.8687C13.2038 35.0008 13.2847 35.1056 13.394 35.1831C13.5034 35.2606 13.647 35.2993 13.8247 35.2993C13.9546 35.2993 14.064 35.2708 14.1528 35.2139C14.2417 35.1546 14.3135 35.0737 14.3682 34.9712C14.4251 34.8687 14.465 34.7502 14.4878 34.6157C14.5129 34.4813 14.5254 34.3366 14.5254 34.1816ZM18.3091 35.1934V30.75H19.3003V36H18.4082L18.3091 35.1934ZM15.9712 34.1953V34.1235C15.9712 33.841 16.0031 33.5846 16.0669 33.3545C16.1307 33.1221 16.2241 32.9227 16.3472 32.7563C16.4702 32.59 16.6217 32.4613 16.8018 32.3701C16.9818 32.279 17.1868 32.2334 17.417 32.2334C17.6335 32.2334 17.8226 32.279 17.9844 32.3701C18.1484 32.4613 18.2874 32.5911 18.4014 32.7598C18.5176 32.9261 18.611 33.1232 18.6816 33.3511C18.7523 33.5767 18.8035 33.8239 18.8354 34.0928V34.25C18.8035 34.5075 18.7523 34.7467 18.6816 34.9678C18.611 35.1888 18.5176 35.3825 18.4014 35.5488C18.2874 35.7129 18.1484 35.8405 17.9844 35.9316C17.8203 36.0228 17.6289 36.0684 17.4102 36.0684C17.18 36.0684 16.9749 36.0216 16.7949 35.9282C16.6172 35.8348 16.4668 35.7038 16.3438 35.5352C16.223 35.3665 16.1307 35.1683 16.0669 34.9404C16.0031 34.7126 15.9712 34.4642 15.9712 34.1953ZM16.9556 34.1235V34.1953C16.9556 34.348 16.967 34.4904 16.9897 34.6226C17.0148 34.7547 17.0547 34.8721 17.1094 34.9746C17.1663 35.0749 17.2393 35.1535 17.3281 35.2104C17.4193 35.2651 17.5298 35.2925 17.6597 35.2925C17.8283 35.2925 17.9673 35.2549 18.0767 35.1797C18.186 35.1022 18.2692 34.9963 18.3262 34.8618C18.3854 34.7274 18.4196 34.5724 18.4287 34.397V33.9492C18.4219 33.8057 18.4014 33.6769 18.3672 33.563C18.3353 33.4468 18.2874 33.3477 18.2236 33.2656C18.1621 33.1836 18.0846 33.1198 17.9912 33.0742C17.9001 33.0286 17.7918 33.0059 17.6665 33.0059C17.5389 33.0059 17.4295 33.0355 17.3384 33.0947C17.2472 33.1517 17.1732 33.2303 17.1162 33.3306C17.0615 33.4308 17.0205 33.5493 16.9932 33.686C16.9681 33.8205 16.9556 33.9663 16.9556 34.1235ZM21.3237 36H20.3325V31.9736C20.3325 31.6934 20.3872 31.4575 20.4966 31.2661C20.6082 31.0724 20.7643 30.9266 20.9648 30.8286C21.1676 30.7284 21.408 30.6782 21.686 30.6782C21.7772 30.6782 21.8649 30.6851 21.9492 30.6987C22.0335 30.7101 22.1156 30.7249 22.1953 30.7432L22.1851 31.4849C22.1418 31.4735 22.0962 31.4655 22.0483 31.4609C22.0005 31.4564 21.9447 31.4541 21.8809 31.4541C21.7624 31.4541 21.661 31.4746 21.5767 31.5156C21.4946 31.5544 21.432 31.6125 21.3887 31.6899C21.3454 31.7674 21.3237 31.862 21.3237 31.9736V36ZM22.062 32.3018V32.999H19.7822V32.3018H22.062Z" fill="white"/>
</svg>
