<svg width="34" height="40" viewBox="0 0 34 40" fill="none" xmlns="http://www.w3.org/2000/svg">
<path fill-rule="evenodd" clip-rule="evenodd" d="M17.7168 33.172C18.2348 33.172 18.4238 33.655 18.4238 34.18C18.4238 34.642 18.2978 35.195 17.7168 35.195C17.1708 35.195 16.9888 34.642 16.9888 34.145C16.9888 33.683 17.1708 33.172 17.7168 33.172ZM19.5718 31.002H18.3818V32.7589H18.3678C18.1228 32.43 17.7798 32.262 17.3318 32.262C16.3028 32.262 15.7988 33.158 15.7988 34.103C15.7988 35.125 16.2818 36.1049 17.4228 36.1049C17.8428 36.1049 18.1928 35.923 18.4238 35.58H18.4378V36H19.5718V31.002ZM12.7095 34.1872C12.7095 33.7252 12.8775 33.1722 13.4305 33.1722C13.9835 33.1722 14.1585 33.7252 14.1585 34.1872C14.1585 34.6492 13.9835 35.1952 13.4305 35.1952C12.8775 35.1952 12.7095 34.6492 12.7095 34.1872ZM11.5195 34.1872C11.5195 35.2792 12.3035 36.1052 13.4305 36.1052C14.5575 36.1052 15.3485 35.2792 15.3485 34.1872C15.3485 33.0952 14.5575 32.2622 13.4305 32.2622C12.3035 32.2622 11.5195 33.0952 11.5195 34.1872ZM21.839 32.3671H22.574V33.1371H21.839V34.7891C21.839 35.0761 22.007 35.1391 22.266 35.1391C22.3142 35.1391 22.364 35.1357 22.4147 35.1323C22.4672 35.1287 22.5206 35.1251 22.574 35.1251V36.0001C22.481 36.0031 22.388 36.0099 22.295 36.0168C22.171 36.0259 22.047 36.0351 21.923 36.0351C20.908 36.0351 20.649 35.7411 20.649 34.7541V33.1371H20.047V32.3671H20.649V31.2681H21.839V32.3671Z" fill="white"/>
<path d="M0 28H34V37C34 38.6569 32.6569 40 31 40H3C1.34315 40 0 38.6569 0 37V28Z" fill="#F8B859"/>
<path d="M0 3C0 1.34315 1.34315 0 3 0H23L34 11V28H0V3Z" fill="#F5F5F5"/>
<path d="M34 11L26 11C24.3431 11 23 9.65685 23 8V0L34 11Z" fill="#DBDBDB"/>
<path fill-rule="evenodd" clip-rule="evenodd" d="M10 0H8V2H10V4H8V6H10V8H8V10H10V12H8V14H10V12H12V10H10V8H12V6H10V4H12V2H10V0ZM8 17C8 16.4477 8.44771 16 9 16H11C11.5523 16 12 16.4477 12 17V23C12 23.5523 11.5523 24 11 24H9C8.44771 24 8 23.5523 8 23V17ZM9 23V20H11V23H9Z" fill="#F8B859"/>
<path d="M15.3115 35.166V33.5186C15.3115 33.4001 15.2922 33.2987 15.2534 33.2144C15.2147 33.1278 15.1543 33.0605 15.0723 33.0127C14.9925 32.9648 14.8888 32.9409 14.7612 32.9409C14.6519 32.9409 14.5573 32.9603 14.4775 32.999C14.3978 33.0355 14.3363 33.089 14.293 33.1597C14.2497 33.228 14.228 33.3089 14.228 33.4023H13.2437C13.2437 33.2451 13.2801 33.0959 13.353 32.9546C13.4259 32.8133 13.5319 32.6891 13.6709 32.582C13.8099 32.4727 13.9751 32.3872 14.1665 32.3257C14.3602 32.2642 14.5767 32.2334 14.8159 32.2334C15.103 32.2334 15.3582 32.2812 15.5815 32.377C15.8049 32.4727 15.9803 32.6162 16.1079 32.8076C16.2378 32.999 16.3027 33.2383 16.3027 33.5254V35.1079C16.3027 35.3107 16.3153 35.4771 16.3403 35.6069C16.3654 35.7345 16.4019 35.8462 16.4497 35.9419V36H15.4551C15.4072 35.8997 15.3708 35.7744 15.3457 35.624C15.3229 35.4714 15.3115 35.3187 15.3115 35.166ZM15.4414 33.7476L15.4482 34.3047H14.8979C14.7681 34.3047 14.6553 34.3195 14.5596 34.3491C14.4639 34.3787 14.3853 34.4209 14.3237 34.4756C14.2622 34.528 14.2166 34.5895 14.187 34.6602C14.1597 34.7308 14.146 34.8083 14.146 34.8926C14.146 34.9769 14.1654 35.0532 14.2041 35.1216C14.2428 35.1877 14.2987 35.2401 14.3716 35.2788C14.4445 35.3153 14.5299 35.3335 14.6279 35.3335C14.776 35.3335 14.9048 35.3039 15.0142 35.2446C15.1235 35.1854 15.2078 35.1125 15.2671 35.0259C15.3286 34.9393 15.3605 34.8573 15.3628 34.7798L15.6226 35.1968C15.5861 35.2902 15.536 35.387 15.4722 35.4873C15.4106 35.5876 15.332 35.6821 15.2363 35.771C15.1406 35.8576 15.0256 35.9294 14.8911 35.9863C14.7567 36.041 14.5972 36.0684 14.4126 36.0684C14.1779 36.0684 13.9648 36.0216 13.7734 35.9282C13.5843 35.8325 13.4339 35.7015 13.3223 35.5352C13.2129 35.3665 13.1582 35.1751 13.1582 34.9609C13.1582 34.7673 13.1947 34.5952 13.2676 34.4448C13.3405 34.2944 13.4476 34.168 13.5889 34.0654C13.7324 33.9606 13.9113 33.882 14.1255 33.8296C14.3397 33.7749 14.5881 33.7476 14.8706 33.7476H15.4414ZM18.0459 33.1084V36H17.0615V32.3018H17.9878L18.0459 33.1084ZM19.1602 32.2778L19.1431 33.1904C19.0952 33.1836 19.0371 33.1779 18.9688 33.1733C18.9027 33.1665 18.8423 33.1631 18.7876 33.1631C18.6486 33.1631 18.5278 33.1813 18.4253 33.2178C18.325 33.252 18.2407 33.3032 18.1724 33.3716C18.1063 33.4399 18.0562 33.5231 18.022 33.6211C17.9901 33.7191 17.9718 33.8307 17.9673 33.9561L17.769 33.8945C17.769 33.6553 17.793 33.4354 17.8408 33.2349C17.8887 33.0321 17.9582 32.8555 18.0493 32.7051C18.1427 32.5547 18.2567 32.4385 18.3911 32.3564C18.5256 32.2744 18.6794 32.2334 18.8525 32.2334C18.9072 32.2334 18.9631 32.238 19.02 32.2471C19.077 32.2539 19.1237 32.2642 19.1602 32.2778ZM19.6797 32.3018H20.6675V36.2222C20.6675 36.4956 20.6174 36.7269 20.5171 36.916C20.4168 37.1051 20.2721 37.2487 20.083 37.3467C19.8939 37.4447 19.6649 37.4937 19.396 37.4937C19.3117 37.4937 19.2297 37.4891 19.1499 37.48C19.0679 37.4709 18.9836 37.4561 18.897 37.4355L18.9004 36.6802C18.9551 36.6893 19.0086 36.6961 19.061 36.7007C19.1112 36.7075 19.1624 36.7109 19.2148 36.7109C19.3174 36.7109 19.4028 36.6938 19.4712 36.6597C19.5396 36.6255 19.5908 36.5719 19.625 36.499C19.6615 36.4284 19.6797 36.3361 19.6797 36.2222V32.3018ZM19.6011 31.3379C19.6011 31.1943 19.6512 31.0758 19.7515 30.9824C19.854 30.889 19.9884 30.8423 20.1548 30.8423C20.3234 30.8423 20.4578 30.889 20.5581 30.9824C20.6584 31.0758 20.7085 31.1943 20.7085 31.3379C20.7085 31.4814 20.6584 31.5999 20.5581 31.6934C20.4578 31.7868 20.3234 31.8335 20.1548 31.8335C19.9884 31.8335 19.854 31.7868 19.7515 31.6934C19.6512 31.5999 19.6011 31.4814 19.6011 31.3379Z" fill="white"/>
</svg>
