<svg width="34" height="40" viewBox="0 0 34 40" fill="none" xmlns="http://www.w3.org/2000/svg">
<path fill-rule="evenodd" clip-rule="evenodd" d="M17.7168 33.172C18.2348 33.172 18.4238 33.655 18.4238 34.18C18.4238 34.642 18.2978 35.195 17.7168 35.195C17.1708 35.195 16.9888 34.642 16.9888 34.145C16.9888 33.683 17.1708 33.172 17.7168 33.172ZM19.5718 31.002H18.3818V32.7589H18.3678C18.1228 32.43 17.7798 32.262 17.3318 32.262C16.3028 32.262 15.7988 33.158 15.7988 34.103C15.7988 35.125 16.2818 36.1049 17.4228 36.1049C17.8428 36.1049 18.1928 35.923 18.4238 35.58H18.4378V36H19.5718V31.002ZM12.7095 34.1872C12.7095 33.7252 12.8775 33.1722 13.4305 33.1722C13.9835 33.1722 14.1585 33.7252 14.1585 34.1872C14.1585 34.6492 13.9835 35.1952 13.4305 35.1952C12.8775 35.1952 12.7095 34.6492 12.7095 34.1872ZM11.5195 34.1872C11.5195 35.2792 12.3035 36.1052 13.4305 36.1052C14.5575 36.1052 15.3485 35.2792 15.3485 34.1872C15.3485 33.0952 14.5575 32.2622 13.4305 32.2622C12.3035 32.2622 11.5195 33.0952 11.5195 34.1872ZM21.839 32.3671H22.574V33.1371H21.839V34.7891C21.839 35.0761 22.007 35.1391 22.266 35.1391C22.3142 35.1391 22.364 35.1357 22.4147 35.1323C22.4672 35.1287 22.5206 35.1251 22.574 35.1251V36.0001C22.481 36.0031 22.388 36.0099 22.295 36.0168C22.171 36.0259 22.047 36.0351 21.923 36.0351C20.908 36.0351 20.649 35.7411 20.649 34.7541V33.1371H20.047V32.3671H20.649V31.2681H21.839V32.3671Z" fill="white"/>
<path d="M0 28H34V37C34 38.6569 32.6569 40 31 40H3C1.34315 40 0 38.6569 0 37V28Z" fill="#F8B859"/>
<path d="M0 3C0 1.34315 1.34315 0 3 0H23L34 11V28H0V3Z" fill="#F5F5F5"/>
<path d="M34 11L26 11C24.3431 11 23 9.65685 23 8V0L34 11Z" fill="#DBDBDB"/>
<path fill-rule="evenodd" clip-rule="evenodd" d="M10 0H8V2H10V4H8V6H10V8H8V10H10V12H8V14H10V12H12V10H10V8H12V6H10V4H12V2H10V0ZM8 17C8 16.4477 8.44771 16 9 16H11C11.5523 16 12 16.4477 12 17V23C12 23.5523 11.5523 24 11 24H9C8.44771 24 8 23.5523 8 23V17ZM9 23V20H11V23H9Z" fill="#F8B859"/>
<path d="M13.9888 33.1084V36H13.0044V32.3018H13.9307L13.9888 33.1084ZM15.103 32.2778L15.0859 33.1904C15.0381 33.1836 14.98 33.1779 14.9116 33.1733C14.8455 33.1665 14.7852 33.1631 14.7305 33.1631C14.5915 33.1631 14.4707 33.1813 14.3682 33.2178C14.2679 33.252 14.1836 33.3032 14.1152 33.3716C14.0492 33.4399 13.999 33.5231 13.9648 33.6211C13.9329 33.7191 13.9147 33.8307 13.9102 33.9561L13.7119 33.8945C13.7119 33.6553 13.7358 33.4354 13.7837 33.2349C13.8315 33.0321 13.901 32.8555 13.9922 32.7051C14.0856 32.5547 14.1995 32.4385 14.334 32.3564C14.4684 32.2744 14.6222 32.2334 14.7954 32.2334C14.8501 32.2334 14.9059 32.238 14.9629 32.2471C15.0199 32.2539 15.0666 32.2642 15.103 32.2778ZM17.4478 35.166V33.5186C17.4478 33.4001 17.4284 33.2987 17.3896 33.2144C17.3509 33.1278 17.2905 33.0605 17.2085 33.0127C17.1287 32.9648 17.0251 32.9409 16.8975 32.9409C16.7881 32.9409 16.6935 32.9603 16.6138 32.999C16.534 33.0355 16.4725 33.089 16.4292 33.1597C16.3859 33.228 16.3643 33.3089 16.3643 33.4023H15.3799C15.3799 33.2451 15.4163 33.0959 15.4893 32.9546C15.5622 32.8133 15.6681 32.6891 15.8071 32.582C15.9461 32.4727 16.1113 32.3872 16.3027 32.3257C16.4964 32.2642 16.7129 32.2334 16.9521 32.2334C17.2393 32.2334 17.4945 32.2812 17.7178 32.377C17.9411 32.4727 18.1165 32.6162 18.2441 32.8076C18.374 32.999 18.439 33.2383 18.439 33.5254V35.1079C18.439 35.3107 18.4515 35.4771 18.4766 35.6069C18.5016 35.7345 18.5381 35.8462 18.5859 35.9419V36H17.5913C17.5435 35.8997 17.507 35.7744 17.4819 35.624C17.4591 35.4714 17.4478 35.3187 17.4478 35.166ZM17.5776 33.7476L17.5845 34.3047H17.0342C16.9043 34.3047 16.7915 34.3195 16.6958 34.3491C16.6001 34.3787 16.5215 34.4209 16.46 34.4756C16.3984 34.528 16.3529 34.5895 16.3232 34.6602C16.2959 34.7308 16.2822 34.8083 16.2822 34.8926C16.2822 34.9769 16.3016 35.0532 16.3403 35.1216C16.3791 35.1877 16.4349 35.2401 16.5078 35.2788C16.5807 35.3153 16.6662 35.3335 16.7642 35.3335C16.9123 35.3335 17.041 35.3039 17.1504 35.2446C17.2598 35.1854 17.3441 35.1125 17.4033 35.0259C17.4648 34.9393 17.4967 34.8573 17.499 34.7798L17.7588 35.1968C17.7223 35.2902 17.6722 35.387 17.6084 35.4873C17.5469 35.5876 17.4683 35.6821 17.3726 35.771C17.2769 35.8576 17.1618 35.9294 17.0273 35.9863C16.8929 36.041 16.7334 36.0684 16.5488 36.0684C16.3141 36.0684 16.1011 36.0216 15.9097 35.9282C15.7205 35.8325 15.5701 35.7015 15.4585 35.5352C15.3491 35.3665 15.2944 35.1751 15.2944 34.9609C15.2944 34.7673 15.3309 34.5952 15.4038 34.4448C15.4767 34.2944 15.5838 34.168 15.7251 34.0654C15.8687 33.9606 16.0475 33.882 16.2617 33.8296C16.4759 33.7749 16.7243 33.7476 17.0068 33.7476H17.5776ZM20.1821 33.1084V36H19.1978V32.3018H20.124L20.1821 33.1084ZM21.2964 32.2778L21.2793 33.1904C21.2314 33.1836 21.1733 33.1779 21.105 33.1733C21.0389 33.1665 20.9785 33.1631 20.9238 33.1631C20.7848 33.1631 20.6641 33.1813 20.5615 33.2178C20.4613 33.252 20.377 33.3032 20.3086 33.3716C20.2425 33.4399 20.1924 33.5231 20.1582 33.6211C20.1263 33.7191 20.1081 33.8307 20.1035 33.9561L19.9053 33.8945C19.9053 33.6553 19.9292 33.4354 19.9771 33.2349C20.0249 33.0321 20.0944 32.8555 20.1855 32.7051C20.279 32.5547 20.3929 32.4385 20.5273 32.3564C20.6618 32.2744 20.8156 32.2334 20.9888 32.2334C21.0435 32.2334 21.0993 32.238 21.1562 32.2471C21.2132 32.2539 21.2599 32.2642 21.2964 32.2778Z" fill="white"/>
</svg>
