<svg width="34" height="40" viewBox="0 0 34 40" fill="none" xmlns="http://www.w3.org/2000/svg">
<path fill-rule="evenodd" clip-rule="evenodd" d="M17.7168 33.172C18.2348 33.172 18.4238 33.655 18.4238 34.18C18.4238 34.642 18.2978 35.195 17.7168 35.195C17.1708 35.195 16.9888 34.642 16.9888 34.145C16.9888 33.683 17.1708 33.172 17.7168 33.172ZM19.5718 31.002H18.3818V32.7589H18.3678C18.1228 32.43 17.7798 32.262 17.3318 32.262C16.3028 32.262 15.7988 33.158 15.7988 34.103C15.7988 35.125 16.2818 36.1049 17.4228 36.1049C17.8428 36.1049 18.1928 35.923 18.4238 35.58H18.4378V36H19.5718V31.002ZM12.7095 34.1872C12.7095 33.7252 12.8775 33.1722 13.4305 33.1722C13.9835 33.1722 14.1585 33.7252 14.1585 34.1872C14.1585 34.6492 13.9835 35.1952 13.4305 35.1952C12.8775 35.1952 12.7095 34.6492 12.7095 34.1872ZM11.5195 34.1872C11.5195 35.2792 12.3035 36.1052 13.4305 36.1052C14.5575 36.1052 15.3485 35.2792 15.3485 34.1872C15.3485 33.0952 14.5575 32.2622 13.4305 32.2622C12.3035 32.2622 11.5195 33.0952 11.5195 34.1872ZM21.839 32.3671H22.574V33.1371H21.839V34.7891C21.839 35.0761 22.007 35.1391 22.266 35.1391C22.3142 35.1391 22.364 35.1357 22.4147 35.1323C22.4672 35.1287 22.5206 35.1251 22.574 35.1251V36.0001C22.481 36.0031 22.388 36.0099 22.295 36.0168C22.171 36.0259 22.047 36.0351 21.923 36.0351C20.908 36.0351 20.649 35.7411 20.649 34.7541V33.1371H20.047V32.3671H20.649V31.2681H21.839V32.3671Z" fill="white"/>
<path d="M0 28H34V37C34 38.6569 32.6569 40 31 40H3C1.34315 40 0 38.6569 0 37V28Z" fill="#F8B859"/>
<path d="M0 3C0 1.34315 1.34315 0 3 0H23L34 11V28H0V3Z" fill="#F5F5F5"/>
<path d="M34 11L26 11C24.3431 11 23 9.65685 23 8V0L34 11Z" fill="#DBDBDB"/>
<path fill-rule="evenodd" clip-rule="evenodd" d="M10 0H8V2H10V4H8V6H10V8H8V10H10V12H8V14H10V12H12V10H10V8H12V6H10V4H12V2H10V0ZM8 17C8 16.4477 8.44771 16 9 16H11C11.5523 16 12 16.4477 12 17V23C12 23.5523 11.5523 24 11 24H9C8.44771 24 8 23.5523 8 23V17ZM9 23V20H11V23H9Z" fill="#F8B859"/>
<path d="M13.7358 35.1934V30.75H14.7271V36H13.835L13.7358 35.1934ZM11.3979 34.1953V34.1235C11.3979 33.841 11.4299 33.5846 11.4937 33.3545C11.5575 33.1221 11.6509 32.9227 11.7739 32.7563C11.897 32.59 12.0485 32.4613 12.2285 32.3701C12.4085 32.279 12.6136 32.2334 12.8438 32.2334C13.0602 32.2334 13.2493 32.279 13.4111 32.3701C13.5752 32.4613 13.7142 32.5911 13.8281 32.7598C13.9443 32.9261 14.0378 33.1232 14.1084 33.3511C14.179 33.5767 14.2303 33.8239 14.2622 34.0928V34.25C14.2303 34.5075 14.179 34.7467 14.1084 34.9678C14.0378 35.1888 13.9443 35.3825 13.8281 35.5488C13.7142 35.7129 13.5752 35.8405 13.4111 35.9316C13.2471 36.0228 13.0557 36.0684 12.8369 36.0684C12.6068 36.0684 12.4017 36.0216 12.2217 35.9282C12.0439 35.8348 11.8936 35.7038 11.7705 35.5352C11.6497 35.3665 11.5575 35.1683 11.4937 34.9404C11.4299 34.7126 11.3979 34.4642 11.3979 34.1953ZM12.3823 34.1235V34.1953C12.3823 34.348 12.3937 34.4904 12.4165 34.6226C12.4416 34.7547 12.4814 34.8721 12.5361 34.9746C12.5931 35.0749 12.666 35.1535 12.7549 35.2104C12.846 35.2651 12.9565 35.2925 13.0864 35.2925C13.255 35.2925 13.394 35.2549 13.5034 35.1797C13.6128 35.1022 13.696 34.9963 13.7529 34.8618C13.8122 34.7274 13.8464 34.5724 13.8555 34.397V33.9492C13.8486 33.8057 13.8281 33.6769 13.7939 33.563C13.762 33.4468 13.7142 33.3477 13.6504 33.2656C13.5889 33.1836 13.5114 33.1198 13.418 33.0742C13.3268 33.0286 13.2186 33.0059 13.0933 33.0059C12.9657 33.0059 12.8563 33.0355 12.7651 33.0947C12.674 33.1517 12.5999 33.2303 12.543 33.3306C12.4883 33.4308 12.4473 33.5493 12.4199 33.686C12.3949 33.8205 12.3823 33.9663 12.3823 34.1235ZM17.1982 36.0684C16.9111 36.0684 16.6536 36.0228 16.4258 35.9316C16.1979 35.8382 16.0042 35.7095 15.8447 35.5454C15.6875 35.3813 15.5667 35.1911 15.4824 34.9746C15.3981 34.7559 15.356 34.5234 15.356 34.2773V34.1406C15.356 33.8604 15.3958 33.604 15.4756 33.3716C15.5553 33.1392 15.6693 32.9375 15.8174 32.7666C15.9678 32.5957 16.1501 32.4647 16.3643 32.3735C16.5785 32.2801 16.82 32.2334 17.0889 32.2334C17.3509 32.2334 17.5833 32.2767 17.7861 32.3633C17.9889 32.4499 18.1587 32.5729 18.2954 32.7324C18.4344 32.8919 18.5392 33.0833 18.6099 33.3066C18.6805 33.5277 18.7158 33.7738 18.7158 34.0449V34.4551H15.7764V33.7988H17.7485V33.7236C17.7485 33.5869 17.7235 33.465 17.6733 33.3579C17.6255 33.2485 17.5526 33.1619 17.4546 33.0981C17.3566 33.0343 17.2313 33.0024 17.0786 33.0024C16.9487 33.0024 16.8371 33.0309 16.7437 33.0879C16.6502 33.1449 16.5739 33.2246 16.5146 33.3271C16.4577 33.4297 16.4144 33.5505 16.3848 33.6895C16.3574 33.8262 16.3438 33.9766 16.3438 34.1406V34.2773C16.3438 34.4255 16.3643 34.5622 16.4053 34.6875C16.4486 34.8128 16.509 34.9211 16.5864 35.0122C16.6662 35.1034 16.7619 35.174 16.8735 35.2241C16.9875 35.2743 17.1162 35.2993 17.2598 35.2993C17.4375 35.2993 17.6027 35.2651 17.7554 35.1968C17.9103 35.1261 18.0436 35.0202 18.1553 34.8789L18.6338 35.3984C18.5563 35.5101 18.4504 35.6172 18.3159 35.7197C18.1838 35.8223 18.0243 35.9066 17.8374 35.9727C17.6506 36.0365 17.4375 36.0684 17.1982 36.0684ZM19.2764 30.75H20.2607V35.1523L20.1616 36H19.2764V30.75ZM22.6021 34.1133V34.1851C22.6021 34.4608 22.5724 34.7137 22.5132 34.9438C22.4562 35.174 22.3674 35.3734 22.2466 35.542C22.1258 35.7083 21.9754 35.8382 21.7954 35.9316C21.6177 36.0228 21.408 36.0684 21.1665 36.0684C20.9409 36.0684 20.745 36.0228 20.5786 35.9316C20.4146 35.8405 20.2767 35.7118 20.165 35.5454C20.0534 35.3791 19.9634 35.1842 19.895 34.9609C19.8267 34.7376 19.7754 34.4938 19.7412 34.2295V34.0723C19.7754 33.8079 19.8267 33.5641 19.895 33.3408C19.9634 33.1175 20.0534 32.9227 20.165 32.7563C20.2767 32.59 20.4146 32.4613 20.5786 32.3701C20.7427 32.279 20.9364 32.2334 21.1597 32.2334C21.4035 32.2334 21.6154 32.2801 21.7954 32.3735C21.9777 32.4647 22.1281 32.5946 22.2466 32.7632C22.3674 32.9295 22.4562 33.1278 22.5132 33.3579C22.5724 33.5858 22.6021 33.8376 22.6021 34.1133ZM21.6177 34.1851V34.1133C21.6177 33.9629 21.6063 33.8216 21.5835 33.6895C21.563 33.555 21.5265 33.4377 21.4741 33.3374C21.4217 33.2349 21.3499 33.154 21.2588 33.0947C21.1699 33.0355 21.0549 33.0059 20.9136 33.0059C20.7791 33.0059 20.6652 33.0286 20.5718 33.0742C20.4784 33.1198 20.4009 33.1836 20.3394 33.2656C20.2801 33.3477 20.2357 33.4456 20.2061 33.5596C20.1764 33.6712 20.1582 33.7943 20.1514 33.9287V34.3765C20.1582 34.5565 20.1878 34.716 20.2402 34.855C20.2949 34.9917 20.377 35.0999 20.4863 35.1797C20.598 35.2572 20.7427 35.2959 20.9204 35.2959C21.0594 35.2959 21.1745 35.2686 21.2656 35.2139C21.3568 35.1592 21.4274 35.0817 21.4775 34.9814C21.5299 34.8812 21.5664 34.7638 21.5869 34.6294C21.6074 34.4927 21.6177 34.3446 21.6177 34.1851Z" fill="white"/>
</svg>
