<svg width="34" height="40" viewBox="0 0 34 40" fill="none" xmlns="http://www.w3.org/2000/svg">
<path d="M0 3C0 1.34315 1.34315 0 3 0H23L34 11V37C34 38.6569 32.6569 40 31 40H3C1.34315 40 0 38.6569 0 37V3Z" fill="url(#paint0_linear_11086_611)"/>
<path d="M34 11L26 11C24.3431 11 23 9.65685 23 8V0L34 11Z" fill="#00ACA1"/>
<path fill-rule="evenodd" clip-rule="evenodd" d="M15 21V18.984L11.5 18L15 17V15L9 17V19L15 21ZM19 15V17.016L22.5 18L19 19V21L25 19V17L19 15Z" fill="#A3DCD8"/>
<defs>
<linearGradient id="paint0_linear_11086_611" x1="0" y1="0" x2="0" y2="40" gradientUnits="userSpaceOnUse">
<stop stop-color="#7FC4BD"/>
<stop offset="1" stop-color="#00ACA1"/>
</linearGradient>
</defs>
</svg>
