<svg width="34" height="40" viewBox="0 0 34 40" fill="none" xmlns="http://www.w3.org/2000/svg">
<path d="M0 28H34V37C34 38.6569 32.6569 40 31 40H3C1.34315 40 0 38.6569 0 37V28Z" fill="#00ACA1"/>
<path d="M0 3C0 1.34315 1.34315 0 3 0H23L34 11V28H0V3Z" fill="#F5F5F5"/>
<path d="M34 11L26 11C24.3431 11 23 9.65685 23 8V0L34 11Z" fill="#DBDBDB"/>
<path fill-rule="evenodd" clip-rule="evenodd" d="M15 21V18.984L11.5 18L15 17V15L9 17V19L15 21ZM19 15V17.016L22.5 18L19 19V21L25 19V17L19 15Z" fill="#00ACA1"/>
<path d="M12.437 32.3018L13.0488 33.4263L13.6777 32.3018H14.7271L13.6812 34.1099L14.7749 36H13.7222L13.0557 34.8105L12.3892 36H11.3364L12.4302 34.1099L11.3843 32.3018H12.437ZM16.1899 33.0674V36H15.2021V32.3018H16.1284L16.1899 33.0674ZM16.0532 34.021H15.7798C15.7798 33.7635 15.8105 33.5265 15.8721 33.3101C15.9359 33.0913 16.0282 32.9022 16.1489 32.7427C16.272 32.5809 16.4235 32.4556 16.6035 32.3667C16.7835 32.2778 16.992 32.2334 17.229 32.2334C17.3931 32.2334 17.5435 32.2585 17.6802 32.3086C17.8169 32.3564 17.9342 32.4328 18.0322 32.5376C18.1325 32.6401 18.21 32.7746 18.2646 32.9409C18.3193 33.105 18.3467 33.3021 18.3467 33.5322V36H17.3623V33.6416C17.3623 33.473 17.3395 33.3431 17.2939 33.252C17.2484 33.1608 17.1834 33.097 17.0991 33.0605C17.0171 33.0241 16.918 33.0059 16.8018 33.0059C16.6742 33.0059 16.5625 33.0321 16.4668 33.0845C16.3734 33.1369 16.2959 33.2098 16.2344 33.3032C16.1729 33.3944 16.1273 33.5015 16.0977 33.6245C16.068 33.7476 16.0532 33.8797 16.0532 34.021ZM18.2544 33.9082L17.9023 33.9526C17.9023 33.7111 17.932 33.4867 17.9912 33.2793C18.0527 33.0719 18.1427 32.8896 18.2612 32.7324C18.382 32.5752 18.5312 32.4533 18.709 32.3667C18.8867 32.2778 19.0918 32.2334 19.3242 32.2334C19.502 32.2334 19.6637 32.2596 19.8096 32.312C19.9554 32.3621 20.0796 32.443 20.1821 32.5547C20.2869 32.6641 20.3667 32.8076 20.4214 32.9854C20.4784 33.1631 20.5068 33.3807 20.5068 33.6382V36H19.519V33.6382C19.519 33.4673 19.4963 33.3374 19.4507 33.2485C19.4074 33.1574 19.3436 33.0947 19.2593 33.0605C19.1772 33.0241 19.0793 33.0059 18.9653 33.0059C18.8468 33.0059 18.7432 33.0298 18.6543 33.0776C18.5654 33.1232 18.4914 33.187 18.4321 33.269C18.3729 33.3511 18.3285 33.4468 18.2988 33.5562C18.2692 33.6632 18.2544 33.7806 18.2544 33.9082ZM22.3081 30.75V36H21.3203V30.75H22.3081Z" fill="white"/>
</svg>
