<svg width="34" height="40" viewBox="0 0 34 40" fill="none" xmlns="http://www.w3.org/2000/svg">
<path d="M0 28H34V37C34 38.6569 32.6569 40 31 40H3C1.34315 40 0 38.6569 0 37V28Z" fill="#00ACA1"/>
<path d="M0 3C0 1.34315 1.34315 0 3 0H23L34 11V28H0V3Z" fill="#F5F5F5"/>
<path d="M34 11L26 11C24.3431 11 23 9.65685 23 8V0L34 11Z" fill="#DBDBDB"/>
<path fill-rule="evenodd" clip-rule="evenodd" d="M15 21V18.984L11.5 18L15 17V15L9 17V19L15 21ZM19 15V17.016L22.5 18L19 19V21L25 19V17L19 15Z" fill="#00ACA1"/>
<path d="M13.5137 35.2993C13.6344 35.2993 13.7415 35.2765 13.835 35.231C13.9284 35.1831 14.0013 35.117 14.0537 35.0327C14.1084 34.9461 14.1369 34.8447 14.1392 34.7285H15.0654C15.0632 34.9883 14.9937 35.2196 14.8569 35.4224C14.7202 35.6229 14.5368 35.7812 14.3066 35.8975C14.0765 36.0114 13.819 36.0684 13.5342 36.0684C13.2471 36.0684 12.9964 36.0205 12.7822 35.9248C12.5703 35.8291 12.3937 35.6969 12.2524 35.5283C12.1112 35.3574 12.0052 35.1592 11.9346 34.9336C11.8639 34.7057 11.8286 34.4619 11.8286 34.2021V34.103C11.8286 33.841 11.8639 33.5972 11.9346 33.3716C12.0052 33.1437 12.1112 32.9455 12.2524 32.7769C12.3937 32.606 12.5703 32.4727 12.7822 32.377C12.9941 32.2812 13.2425 32.2334 13.5273 32.2334C13.8304 32.2334 14.0959 32.2915 14.3237 32.4077C14.5539 32.5239 14.7339 32.6903 14.8638 32.9067C14.9959 33.1209 15.0632 33.375 15.0654 33.6689H14.1392C14.1369 33.5459 14.1107 33.4342 14.0605 33.334C14.0127 33.2337 13.9421 33.154 13.8486 33.0947C13.7575 33.0332 13.6447 33.0024 13.5103 33.0024C13.3667 33.0024 13.2493 33.0332 13.1582 33.0947C13.0671 33.154 12.9964 33.236 12.9463 33.3408C12.8962 33.4434 12.8608 33.5607 12.8403 33.6929C12.8221 33.8228 12.813 33.9595 12.813 34.103V34.2021C12.813 34.3457 12.8221 34.4836 12.8403 34.6157C12.8586 34.7479 12.8927 34.8652 12.9429 34.9678C12.9953 35.0703 13.0671 35.1512 13.1582 35.2104C13.2493 35.2697 13.3678 35.2993 13.5137 35.2993ZM17.6357 34.978C17.6357 34.9074 17.6152 34.8436 17.5742 34.7866C17.5332 34.7297 17.4569 34.6772 17.3452 34.6294C17.2358 34.5793 17.0775 34.5337 16.8701 34.4927C16.6833 34.4517 16.509 34.4004 16.3472 34.3389C16.1877 34.2751 16.0487 34.1987 15.9302 34.1099C15.814 34.021 15.7228 33.9162 15.6567 33.7954C15.5907 33.6724 15.5576 33.5322 15.5576 33.375C15.5576 33.2201 15.5907 33.0742 15.6567 32.9375C15.7251 32.8008 15.8219 32.68 15.9473 32.5752C16.0749 32.4681 16.2298 32.3849 16.4121 32.3257C16.5967 32.2642 16.804 32.2334 17.0342 32.2334C17.3555 32.2334 17.6312 32.2847 17.8613 32.3872C18.0938 32.4897 18.2715 32.631 18.3945 32.811C18.5199 32.9888 18.5825 33.1916 18.5825 33.4194H17.5981C17.5981 33.3237 17.5776 33.2383 17.5366 33.1631C17.4979 33.0856 17.4364 33.0252 17.3521 32.9819C17.27 32.9364 17.1629 32.9136 17.0308 32.9136C16.9214 32.9136 16.8268 32.9329 16.7471 32.9717C16.6673 33.0081 16.6058 33.0583 16.5625 33.1221C16.5215 33.1836 16.501 33.252 16.501 33.3271C16.501 33.3841 16.5124 33.4354 16.5352 33.481C16.5602 33.5243 16.6001 33.5641 16.6548 33.6006C16.7095 33.637 16.7801 33.6712 16.8667 33.7031C16.9556 33.7327 17.0649 33.7601 17.1948 33.7852C17.4614 33.8398 17.6995 33.9116 17.9092 34.0005C18.1188 34.0871 18.2852 34.2056 18.4082 34.356C18.5312 34.5041 18.5928 34.6989 18.5928 34.9404C18.5928 35.1045 18.5563 35.2549 18.4834 35.3916C18.4105 35.5283 18.3057 35.6479 18.1689 35.7505C18.0322 35.8507 17.8682 35.9294 17.6768 35.9863C17.4876 36.041 17.2746 36.0684 17.0376 36.0684C16.6935 36.0684 16.4019 36.0068 16.1626 35.8838C15.9256 35.7607 15.7456 35.6047 15.6226 35.4155C15.5018 35.2241 15.4414 35.0282 15.4414 34.8276H16.3745C16.3791 34.9621 16.4132 35.0703 16.4771 35.1523C16.5431 35.2344 16.6263 35.2936 16.7266 35.3301C16.8291 35.3665 16.9396 35.3848 17.0581 35.3848C17.1857 35.3848 17.2917 35.3677 17.376 35.3335C17.4603 35.297 17.5241 35.2492 17.5674 35.1899C17.613 35.1284 17.6357 35.0578 17.6357 34.978ZM20.4897 35.2822L21.3101 32.3018H22.3389L21.0913 36H20.4692L20.4897 35.2822ZM19.9258 32.3018L20.7495 35.2856L20.7666 36H20.1411L18.8936 32.3018H19.9258Z" fill="white"/>
</svg>
