<svg width="34" height="40" viewBox="0 0 34 40" fill="none" xmlns="http://www.w3.org/2000/svg">
<path d="M0 28H34V37C34 38.6569 32.6569 40 31 40H3C1.34315 40 0 38.6569 0 37V28Z" fill="#4285F4"/>
<path d="M0 3C0 1.34315 1.34315 0 3 0H23L34 11V28H0V3Z" fill="#F5F5F5"/>
<path d="M34 11L26 11C24.3431 11 23 9.65685 23 8V0L34 11Z" fill="#DBDBDB"/>
<path fill-rule="evenodd" clip-rule="evenodd" d="M8 13H23V15H8V13Z" fill="#4285F4"/>
<path fill-rule="evenodd" clip-rule="evenodd" d="M8 17H18V19H8V17Z" fill="#4285F4"/>
<path fill-rule="evenodd" clip-rule="evenodd" d="M8 21H23V23H8V21Z" fill="#4285F4"/>
<path d="M12.0918 34.1885V34.1167C12.0918 33.8455 12.1305 33.596 12.208 33.3682C12.2855 33.138 12.3983 32.9386 12.5464 32.77C12.6945 32.6014 12.8768 32.4704 13.0933 32.377C13.3097 32.2812 13.5581 32.2334 13.8384 32.2334C14.1187 32.2334 14.3682 32.2812 14.5869 32.377C14.8057 32.4704 14.9891 32.6014 15.1372 32.77C15.2876 32.9386 15.4015 33.138 15.479 33.3682C15.5565 33.596 15.5952 33.8455 15.5952 34.1167V34.1885C15.5952 34.4574 15.5565 34.7069 15.479 34.937C15.4015 35.1649 15.2876 35.3643 15.1372 35.5352C14.9891 35.7038 14.8068 35.8348 14.5903 35.9282C14.3739 36.0216 14.1255 36.0684 13.8452 36.0684C13.5649 36.0684 13.3154 36.0216 13.0967 35.9282C12.8802 35.8348 12.6968 35.7038 12.5464 35.5352C12.3983 35.3643 12.2855 35.1649 12.208 34.937C12.1305 34.7069 12.0918 34.4574 12.0918 34.1885ZM13.0762 34.1167V34.1885C13.0762 34.3434 13.0898 34.4881 13.1172 34.6226C13.1445 34.757 13.1878 34.8755 13.2471 34.978C13.3086 35.0783 13.3883 35.1569 13.4863 35.2139C13.5843 35.2708 13.7039 35.2993 13.8452 35.2993C13.9819 35.2993 14.0993 35.2708 14.1973 35.2139C14.2952 35.1569 14.3739 35.0783 14.4331 34.978C14.4924 34.8755 14.5356 34.757 14.563 34.6226C14.5926 34.4881 14.6074 34.3434 14.6074 34.1885V34.1167C14.6074 33.9663 14.5926 33.825 14.563 33.6929C14.5356 33.5584 14.4912 33.4399 14.4297 33.3374C14.3704 33.2326 14.2918 33.1506 14.1938 33.0913C14.0959 33.0321 13.9774 33.0024 13.8384 33.0024C13.6994 33.0024 13.5809 33.0321 13.4829 33.0913C13.3872 33.1506 13.3086 33.2326 13.2471 33.3374C13.1878 33.4399 13.1445 33.5584 13.1172 33.6929C13.0898 33.825 13.0762 33.9663 13.0762 34.1167ZM18.3843 35.1934V30.75H19.3755V36H18.4834L18.3843 35.1934ZM16.0464 34.1953V34.1235C16.0464 33.841 16.0783 33.5846 16.1421 33.3545C16.2059 33.1221 16.2993 32.9227 16.4224 32.7563C16.5454 32.59 16.6969 32.4613 16.877 32.3701C17.057 32.279 17.262 32.2334 17.4922 32.2334C17.7087 32.2334 17.8978 32.279 18.0596 32.3701C18.2236 32.4613 18.3626 32.5911 18.4766 32.7598C18.5928 32.9261 18.6862 33.1232 18.7568 33.3511C18.8275 33.5767 18.8787 33.8239 18.9106 34.0928V34.25C18.8787 34.5075 18.8275 34.7467 18.7568 34.9678C18.6862 35.1888 18.5928 35.3825 18.4766 35.5488C18.3626 35.7129 18.2236 35.8405 18.0596 35.9316C17.8955 36.0228 17.7041 36.0684 17.4854 36.0684C17.2552 36.0684 17.0501 36.0216 16.8701 35.9282C16.6924 35.8348 16.542 35.7038 16.4189 35.5352C16.2982 35.3665 16.2059 35.1683 16.1421 34.9404C16.0783 34.7126 16.0464 34.4642 16.0464 34.1953ZM17.0308 34.1235V34.1953C17.0308 34.348 17.0422 34.4904 17.0649 34.6226C17.09 34.7547 17.1299 34.8721 17.1846 34.9746C17.2415 35.0749 17.3145 35.1535 17.4033 35.2104C17.4945 35.2651 17.605 35.2925 17.7349 35.2925C17.9035 35.2925 18.0425 35.2549 18.1519 35.1797C18.2612 35.1022 18.3444 34.9963 18.4014 34.8618C18.4606 34.7274 18.4948 34.5724 18.5039 34.397V33.9492C18.4971 33.8057 18.4766 33.6769 18.4424 33.563C18.4105 33.4468 18.3626 33.3477 18.2988 33.2656C18.2373 33.1836 18.1598 33.1198 18.0664 33.0742C17.9753 33.0286 17.867 33.0059 17.7417 33.0059C17.6141 33.0059 17.5047 33.0355 17.4136 33.0947C17.3224 33.1517 17.2484 33.2303 17.1914 33.3306C17.1367 33.4308 17.0957 33.5493 17.0684 33.686C17.0433 33.8205 17.0308 33.9663 17.0308 34.1235ZM21.9561 32.3018V32.999H19.8027V32.3018H21.9561ZM20.3359 31.3892H21.3203V34.8857C21.3203 34.9928 21.334 35.0749 21.3613 35.1318C21.391 35.1888 21.4342 35.2287 21.4912 35.2515C21.5482 35.272 21.62 35.2822 21.7065 35.2822C21.7681 35.2822 21.8228 35.2799 21.8706 35.2754C21.9207 35.2686 21.9629 35.2617 21.9971 35.2549L22.0005 35.9795C21.9162 36.0068 21.825 36.0285 21.7271 36.0444C21.6291 36.0604 21.5208 36.0684 21.4023 36.0684C21.1859 36.0684 20.9967 36.033 20.835 35.9624C20.6755 35.8895 20.5524 35.7733 20.4658 35.6138C20.3792 35.4543 20.3359 35.2446 20.3359 34.9849V31.3892Z" fill="white"/>
</svg>
