<svg width="34" height="40" viewBox="0 0 34 40" fill="none" xmlns="http://www.w3.org/2000/svg">
<path fill-rule="evenodd" clip-rule="evenodd" d="M17.7168 33.172C18.2348 33.172 18.4238 33.655 18.4238 34.18C18.4238 34.642 18.2978 35.195 17.7168 35.195C17.1708 35.195 16.9888 34.642 16.9888 34.145C16.9888 33.683 17.1708 33.172 17.7168 33.172ZM19.5718 31.002H18.3818V32.7589H18.3678C18.1228 32.43 17.7798 32.262 17.3318 32.262C16.3028 32.262 15.7988 33.158 15.7988 34.103C15.7988 35.125 16.2818 36.1049 17.4228 36.1049C17.8428 36.1049 18.1928 35.923 18.4238 35.58H18.4378V36H19.5718V31.002ZM12.7095 34.1872C12.7095 33.7252 12.8775 33.1722 13.4305 33.1722C13.9835 33.1722 14.1585 33.7252 14.1585 34.1872C14.1585 34.6492 13.9835 35.1952 13.4305 35.1952C12.8775 35.1952 12.7095 34.6492 12.7095 34.1872ZM11.5195 34.1872C11.5195 35.2792 12.3035 36.1052 13.4305 36.1052C14.5575 36.1052 15.3485 35.2792 15.3485 34.1872C15.3485 33.0952 14.5575 32.2622 13.4305 32.2622C12.3035 32.2622 11.5195 33.0952 11.5195 34.1872ZM21.839 32.3671H22.574V33.1371H21.839V34.7891C21.839 35.0761 22.007 35.1391 22.266 35.1391C22.3142 35.1391 22.364 35.1357 22.4147 35.1323C22.4672 35.1287 22.5206 35.1251 22.574 35.1251V36.0001C22.481 36.0031 22.388 36.0099 22.295 36.0168C22.171 36.0259 22.047 36.0351 21.923 36.0351C20.908 36.0351 20.649 35.7411 20.649 34.7541V33.1371H20.047V32.3671H20.649V31.2681H21.839V32.3671Z" fill="white"/>
<path d="M0 28H34V37C34 38.6569 32.6569 40 31 40H3C1.34315 40 0 38.6569 0 37V28Z" fill="#F8B859"/>
<path d="M0 3C0 1.34315 1.34315 0 3 0H23L34 11V28H0V3Z" fill="#F5F5F5"/>
<path d="M34 11L26 11C24.3431 11 23 9.65685 23 8V0L34 11Z" fill="#DBDBDB"/>
<path fill-rule="evenodd" clip-rule="evenodd" d="M10 0H8V2H10V4H8V6H10V8H8V10H10V12H8V14H10V12H12V10H10V8H12V6H10V4H12V2H10V0ZM8 17C8 16.4477 8.44771 16 9 16H11C11.5523 16 12 16.4477 12 17V23C12 23.5523 11.5523 24 11 24H9C8.44771 24 8 23.5523 8 23V17ZM9 23V20H11V23H9Z" fill="#F8B859"/>
<path d="M10.3281 32.3018V32.999H8.1748V32.3018H10.3281ZM8.70801 31.3892H9.69238V34.8857C9.69238 34.9928 9.70605 35.0749 9.7334 35.1318C9.76302 35.1888 9.80632 35.2287 9.86328 35.2515C9.92025 35.272 9.99202 35.2822 10.0786 35.2822C10.1401 35.2822 10.1948 35.2799 10.2427 35.2754C10.2928 35.2686 10.335 35.2617 10.3691 35.2549L10.3726 35.9795C10.2882 36.0068 10.1971 36.0285 10.0991 36.0444C10.0011 36.0604 9.8929 36.0684 9.77441 36.0684C9.55794 36.0684 9.36882 36.033 9.20703 35.9624C9.04753 35.8895 8.92448 35.7733 8.83789 35.6138C8.7513 35.4543 8.70801 35.2446 8.70801 34.9849V31.3892ZM12.8848 35.166V33.5186C12.8848 33.4001 12.8654 33.2987 12.8267 33.2144C12.7879 33.1278 12.7275 33.0605 12.6455 33.0127C12.5658 32.9648 12.4621 32.9409 12.3345 32.9409C12.2251 32.9409 12.1305 32.9603 12.0508 32.999C11.971 33.0355 11.9095 33.089 11.8662 33.1597C11.8229 33.228 11.8013 33.3089 11.8013 33.4023H10.8169C10.8169 33.2451 10.8534 33.0959 10.9263 32.9546C10.9992 32.8133 11.1051 32.6891 11.2441 32.582C11.3831 32.4727 11.5483 32.3872 11.7397 32.3257C11.9334 32.2642 12.1499 32.2334 12.3892 32.2334C12.6763 32.2334 12.9315 32.2812 13.1548 32.377C13.3781 32.4727 13.5535 32.6162 13.6812 32.8076C13.811 32.999 13.876 33.2383 13.876 33.5254V35.1079C13.876 35.3107 13.8885 35.4771 13.9136 35.6069C13.9386 35.7345 13.9751 35.8462 14.0229 35.9419V36H13.0283C12.9805 35.8997 12.944 35.7744 12.9189 35.624C12.8962 35.4714 12.8848 35.3187 12.8848 35.166ZM13.0146 33.7476L13.0215 34.3047H12.4712C12.3413 34.3047 12.2285 34.3195 12.1328 34.3491C12.0371 34.3787 11.9585 34.4209 11.897 34.4756C11.8354 34.528 11.7899 34.5895 11.7603 34.6602C11.7329 34.7308 11.7192 34.8083 11.7192 34.8926C11.7192 34.9769 11.7386 35.0532 11.7773 35.1216C11.8161 35.1877 11.8719 35.2401 11.9448 35.2788C12.0177 35.3153 12.1032 35.3335 12.2012 35.3335C12.3493 35.3335 12.478 35.3039 12.5874 35.2446C12.6968 35.1854 12.7811 35.1125 12.8403 35.0259C12.9019 34.9393 12.9338 34.8573 12.936 34.7798L13.1958 35.1968C13.1593 35.2902 13.1092 35.387 13.0454 35.4873C12.9839 35.5876 12.9053 35.6821 12.8096 35.771C12.7139 35.8576 12.5988 35.9294 12.4644 35.9863C12.3299 36.041 12.1704 36.0684 11.9858 36.0684C11.7511 36.0684 11.5381 36.0216 11.3467 35.9282C11.1576 35.8325 11.0072 35.7015 10.8955 35.5352C10.7861 35.3665 10.7314 35.1751 10.7314 34.9609C10.7314 34.7673 10.7679 34.5952 10.8408 34.4448C10.9137 34.2944 11.0208 34.168 11.1621 34.0654C11.3057 33.9606 11.4845 33.882 11.6987 33.8296C11.9129 33.7749 12.1613 33.7476 12.4438 33.7476H13.0146ZM15.6191 33.1084V36H14.6348V32.3018H15.561L15.6191 33.1084ZM16.7334 32.2778L16.7163 33.1904C16.6685 33.1836 16.6104 33.1779 16.542 33.1733C16.4759 33.1665 16.4155 33.1631 16.3608 33.1631C16.2218 33.1631 16.1011 33.1813 15.9985 33.2178C15.8983 33.252 15.814 33.3032 15.7456 33.3716C15.6795 33.4399 15.6294 33.5231 15.5952 33.6211C15.5633 33.7191 15.5451 33.8307 15.5405 33.9561L15.3423 33.8945C15.3423 33.6553 15.3662 33.4354 15.4141 33.2349C15.4619 33.0321 15.5314 32.8555 15.6226 32.7051C15.716 32.5547 15.8299 32.4385 15.9644 32.3564C16.0988 32.2744 16.2526 32.2334 16.4258 32.2334C16.4805 32.2334 16.5363 32.238 16.5933 32.2471C16.6502 32.2539 16.6969 32.2642 16.7334 32.2778ZM16.7061 35.5249C16.7061 35.3791 16.7562 35.2572 16.8564 35.1592C16.959 35.0612 17.0946 35.0122 17.2632 35.0122C17.4318 35.0122 17.5662 35.0612 17.6665 35.1592C17.769 35.2572 17.8203 35.3791 17.8203 35.5249C17.8203 35.6707 17.769 35.7926 17.6665 35.8906C17.5662 35.9886 17.4318 36.0376 17.2632 36.0376C17.0946 36.0376 16.959 35.9886 16.8564 35.8906C16.7562 35.7926 16.7061 35.6707 16.7061 35.5249ZM21.0298 32.3018H21.9219V35.877C21.9219 36.2142 21.8467 36.5002 21.6963 36.7349C21.5482 36.9718 21.3408 37.1507 21.0742 37.2715C20.8076 37.3945 20.4977 37.4561 20.1445 37.4561C19.9896 37.4561 19.8255 37.4355 19.6523 37.3945C19.4814 37.3535 19.3174 37.2897 19.1602 37.2031C19.0052 37.1165 18.8753 37.0072 18.7705 36.875L19.2046 36.2939C19.3185 36.4261 19.4507 36.5286 19.6011 36.6016C19.7515 36.6768 19.9178 36.7144 20.1001 36.7144C20.2778 36.7144 20.4282 36.6813 20.5513 36.6152C20.6743 36.5514 20.7689 36.4569 20.835 36.3315C20.901 36.2085 20.9341 36.0592 20.9341 35.8838V33.1562L21.0298 32.3018ZM18.5415 34.1953V34.1235C18.5415 33.841 18.5757 33.5846 18.644 33.3545C18.7147 33.1221 18.8138 32.9227 18.9414 32.7563C19.0713 32.59 19.2285 32.4613 19.4131 32.3701C19.5977 32.279 19.8062 32.2334 20.0386 32.2334C20.2847 32.2334 20.4909 32.279 20.6572 32.3701C20.8236 32.4613 20.9603 32.5911 21.0674 32.7598C21.1745 32.9261 21.2576 33.1232 21.3169 33.3511C21.3784 33.5767 21.4263 33.8239 21.4604 34.0928V34.25C21.4263 34.5075 21.375 34.7467 21.3066 34.9678C21.2383 35.1888 21.1483 35.3825 21.0366 35.5488C20.925 35.7129 20.786 35.8405 20.6196 35.9316C20.4556 36.0228 20.2596 36.0684 20.0317 36.0684C19.8039 36.0684 19.5977 36.0216 19.4131 35.9282C19.2308 35.8348 19.0747 35.7038 18.9448 35.5352C18.8149 35.3665 18.7147 35.1683 18.644 34.9404C18.5757 34.7126 18.5415 34.4642 18.5415 34.1953ZM19.5259 34.1235V34.1953C19.5259 34.348 19.5407 34.4904 19.5703 34.6226C19.5999 34.7547 19.6455 34.8721 19.707 34.9746C19.7708 35.0749 19.8494 35.1535 19.9429 35.2104C20.0386 35.2651 20.1514 35.2925 20.2812 35.2925C20.4613 35.2925 20.6082 35.2549 20.7222 35.1797C20.8361 35.1022 20.9215 34.9963 20.9785 34.8618C21.0355 34.7274 21.0685 34.5724 21.0776 34.397V33.9492C21.0731 33.8057 21.0537 33.6769 21.0195 33.563C20.9854 33.4468 20.9375 33.3477 20.876 33.2656C20.8145 33.1836 20.7347 33.1198 20.6367 33.0742C20.5387 33.0286 20.4225 33.0059 20.2881 33.0059C20.1582 33.0059 20.0454 33.0355 19.9497 33.0947C19.8563 33.1517 19.7777 33.2303 19.7139 33.3306C19.6523 33.4308 19.6056 33.5493 19.5737 33.686C19.5418 33.8205 19.5259 33.9663 19.5259 34.1235ZM25.6304 35.231V36H22.8208V35.231H25.6304ZM25.5757 32.8691L23.2173 36H22.5576V35.4155L24.9058 32.3018H25.5757V32.8691ZM25.2271 32.3018V33.0742H22.6123V32.3018H25.2271Z" fill="white"/>
</svg>
