<svg width="34" height="40" viewBox="0 0 34 40" fill="none" xmlns="http://www.w3.org/2000/svg">
<path d="M0 3C0 1.34315 1.34315 0 3 0H23L34 11V37C34 38.6569 32.6569 40 31 40H3C1.34315 40 0 38.6569 0 37V3Z" fill="url(#paint0_linear_10597_502)"/>
<path d="M34 11L26 11C24.3431 11 23 9.65685 23 8V0L34 11Z" fill="#0C864B"/>
<path fill-rule="evenodd" clip-rule="evenodd" d="M12 13H7V15H12V13ZM12 17H7V19H12V17ZM7 21H12V23H7V21ZM23 13H14V15H23V13ZM14 17H23V19H14V17ZM23 21H14V23H23V21Z" fill="#A8E7C9"/>
<path d="M13.6709 32.3018L14.2827 33.4263L14.9116 32.3018H15.9609L14.915 34.1099L16.0088 36H14.9561L14.2896 34.8105L13.623 36H12.5703L13.6641 34.1099L12.6182 32.3018H13.6709ZM17.4785 30.75V36H16.4907V30.75H17.4785ZM20.2915 34.978C20.2915 34.9074 20.271 34.8436 20.23 34.7866C20.189 34.7297 20.1126 34.6772 20.001 34.6294C19.8916 34.5793 19.7332 34.5337 19.5259 34.4927C19.339 34.4517 19.1647 34.4004 19.0029 34.3389C18.8434 34.2751 18.7044 34.1987 18.5859 34.1099C18.4697 34.021 18.3786 33.9162 18.3125 33.7954C18.2464 33.6724 18.2134 33.5322 18.2134 33.375C18.2134 33.2201 18.2464 33.0742 18.3125 32.9375C18.3809 32.8008 18.4777 32.68 18.603 32.5752C18.7306 32.4681 18.8856 32.3849 19.0679 32.3257C19.2524 32.2642 19.4598 32.2334 19.6899 32.2334C20.0112 32.2334 20.2869 32.2847 20.5171 32.3872C20.7495 32.4897 20.9272 32.631 21.0503 32.811C21.1756 32.9888 21.2383 33.1916 21.2383 33.4194H20.2539C20.2539 33.3237 20.2334 33.2383 20.1924 33.1631C20.1536 33.0856 20.0921 33.0252 20.0078 32.9819C19.9258 32.9364 19.8187 32.9136 19.6865 32.9136C19.5771 32.9136 19.4826 32.9329 19.4028 32.9717C19.3231 33.0081 19.2616 33.0583 19.2183 33.1221C19.1772 33.1836 19.1567 33.252 19.1567 33.3271C19.1567 33.3841 19.1681 33.4354 19.1909 33.481C19.216 33.5243 19.2559 33.5641 19.3105 33.6006C19.3652 33.637 19.4359 33.6712 19.5225 33.7031C19.6113 33.7327 19.7207 33.7601 19.8506 33.7852C20.1172 33.8398 20.3553 33.9116 20.5649 34.0005C20.7746 34.0871 20.9409 34.2056 21.064 34.356C21.187 34.5041 21.2485 34.6989 21.2485 34.9404C21.2485 35.1045 21.2121 35.2549 21.1392 35.3916C21.0662 35.5283 20.9614 35.6479 20.8247 35.7505C20.688 35.8507 20.5239 35.9294 20.3325 35.9863C20.1434 36.041 19.9303 36.0684 19.6934 36.0684C19.3493 36.0684 19.0576 36.0068 18.8184 35.8838C18.5814 35.7607 18.4014 35.6047 18.2783 35.4155C18.1576 35.2241 18.0972 35.0282 18.0972 34.8276H19.0303C19.0348 34.9621 19.069 35.0703 19.1328 35.1523C19.1989 35.2344 19.2821 35.2936 19.3823 35.3301C19.4849 35.3665 19.5954 35.3848 19.7139 35.3848C19.8415 35.3848 19.9474 35.3677 20.0317 35.3335C20.116 35.297 20.1799 35.2492 20.2231 35.1899C20.2687 35.1284 20.2915 35.0578 20.2915 34.978Z" fill="white"/>
<defs>
<linearGradient id="paint0_linear_10597_502" x1="0" y1="0" x2="0" y2="40" gradientUnits="userSpaceOnUse">
<stop stop-color="#64AD8A"/>
<stop offset="1" stop-color="#0C864B"/>
</linearGradient>
</defs>
</svg>
