<svg width="34" height="40" viewBox="0 0 34 40" fill="none" xmlns="http://www.w3.org/2000/svg">
<path d="M0 3C0 1.34315 1.34315 0 3 0H23L34 11V37C34 38.6569 32.6569 40 31 40H3C1.34315 40 0 38.6569 0 37V3Z" fill="url(#paint0_linear_11086_443)"/>
<path d="M34 11L26 11C24.3431 11 23 9.65685 23 8V0L34 11Z" fill="#1919A5"/>
<path fill-rule="evenodd" clip-rule="evenodd" d="M8.87912 21.941H12.298L16.9521 24.7493C17.0307 24.8138 17.1293 24.849 17.2311 24.849C17.4738 24.8488 17.6705 24.6519 17.6703 24.4092V12.4399C17.6704 12.3381 17.6352 12.2396 17.5707 12.1609C17.4168 11.9732 17.1398 11.9457 16.9521 12.0996L12.298 14.908H8.87912C8.3936 14.908 8 15.3016 8 15.7871V21.0619C8 21.5474 8.3936 21.941 8.87912 21.941ZM12.9258 16.6664L15.9122 15.2224V21.6268L12.9258 20.1829H9.7583V16.6664H12.9258ZM19.8511 16.3517C19.474 16.4092 19.2397 16.6637 19.3283 16.9191L19.3262 16.92C19.5295 17.4995 19.6305 18.098 19.6284 18.6953C19.6305 19.2975 19.5237 19.9014 19.3196 20.4909C19.229 20.7462 19.4682 20.9996 19.8474 21.06C19.9008 21.0683 19.9542 21.072 20.0076 21.072C20.3259 21.072 20.6156 20.9234 20.6922 20.7057C20.9194 20.0451 21.0337 19.37 21.0374 18.6953C21.0349 18.0251 20.9211 17.3575 20.6955 16.7035C20.6053 16.4477 20.229 16.2908 19.8511 16.3517ZM22.1605 14.6028C22.5252 14.5163 22.9259 14.6454 23.055 14.8938C23.6891 16.1157 24 17.4042 24 18.6923C24.0004 19.9895 23.6796 21.2839 23.0521 22.5153C22.9503 22.7123 22.6763 22.8344 22.3828 22.8344C22.3071 22.8344 22.2301 22.8261 22.1543 22.8092C21.7863 22.7251 21.5914 22.4536 21.7185 22.2077C22.2988 21.0761 22.5922 19.8836 22.5931 18.6919C22.5931 17.5056 22.3054 16.3222 21.7276 15.2025C21.6001 14.9563 21.795 14.686 22.1605 14.6028Z" fill="#AAAAFF"/>
<path d="M11.3569 33.0674V36H10.3691V32.3018H11.2954L11.3569 33.0674ZM11.2202 34.021H10.9468C10.9468 33.7635 10.9775 33.5265 11.0391 33.3101C11.1029 33.0913 11.1951 32.9022 11.3159 32.7427C11.439 32.5809 11.5905 32.4556 11.7705 32.3667C11.9505 32.2778 12.159 32.2334 12.396 32.2334C12.5601 32.2334 12.7104 32.2585 12.8472 32.3086C12.9839 32.3564 13.1012 32.4328 13.1992 32.5376C13.2995 32.6401 13.377 32.7746 13.4316 32.9409C13.4863 33.105 13.5137 33.3021 13.5137 33.5322V36H12.5293V33.6416C12.5293 33.473 12.5065 33.3431 12.4609 33.252C12.4154 33.1608 12.3504 33.097 12.2661 33.0605C12.1841 33.0241 12.085 33.0059 11.9688 33.0059C11.8411 33.0059 11.7295 33.0321 11.6338 33.0845C11.5404 33.1369 11.4629 33.2098 11.4014 33.3032C11.3398 33.3944 11.2943 33.5015 11.2646 33.6245C11.235 33.7476 11.2202 33.8797 11.2202 34.021ZM13.4214 33.9082L13.0693 33.9526C13.0693 33.7111 13.099 33.4867 13.1582 33.2793C13.2197 33.0719 13.3097 32.8896 13.4282 32.7324C13.549 32.5752 13.6982 32.4533 13.876 32.3667C14.0537 32.2778 14.2588 32.2334 14.4912 32.2334C14.6689 32.2334 14.8307 32.2596 14.9766 32.312C15.1224 32.3621 15.2466 32.443 15.3491 32.5547C15.4539 32.6641 15.5337 32.8076 15.5884 32.9854C15.6453 33.1631 15.6738 33.3807 15.6738 33.6382V36H14.686V33.6382C14.686 33.4673 14.6632 33.3374 14.6177 33.2485C14.5744 33.1574 14.5106 33.0947 14.4263 33.0605C14.3442 33.0241 14.2463 33.0059 14.1323 33.0059C14.0138 33.0059 13.9102 33.0298 13.8213 33.0776C13.7324 33.1232 13.6584 33.187 13.5991 33.269C13.5399 33.3511 13.4954 33.4468 13.4658 33.5562C13.4362 33.6632 13.4214 33.7806 13.4214 33.9082ZM17.4204 33.0127V37.4219H16.436V32.3018H17.3486L17.4204 33.0127ZM19.7617 34.1099V34.1816C19.7617 34.4505 19.7298 34.7 19.666 34.9302C19.6045 35.1603 19.5133 35.3608 19.3926 35.5317C19.2718 35.7004 19.1214 35.8325 18.9414 35.9282C18.7637 36.0216 18.5586 36.0684 18.3262 36.0684C18.1006 36.0684 17.9046 36.0228 17.7383 35.9316C17.5719 35.8405 17.4318 35.7129 17.3179 35.5488C17.2062 35.3825 17.1162 35.1899 17.0479 34.9712C16.9795 34.7524 16.9271 34.5177 16.8906 34.2671V34.0791C16.9271 33.8102 16.9795 33.5641 17.0479 33.3408C17.1162 33.1152 17.2062 32.9204 17.3179 32.7563C17.4318 32.59 17.5708 32.4613 17.7349 32.3701C17.9012 32.279 18.096 32.2334 18.3193 32.2334C18.554 32.2334 18.7603 32.2778 18.938 32.3667C19.118 32.4556 19.2684 32.5832 19.3892 32.7495C19.5122 32.9159 19.6045 33.1141 19.666 33.3442C19.7298 33.5744 19.7617 33.8296 19.7617 34.1099ZM18.7739 34.1816V34.1099C18.7739 33.9526 18.7603 33.8079 18.7329 33.6758C18.7078 33.5413 18.6668 33.424 18.6099 33.3237C18.5552 33.2235 18.4823 33.146 18.3911 33.0913C18.3022 33.0343 18.194 33.0059 18.0664 33.0059C17.932 33.0059 17.8169 33.0275 17.7212 33.0708C17.6278 33.1141 17.5514 33.1768 17.4922 33.2588C17.4329 33.3408 17.3885 33.4388 17.3589 33.5527C17.3293 33.6667 17.311 33.7954 17.3042 33.939V34.4141C17.3156 34.5827 17.3475 34.7342 17.3999 34.8687C17.4523 35.0008 17.5332 35.1056 17.6426 35.1831C17.752 35.2606 17.8955 35.2993 18.0732 35.2993C18.2031 35.2993 18.3125 35.2708 18.4014 35.2139C18.4902 35.1546 18.562 35.0737 18.6167 34.9712C18.6737 34.8687 18.7135 34.7502 18.7363 34.6157C18.7614 34.4813 18.7739 34.3366 18.7739 34.1816ZM21.3408 33.0845H21.8672C22.0358 33.0845 22.1748 33.056 22.2842 32.999C22.3936 32.9398 22.4744 32.8577 22.5269 32.7529C22.5815 32.6458 22.6089 32.5216 22.6089 32.3804C22.6089 32.2528 22.5838 32.14 22.5337 32.042C22.4858 31.9417 22.4118 31.8643 22.3115 31.8096C22.2113 31.7526 22.0848 31.7241 21.9321 31.7241C21.8114 31.7241 21.6997 31.748 21.5972 31.7959C21.4946 31.8438 21.4126 31.911 21.3511 31.9976C21.2896 32.0841 21.2588 32.189 21.2588 32.312H20.271C20.271 32.0386 20.3439 31.8005 20.4897 31.5977C20.6379 31.3949 20.8361 31.2365 21.0845 31.1226C21.3328 31.0086 21.6063 30.9517 21.9048 30.9517C22.242 30.9517 22.5371 31.0063 22.79 31.1157C23.043 31.2228 23.2401 31.3812 23.3813 31.5908C23.5226 31.8005 23.5933 32.0602 23.5933 32.3701C23.5933 32.5273 23.5568 32.68 23.4839 32.8281C23.411 32.974 23.3062 33.1061 23.1694 33.2246C23.035 33.3408 22.8709 33.4342 22.6772 33.5049C22.4836 33.5732 22.266 33.6074 22.0244 33.6074H21.3408V33.0845ZM21.3408 33.833V33.3237H22.0244C22.2956 33.3237 22.5337 33.3545 22.7388 33.416C22.9438 33.4775 23.1159 33.5664 23.2549 33.6826C23.3939 33.7965 23.4987 33.9321 23.5693 34.0894C23.64 34.2443 23.6753 34.4163 23.6753 34.6055C23.6753 34.8379 23.6309 35.0452 23.542 35.2275C23.4531 35.4076 23.3278 35.5602 23.166 35.6855C23.0065 35.8109 22.8197 35.9066 22.6055 35.9727C22.3913 36.0365 22.1577 36.0684 21.9048 36.0684C21.6951 36.0684 21.4889 36.0399 21.2861 35.9829C21.0856 35.9237 20.9033 35.8359 20.7393 35.7197C20.5775 35.6012 20.4476 35.4531 20.3496 35.2754C20.2539 35.0954 20.2061 34.8823 20.2061 34.6362H21.1938C21.1938 34.7638 21.2257 34.8778 21.2896 34.978C21.3534 35.0783 21.4411 35.1569 21.5527 35.2139C21.6667 35.2708 21.7931 35.2993 21.9321 35.2993C22.0894 35.2993 22.2238 35.2708 22.3354 35.2139C22.4494 35.1546 22.536 35.0726 22.5952 34.9678C22.6567 34.8607 22.6875 34.7365 22.6875 34.5952C22.6875 34.4129 22.6545 34.2671 22.5884 34.1577C22.5223 34.0461 22.4277 33.964 22.3047 33.9116C22.1816 33.8592 22.0358 33.833 21.8672 33.833H21.3408Z" fill="white"/>
<defs>
<linearGradient id="paint0_linear_11086_443" x1="0" y1="0" x2="0" y2="40" gradientUnits="userSpaceOnUse">
<stop stop-color="#4A4AB8"/>
<stop offset="1" stop-color="#2727B0"/>
</linearGradient>
</defs>
</svg>
