<svg width="34" height="40" viewBox="0 0 34 40" fill="none" xmlns="http://www.w3.org/2000/svg">
<path d="M0 3C0 1.34315 1.34315 0 3 0H23L34 11V37C34 38.6569 32.6569 40 31 40H3C1.34315 40 0 38.6569 0 37V3Z" fill="url(#paint0_linear_10597_512)"/>
<path d="M34 11L26 11C24.3431 11 23 9.65685 23 8V0L34 11Z" fill="#3670D3"/>
<path fill-rule="evenodd" clip-rule="evenodd" d="M8 13H23V15H8V13Z" fill="#C1D8FF"/>
<path fill-rule="evenodd" clip-rule="evenodd" d="M8 17H18V19H8V17Z" fill="#C1D8FF"/>
<path fill-rule="evenodd" clip-rule="evenodd" d="M8 21H23V23H8V21Z" fill="#C1D8FF"/>
<path d="M13.7939 35.1934V30.75H14.7852V36H13.8931L13.7939 35.1934ZM11.4561 34.1953V34.1235C11.4561 33.841 11.488 33.5846 11.5518 33.3545C11.6156 33.1221 11.709 32.9227 11.832 32.7563C11.9551 32.59 12.1066 32.4613 12.2866 32.3701C12.4666 32.279 12.6717 32.2334 12.9019 32.2334C13.1183 32.2334 13.3075 32.279 13.4692 32.3701C13.6333 32.4613 13.7723 32.5911 13.8862 32.7598C14.0024 32.9261 14.0959 33.1232 14.1665 33.3511C14.2371 33.5767 14.2884 33.8239 14.3203 34.0928V34.25C14.2884 34.5075 14.2371 34.7467 14.1665 34.9678C14.0959 35.1888 14.0024 35.3825 13.8862 35.5488C13.7723 35.7129 13.6333 35.8405 13.4692 35.9316C13.3052 36.0228 13.1138 36.0684 12.895 36.0684C12.6649 36.0684 12.4598 36.0216 12.2798 35.9282C12.1021 35.8348 11.9517 35.7038 11.8286 35.5352C11.7078 35.3665 11.6156 35.1683 11.5518 34.9404C11.488 34.7126 11.4561 34.4642 11.4561 34.1953ZM12.4404 34.1235V34.1953C12.4404 34.348 12.4518 34.4904 12.4746 34.6226C12.4997 34.7547 12.5396 34.8721 12.5942 34.9746C12.6512 35.0749 12.7241 35.1535 12.813 35.2104C12.9041 35.2651 13.0146 35.2925 13.1445 35.2925C13.3132 35.2925 13.4521 35.2549 13.5615 35.1797C13.6709 35.1022 13.7541 34.9963 13.811 34.8618C13.8703 34.7274 13.9045 34.5724 13.9136 34.397V33.9492C13.9067 33.8057 13.8862 33.6769 13.8521 33.563C13.8201 33.4468 13.7723 33.3477 13.7085 33.2656C13.647 33.1836 13.5695 33.1198 13.4761 33.0742C13.3849 33.0286 13.2767 33.0059 13.1514 33.0059C13.0238 33.0059 12.9144 33.0355 12.8232 33.0947C12.7321 33.1517 12.658 33.2303 12.6011 33.3306C12.5464 33.4308 12.5054 33.5493 12.478 33.686C12.453 33.8205 12.4404 33.9663 12.4404 34.1235ZM15.397 34.1885V34.1167C15.397 33.8455 15.4357 33.596 15.5132 33.3682C15.5907 33.138 15.7035 32.9386 15.8516 32.77C15.9997 32.6014 16.182 32.4704 16.3984 32.377C16.6149 32.2812 16.8633 32.2334 17.1436 32.2334C17.4238 32.2334 17.6733 32.2812 17.8921 32.377C18.1108 32.4704 18.2943 32.6014 18.4424 32.77C18.5928 32.9386 18.7067 33.138 18.7842 33.3682C18.8617 33.596 18.9004 33.8455 18.9004 34.1167V34.1885C18.9004 34.4574 18.8617 34.7069 18.7842 34.937C18.7067 35.1649 18.5928 35.3643 18.4424 35.5352C18.2943 35.7038 18.112 35.8348 17.8955 35.9282C17.679 36.0216 17.4307 36.0684 17.1504 36.0684C16.8701 36.0684 16.6206 36.0216 16.4019 35.9282C16.1854 35.8348 16.002 35.7038 15.8516 35.5352C15.7035 35.3643 15.5907 35.1649 15.5132 34.937C15.4357 34.7069 15.397 34.4574 15.397 34.1885ZM16.3813 34.1167V34.1885C16.3813 34.3434 16.395 34.4881 16.4224 34.6226C16.4497 34.757 16.493 34.8755 16.5522 34.978C16.6138 35.0783 16.6935 35.1569 16.7915 35.2139C16.8895 35.2708 17.0091 35.2993 17.1504 35.2993C17.2871 35.2993 17.4045 35.2708 17.5024 35.2139C17.6004 35.1569 17.679 35.0783 17.7383 34.978C17.7975 34.8755 17.8408 34.757 17.8682 34.6226C17.8978 34.4881 17.9126 34.3434 17.9126 34.1885V34.1167C17.9126 33.9663 17.8978 33.825 17.8682 33.6929C17.8408 33.5584 17.7964 33.4399 17.7349 33.3374C17.6756 33.2326 17.597 33.1506 17.499 33.0913C17.401 33.0321 17.2826 33.0024 17.1436 33.0024C17.0046 33.0024 16.8861 33.0321 16.7881 33.0913C16.6924 33.1506 16.6138 33.2326 16.5522 33.3374C16.493 33.4399 16.4497 33.5584 16.4224 33.6929C16.395 33.825 16.3813 33.9663 16.3813 34.1167ZM21.0332 35.2993C21.154 35.2993 21.2611 35.2765 21.3545 35.231C21.4479 35.1831 21.5208 35.117 21.5732 35.0327C21.6279 34.9461 21.6564 34.8447 21.6587 34.7285H22.585C22.5827 34.9883 22.5132 35.2196 22.3765 35.4224C22.2397 35.6229 22.0563 35.7812 21.8262 35.8975C21.596 36.0114 21.3385 36.0684 21.0537 36.0684C20.7666 36.0684 20.516 36.0205 20.3018 35.9248C20.0898 35.8291 19.9132 35.6969 19.772 35.5283C19.6307 35.3574 19.5247 35.1592 19.4541 34.9336C19.3835 34.7057 19.3481 34.4619 19.3481 34.2021V34.103C19.3481 33.841 19.3835 33.5972 19.4541 33.3716C19.5247 33.1437 19.6307 32.9455 19.772 32.7769C19.9132 32.606 20.0898 32.4727 20.3018 32.377C20.5137 32.2812 20.762 32.2334 21.0469 32.2334C21.3499 32.2334 21.6154 32.2915 21.8433 32.4077C22.0734 32.5239 22.2534 32.6903 22.3833 32.9067C22.5155 33.1209 22.5827 33.375 22.585 33.6689H21.6587C21.6564 33.5459 21.6302 33.4342 21.5801 33.334C21.5322 33.2337 21.4616 33.154 21.3682 33.0947C21.277 33.0332 21.1642 33.0024 21.0298 33.0024C20.8862 33.0024 20.7689 33.0332 20.6777 33.0947C20.5866 33.154 20.516 33.236 20.4658 33.3408C20.4157 33.4434 20.3804 33.5607 20.3599 33.6929C20.3416 33.8228 20.3325 33.9595 20.3325 34.103V34.2021C20.3325 34.3457 20.3416 34.4836 20.3599 34.6157C20.3781 34.7479 20.4123 34.8652 20.4624 34.9678C20.5148 35.0703 20.5866 35.1512 20.6777 35.2104C20.7689 35.2697 20.8874 35.2993 21.0332 35.2993Z" fill="white"/>
<defs>
<linearGradient id="paint0_linear_10597_512" x1="0" y1="0" x2="0" y2="40" gradientUnits="userSpaceOnUse">
<stop stop-color="#79A4F2"/>
<stop offset="1" stop-color="#3375E2"/>
</linearGradient>
</defs>
</svg>
