<svg width="34" height="40" viewBox="0 0 34 40" fill="none" xmlns="http://www.w3.org/2000/svg">
<path d="M0 3C0 1.34315 1.34315 0 3 0H23L34 11V37C34 38.6569 32.6569 40 31 40H3C1.34315 40 0 38.6569 0 37V3Z" fill="url(#paint0_linear_10597_527)"/>
<path d="M34 11L26 11C24.3431 11 23 9.65685 23 8V0L34 11Z" fill="#AB381D"/>
<path fill-rule="evenodd" clip-rule="evenodd" d="M7 12C7 10.8954 7.89543 10 9 10H19C20.1046 10 21 10.8954 21 12V18C21 19.1046 20.1046 20 19 20H9C7.89543 20 7 19.1046 7 18V12ZM9 12H19V18H9V12ZM25 22C25 23.1046 24.1046 24 23 24H11V22H23V15H25V22Z" fill="#FFB3A0"/>
<path d="M11.4629 33.0127V37.4219H10.4785V32.3018H11.3911L11.4629 33.0127ZM13.8042 34.1099V34.1816C13.8042 34.4505 13.7723 34.7 13.7085 34.9302C13.647 35.1603 13.5558 35.3608 13.4351 35.5317C13.3143 35.7004 13.1639 35.8325 12.9839 35.9282C12.8062 36.0216 12.6011 36.0684 12.3687 36.0684C12.1431 36.0684 11.9471 36.0228 11.7808 35.9316C11.6144 35.8405 11.4743 35.7129 11.3604 35.5488C11.2487 35.3825 11.1587 35.1899 11.0903 34.9712C11.022 34.7524 10.9696 34.5177 10.9331 34.2671V34.0791C10.9696 33.8102 11.022 33.5641 11.0903 33.3408C11.1587 33.1152 11.2487 32.9204 11.3604 32.7563C11.4743 32.59 11.6133 32.4613 11.7773 32.3701C11.9437 32.279 12.1385 32.2334 12.3618 32.2334C12.5965 32.2334 12.8027 32.2778 12.9805 32.3667C13.1605 32.4556 13.3109 32.5832 13.4316 32.7495C13.5547 32.9159 13.647 33.1141 13.7085 33.3442C13.7723 33.5744 13.8042 33.8296 13.8042 34.1099ZM12.8164 34.1816V34.1099C12.8164 33.9526 12.8027 33.8079 12.7754 33.6758C12.7503 33.5413 12.7093 33.424 12.6523 33.3237C12.5977 33.2235 12.5247 33.146 12.4336 33.0913C12.3447 33.0343 12.2365 33.0059 12.1089 33.0059C11.9744 33.0059 11.8594 33.0275 11.7637 33.0708C11.6702 33.1141 11.5939 33.1768 11.5347 33.2588C11.4754 33.3408 11.431 33.4388 11.4014 33.5527C11.3717 33.6667 11.3535 33.7954 11.3467 33.939V34.4141C11.3581 34.5827 11.39 34.7342 11.4424 34.8687C11.4948 35.0008 11.5757 35.1056 11.6851 35.1831C11.7944 35.2606 11.938 35.2993 12.1157 35.2993C12.2456 35.2993 12.355 35.2708 12.4438 35.2139C12.5327 35.1546 12.6045 35.0737 12.6592 34.9712C12.7161 34.8687 12.756 34.7502 12.7788 34.6157C12.8039 34.4813 12.8164 34.3366 12.8164 34.1816ZM15.4004 33.0127V37.4219H14.416V32.3018H15.3286L15.4004 33.0127ZM17.7417 34.1099V34.1816C17.7417 34.4505 17.7098 34.7 17.646 34.9302C17.5845 35.1603 17.4933 35.3608 17.3726 35.5317C17.2518 35.7004 17.1014 35.8325 16.9214 35.9282C16.7437 36.0216 16.5386 36.0684 16.3062 36.0684C16.0806 36.0684 15.8846 36.0228 15.7183 35.9316C15.5519 35.8405 15.4118 35.7129 15.2979 35.5488C15.1862 35.3825 15.0962 35.1899 15.0278 34.9712C14.9595 34.7524 14.9071 34.5177 14.8706 34.2671V34.0791C14.9071 33.8102 14.9595 33.5641 15.0278 33.3408C15.0962 33.1152 15.1862 32.9204 15.2979 32.7563C15.4118 32.59 15.5508 32.4613 15.7148 32.3701C15.8812 32.279 16.076 32.2334 16.2993 32.2334C16.534 32.2334 16.7402 32.2778 16.918 32.3667C17.098 32.4556 17.2484 32.5832 17.3691 32.7495C17.4922 32.9159 17.5845 33.1141 17.646 33.3442C17.7098 33.5744 17.7417 33.8296 17.7417 34.1099ZM16.7539 34.1816V34.1099C16.7539 33.9526 16.7402 33.8079 16.7129 33.6758C16.6878 33.5413 16.6468 33.424 16.5898 33.3237C16.5352 33.2235 16.4622 33.146 16.3711 33.0913C16.2822 33.0343 16.174 33.0059 16.0464 33.0059C15.9119 33.0059 15.7969 33.0275 15.7012 33.0708C15.6077 33.1141 15.5314 33.1768 15.4722 33.2588C15.4129 33.3408 15.3685 33.4388 15.3389 33.5527C15.3092 33.6667 15.291 33.7954 15.2842 33.939V34.4141C15.2956 34.5827 15.3275 34.7342 15.3799 34.8687C15.4323 35.0008 15.5132 35.1056 15.6226 35.1831C15.7319 35.2606 15.8755 35.2993 16.0532 35.2993C16.1831 35.2993 16.2925 35.2708 16.3813 35.2139C16.4702 35.1546 16.542 35.0737 16.5967 34.9712C16.6536 34.8687 16.6935 34.7502 16.7163 34.6157C16.7414 34.4813 16.7539 34.3366 16.7539 34.1816ZM20.165 32.3018V32.999H18.0117V32.3018H20.165ZM18.5449 31.3892H19.5293V34.8857C19.5293 34.9928 19.543 35.0749 19.5703 35.1318C19.5999 35.1888 19.6432 35.2287 19.7002 35.2515C19.7572 35.272 19.8289 35.2822 19.9155 35.2822C19.9771 35.2822 20.0317 35.2799 20.0796 35.2754C20.1297 35.2686 20.1719 35.2617 20.2061 35.2549L20.2095 35.9795C20.1252 36.0068 20.034 36.0285 19.936 36.0444C19.8381 36.0604 19.7298 36.0684 19.6113 36.0684C19.3949 36.0684 19.2057 36.033 19.0439 35.9624C18.8844 35.8895 18.7614 35.7733 18.6748 35.6138C18.5882 35.4543 18.5449 35.2446 18.5449 34.9849V31.3892ZM21.5186 32.3018L22.1304 33.4263L22.7593 32.3018H23.8086L22.7627 34.1099L23.8564 36H22.8037L22.1372 34.8105L21.4707 36H20.418L21.5117 34.1099L20.4658 32.3018H21.5186Z" fill="white"/>
<defs>
<linearGradient id="paint0_linear_10597_527" x1="0" y1="0" x2="0" y2="40" gradientUnits="userSpaceOnUse">
<stop stop-color="#DC7259"/>
<stop offset="1" stop-color="#D14423"/>
</linearGradient>
</defs>
</svg>
