<svg width="34" height="40" viewBox="0 0 34 40" fill="none" xmlns="http://www.w3.org/2000/svg">
<path d="M0 28H34V37C34 38.6569 32.6569 40 31 40H3C1.34315 40 0 38.6569 0 37V28Z" fill="#00ACA1"/>
<path d="M0 3C0 1.34315 1.34315 0 3 0H23L34 11V28H0V3Z" fill="#F5F5F5"/>
<path d="M34 11L26 11C24.3431 11 23 9.65685 23 8V0L34 11Z" fill="#DBDBDB"/>
<path fill-rule="evenodd" clip-rule="evenodd" d="M15 21V18.984L11.5 18L15 17V15L9 17V19L15 21ZM19 15V17.016L22.5 18L19 19V21L25 19V17L19 15Z" fill="#00ACA1"/>
<path d="M15.626 35.1934V30.75H16.6172V36H15.7251L15.626 35.1934ZM13.2881 34.1953V34.1235C13.2881 33.841 13.32 33.5846 13.3838 33.3545C13.4476 33.1221 13.541 32.9227 13.6641 32.7563C13.7871 32.59 13.9386 32.4613 14.1187 32.3701C14.2987 32.279 14.5037 32.2334 14.7339 32.2334C14.9504 32.2334 15.1395 32.279 15.3013 32.3701C15.4653 32.4613 15.6043 32.5911 15.7183 32.7598C15.8345 32.9261 15.9279 33.1232 15.9985 33.3511C16.0692 33.5767 16.1204 33.8239 16.1523 34.0928V34.25C16.1204 34.5075 16.0692 34.7467 15.9985 34.9678C15.9279 35.1888 15.8345 35.3825 15.7183 35.5488C15.6043 35.7129 15.4653 35.8405 15.3013 35.9316C15.1372 36.0228 14.9458 36.0684 14.7271 36.0684C14.4969 36.0684 14.2918 36.0216 14.1118 35.9282C13.9341 35.8348 13.7837 35.7038 13.6606 35.5352C13.5399 35.3665 13.4476 35.1683 13.3838 34.9404C13.32 34.7126 13.2881 34.4642 13.2881 34.1953ZM14.2725 34.1235V34.1953C14.2725 34.348 14.2839 34.4904 14.3066 34.6226C14.3317 34.7547 14.3716 34.8721 14.4263 34.9746C14.4832 35.0749 14.5562 35.1535 14.645 35.2104C14.7362 35.2651 14.8467 35.2925 14.9766 35.2925C15.1452 35.2925 15.2842 35.2549 15.3936 35.1797C15.5029 35.1022 15.5861 34.9963 15.6431 34.8618C15.7023 34.7274 15.7365 34.5724 15.7456 34.397V33.9492C15.7388 33.8057 15.7183 33.6769 15.6841 33.563C15.6522 33.4468 15.6043 33.3477 15.5405 33.2656C15.479 33.1836 15.4015 33.1198 15.3081 33.0742C15.217 33.0286 15.1087 33.0059 14.9834 33.0059C14.8558 33.0059 14.7464 33.0355 14.6553 33.0947C14.5641 33.1517 14.4901 33.2303 14.4331 33.3306C14.3784 33.4308 14.3374 33.5493 14.3101 33.686C14.285 33.8205 14.2725 33.9663 14.2725 34.1235ZM17.3862 30.75H18.3706V35.1523L18.2715 36H17.3862V30.75ZM20.7119 34.1133V34.1851C20.7119 34.4608 20.6823 34.7137 20.623 34.9438C20.5661 35.174 20.4772 35.3734 20.3564 35.542C20.2357 35.7083 20.0853 35.8382 19.9053 35.9316C19.7275 36.0228 19.5179 36.0684 19.2764 36.0684C19.0508 36.0684 18.8548 36.0228 18.6885 35.9316C18.5244 35.8405 18.3866 35.7118 18.2749 35.5454C18.1632 35.3791 18.0732 35.1842 18.0049 34.9609C17.9365 34.7376 17.8853 34.4938 17.8511 34.2295V34.0723C17.8853 33.8079 17.9365 33.5641 18.0049 33.3408C18.0732 33.1175 18.1632 32.9227 18.2749 32.7563C18.3866 32.59 18.5244 32.4613 18.6885 32.3701C18.8525 32.279 19.0462 32.2334 19.2695 32.2334C19.5133 32.2334 19.7253 32.2801 19.9053 32.3735C20.0876 32.4647 20.238 32.5946 20.3564 32.7632C20.4772 32.9295 20.5661 33.1278 20.623 33.3579C20.6823 33.5858 20.7119 33.8376 20.7119 34.1133ZM19.7275 34.1851V34.1133C19.7275 33.9629 19.7161 33.8216 19.6934 33.6895C19.6729 33.555 19.6364 33.4377 19.584 33.3374C19.5316 33.2349 19.4598 33.154 19.3687 33.0947C19.2798 33.0355 19.1647 33.0059 19.0234 33.0059C18.889 33.0059 18.7751 33.0286 18.6816 33.0742C18.5882 33.1198 18.5107 33.1836 18.4492 33.2656C18.39 33.3477 18.3455 33.4456 18.3159 33.5596C18.2863 33.6712 18.2681 33.7943 18.2612 33.9287V34.3765C18.2681 34.5565 18.2977 34.716 18.3501 34.855C18.4048 34.9917 18.4868 35.0999 18.5962 35.1797C18.7078 35.2572 18.8525 35.2959 19.0303 35.2959C19.1693 35.2959 19.2843 35.2686 19.3755 35.2139C19.4666 35.1592 19.5373 35.0817 19.5874 34.9814C19.6398 34.8812 19.6763 34.7638 19.6968 34.6294C19.7173 34.4927 19.7275 34.3446 19.7275 34.1851Z" fill="white"/>
</svg>
