<svg width="34" height="40" viewBox="0 0 34 40" fill="none" xmlns="http://www.w3.org/2000/svg">
<path fill-rule="evenodd" clip-rule="evenodd" d="M17.7168 33.172C18.2348 33.172 18.4238 33.655 18.4238 34.18C18.4238 34.642 18.2978 35.195 17.7168 35.195C17.1708 35.195 16.9888 34.642 16.9888 34.145C16.9888 33.683 17.1708 33.172 17.7168 33.172ZM19.5718 31.002H18.3818V32.7589H18.3678C18.1228 32.43 17.7798 32.262 17.3318 32.262C16.3028 32.262 15.7988 33.158 15.7988 34.103C15.7988 35.125 16.2818 36.1049 17.4228 36.1049C17.8428 36.1049 18.1928 35.923 18.4238 35.58H18.4378V36H19.5718V31.002ZM12.7095 34.1872C12.7095 33.7252 12.8775 33.1722 13.4305 33.1722C13.9835 33.1722 14.1585 33.7252 14.1585 34.1872C14.1585 34.6492 13.9835 35.1952 13.4305 35.1952C12.8775 35.1952 12.7095 34.6492 12.7095 34.1872ZM11.5195 34.1872C11.5195 35.2792 12.3035 36.1052 13.4305 36.1052C14.5575 36.1052 15.3485 35.2792 15.3485 34.1872C15.3485 33.0952 14.5575 32.2622 13.4305 32.2622C12.3035 32.2622 11.5195 33.0952 11.5195 34.1872ZM21.839 32.3671H22.574V33.1371H21.839V34.7891C21.839 35.0761 22.007 35.1391 22.266 35.1391C22.3142 35.1391 22.364 35.1357 22.4147 35.1323C22.4672 35.1287 22.5206 35.1251 22.574 35.1251V36.0001C22.481 36.0031 22.388 36.0099 22.295 36.0168C22.171 36.0259 22.047 36.0351 21.923 36.0351C20.908 36.0351 20.649 35.7411 20.649 34.7541V33.1371H20.047V32.3671H20.649V31.2681H21.839V32.3671Z" fill="white"/>
<path d="M0 28H34V37C34 38.6569 32.6569 40 31 40H3C1.34315 40 0 38.6569 0 37V28Z" fill="#2727B0"/>
<path d="M0 3C0 1.34315 1.34315 0 3 0H23L34 11V28H0V3Z" fill="#F5F5F5"/>
<path d="M34 11L26 11C24.3431 11 23 9.65685 23 8V0L34 11Z" fill="#DBDBDB"/>
<path fill-rule="evenodd" clip-rule="evenodd" d="M8.87912 21.941H12.298L16.9521 24.7493C17.0307 24.8138 17.1293 24.849 17.2311 24.849C17.4738 24.8488 17.6705 24.6519 17.6703 24.4092V12.4399C17.6704 12.3381 17.6352 12.2396 17.5707 12.1609C17.4168 11.9732 17.1398 11.9457 16.9521 12.0996L12.298 14.908H8.87912C8.3936 14.908 8 15.3016 8 15.7871V21.0619C8 21.5474 8.3936 21.941 8.87912 21.941ZM12.9258 16.6664L15.9122 15.2224V21.6268L12.9258 20.1829H9.7583V16.6664H12.9258ZM19.8511 16.3517C19.474 16.4092 19.2397 16.6637 19.3283 16.9191L19.3262 16.92C19.5295 17.4995 19.6305 18.098 19.6284 18.6953C19.6305 19.2975 19.5237 19.9014 19.3196 20.4909C19.229 20.7462 19.4682 20.9996 19.8474 21.06C19.9008 21.0683 19.9542 21.072 20.0076 21.072C20.3259 21.072 20.6156 20.9234 20.6922 20.7057C20.9194 20.0451 21.0337 19.37 21.0374 18.6953C21.0349 18.0251 20.9211 17.3575 20.6955 16.7035C20.6053 16.4477 20.229 16.2908 19.8511 16.3517ZM22.1605 14.6028C22.5252 14.5163 22.9259 14.6454 23.055 14.8938C23.6891 16.1157 24 17.4042 24 18.6923C24.0004 19.9895 23.6796 21.2839 23.0521 22.5153C22.9503 22.7123 22.6763 22.8344 22.3828 22.8344C22.3071 22.8344 22.2301 22.8261 22.1543 22.8092C21.7863 22.7251 21.5914 22.4536 21.7185 22.2077C22.2988 21.0761 22.5922 19.8836 22.5931 18.6919C22.5931 17.5056 22.3054 16.3222 21.7276 15.2025C21.6001 14.9563 21.795 14.686 22.1605 14.6028Z" fill="#2727B0"/>
<path d="M11.3569 33.0674V36H10.3691V32.3018H11.2954L11.3569 33.0674ZM11.2202 34.021H10.9468C10.9468 33.7635 10.9775 33.5265 11.0391 33.3101C11.1029 33.0913 11.1951 32.9022 11.3159 32.7427C11.439 32.5809 11.5905 32.4556 11.7705 32.3667C11.9505 32.2778 12.159 32.2334 12.396 32.2334C12.5601 32.2334 12.7104 32.2585 12.8472 32.3086C12.9839 32.3564 13.1012 32.4328 13.1992 32.5376C13.2995 32.6401 13.377 32.7746 13.4316 32.9409C13.4863 33.105 13.5137 33.3021 13.5137 33.5322V36H12.5293V33.6416C12.5293 33.473 12.5065 33.3431 12.4609 33.252C12.4154 33.1608 12.3504 33.097 12.2661 33.0605C12.1841 33.0241 12.085 33.0059 11.9688 33.0059C11.8411 33.0059 11.7295 33.0321 11.6338 33.0845C11.5404 33.1369 11.4629 33.2098 11.4014 33.3032C11.3398 33.3944 11.2943 33.5015 11.2646 33.6245C11.235 33.7476 11.2202 33.8797 11.2202 34.021ZM13.4214 33.9082L13.0693 33.9526C13.0693 33.7111 13.099 33.4867 13.1582 33.2793C13.2197 33.0719 13.3097 32.8896 13.4282 32.7324C13.549 32.5752 13.6982 32.4533 13.876 32.3667C14.0537 32.2778 14.2588 32.2334 14.4912 32.2334C14.6689 32.2334 14.8307 32.2596 14.9766 32.312C15.1224 32.3621 15.2466 32.443 15.3491 32.5547C15.4539 32.6641 15.5337 32.8076 15.5884 32.9854C15.6453 33.1631 15.6738 33.3807 15.6738 33.6382V36H14.686V33.6382C14.686 33.4673 14.6632 33.3374 14.6177 33.2485C14.5744 33.1574 14.5106 33.0947 14.4263 33.0605C14.3442 33.0241 14.2463 33.0059 14.1323 33.0059C14.0138 33.0059 13.9102 33.0298 13.8213 33.0776C13.7324 33.1232 13.6584 33.187 13.5991 33.269C13.5399 33.3511 13.4954 33.4468 13.4658 33.5562C13.4362 33.6632 13.4214 33.7806 13.4214 33.9082ZM19.8813 34.1406V34.9131H16.2959L16.248 34.3149L18.3228 31.0234H19.1055L18.2578 32.4419L17.2256 34.1406H19.8813ZM19.3174 31.0234V36H18.333V31.0234H19.3174ZM20.4556 30.75H21.4399V35.1523L21.3408 36H20.4556V30.75ZM23.7812 34.1133V34.1851C23.7812 34.4608 23.7516 34.7137 23.6924 34.9438C23.6354 35.174 23.5465 35.3734 23.4258 35.542C23.305 35.7083 23.1546 35.8382 22.9746 35.9316C22.7969 36.0228 22.5872 36.0684 22.3457 36.0684C22.1201 36.0684 21.9242 36.0228 21.7578 35.9316C21.5938 35.8405 21.4559 35.7118 21.3442 35.5454C21.2326 35.3791 21.1426 35.1842 21.0742 34.9609C21.0059 34.7376 20.9546 34.4938 20.9204 34.2295V34.0723C20.9546 33.8079 21.0059 33.5641 21.0742 33.3408C21.1426 33.1175 21.2326 32.9227 21.3442 32.7563C21.4559 32.59 21.5938 32.4613 21.7578 32.3701C21.9219 32.279 22.1156 32.2334 22.3389 32.2334C22.5827 32.2334 22.7946 32.2801 22.9746 32.3735C23.1569 32.4647 23.3073 32.5946 23.4258 32.7632C23.5465 32.9295 23.6354 33.1278 23.6924 33.3579C23.7516 33.5858 23.7812 33.8376 23.7812 34.1133ZM22.7969 34.1851V34.1133C22.7969 33.9629 22.7855 33.8216 22.7627 33.6895C22.7422 33.555 22.7057 33.4377 22.6533 33.3374C22.6009 33.2349 22.5291 33.154 22.438 33.0947C22.3491 33.0355 22.234 33.0059 22.0928 33.0059C21.9583 33.0059 21.8444 33.0286 21.751 33.0742C21.6576 33.1198 21.5801 33.1836 21.5186 33.2656C21.4593 33.3477 21.4149 33.4456 21.3853 33.5596C21.3556 33.6712 21.3374 33.7943 21.3306 33.9287V34.3765C21.3374 34.5565 21.367 34.716 21.4194 34.855C21.4741 34.9917 21.5562 35.0999 21.6655 35.1797C21.7772 35.2572 21.9219 35.2959 22.0996 35.2959C22.2386 35.2959 22.3537 35.2686 22.4448 35.2139C22.536 35.1592 22.6066 35.0817 22.6567 34.9814C22.7091 34.8812 22.7456 34.7638 22.7661 34.6294C22.7866 34.4927 22.7969 34.3446 22.7969 34.1851Z" fill="white"/>
</svg>
