<svg width="34" height="40" viewBox="0 0 34 40" fill="none" xmlns="http://www.w3.org/2000/svg">
<path fill-rule="evenodd" clip-rule="evenodd" d="M17.7168 33.172C18.2348 33.172 18.4238 33.655 18.4238 34.18C18.4238 34.642 18.2978 35.195 17.7168 35.195C17.1708 35.195 16.9888 34.642 16.9888 34.145C16.9888 33.683 17.1708 33.172 17.7168 33.172ZM19.5718 31.002H18.3818V32.7589H18.3678C18.1228 32.43 17.7798 32.262 17.3318 32.262C16.3028 32.262 15.7988 33.158 15.7988 34.103C15.7988 35.125 16.2818 36.1049 17.4228 36.1049C17.8428 36.1049 18.1928 35.923 18.4238 35.58H18.4378V36H19.5718V31.002ZM12.7095 34.1872C12.7095 33.7252 12.8775 33.1722 13.4305 33.1722C13.9835 33.1722 14.1585 33.7252 14.1585 34.1872C14.1585 34.6492 13.9835 35.1952 13.4305 35.1952C12.8775 35.1952 12.7095 34.6492 12.7095 34.1872ZM11.5195 34.1872C11.5195 35.2792 12.3035 36.1052 13.4305 36.1052C14.5575 36.1052 15.3485 35.2792 15.3485 34.1872C15.3485 33.0952 14.5575 32.2622 13.4305 32.2622C12.3035 32.2622 11.5195 33.0952 11.5195 34.1872ZM21.839 32.3671H22.574V33.1371H21.839V34.7891C21.839 35.0761 22.007 35.1391 22.266 35.1391C22.3142 35.1391 22.364 35.1357 22.4147 35.1323C22.4672 35.1287 22.5206 35.1251 22.574 35.1251V36.0001C22.481 36.0031 22.388 36.0099 22.295 36.0168C22.171 36.0259 22.047 36.0351 21.923 36.0351C20.908 36.0351 20.649 35.7411 20.649 34.7541V33.1371H20.047V32.3671H20.649V31.2681H21.839V32.3671Z" fill="white"/>
<path d="M0 28H34V37C34 38.6569 32.6569 40 31 40H3C1.34315 40 0 38.6569 0 37V28Z" fill="#2727B0"/>
<path d="M0 3C0 1.34315 1.34315 0 3 0H23L34 11V28H0V3Z" fill="#F5F5F5"/>
<path d="M34 11L26 11C24.3431 11 23 9.65685 23 8V0L34 11Z" fill="#DBDBDB"/>
<path fill-rule="evenodd" clip-rule="evenodd" d="M8.87912 21.941H12.298L16.9521 24.7493C17.0307 24.8138 17.1293 24.849 17.2311 24.849C17.4738 24.8488 17.6705 24.6519 17.6703 24.4092V12.4399C17.6704 12.3381 17.6352 12.2396 17.5707 12.1609C17.4168 11.9732 17.1398 11.9457 16.9521 12.0996L12.298 14.908H8.87912C8.3936 14.908 8 15.3016 8 15.7871V21.0619C8 21.5474 8.3936 21.941 8.87912 21.941ZM12.9258 16.6664L15.9122 15.2224V21.6268L12.9258 20.1829H9.7583V16.6664H12.9258ZM19.8511 16.3517C19.474 16.4092 19.2397 16.6637 19.3283 16.9191L19.3262 16.92C19.5295 17.4995 19.6305 18.098 19.6284 18.6953C19.6305 19.2975 19.5237 19.9014 19.3196 20.4909C19.229 20.7462 19.4682 20.9996 19.8474 21.06C19.9008 21.0683 19.9542 21.072 20.0076 21.072C20.3259 21.072 20.6156 20.9234 20.6922 20.7057C20.9194 20.0451 21.0337 19.37 21.0374 18.6953C21.0349 18.0251 20.9211 17.3575 20.6955 16.7035C20.6053 16.4477 20.229 16.2908 19.8511 16.3517ZM22.1605 14.6028C22.5252 14.5163 22.9259 14.6454 23.055 14.8938C23.6891 16.1157 24 17.4042 24 18.6923C24.0004 19.9895 23.6796 21.2839 23.0521 22.5153C22.9503 22.7123 22.6763 22.8344 22.3828 22.8344C22.3071 22.8344 22.2301 22.8261 22.1543 22.8092C21.7863 22.7251 21.5914 22.4536 21.7185 22.2077C22.2988 21.0761 22.5922 19.8836 22.5931 18.6919C22.5931 17.5056 22.3054 16.3222 21.7276 15.2025C21.6001 14.9563 21.795 14.686 22.1605 14.6028Z" fill="#2727B0"/>
<path d="M12.249 35.043L13.0181 32.3018H13.6436L13.4419 33.3784L12.6729 36H12.1499L12.249 35.043ZM11.8594 32.3018L12.4097 35.0396L12.4609 36H11.8457L10.9092 32.3018H11.8594ZM14.3477 34.9951L14.8843 32.3018H15.8379L14.9014 36H14.2896L14.3477 34.9951ZM13.729 32.3018L14.4946 35.0225L14.6006 36H14.0742L13.3052 33.3818L13.1104 32.3018H13.729ZM18.3296 35.166V33.5186C18.3296 33.4001 18.3102 33.2987 18.2715 33.2144C18.2327 33.1278 18.1724 33.0605 18.0903 33.0127C18.0106 32.9648 17.9069 32.9409 17.7793 32.9409C17.6699 32.9409 17.5754 32.9603 17.4956 32.999C17.4159 33.0355 17.3543 33.089 17.311 33.1597C17.2677 33.228 17.2461 33.3089 17.2461 33.4023H16.2617C16.2617 33.2451 16.2982 33.0959 16.3711 32.9546C16.444 32.8133 16.55 32.6891 16.689 32.582C16.828 32.4727 16.9932 32.3872 17.1846 32.3257C17.3783 32.2642 17.5947 32.2334 17.834 32.2334C18.1211 32.2334 18.3763 32.2812 18.5996 32.377C18.8229 32.4727 18.9984 32.6162 19.126 32.8076C19.2559 32.999 19.3208 33.2383 19.3208 33.5254V35.1079C19.3208 35.3107 19.3333 35.4771 19.3584 35.6069C19.3835 35.7345 19.4199 35.8462 19.4678 35.9419V36H18.4731C18.4253 35.8997 18.3888 35.7744 18.3638 35.624C18.341 35.4714 18.3296 35.3187 18.3296 35.166ZM18.4595 33.7476L18.4663 34.3047H17.916C17.7861 34.3047 17.6733 34.3195 17.5776 34.3491C17.4819 34.3787 17.4033 34.4209 17.3418 34.4756C17.2803 34.528 17.2347 34.5895 17.2051 34.6602C17.1777 34.7308 17.1641 34.8083 17.1641 34.8926C17.1641 34.9769 17.1834 35.0532 17.2222 35.1216C17.2609 35.1877 17.3167 35.2401 17.3896 35.2788C17.4626 35.3153 17.548 35.3335 17.646 35.3335C17.7941 35.3335 17.9229 35.3039 18.0322 35.2446C18.1416 35.1854 18.2259 35.1125 18.2852 35.0259C18.3467 34.9393 18.3786 34.8573 18.3809 34.7798L18.6406 35.1968C18.6042 35.2902 18.554 35.387 18.4902 35.4873C18.4287 35.5876 18.3501 35.6821 18.2544 35.771C18.1587 35.8576 18.0436 35.9294 17.9092 35.9863C17.7747 36.041 17.6152 36.0684 17.4307 36.0684C17.196 36.0684 16.9829 36.0216 16.7915 35.9282C16.6024 35.8325 16.452 35.7015 16.3403 35.5352C16.231 35.3665 16.1763 35.1751 16.1763 34.9609C16.1763 34.7673 16.2127 34.5952 16.2856 34.4448C16.3586 34.2944 16.4657 34.168 16.6069 34.0654C16.7505 33.9606 16.9294 33.882 17.1436 33.8296C17.3577 33.7749 17.6061 33.7476 17.8887 33.7476H18.4595ZM21.2827 35.2822L22.103 32.3018H23.1318L21.8843 36H21.2622L21.2827 35.2822ZM20.7188 32.3018L21.5425 35.2856L21.5596 36H20.9341L19.6865 32.3018H20.7188Z" fill="white"/>
</svg>
