<svg width="34" height="40" viewBox="0 0 34 40" fill="none" xmlns="http://www.w3.org/2000/svg">
<path d="M0 28H34V37C34 38.6569 32.6569 40 31 40H3C1.34315 40 0 38.6569 0 37V28Z" fill="#4285F4"/>
<path d="M0 3C0 1.34315 1.34315 0 3 0H23L34 11V28H0V3Z" fill="#F5F5F5"/>
<path d="M34 11L26 11C24.3431 11 23 9.65685 23 8V0L34 11Z" fill="#DBDBDB"/>
<path fill-rule="evenodd" clip-rule="evenodd" d="M8 13H23V15H8V13Z" fill="#4285F4"/>
<path fill-rule="evenodd" clip-rule="evenodd" d="M8 17H18V19H8V17Z" fill="#4285F4"/>
<path fill-rule="evenodd" clip-rule="evenodd" d="M8 21H23V23H8V21Z" fill="#4285F4"/>
<path d="M14.3374 32.3018V32.999H12.1841V32.3018H14.3374ZM12.7173 31.3892H13.7017V34.8857C13.7017 34.9928 13.7153 35.0749 13.7427 35.1318C13.7723 35.1888 13.8156 35.2287 13.8726 35.2515C13.9295 35.272 14.0013 35.2822 14.0879 35.2822C14.1494 35.2822 14.2041 35.2799 14.252 35.2754C14.3021 35.2686 14.3442 35.2617 14.3784 35.2549L14.3818 35.9795C14.2975 36.0068 14.2064 36.0285 14.1084 36.0444C14.0104 36.0604 13.9022 36.0684 13.7837 36.0684C13.5672 36.0684 13.3781 36.033 13.2163 35.9624C13.0568 35.8895 12.9338 35.7733 12.8472 35.6138C12.7606 35.4543 12.7173 35.2446 12.7173 34.9849V31.3892ZM16.6001 36.0684C16.313 36.0684 16.0555 36.0228 15.8276 35.9316C15.5998 35.8382 15.4061 35.7095 15.2466 35.5454C15.0894 35.3813 14.9686 35.1911 14.8843 34.9746C14.8 34.7559 14.7578 34.5234 14.7578 34.2773V34.1406C14.7578 33.8604 14.7977 33.604 14.8774 33.3716C14.9572 33.1392 15.0711 32.9375 15.2192 32.7666C15.3696 32.5957 15.5519 32.4647 15.7661 32.3735C15.9803 32.2801 16.2218 32.2334 16.4907 32.2334C16.7528 32.2334 16.9852 32.2767 17.188 32.3633C17.3908 32.4499 17.5605 32.5729 17.6973 32.7324C17.8363 32.8919 17.9411 33.0833 18.0117 33.3066C18.0824 33.5277 18.1177 33.7738 18.1177 34.0449V34.4551H15.1782V33.7988H17.1504V33.7236C17.1504 33.5869 17.1253 33.465 17.0752 33.3579C17.0273 33.2485 16.9544 33.1619 16.8564 33.0981C16.7585 33.0343 16.6331 33.0024 16.4805 33.0024C16.3506 33.0024 16.2389 33.0309 16.1455 33.0879C16.0521 33.1449 15.9757 33.2246 15.9165 33.3271C15.8595 33.4297 15.8162 33.5505 15.7866 33.6895C15.7593 33.8262 15.7456 33.9766 15.7456 34.1406V34.2773C15.7456 34.4255 15.7661 34.5622 15.8071 34.6875C15.8504 34.8128 15.9108 34.9211 15.9883 35.0122C16.068 35.1034 16.1637 35.174 16.2754 35.2241C16.3893 35.2743 16.5181 35.2993 16.6616 35.2993C16.8394 35.2993 17.0046 35.2651 17.1572 35.1968C17.3122 35.1261 17.4455 35.0202 17.5571 34.8789L18.0356 35.3984C17.9582 35.5101 17.8522 35.6172 17.7178 35.7197C17.5856 35.8223 17.4261 35.9066 17.2393 35.9727C17.0524 36.0365 16.8394 36.0684 16.6001 36.0684ZM19.4712 32.3018L20.083 33.4263L20.7119 32.3018H21.7612L20.7153 34.1099L21.8091 36H20.7563L20.0898 34.8105L19.4233 36H18.3706L19.4644 34.1099L18.4185 32.3018H19.4712Z" fill="white"/>
</svg>
