<svg width="34" height="40" viewBox="0 0 34 40" fill="none" xmlns="http://www.w3.org/2000/svg">
<path d="M0 28H34V37C34 38.6569 32.6569 40 31 40H3C1.34315 40 0 38.6569 0 37V28Z" fill="#4285F4"/>
<path d="M0 3C0 1.34315 1.34315 0 3 0H23L34 11V28H0V3Z" fill="#F5F5F5"/>
<path d="M34 11L26 11C24.3431 11 23 9.65685 23 8V0L34 11Z" fill="#DBDBDB"/>
<path fill-rule="evenodd" clip-rule="evenodd" d="M8 13H23V15H8V13Z" fill="#4285F4"/>
<path fill-rule="evenodd" clip-rule="evenodd" d="M8 17H18V19H8V17Z" fill="#4285F4"/>
<path fill-rule="evenodd" clip-rule="evenodd" d="M8 21H23V23H8V21Z" fill="#4285F4"/>
<path d="M15.0415 32.3018V32.999H12.8882V32.3018H15.0415ZM13.4214 31.3892H14.4058V34.8857C14.4058 34.9928 14.4194 35.0749 14.4468 35.1318C14.4764 35.1888 14.5197 35.2287 14.5767 35.2515C14.6336 35.272 14.7054 35.2822 14.792 35.2822C14.8535 35.2822 14.9082 35.2799 14.9561 35.2754C15.0062 35.2686 15.0483 35.2617 15.0825 35.2549L15.0859 35.9795C15.0016 36.0068 14.9105 36.0285 14.8125 36.0444C14.7145 36.0604 14.6063 36.0684 14.4878 36.0684C14.2713 36.0684 14.0822 36.033 13.9204 35.9624C13.7609 35.8895 13.6379 35.7733 13.5513 35.6138C13.4647 35.4543 13.4214 35.2446 13.4214 34.9849V31.3892ZM16.395 32.3018L17.0068 33.4263L17.6357 32.3018H18.6851L17.6392 34.1099L18.7329 36H17.6802L17.0137 34.8105L16.3472 36H15.2944L16.3882 34.1099L15.3423 32.3018H16.395ZM20.9751 32.3018V32.999H18.8218V32.3018H20.9751ZM19.355 31.3892H20.3394V34.8857C20.3394 34.9928 20.353 35.0749 20.3804 35.1318C20.41 35.1888 20.4533 35.2287 20.5103 35.2515C20.5672 35.272 20.639 35.2822 20.7256 35.2822C20.7871 35.2822 20.8418 35.2799 20.8896 35.2754C20.9398 35.2686 20.9819 35.2617 21.0161 35.2549L21.0195 35.9795C20.9352 36.0068 20.8441 36.0285 20.7461 36.0444C20.6481 36.0604 20.5399 36.0684 20.4214 36.0684C20.2049 36.0684 20.0158 36.033 19.854 35.9624C19.6945 35.8895 19.5715 35.7733 19.4849 35.6138C19.3983 35.4543 19.355 35.2446 19.355 34.9849V31.3892Z" fill="white"/>
</svg>
