<svg width="34" height="40" viewBox="0 0 34 40" fill="none" xmlns="http://www.w3.org/2000/svg">
<path d="M0 28H34V37C34 38.6569 32.6569 40 31 40H3C1.34315 40 0 38.6569 0 37V28Z" fill="#4285F4"/>
<path d="M0 3C0 1.34315 1.34315 0 3 0H23L34 11V28H0V3Z" fill="#F5F5F5"/>
<path d="M34 11L26 11C24.3431 11 23 9.65685 23 8V0L34 11Z" fill="#DBDBDB"/>
<path fill-rule="evenodd" clip-rule="evenodd" d="M8 13H23V15H8V13Z" fill="#4285F4"/>
<path fill-rule="evenodd" clip-rule="evenodd" d="M8 17H18V19H8V17Z" fill="#4285F4"/>
<path fill-rule="evenodd" clip-rule="evenodd" d="M8 21H23V23H8V21Z" fill="#4285F4"/>
<path d="M14.5596 33.1084V36H13.5752V32.3018H14.5015L14.5596 33.1084ZM15.6738 32.2778L15.6567 33.1904C15.6089 33.1836 15.5508 33.1779 15.4824 33.1733C15.4163 33.1665 15.356 33.1631 15.3013 33.1631C15.1623 33.1631 15.0415 33.1813 14.939 33.2178C14.8387 33.252 14.7544 33.3032 14.686 33.3716C14.62 33.4399 14.5698 33.5231 14.5356 33.6211C14.5037 33.7191 14.4855 33.8307 14.481 33.9561L14.2827 33.8945C14.2827 33.6553 14.3066 33.4354 14.3545 33.2349C14.4023 33.0321 14.4718 32.8555 14.563 32.7051C14.6564 32.5547 14.7703 32.4385 14.9048 32.3564C15.0392 32.2744 15.193 32.2334 15.3662 32.2334C15.4209 32.2334 15.4767 32.238 15.5337 32.2471C15.5907 32.2539 15.6374 32.2642 15.6738 32.2778ZM18.1211 32.3018V32.999H15.9678V32.3018H18.1211ZM16.501 31.3892H17.4854V34.8857C17.4854 34.9928 17.499 35.0749 17.5264 35.1318C17.556 35.1888 17.5993 35.2287 17.6562 35.2515C17.7132 35.272 17.785 35.2822 17.8716 35.2822C17.9331 35.2822 17.9878 35.2799 18.0356 35.2754C18.0858 35.2686 18.1279 35.2617 18.1621 35.2549L18.1655 35.9795C18.0812 36.0068 17.9901 36.0285 17.8921 36.0444C17.7941 36.0604 17.6859 36.0684 17.5674 36.0684C17.3509 36.0684 17.1618 36.033 17 35.9624C16.8405 35.8895 16.7174 35.7733 16.6309 35.6138C16.5443 35.4543 16.501 35.2446 16.501 34.9849V31.3892ZM19.936 36H18.9448V31.9736C18.9448 31.6934 18.9995 31.4575 19.1089 31.2661C19.2205 31.0724 19.3766 30.9266 19.5771 30.8286C19.7799 30.7284 20.0203 30.6782 20.2983 30.6782C20.3895 30.6782 20.4772 30.6851 20.5615 30.6987C20.6458 30.7101 20.7279 30.7249 20.8076 30.7432L20.7974 31.4849C20.7541 31.4735 20.7085 31.4655 20.6606 31.4609C20.6128 31.4564 20.557 31.4541 20.4932 31.4541C20.3747 31.4541 20.2733 31.4746 20.189 31.5156C20.1069 31.5544 20.0443 31.6125 20.001 31.6899C19.9577 31.7674 19.936 31.862 19.936 31.9736V36ZM20.6743 32.3018V32.999H18.3945V32.3018H20.6743Z" fill="white"/>
</svg>
