<svg width="34" height="40" viewBox="0 0 34 40" fill="none" xmlns="http://www.w3.org/2000/svg">
<path d="M0 28H34V37C34 38.6569 32.6569 40 31 40H3C1.34315 40 0 38.6569 0 37V28Z" fill="#00ACA1"/>
<path d="M0 3C0 1.34315 1.34315 0 3 0H23L34 11V28H0V3Z" fill="#F5F5F5"/>
<path d="M34 11L26 11C24.3431 11 23 9.65685 23 8V0L34 11Z" fill="#DBDBDB"/>
<path fill-rule="evenodd" clip-rule="evenodd" d="M15 21V18.984L11.5 18L15 17V15L9 17V19L15 21ZM19 15V17.016L22.5 18L19 19V21L25 19V17L19 15Z" fill="#00ACA1"/>
<path d="M13.9648 34.978C13.9648 34.9074 13.9443 34.8436 13.9033 34.7866C13.8623 34.7297 13.786 34.6772 13.6743 34.6294C13.5649 34.5793 13.4066 34.5337 13.1992 34.4927C13.0124 34.4517 12.8381 34.4004 12.6763 34.3389C12.5168 34.2751 12.3778 34.1987 12.2593 34.1099C12.1431 34.021 12.0519 33.9162 11.9858 33.7954C11.9198 33.6724 11.8867 33.5322 11.8867 33.375C11.8867 33.2201 11.9198 33.0742 11.9858 32.9375C12.0542 32.8008 12.151 32.68 12.2764 32.5752C12.404 32.4681 12.5589 32.3849 12.7412 32.3257C12.9258 32.2642 13.1331 32.2334 13.3633 32.2334C13.6846 32.2334 13.9603 32.2847 14.1904 32.3872C14.4229 32.4897 14.6006 32.631 14.7236 32.811C14.849 32.9888 14.9116 33.1916 14.9116 33.4194H13.9272C13.9272 33.3237 13.9067 33.2383 13.8657 33.1631C13.827 33.0856 13.7655 33.0252 13.6812 32.9819C13.5991 32.9364 13.492 32.9136 13.3599 32.9136C13.2505 32.9136 13.1559 32.9329 13.0762 32.9717C12.9964 33.0081 12.9349 33.0583 12.8916 33.1221C12.8506 33.1836 12.8301 33.252 12.8301 33.3271C12.8301 33.3841 12.8415 33.4354 12.8643 33.481C12.8893 33.5243 12.9292 33.5641 12.9839 33.6006C13.0386 33.637 13.1092 33.6712 13.1958 33.7031C13.2847 33.7327 13.394 33.7601 13.5239 33.7852C13.7905 33.8398 14.0286 33.9116 14.2383 34.0005C14.4479 34.0871 14.6143 34.2056 14.7373 34.356C14.8604 34.5041 14.9219 34.6989 14.9219 34.9404C14.9219 35.1045 14.8854 35.2549 14.8125 35.3916C14.7396 35.5283 14.6348 35.6479 14.498 35.7505C14.3613 35.8507 14.1973 35.9294 14.0059 35.9863C13.8167 36.041 13.6037 36.0684 13.3667 36.0684C13.0226 36.0684 12.731 36.0068 12.4917 35.8838C12.2547 35.7607 12.0747 35.6047 11.9517 35.4155C11.8309 35.2241 11.7705 35.0282 11.7705 34.8276H12.7036C12.7082 34.9621 12.7424 35.0703 12.8062 35.1523C12.8722 35.2344 12.9554 35.2936 13.0557 35.3301C13.1582 35.3665 13.2687 35.3848 13.3872 35.3848C13.5148 35.3848 13.6208 35.3677 13.7051 35.3335C13.7894 35.297 13.8532 35.2492 13.8965 35.1899C13.9421 35.1284 13.9648 35.0578 13.9648 34.978ZM17.5571 35.166V33.5186C17.5571 33.4001 17.5378 33.2987 17.499 33.2144C17.4603 33.1278 17.3999 33.0605 17.3179 33.0127C17.2381 32.9648 17.1344 32.9409 17.0068 32.9409C16.8975 32.9409 16.8029 32.9603 16.7231 32.999C16.6434 33.0355 16.5819 33.089 16.5386 33.1597C16.4953 33.228 16.4736 33.3089 16.4736 33.4023H15.4893C15.4893 33.2451 15.5257 33.0959 15.5986 32.9546C15.6715 32.8133 15.7775 32.6891 15.9165 32.582C16.0555 32.4727 16.2207 32.3872 16.4121 32.3257C16.6058 32.2642 16.8223 32.2334 17.0615 32.2334C17.3486 32.2334 17.6038 32.2812 17.8271 32.377C18.0505 32.4727 18.2259 32.6162 18.3535 32.8076C18.4834 32.999 18.5483 33.2383 18.5483 33.5254V35.1079C18.5483 35.3107 18.5609 35.4771 18.5859 35.6069C18.611 35.7345 18.6475 35.8462 18.6953 35.9419V36H17.7007C17.6528 35.8997 17.6164 35.7744 17.5913 35.624C17.5685 35.4714 17.5571 35.3187 17.5571 35.166ZM17.687 33.7476L17.6938 34.3047H17.1436C17.0137 34.3047 16.9009 34.3195 16.8052 34.3491C16.7095 34.3787 16.6309 34.4209 16.5693 34.4756C16.5078 34.528 16.4622 34.5895 16.4326 34.6602C16.4053 34.7308 16.3916 34.8083 16.3916 34.8926C16.3916 34.9769 16.411 35.0532 16.4497 35.1216C16.4884 35.1877 16.5443 35.2401 16.6172 35.2788C16.6901 35.3153 16.7756 35.3335 16.8735 35.3335C17.0216 35.3335 17.1504 35.3039 17.2598 35.2446C17.3691 35.1854 17.4535 35.1125 17.5127 35.0259C17.5742 34.9393 17.6061 34.8573 17.6084 34.7798L17.8682 35.1968C17.8317 35.2902 17.7816 35.387 17.7178 35.4873C17.6562 35.5876 17.5776 35.6821 17.4819 35.771C17.3862 35.8576 17.2712 35.9294 17.1367 35.9863C17.0023 36.041 16.8428 36.0684 16.6582 36.0684C16.4235 36.0684 16.2104 36.0216 16.019 35.9282C15.8299 35.8325 15.6795 35.7015 15.5679 35.5352C15.4585 35.3665 15.4038 35.1751 15.4038 34.9609C15.4038 34.7673 15.4403 34.5952 15.5132 34.4448C15.5861 34.2944 15.6932 34.168 15.8345 34.0654C15.978 33.9606 16.1569 33.882 16.3711 33.8296C16.5853 33.7749 16.8337 33.7476 17.1162 33.7476H17.687ZM20.5103 35.2822L21.3306 32.3018H22.3594L21.1118 36H20.4897L20.5103 35.2822ZM19.9463 32.3018L20.77 35.2856L20.7871 36H20.1616L18.9141 32.3018H19.9463Z" fill="white"/>
</svg>
