<svg width="34" height="40" viewBox="0 0 34 40" fill="none" xmlns="http://www.w3.org/2000/svg">
<path fill-rule="evenodd" clip-rule="evenodd" d="M17.7168 33.172C18.2348 33.172 18.4238 33.655 18.4238 34.18C18.4238 34.642 18.2978 35.195 17.7168 35.195C17.1708 35.195 16.9888 34.642 16.9888 34.145C16.9888 33.683 17.1708 33.172 17.7168 33.172ZM19.5718 31.002H18.3818V32.7589H18.3678C18.1228 32.43 17.7798 32.262 17.3318 32.262C16.3028 32.262 15.7988 33.158 15.7988 34.103C15.7988 35.125 16.2818 36.1049 17.4228 36.1049C17.8428 36.1049 18.1928 35.923 18.4238 35.58H18.4378V36H19.5718V31.002ZM12.7095 34.1872C12.7095 33.7252 12.8775 33.1722 13.4305 33.1722C13.9835 33.1722 14.1585 33.7252 14.1585 34.1872C14.1585 34.6492 13.9835 35.1952 13.4305 35.1952C12.8775 35.1952 12.7095 34.6492 12.7095 34.1872ZM11.5195 34.1872C11.5195 35.2792 12.3035 36.1052 13.4305 36.1052C14.5575 36.1052 15.3485 35.2792 15.3485 34.1872C15.3485 33.0952 14.5575 32.2622 13.4305 32.2622C12.3035 32.2622 11.5195 33.0952 11.5195 34.1872ZM21.839 32.3671H22.574V33.1371H21.839V34.7891C21.839 35.0761 22.007 35.1391 22.266 35.1391C22.3142 35.1391 22.364 35.1357 22.4147 35.1323C22.4672 35.1287 22.5206 35.1251 22.574 35.1251V36.0001C22.481 36.0031 22.388 36.0099 22.295 36.0168C22.171 36.0259 22.047 36.0351 21.923 36.0351C20.908 36.0351 20.649 35.7411 20.649 34.7541V33.1371H20.047V32.3671H20.649V31.2681H21.839V32.3671Z" fill="white"/>
<path d="M0 28H34V37C34 38.6569 32.6569 40 31 40H3C1.34315 40 0 38.6569 0 37V28Z" fill="#2727B0"/>
<path d="M0 3C0 1.34315 1.34315 0 3 0H23L34 11V28H0V3Z" fill="#F5F5F5"/>
<path d="M34 11L26 11C24.3431 11 23 9.65685 23 8V0L34 11Z" fill="#DBDBDB"/>
<path fill-rule="evenodd" clip-rule="evenodd" d="M8.87912 21.941H12.298L16.9521 24.7493C17.0307 24.8138 17.1293 24.849 17.2311 24.849C17.4738 24.8488 17.6705 24.6519 17.6703 24.4092V12.4399C17.6704 12.3381 17.6352 12.2396 17.5707 12.1609C17.4168 11.9732 17.1398 11.9457 16.9521 12.0996L12.298 14.908H8.87912C8.3936 14.908 8 15.3016 8 15.7871V21.0619C8 21.5474 8.3936 21.941 8.87912 21.941ZM12.9258 16.6664L15.9122 15.2224V21.6268L12.9258 20.1829H9.7583V16.6664H12.9258ZM19.8511 16.3517C19.474 16.4092 19.2397 16.6637 19.3283 16.9191L19.3262 16.92C19.5295 17.4995 19.6305 18.098 19.6284 18.6953C19.6305 19.2975 19.5237 19.9014 19.3196 20.4909C19.229 20.7462 19.4682 20.9996 19.8474 21.06C19.9008 21.0683 19.9542 21.072 20.0076 21.072C20.3259 21.072 20.6156 20.9234 20.6922 20.7057C20.9194 20.0451 21.0337 19.37 21.0374 18.6953C21.0349 18.0251 20.9211 17.3575 20.6955 16.7035C20.6053 16.4477 20.229 16.2908 19.8511 16.3517ZM22.1605 14.6028C22.5252 14.5163 22.9259 14.6454 23.055 14.8938C23.6891 16.1157 24 17.4042 24 18.6923C24.0004 19.9895 23.6796 21.2839 23.0521 22.5153C22.9503 22.7123 22.6763 22.8344 22.3828 22.8344C22.3071 22.8344 22.2301 22.8261 22.1543 22.8092C21.7863 22.7251 21.5914 22.4536 21.7185 22.2077C22.2988 21.0761 22.5922 19.8836 22.5931 18.6919C22.5931 17.5056 22.3054 16.3222 21.7276 15.2025C21.6001 14.9563 21.795 14.686 22.1605 14.6028Z" fill="#2727B0"/>
<path d="M12.8813 35.166V33.5186C12.8813 33.4001 12.862 33.2987 12.8232 33.2144C12.7845 33.1278 12.7241 33.0605 12.6421 33.0127C12.5623 32.9648 12.4587 32.9409 12.3311 32.9409C12.2217 32.9409 12.1271 32.9603 12.0474 32.999C11.9676 33.0355 11.9061 33.089 11.8628 33.1597C11.8195 33.228 11.7979 33.3089 11.7979 33.4023H10.8135C10.8135 33.2451 10.8499 33.0959 10.9229 32.9546C10.9958 32.8133 11.1017 32.6891 11.2407 32.582C11.3797 32.4727 11.5449 32.3872 11.7363 32.3257C11.93 32.2642 12.1465 32.2334 12.3857 32.2334C12.6729 32.2334 12.9281 32.2812 13.1514 32.377C13.3747 32.4727 13.5501 32.6162 13.6777 32.8076C13.8076 32.999 13.8726 33.2383 13.8726 33.5254V35.1079C13.8726 35.3107 13.8851 35.4771 13.9102 35.6069C13.9352 35.7345 13.9717 35.8462 14.0195 35.9419V36H13.0249C12.9771 35.8997 12.9406 35.7744 12.9155 35.624C12.8927 35.4714 12.8813 35.3187 12.8813 35.166ZM13.0112 33.7476L13.0181 34.3047H12.4678C12.3379 34.3047 12.2251 34.3195 12.1294 34.3491C12.0337 34.3787 11.9551 34.4209 11.8936 34.4756C11.832 34.528 11.7865 34.5895 11.7568 34.6602C11.7295 34.7308 11.7158 34.8083 11.7158 34.8926C11.7158 34.9769 11.7352 35.0532 11.7739 35.1216C11.8127 35.1877 11.8685 35.2401 11.9414 35.2788C12.0143 35.3153 12.0998 35.3335 12.1978 35.3335C12.3459 35.3335 12.4746 35.3039 12.584 35.2446C12.6934 35.1854 12.7777 35.1125 12.8369 35.0259C12.8984 34.9393 12.9303 34.8573 12.9326 34.7798L13.1924 35.1968C13.1559 35.2902 13.1058 35.387 13.042 35.4873C12.9805 35.5876 12.9019 35.6821 12.8062 35.771C12.7104 35.8576 12.5954 35.9294 12.4609 35.9863C12.3265 36.041 12.167 36.0684 11.9824 36.0684C11.7477 36.0684 11.5347 36.0216 11.3433 35.9282C11.1541 35.8325 11.0037 35.7015 10.8921 35.5352C10.7827 35.3665 10.728 35.1751 10.728 34.9609C10.728 34.7673 10.7645 34.5952 10.8374 34.4448C10.9103 34.2944 11.0174 34.168 11.1587 34.0654C11.3022 33.9606 11.4811 33.882 11.6953 33.8296C11.9095 33.7749 12.1579 33.7476 12.4404 33.7476H13.0112ZM15.6704 30.75V36H14.6826V30.75H15.6704ZM18.48 35.166V33.5186C18.48 33.4001 18.4606 33.2987 18.4219 33.2144C18.3831 33.1278 18.3228 33.0605 18.2407 33.0127C18.161 32.9648 18.0573 32.9409 17.9297 32.9409C17.8203 32.9409 17.7257 32.9603 17.646 32.999C17.5662 33.0355 17.5047 33.089 17.4614 33.1597C17.4181 33.228 17.3965 33.3089 17.3965 33.4023H16.4121C16.4121 33.2451 16.4486 33.0959 16.5215 32.9546C16.5944 32.8133 16.7004 32.6891 16.8394 32.582C16.9784 32.4727 17.1436 32.3872 17.335 32.3257C17.5286 32.2642 17.7451 32.2334 17.9844 32.2334C18.2715 32.2334 18.5267 32.2812 18.75 32.377C18.9733 32.4727 19.1488 32.6162 19.2764 32.8076C19.4062 32.999 19.4712 33.2383 19.4712 33.5254V35.1079C19.4712 35.3107 19.4837 35.4771 19.5088 35.6069C19.5339 35.7345 19.5703 35.8462 19.6182 35.9419V36H18.6235C18.5757 35.8997 18.5392 35.7744 18.5142 35.624C18.4914 35.4714 18.48 35.3187 18.48 35.166ZM18.6099 33.7476L18.6167 34.3047H18.0664C17.9365 34.3047 17.8237 34.3195 17.728 34.3491C17.6323 34.3787 17.5537 34.4209 17.4922 34.4756C17.4307 34.528 17.3851 34.5895 17.3555 34.6602C17.3281 34.7308 17.3145 34.8083 17.3145 34.8926C17.3145 34.9769 17.3338 35.0532 17.3726 35.1216C17.4113 35.1877 17.4671 35.2401 17.54 35.2788C17.613 35.3153 17.6984 35.3335 17.7964 35.3335C17.9445 35.3335 18.0732 35.3039 18.1826 35.2446C18.292 35.1854 18.3763 35.1125 18.4355 35.0259C18.4971 34.9393 18.529 34.8573 18.5312 34.7798L18.791 35.1968C18.7546 35.2902 18.7044 35.387 18.6406 35.4873C18.5791 35.5876 18.5005 35.6821 18.4048 35.771C18.3091 35.8576 18.194 35.9294 18.0596 35.9863C17.9251 36.041 17.7656 36.0684 17.5811 36.0684C17.3464 36.0684 17.1333 36.0216 16.9419 35.9282C16.7528 35.8325 16.6024 35.7015 16.4907 35.5352C16.3813 35.3665 16.3267 35.1751 16.3267 34.9609C16.3267 34.7673 16.3631 34.5952 16.436 34.4448C16.509 34.2944 16.616 34.168 16.7573 34.0654C16.9009 33.9606 17.0798 33.882 17.2939 33.8296C17.5081 33.7749 17.7565 33.7476 18.0391 33.7476H18.6099ZM21.7578 35.2993C21.8786 35.2993 21.9857 35.2765 22.0791 35.231C22.1725 35.1831 22.2454 35.117 22.2979 35.0327C22.3525 34.9461 22.381 34.8447 22.3833 34.7285H23.3096C23.3073 34.9883 23.2378 35.2196 23.1011 35.4224C22.9644 35.6229 22.7809 35.7812 22.5508 35.8975C22.3206 36.0114 22.0632 36.0684 21.7783 36.0684C21.4912 36.0684 21.2406 36.0205 21.0264 35.9248C20.8145 35.8291 20.6379 35.6969 20.4966 35.5283C20.3553 35.3574 20.2493 35.1592 20.1787 34.9336C20.1081 34.7057 20.0728 34.4619 20.0728 34.2021V34.103C20.0728 33.841 20.1081 33.5972 20.1787 33.3716C20.2493 33.1437 20.3553 32.9455 20.4966 32.7769C20.6379 32.606 20.8145 32.4727 21.0264 32.377C21.2383 32.2812 21.4867 32.2334 21.7715 32.2334C22.0745 32.2334 22.34 32.2915 22.5679 32.4077C22.798 32.5239 22.978 32.6903 23.1079 32.9067C23.2401 33.1209 23.3073 33.375 23.3096 33.6689H22.3833C22.381 33.5459 22.3548 33.4342 22.3047 33.334C22.2568 33.2337 22.1862 33.154 22.0928 33.0947C22.0016 33.0332 21.8888 33.0024 21.7544 33.0024C21.6108 33.0024 21.4935 33.0332 21.4023 33.0947C21.3112 33.154 21.2406 33.236 21.1904 33.3408C21.1403 33.4434 21.105 33.5607 21.0845 33.6929C21.0662 33.8228 21.0571 33.9595 21.0571 34.103V34.2021C21.0571 34.3457 21.0662 34.4836 21.0845 34.6157C21.1027 34.7479 21.1369 34.8652 21.187 34.9678C21.2394 35.0703 21.3112 35.1512 21.4023 35.2104C21.4935 35.2697 21.612 35.2993 21.7578 35.2993Z" fill="white"/>
</svg>
