<svg width="34" height="40" viewBox="0 0 34 40" fill="none" xmlns="http://www.w3.org/2000/svg">
<path d="M0 28H34V37C34 38.6569 32.6569 40 31 40H3C1.34315 40 0 38.6569 0 37V28Z" fill="#4285F4"/>
<path d="M0 3C0 1.34315 1.34315 0 3 0H23L34 11V28H0V3Z" fill="#F5F5F5"/>
<path d="M34 11L26 11C24.3431 11 23 9.65685 23 8V0L34 11Z" fill="#DBDBDB"/>
<path fill-rule="evenodd" clip-rule="evenodd" d="M8 13H23V15H8V13Z" fill="#4285F4"/>
<path fill-rule="evenodd" clip-rule="evenodd" d="M8 17H18V19H8V17Z" fill="#4285F4"/>
<path fill-rule="evenodd" clip-rule="evenodd" d="M8 21H23V23H8V21Z" fill="#4285F4"/>
<path d="M11.9277 35.043L12.6968 32.3018H13.3223L13.1206 33.3784L12.3516 36H11.8286L11.9277 35.043ZM11.5381 32.3018L12.0884 35.0396L12.1396 36H11.5244L10.5879 32.3018H11.5381ZM14.0264 34.9951L14.563 32.3018H15.5166L14.5801 36H13.9683L14.0264 34.9951ZM13.4077 32.3018L14.1733 35.0225L14.2793 36H13.7529L12.9839 33.3818L12.7891 32.3018H13.4077ZM16.9966 33.0127V37.4219H16.0122V32.3018H16.9248L16.9966 33.0127ZM19.3379 34.1099V34.1816C19.3379 34.4505 19.306 34.7 19.2422 34.9302C19.1807 35.1603 19.0895 35.3608 18.9688 35.5317C18.848 35.7004 18.6976 35.8325 18.5176 35.9282C18.3398 36.0216 18.1348 36.0684 17.9023 36.0684C17.6768 36.0684 17.4808 36.0228 17.3145 35.9316C17.1481 35.8405 17.008 35.7129 16.894 35.5488C16.7824 35.3825 16.6924 35.1899 16.624 34.9712C16.5557 34.7524 16.5033 34.5177 16.4668 34.2671V34.0791C16.5033 33.8102 16.5557 33.5641 16.624 33.3408C16.6924 33.1152 16.7824 32.9204 16.894 32.7563C17.008 32.59 17.147 32.4613 17.311 32.3701C17.4774 32.279 17.6722 32.2334 17.8955 32.2334C18.1302 32.2334 18.3364 32.2778 18.5142 32.3667C18.6942 32.4556 18.8446 32.5832 18.9653 32.7495C19.0884 32.9159 19.1807 33.1141 19.2422 33.3442C19.306 33.5744 19.3379 33.8296 19.3379 34.1099ZM18.3501 34.1816V34.1099C18.3501 33.9526 18.3364 33.8079 18.3091 33.6758C18.284 33.5413 18.243 33.424 18.186 33.3237C18.1313 33.2235 18.0584 33.146 17.9673 33.0913C17.8784 33.0343 17.7702 33.0059 17.6426 33.0059C17.5081 33.0059 17.3931 33.0275 17.2974 33.0708C17.2039 33.1141 17.1276 33.1768 17.0684 33.2588C17.0091 33.3408 16.9647 33.4388 16.9351 33.5527C16.9054 33.6667 16.8872 33.7954 16.8804 33.939V34.4141C16.8918 34.5827 16.9237 34.7342 16.9761 34.8687C17.0285 35.0008 17.1094 35.1056 17.2188 35.1831C17.3281 35.2606 17.4717 35.2993 17.6494 35.2993C17.7793 35.2993 17.8887 35.2708 17.9775 35.2139C18.0664 35.1546 18.1382 35.0737 18.1929 34.9712C18.2498 34.8687 18.2897 34.7502 18.3125 34.6157C18.3376 34.4813 18.3501 34.3366 18.3501 34.1816ZM22.1338 35.1934V30.75H23.125V36H22.2329L22.1338 35.1934ZM19.7959 34.1953V34.1235C19.7959 33.841 19.8278 33.5846 19.8916 33.3545C19.9554 33.1221 20.0488 32.9227 20.1719 32.7563C20.2949 32.59 20.4465 32.4613 20.6265 32.3701C20.8065 32.279 21.0116 32.2334 21.2417 32.2334C21.4582 32.2334 21.6473 32.279 21.8091 32.3701C21.9731 32.4613 22.1121 32.5911 22.2261 32.7598C22.3423 32.9261 22.4357 33.1232 22.5063 33.3511C22.577 33.5767 22.6283 33.8239 22.6602 34.0928V34.25C22.6283 34.5075 22.577 34.7467 22.5063 34.9678C22.4357 35.1888 22.3423 35.3825 22.2261 35.5488C22.1121 35.7129 21.9731 35.8405 21.8091 35.9316C21.645 36.0228 21.4536 36.0684 21.2349 36.0684C21.0047 36.0684 20.7996 36.0216 20.6196 35.9282C20.4419 35.8348 20.2915 35.7038 20.1685 35.5352C20.0477 35.3665 19.9554 35.1683 19.8916 34.9404C19.8278 34.7126 19.7959 34.4642 19.7959 34.1953ZM20.7803 34.1235V34.1953C20.7803 34.348 20.7917 34.4904 20.8145 34.6226C20.8395 34.7547 20.8794 34.8721 20.9341 34.9746C20.991 35.0749 21.064 35.1535 21.1528 35.2104C21.244 35.2651 21.3545 35.2925 21.4844 35.2925C21.653 35.2925 21.792 35.2549 21.9014 35.1797C22.0107 35.1022 22.0939 34.9963 22.1509 34.8618C22.2101 34.7274 22.2443 34.5724 22.2534 34.397V33.9492C22.2466 33.8057 22.2261 33.6769 22.1919 33.563C22.16 33.4468 22.1121 33.3477 22.0483 33.2656C21.9868 33.1836 21.9093 33.1198 21.8159 33.0742C21.7248 33.0286 21.6165 33.0059 21.4912 33.0059C21.3636 33.0059 21.2542 33.0355 21.1631 33.0947C21.0719 33.1517 20.9979 33.2303 20.9409 33.3306C20.8862 33.4308 20.8452 33.5493 20.8179 33.686C20.7928 33.8205 20.7803 33.9663 20.7803 34.1235Z" fill="white"/>
</svg>
