<svg width="34" height="40" viewBox="0 0 34 40" fill="none" xmlns="http://www.w3.org/2000/svg">
<path fill-rule="evenodd" clip-rule="evenodd" d="M17.7168 33.172C18.2348 33.172 18.4238 33.655 18.4238 34.18C18.4238 34.642 18.2978 35.195 17.7168 35.195C17.1708 35.195 16.9888 34.642 16.9888 34.145C16.9888 33.683 17.1708 33.172 17.7168 33.172ZM19.5718 31.002H18.3818V32.7589H18.3678C18.1228 32.43 17.7798 32.262 17.3318 32.262C16.3028 32.262 15.7988 33.158 15.7988 34.103C15.7988 35.125 16.2818 36.1049 17.4228 36.1049C17.8428 36.1049 18.1928 35.923 18.4238 35.58H18.4378V36H19.5718V31.002ZM12.7095 34.1872C12.7095 33.7252 12.8775 33.1722 13.4305 33.1722C13.9835 33.1722 14.1585 33.7252 14.1585 34.1872C14.1585 34.6492 13.9835 35.1952 13.4305 35.1952C12.8775 35.1952 12.7095 34.6492 12.7095 34.1872ZM11.5195 34.1872C11.5195 35.2792 12.3035 36.1052 13.4305 36.1052C14.5575 36.1052 15.3485 35.2792 15.3485 34.1872C15.3485 33.0952 14.5575 32.2622 13.4305 32.2622C12.3035 32.2622 11.5195 33.0952 11.5195 34.1872ZM21.839 32.3671H22.574V33.1371H21.839V34.7891C21.839 35.0761 22.007 35.1391 22.266 35.1391C22.3142 35.1391 22.364 35.1357 22.4147 35.1323C22.4672 35.1287 22.5206 35.1251 22.574 35.1251V36.0001C22.481 36.0031 22.388 36.0099 22.295 36.0168C22.171 36.0259 22.047 36.0351 21.923 36.0351C20.908 36.0351 20.649 35.7411 20.649 34.7541V33.1371H20.047V32.3671H20.649V31.2681H21.839V32.3671Z" fill="white"/>
<path d="M0 28H34V37C34 38.6569 32.6569 40 31 40H3C1.34315 40 0 38.6569 0 37V28Z" fill="#D65537"/>
<path d="M0 3C0 1.34315 1.34315 0 3 0H23L34 11V28H0V3Z" fill="#F5F5F5"/>
<path d="M34 11L26 11C24.3431 11 23 9.65685 23 8V0L34 11Z" fill="#DBDBDB"/>
<path fill-rule="evenodd" clip-rule="evenodd" d="M7 12C7 10.8954 7.89543 10 9 10H19C20.1046 10 21 10.8954 21 12V18C21 19.1046 20.1046 20 19 20H9C7.89543 20 7 19.1046 7 18V12ZM9 12H19V18H9V12ZM25 22C25 23.1046 24.1046 24 23 24H11V22H23V15H25V22Z" fill="#D65537"/>
<path d="M12.6318 33.0127V37.4219H11.6475V32.3018H12.5601L12.6318 33.0127ZM14.9731 34.1099V34.1816C14.9731 34.4505 14.9412 34.7 14.8774 34.9302C14.8159 35.1603 14.7248 35.3608 14.604 35.5317C14.4832 35.7004 14.3328 35.8325 14.1528 35.9282C13.9751 36.0216 13.77 36.0684 13.5376 36.0684C13.312 36.0684 13.116 36.0228 12.9497 35.9316C12.7834 35.8405 12.6432 35.7129 12.5293 35.5488C12.4176 35.3825 12.3276 35.1899 12.2593 34.9712C12.1909 34.7524 12.1385 34.5177 12.1021 34.2671V34.0791C12.1385 33.8102 12.1909 33.5641 12.2593 33.3408C12.3276 33.1152 12.4176 32.9204 12.5293 32.7563C12.6432 32.59 12.7822 32.4613 12.9463 32.3701C13.1126 32.279 13.3075 32.2334 13.5308 32.2334C13.7655 32.2334 13.9717 32.2778 14.1494 32.3667C14.3294 32.4556 14.4798 32.5832 14.6006 32.7495C14.7236 32.9159 14.8159 33.1141 14.8774 33.3442C14.9412 33.5744 14.9731 33.8296 14.9731 34.1099ZM13.9854 34.1816V34.1099C13.9854 33.9526 13.9717 33.8079 13.9443 33.6758C13.9193 33.5413 13.8783 33.424 13.8213 33.3237C13.7666 33.2235 13.6937 33.146 13.6025 33.0913C13.5137 33.0343 13.4054 33.0059 13.2778 33.0059C13.1434 33.0059 13.0283 33.0275 12.9326 33.0708C12.8392 33.1141 12.7629 33.1768 12.7036 33.2588C12.6444 33.3408 12.5999 33.4388 12.5703 33.5527C12.5407 33.6667 12.5225 33.7954 12.5156 33.939V34.4141C12.527 34.5827 12.5589 34.7342 12.6113 34.8687C12.6637 35.0008 12.7446 35.1056 12.854 35.1831C12.9634 35.2606 13.1069 35.2993 13.2847 35.2993C13.4146 35.2993 13.5239 35.2708 13.6128 35.2139C13.7017 35.1546 13.7734 35.0737 13.8281 34.9712C13.8851 34.8687 13.925 34.7502 13.9478 34.6157C13.9728 34.4813 13.9854 34.3366 13.9854 34.1816ZM16.5693 33.0127V37.4219H15.585V32.3018H16.4976L16.5693 33.0127ZM18.9106 34.1099V34.1816C18.9106 34.4505 18.8787 34.7 18.8149 34.9302C18.7534 35.1603 18.6623 35.3608 18.5415 35.5317C18.4207 35.7004 18.2703 35.8325 18.0903 35.9282C17.9126 36.0216 17.7075 36.0684 17.4751 36.0684C17.2495 36.0684 17.0535 36.0228 16.8872 35.9316C16.7209 35.8405 16.5807 35.7129 16.4668 35.5488C16.3551 35.3825 16.2651 35.1899 16.1968 34.9712C16.1284 34.7524 16.076 34.5177 16.0396 34.2671V34.0791C16.076 33.8102 16.1284 33.5641 16.1968 33.3408C16.2651 33.1152 16.3551 32.9204 16.4668 32.7563C16.5807 32.59 16.7197 32.4613 16.8838 32.3701C17.0501 32.279 17.245 32.2334 17.4683 32.2334C17.703 32.2334 17.9092 32.2778 18.0869 32.3667C18.2669 32.4556 18.4173 32.5832 18.5381 32.7495C18.6611 32.9159 18.7534 33.1141 18.8149 33.3442C18.8787 33.5744 18.9106 33.8296 18.9106 34.1099ZM17.9229 34.1816V34.1099C17.9229 33.9526 17.9092 33.8079 17.8818 33.6758C17.8568 33.5413 17.8158 33.424 17.7588 33.3237C17.7041 33.2235 17.6312 33.146 17.54 33.0913C17.4512 33.0343 17.3429 33.0059 17.2153 33.0059C17.0809 33.0059 16.9658 33.0275 16.8701 33.0708C16.7767 33.1141 16.7004 33.1768 16.6411 33.2588C16.5819 33.3408 16.5374 33.4388 16.5078 33.5527C16.4782 33.6667 16.46 33.7954 16.4531 33.939V34.4141C16.4645 34.5827 16.4964 34.7342 16.5488 34.8687C16.6012 35.0008 16.6821 35.1056 16.7915 35.1831C16.9009 35.2606 17.0444 35.2993 17.2222 35.2993C17.3521 35.2993 17.4614 35.2708 17.5503 35.2139C17.6392 35.1546 17.7109 35.0737 17.7656 34.9712C17.8226 34.8687 17.8625 34.7502 17.8853 34.6157C17.9103 34.4813 17.9229 34.3366 17.9229 34.1816ZM21.522 34.978C21.522 34.9074 21.5015 34.8436 21.4604 34.7866C21.4194 34.7297 21.3431 34.6772 21.2314 34.6294C21.1221 34.5793 20.9637 34.5337 20.7563 34.4927C20.5695 34.4517 20.3952 34.4004 20.2334 34.3389C20.0739 34.2751 19.9349 34.1987 19.8164 34.1099C19.7002 34.021 19.609 33.9162 19.543 33.7954C19.4769 33.6724 19.4438 33.5322 19.4438 33.375C19.4438 33.2201 19.4769 33.0742 19.543 32.9375C19.6113 32.8008 19.7082 32.68 19.8335 32.5752C19.9611 32.4681 20.116 32.3849 20.2983 32.3257C20.4829 32.2642 20.6903 32.2334 20.9204 32.2334C21.2417 32.2334 21.5174 32.2847 21.7476 32.3872C21.98 32.4897 22.1577 32.631 22.2808 32.811C22.4061 32.9888 22.4688 33.1916 22.4688 33.4194H21.4844C21.4844 33.3237 21.4639 33.2383 21.4229 33.1631C21.3841 33.0856 21.3226 33.0252 21.2383 32.9819C21.1562 32.9364 21.0492 32.9136 20.917 32.9136C20.8076 32.9136 20.7131 32.9329 20.6333 32.9717C20.5535 33.0081 20.492 33.0583 20.4487 33.1221C20.4077 33.1836 20.3872 33.252 20.3872 33.3271C20.3872 33.3841 20.3986 33.4354 20.4214 33.481C20.4465 33.5243 20.4863 33.5641 20.541 33.6006C20.5957 33.637 20.6663 33.6712 20.7529 33.7031C20.8418 33.7327 20.9512 33.7601 21.0811 33.7852C21.3477 33.8398 21.5858 33.9116 21.7954 34.0005C22.005 34.0871 22.1714 34.2056 22.2944 34.356C22.4175 34.5041 22.479 34.6989 22.479 34.9404C22.479 35.1045 22.4425 35.2549 22.3696 35.3916C22.2967 35.5283 22.1919 35.6479 22.0552 35.7505C21.9185 35.8507 21.7544 35.9294 21.563 35.9863C21.3739 36.041 21.1608 36.0684 20.9238 36.0684C20.5798 36.0684 20.2881 36.0068 20.0488 35.8838C19.8118 35.7607 19.6318 35.6047 19.5088 35.4155C19.388 35.2241 19.3276 35.0282 19.3276 34.8276H20.2607C20.2653 34.9621 20.2995 35.0703 20.3633 35.1523C20.4294 35.2344 20.5125 35.2936 20.6128 35.3301C20.7153 35.3665 20.8258 35.3848 20.9443 35.3848C21.0719 35.3848 21.1779 35.3677 21.2622 35.3335C21.3465 35.297 21.4103 35.2492 21.4536 35.1899C21.4992 35.1284 21.522 35.0578 21.522 34.978Z" fill="white"/>
</svg>
