<svg width="34" height="40" viewBox="0 0 34 40" fill="none" xmlns="http://www.w3.org/2000/svg">
<path d="M0 28H34V37C34 38.6569 32.6569 40 31 40H3C1.34315 40 0 38.6569 0 37V28Z" fill="#00ACA1"/>
<path d="M0 3C0 1.34315 1.34315 0 3 0H23L34 11V28H0V3Z" fill="#F5F5F5"/>
<path d="M34 11L26 11C24.3431 11 23 9.65685 23 8V0L34 11Z" fill="#DBDBDB"/>
<path fill-rule="evenodd" clip-rule="evenodd" d="M15 21V18.984L11.5 18L15 17V15L9 17V19L15 21ZM19 15V17.016L22.5 18L19 19V21L25 19V17L19 15Z" fill="#00ACA1"/>
<path d="M14.5356 35.1934V30.75H15.5269V36H14.6348L14.5356 35.1934ZM12.1978 34.1953V34.1235C12.1978 33.841 12.2297 33.5846 12.2935 33.3545C12.3573 33.1221 12.4507 32.9227 12.5737 32.7563C12.6968 32.59 12.8483 32.4613 13.0283 32.3701C13.2083 32.279 13.4134 32.2334 13.6436 32.2334C13.86 32.2334 14.0492 32.279 14.2109 32.3701C14.375 32.4613 14.514 32.5911 14.6279 32.7598C14.7441 32.9261 14.8376 33.1232 14.9082 33.3511C14.9788 33.5767 15.0301 33.8239 15.062 34.0928V34.25C15.0301 34.5075 14.9788 34.7467 14.9082 34.9678C14.8376 35.1888 14.7441 35.3825 14.6279 35.5488C14.514 35.7129 14.375 35.8405 14.2109 35.9316C14.0469 36.0228 13.8555 36.0684 13.6367 36.0684C13.4066 36.0684 13.2015 36.0216 13.0215 35.9282C12.8438 35.8348 12.6934 35.7038 12.5703 35.5352C12.4495 35.3665 12.3573 35.1683 12.2935 34.9404C12.2297 34.7126 12.1978 34.4642 12.1978 34.1953ZM13.1821 34.1235V34.1953C13.1821 34.348 13.1935 34.4904 13.2163 34.6226C13.2414 34.7547 13.2812 34.8721 13.3359 34.9746C13.3929 35.0749 13.4658 35.1535 13.5547 35.2104C13.6458 35.2651 13.7563 35.2925 13.8862 35.2925C14.0549 35.2925 14.1938 35.2549 14.3032 35.1797C14.4126 35.1022 14.4958 34.9963 14.5527 34.8618C14.612 34.7274 14.6462 34.5724 14.6553 34.397V33.9492C14.6484 33.8057 14.6279 33.6769 14.5938 33.563C14.5618 33.4468 14.514 33.3477 14.4502 33.2656C14.3887 33.1836 14.3112 33.1198 14.2178 33.0742C14.1266 33.0286 14.0184 33.0059 13.8931 33.0059C13.7655 33.0059 13.6561 33.0355 13.5649 33.0947C13.4738 33.1517 13.3997 33.2303 13.3428 33.3306C13.2881 33.4308 13.2471 33.5493 13.2197 33.686C13.1947 33.8205 13.1821 33.9663 13.1821 34.1235ZM18.292 35.166V33.5186C18.292 33.4001 18.2726 33.2987 18.2339 33.2144C18.1951 33.1278 18.1348 33.0605 18.0527 33.0127C17.973 32.9648 17.8693 32.9409 17.7417 32.9409C17.6323 32.9409 17.5378 32.9603 17.458 32.999C17.3783 33.0355 17.3167 33.089 17.2734 33.1597C17.2301 33.228 17.2085 33.3089 17.2085 33.4023H16.2241C16.2241 33.2451 16.2606 33.0959 16.3335 32.9546C16.4064 32.8133 16.5124 32.6891 16.6514 32.582C16.7904 32.4727 16.9556 32.3872 17.147 32.3257C17.3407 32.2642 17.5571 32.2334 17.7964 32.2334C18.0835 32.2334 18.3387 32.2812 18.562 32.377C18.7853 32.4727 18.9608 32.6162 19.0884 32.8076C19.2183 32.999 19.2832 33.2383 19.2832 33.5254V35.1079C19.2832 35.3107 19.2957 35.4771 19.3208 35.6069C19.3459 35.7345 19.3823 35.8462 19.4302 35.9419V36H18.4355C18.3877 35.8997 18.3512 35.7744 18.3262 35.624C18.3034 35.4714 18.292 35.3187 18.292 35.166ZM18.4219 33.7476L18.4287 34.3047H17.8784C17.7485 34.3047 17.6357 34.3195 17.54 34.3491C17.4443 34.3787 17.3657 34.4209 17.3042 34.4756C17.2427 34.528 17.1971 34.5895 17.1675 34.6602C17.1401 34.7308 17.1265 34.8083 17.1265 34.8926C17.1265 34.9769 17.1458 35.0532 17.1846 35.1216C17.2233 35.1877 17.2791 35.2401 17.3521 35.2788C17.425 35.3153 17.5104 35.3335 17.6084 35.3335C17.7565 35.3335 17.8853 35.3039 17.9946 35.2446C18.104 35.1854 18.1883 35.1125 18.2476 35.0259C18.3091 34.9393 18.341 34.8573 18.3433 34.7798L18.603 35.1968C18.5666 35.2902 18.5164 35.387 18.4526 35.4873C18.3911 35.5876 18.3125 35.6821 18.2168 35.771C18.1211 35.8576 18.006 35.9294 17.8716 35.9863C17.7371 36.041 17.5776 36.0684 17.3931 36.0684C17.1584 36.0684 16.9453 36.0216 16.7539 35.9282C16.5648 35.8325 16.4144 35.7015 16.3027 35.5352C16.1934 35.3665 16.1387 35.1751 16.1387 34.9609C16.1387 34.7673 16.1751 34.5952 16.248 34.4448C16.321 34.2944 16.4281 34.168 16.5693 34.0654C16.7129 33.9606 16.8918 33.882 17.106 33.8296C17.3201 33.7749 17.5685 33.7476 17.8511 33.7476H18.4219ZM21.8535 32.3018V32.999H19.7002V32.3018H21.8535ZM20.2334 31.3892H21.2178V34.8857C21.2178 34.9928 21.2314 35.0749 21.2588 35.1318C21.2884 35.1888 21.3317 35.2287 21.3887 35.2515C21.4456 35.272 21.5174 35.2822 21.604 35.2822C21.6655 35.2822 21.7202 35.2799 21.7681 35.2754C21.8182 35.2686 21.8604 35.2617 21.8945 35.2549L21.8979 35.9795C21.8136 36.0068 21.7225 36.0285 21.6245 36.0444C21.5265 36.0604 21.4183 36.0684 21.2998 36.0684C21.0833 36.0684 20.8942 36.033 20.7324 35.9624C20.5729 35.8895 20.4499 35.7733 20.3633 35.6138C20.2767 35.4543 20.2334 35.2446 20.2334 34.9849V31.3892Z" fill="white"/>
</svg>
