<svg width="34" height="40" viewBox="0 0 34 40" fill="none" xmlns="http://www.w3.org/2000/svg">
<path d="M0 3C0 1.34315 1.34315 0 3 0H23L34 11V37C34 38.6569 32.6569 40 31 40H3C1.34315 40 0 38.6569 0 37V3Z" fill="url(#paint0_linear_11086_1166)"/>
<path d="M34 11L26 11C24.3431 11 23 9.65685 23 8V0L34 11Z" fill="#DBDBDB"/>
<path fill-rule="evenodd" clip-rule="evenodd" d="M8 13H23V15H8V13Z" fill="#CFCFCF"/>
<path fill-rule="evenodd" clip-rule="evenodd" d="M8 17H18V19H8V17Z" fill="#CFCFCF"/>
<path fill-rule="evenodd" clip-rule="evenodd" d="M8 21H23V23H8V21Z" fill="#CFCFCF"/>
<path d="M14.2075 34.6567L14.6929 32.3018H15.6465L14.7031 36H13.876L13.1753 33.6724L12.4746 36H11.6509L10.7075 32.3018H11.6611L12.1431 34.6533L12.8198 32.3018H13.5342L14.2075 34.6567ZM17.4819 34.5166L17.1265 34.8721V36H16.1387V30.75H17.1265V33.6587L17.3179 33.4126L18.2646 32.3018H19.4507L18.1143 33.8433L19.5669 36H18.4321L17.4819 34.5166ZM19.6558 34.1167C19.6558 33.5356 19.7845 33.0765 20.042 32.7393C20.3018 32.402 20.6572 32.2334 21.1084 32.2334C21.5049 32.2334 21.8205 32.3849 22.0552 32.688L22.1201 32.3018H22.9883V37.4219H21.9971V35.6821C21.7692 35.9396 21.4707 36.0684 21.1016 36.0684C20.6618 36.0684 20.3109 35.8975 20.0488 35.5557C19.7868 35.2139 19.6558 34.7342 19.6558 34.1167ZM20.6436 34.1885C20.6436 34.5417 20.7051 34.8105 20.8281 34.9951C20.9535 35.1797 21.1289 35.272 21.3545 35.272C21.6576 35.272 21.8717 35.1512 21.9971 34.9097V33.3818C21.874 33.1494 21.6621 33.0332 21.3613 33.0332C21.1335 33.0332 20.9569 33.1255 20.8315 33.3101C20.7062 33.4946 20.6436 33.7874 20.6436 34.1885Z" fill="#808080"/>
<defs>
<linearGradient id="paint0_linear_11086_1166" x1="0" y1="0" x2="0" y2="40" gradientUnits="userSpaceOnUse">
<stop stop-color="white"/>
<stop offset="1" stop-color="#DBDBDB"/>
</linearGradient>
</defs>
</svg>
