<svg width="34" height="40" viewBox="0 0 34 40" fill="none" xmlns="http://www.w3.org/2000/svg">
<path d="M0 3C0 1.34315 1.34315 0 3 0H23L34 11V37C34 38.6569 32.6569 40 31 40H3C1.34315 40 0 38.6569 0 37V3Z" fill="url(#paint0_linear_10597_517)"/>
<path d="M34 11L26 11C24.3431 11 23 9.65685 23 8V0L34 11Z" fill="#3670D3"/>
<path fill-rule="evenodd" clip-rule="evenodd" d="M8 13H23V15H8V13Z" fill="#C1D8FF"/>
<path fill-rule="evenodd" clip-rule="evenodd" d="M8 17H18V19H8V17Z" fill="#C1D8FF"/>
<path fill-rule="evenodd" clip-rule="evenodd" d="M8 21H23V23H8V21Z" fill="#C1D8FF"/>
<path d="M12.0132 35.1934V30.75H13.0044V36H12.1123L12.0132 35.1934ZM9.67529 34.1953V34.1235C9.67529 33.841 9.70719 33.5846 9.771 33.3545C9.8348 33.1221 9.92822 32.9227 10.0513 32.7563C10.1743 32.59 10.3258 32.4613 10.5059 32.3701C10.6859 32.279 10.891 32.2334 11.1211 32.2334C11.3376 32.2334 11.5267 32.279 11.6885 32.3701C11.8525 32.4613 11.9915 32.5911 12.1055 32.7598C12.2217 32.9261 12.3151 33.1232 12.3857 33.3511C12.4564 33.5767 12.5076 33.8239 12.5396 34.0928V34.25C12.5076 34.5075 12.4564 34.7467 12.3857 34.9678C12.3151 35.1888 12.2217 35.3825 12.1055 35.5488C11.9915 35.7129 11.8525 35.8405 11.6885 35.9316C11.5244 36.0228 11.333 36.0684 11.1143 36.0684C10.8841 36.0684 10.679 36.0216 10.499 35.9282C10.3213 35.8348 10.1709 35.7038 10.0479 35.5352C9.92708 35.3665 9.8348 35.1683 9.771 34.9404C9.70719 34.7126 9.67529 34.4642 9.67529 34.1953ZM10.6597 34.1235V34.1953C10.6597 34.348 10.6711 34.4904 10.6938 34.6226C10.7189 34.7547 10.7588 34.8721 10.8135 34.9746C10.8704 35.0749 10.9434 35.1535 11.0322 35.2104C11.1234 35.2651 11.2339 35.2925 11.3638 35.2925C11.5324 35.2925 11.6714 35.2549 11.7808 35.1797C11.8901 35.1022 11.9733 34.9963 12.0303 34.8618C12.0895 34.7274 12.1237 34.5724 12.1328 34.397V33.9492C12.126 33.8057 12.1055 33.6769 12.0713 33.563C12.0394 33.4468 11.9915 33.3477 11.9277 33.2656C11.8662 33.1836 11.7887 33.1198 11.6953 33.0742C11.6042 33.0286 11.4959 33.0059 11.3706 33.0059C11.243 33.0059 11.1336 33.0355 11.0425 33.0947C10.9513 33.1517 10.8773 33.2303 10.8203 33.3306C10.7656 33.4308 10.7246 33.5493 10.6973 33.686C10.6722 33.8205 10.6597 33.9663 10.6597 34.1235ZM13.6162 34.1885V34.1167C13.6162 33.8455 13.6549 33.596 13.7324 33.3682C13.8099 33.138 13.9227 32.9386 14.0708 32.77C14.2189 32.6014 14.4012 32.4704 14.6177 32.377C14.8341 32.2812 15.0825 32.2334 15.3628 32.2334C15.6431 32.2334 15.8926 32.2812 16.1113 32.377C16.3301 32.4704 16.5135 32.6014 16.6616 32.77C16.812 32.9386 16.9259 33.138 17.0034 33.3682C17.0809 33.596 17.1196 33.8455 17.1196 34.1167V34.1885C17.1196 34.4574 17.0809 34.7069 17.0034 34.937C16.9259 35.1649 16.812 35.3643 16.6616 35.5352C16.5135 35.7038 16.3312 35.8348 16.1147 35.9282C15.8983 36.0216 15.6499 36.0684 15.3696 36.0684C15.0894 36.0684 14.8398 36.0216 14.6211 35.9282C14.4046 35.8348 14.2212 35.7038 14.0708 35.5352C13.9227 35.3643 13.8099 35.1649 13.7324 34.937C13.6549 34.7069 13.6162 34.4574 13.6162 34.1885ZM14.6006 34.1167V34.1885C14.6006 34.3434 14.6143 34.4881 14.6416 34.6226C14.6689 34.757 14.7122 34.8755 14.7715 34.978C14.833 35.0783 14.9128 35.1569 15.0107 35.2139C15.1087 35.2708 15.2284 35.2993 15.3696 35.2993C15.5063 35.2993 15.6237 35.2708 15.7217 35.2139C15.8197 35.1569 15.8983 35.0783 15.9575 34.978C16.0168 34.8755 16.0601 34.757 16.0874 34.6226C16.117 34.4881 16.1318 34.3434 16.1318 34.1885V34.1167C16.1318 33.9663 16.117 33.825 16.0874 33.6929C16.0601 33.5584 16.0156 33.4399 15.9541 33.3374C15.8949 33.2326 15.8162 33.1506 15.7183 33.0913C15.6203 33.0321 15.5018 33.0024 15.3628 33.0024C15.2238 33.0024 15.1053 33.0321 15.0073 33.0913C14.9116 33.1506 14.833 33.2326 14.7715 33.3374C14.7122 33.4399 14.6689 33.5584 14.6416 33.6929C14.6143 33.825 14.6006 33.9663 14.6006 34.1167ZM19.2524 35.2993C19.3732 35.2993 19.4803 35.2765 19.5737 35.231C19.6672 35.1831 19.7401 35.117 19.7925 35.0327C19.8472 34.9461 19.8757 34.8447 19.8779 34.7285H20.8042C20.8019 34.9883 20.7324 35.2196 20.5957 35.4224C20.459 35.6229 20.2756 35.7812 20.0454 35.8975C19.8153 36.0114 19.5578 36.0684 19.2729 36.0684C18.9858 36.0684 18.7352 36.0205 18.521 35.9248C18.3091 35.8291 18.1325 35.6969 17.9912 35.5283C17.8499 35.3574 17.744 35.1592 17.6733 34.9336C17.6027 34.7057 17.5674 34.4619 17.5674 34.2021V34.103C17.5674 33.841 17.6027 33.5972 17.6733 33.3716C17.744 33.1437 17.8499 32.9455 17.9912 32.7769C18.1325 32.606 18.3091 32.4727 18.521 32.377C18.7329 32.2812 18.9813 32.2334 19.2661 32.2334C19.5692 32.2334 19.8346 32.2915 20.0625 32.4077C20.2926 32.5239 20.4727 32.6903 20.6025 32.9067C20.7347 33.1209 20.8019 33.375 20.8042 33.6689H19.8779C19.8757 33.5459 19.8494 33.4342 19.7993 33.334C19.7515 33.2337 19.6808 33.154 19.5874 33.0947C19.4963 33.0332 19.3835 33.0024 19.249 33.0024C19.1055 33.0024 18.9881 33.0332 18.897 33.0947C18.8058 33.154 18.7352 33.236 18.6851 33.3408C18.6349 33.4434 18.5996 33.5607 18.5791 33.6929C18.5609 33.8228 18.5518 33.9595 18.5518 34.103V34.2021C18.5518 34.3457 18.5609 34.4836 18.5791 34.6157C18.5973 34.7479 18.6315 34.8652 18.6816 34.9678C18.734 35.0703 18.8058 35.1512 18.897 35.2104C18.9881 35.2697 19.1066 35.2993 19.2524 35.2993ZM22.168 32.3018L22.7798 33.4263L23.4087 32.3018H24.458L23.4121 34.1099L24.5059 36H23.4531L22.7866 34.8105L22.1201 36H21.0674L22.1611 34.1099L21.1152 32.3018H22.168Z" fill="white"/>
<defs>
<linearGradient id="paint0_linear_10597_517" x1="0" y1="0" x2="0" y2="40" gradientUnits="userSpaceOnUse">
<stop stop-color="#79A4F2"/>
<stop offset="1" stop-color="#3375E2"/>
</linearGradient>
</defs>
</svg>
