<svg width="34" height="40" viewBox="0 0 34 40" fill="none" xmlns="http://www.w3.org/2000/svg">
<path fill-rule="evenodd" clip-rule="evenodd" d="M17.7168 33.172C18.2348 33.172 18.4238 33.655 18.4238 34.18C18.4238 34.642 18.2978 35.195 17.7168 35.195C17.1708 35.195 16.9888 34.642 16.9888 34.145C16.9888 33.683 17.1708 33.172 17.7168 33.172ZM19.5718 31.002H18.3818V32.7589H18.3678C18.1228 32.43 17.7798 32.262 17.3318 32.262C16.3028 32.262 15.7988 33.158 15.7988 34.103C15.7988 35.125 16.2818 36.1049 17.4228 36.1049C17.8428 36.1049 18.1928 35.923 18.4238 35.58H18.4378V36H19.5718V31.002ZM12.7095 34.1872C12.7095 33.7252 12.8775 33.1722 13.4305 33.1722C13.9835 33.1722 14.1585 33.7252 14.1585 34.1872C14.1585 34.6492 13.9835 35.1952 13.4305 35.1952C12.8775 35.1952 12.7095 34.6492 12.7095 34.1872ZM11.5195 34.1872C11.5195 35.2792 12.3035 36.1052 13.4305 36.1052C14.5575 36.1052 15.3485 35.2792 15.3485 34.1872C15.3485 33.0952 14.5575 32.2622 13.4305 32.2622C12.3035 32.2622 11.5195 33.0952 11.5195 34.1872ZM21.839 32.3671H22.574V33.1371H21.839V34.7891C21.839 35.0761 22.007 35.1391 22.266 35.1391C22.3142 35.1391 22.364 35.1357 22.4147 35.1323C22.4672 35.1287 22.5206 35.1251 22.574 35.1251V36.0001C22.481 36.0031 22.388 36.0099 22.295 36.0168C22.171 36.0259 22.047 36.0351 21.923 36.0351C20.908 36.0351 20.649 35.7411 20.649 34.7541V33.1371H20.047V32.3671H20.649V31.2681H21.839V32.3671Z" fill="white"/>
<path d="M0 28H34V37C34 38.6569 32.6569 40 31 40H3C1.34315 40 0 38.6569 0 37V28Z" fill="#D65537"/>
<path d="M0 3C0 1.34315 1.34315 0 3 0H23L34 11V28H0V3Z" fill="#F5F5F5"/>
<path d="M34 11L26 11C24.3431 11 23 9.65685 23 8V0L34 11Z" fill="#DBDBDB"/>
<path fill-rule="evenodd" clip-rule="evenodd" d="M7 12C7 10.8954 7.89543 10 9 10H19C20.1046 10 21 10.8954 21 12V18C21 19.1046 20.1046 20 19 20H9C7.89543 20 7 19.1046 7 18V12ZM9 12H19V18H9V12ZM25 22C25 23.1046 24.1046 24 23 24H11V22H23V15H25V22Z" fill="#D65537"/>
<path d="M12.9019 30.7466V36H11.9175V30.7466H12.9019ZM15.2329 32.3018L13.6265 34.1338L12.7651 35.0054L12.4062 34.2944L13.0898 33.4263L14.0503 32.3018H15.2329ZM14.2109 36L13.1172 34.291L13.7974 33.6963L15.3457 36H14.2109ZM17.2905 36.0684C17.0034 36.0684 16.7459 36.0228 16.5181 35.9316C16.2902 35.8382 16.0965 35.7095 15.937 35.5454C15.7798 35.3813 15.659 35.1911 15.5747 34.9746C15.4904 34.7559 15.4482 34.5234 15.4482 34.2773V34.1406C15.4482 33.8604 15.4881 33.604 15.5679 33.3716C15.6476 33.1392 15.7616 32.9375 15.9097 32.7666C16.0601 32.5957 16.2424 32.4647 16.4565 32.3735C16.6707 32.2801 16.9123 32.2334 17.1812 32.2334C17.4432 32.2334 17.6756 32.2767 17.8784 32.3633C18.0812 32.4499 18.251 32.5729 18.3877 32.7324C18.5267 32.8919 18.6315 33.0833 18.7021 33.3066C18.7728 33.5277 18.8081 33.7738 18.8081 34.0449V34.4551H15.8687V33.7988H17.8408V33.7236C17.8408 33.5869 17.8158 33.465 17.7656 33.3579C17.7178 33.2485 17.6449 33.1619 17.5469 33.0981C17.4489 33.0343 17.3236 33.0024 17.1709 33.0024C17.041 33.0024 16.9294 33.0309 16.8359 33.0879C16.7425 33.1449 16.6662 33.2246 16.6069 33.3271C16.55 33.4297 16.5067 33.5505 16.4771 33.6895C16.4497 33.8262 16.436 33.9766 16.436 34.1406V34.2773C16.436 34.4255 16.4565 34.5622 16.4976 34.6875C16.5409 34.8128 16.6012 34.9211 16.6787 35.0122C16.7585 35.1034 16.8542 35.174 16.9658 35.2241C17.0798 35.2743 17.2085 35.2993 17.3521 35.2993C17.5298 35.2993 17.695 35.2651 17.8477 35.1968C18.0026 35.1261 18.1359 35.0202 18.2476 34.8789L18.7261 35.3984C18.6486 35.5101 18.5426 35.6172 18.4082 35.7197C18.276 35.8223 18.1165 35.9066 17.9297 35.9727C17.7428 36.0365 17.5298 36.0684 17.2905 36.0684ZM20.418 35.583L21.3989 32.3018H22.4551L20.9683 36.5571C20.9364 36.6506 20.8931 36.7508 20.8384 36.8579C20.786 36.965 20.7142 37.0664 20.623 37.1621C20.5342 37.2601 20.4214 37.3398 20.2847 37.4014C20.1502 37.4629 19.985 37.4937 19.7891 37.4937C19.6956 37.4937 19.6193 37.488 19.5601 37.4766C19.5008 37.4652 19.4302 37.4492 19.3481 37.4287V36.7075C19.3732 36.7075 19.3994 36.7075 19.4268 36.7075C19.4541 36.7098 19.4803 36.7109 19.5054 36.7109C19.6353 36.7109 19.7412 36.6961 19.8232 36.6665C19.9053 36.6369 19.9714 36.5913 20.0215 36.5298C20.0716 36.4705 20.1115 36.3931 20.1411 36.2974L20.418 35.583ZM20.0078 32.3018L20.811 34.9814L20.9512 36.0239L20.2812 36.0957L18.9517 32.3018H20.0078Z" fill="white"/>
</svg>
