<svg width="34" height="40" viewBox="0 0 34 40" fill="none" xmlns="http://www.w3.org/2000/svg">
<path d="M0 3C0 1.34315 1.34315 0 3 0H23L34 11V37C34 38.6569 32.6569 40 31 40H3C1.34315 40 0 38.6569 0 37V3Z" fill="url(#paint0_linear_10597_532)"/>
<path d="M34 11L26 11C24.3431 11 23 9.65685 23 8V0L34 11Z" fill="#B67A24"/>
<path fill-rule="evenodd" clip-rule="evenodd" d="M10 0H8V2H10V4H8V6H10V8H8V10H10V12H8V14H10V12H12V10H10V8H12V6H10V4H12V2H10V0ZM8 17C8 16.4477 8.44771 16 9 16H11C11.5523 16 12 16.4477 12 17V23C12 23.5523 11.5523 24 11 24H9C8.44771 24 8 23.5523 8 23V17ZM9 23V20H11V23H9Z" fill="#FFE9C8"/>
<path d="M15.6499 35.231V36H12.8403V35.231H15.6499ZM15.5952 32.8691L13.2368 36H12.5771V35.4155L14.9253 32.3018H15.5952V32.8691ZM15.2466 32.3018V33.0742H12.6318V32.3018H15.2466ZM17.3076 32.3018V36H16.3198V32.3018H17.3076ZM16.2583 31.3379C16.2583 31.1943 16.3084 31.0758 16.4087 30.9824C16.509 30.889 16.6434 30.8423 16.812 30.8423C16.9784 30.8423 17.1117 30.889 17.2119 30.9824C17.3145 31.0758 17.3657 31.1943 17.3657 31.3379C17.3657 31.4814 17.3145 31.5999 17.2119 31.6934C17.1117 31.7868 16.9784 31.8335 16.812 31.8335C16.6434 31.8335 16.509 31.7868 16.4087 31.6934C16.3084 31.5999 16.2583 31.4814 16.2583 31.3379ZM19.1055 33.0127V37.4219H18.1211V32.3018H19.0337L19.1055 33.0127ZM21.4468 34.1099V34.1816C21.4468 34.4505 21.4149 34.7 21.3511 34.9302C21.2896 35.1603 21.1984 35.3608 21.0776 35.5317C20.9569 35.7004 20.8065 35.8325 20.6265 35.9282C20.4487 36.0216 20.2437 36.0684 20.0112 36.0684C19.7856 36.0684 19.5897 36.0228 19.4233 35.9316C19.257 35.8405 19.1169 35.7129 19.0029 35.5488C18.8913 35.3825 18.8013 35.1899 18.7329 34.9712C18.6646 34.7524 18.6121 34.5177 18.5757 34.2671V34.0791C18.6121 33.8102 18.6646 33.5641 18.7329 33.3408C18.8013 33.1152 18.8913 32.9204 19.0029 32.7563C19.1169 32.59 19.2559 32.4613 19.4199 32.3701C19.5863 32.279 19.7811 32.2334 20.0044 32.2334C20.2391 32.2334 20.4453 32.2778 20.623 32.3667C20.8031 32.4556 20.9535 32.5832 21.0742 32.7495C21.1973 32.9159 21.2896 33.1141 21.3511 33.3442C21.4149 33.5744 21.4468 33.8296 21.4468 34.1099ZM20.459 34.1816V34.1099C20.459 33.9526 20.4453 33.8079 20.418 33.6758C20.3929 33.5413 20.3519 33.424 20.2949 33.3237C20.2402 33.2235 20.1673 33.146 20.0762 33.0913C19.9873 33.0343 19.8791 33.0059 19.7515 33.0059C19.617 33.0059 19.502 33.0275 19.4062 33.0708C19.3128 33.1141 19.2365 33.1768 19.1772 33.2588C19.118 33.3408 19.0736 33.4388 19.0439 33.5527C19.0143 33.6667 18.9961 33.7954 18.9893 33.939V34.4141C19.0007 34.5827 19.0326 34.7342 19.085 34.8687C19.1374 35.0008 19.2183 35.1056 19.3276 35.1831C19.437 35.2606 19.5806 35.2993 19.7583 35.2993C19.8882 35.2993 19.9976 35.2708 20.0864 35.2139C20.1753 35.1546 20.2471 35.0737 20.3018 34.9712C20.3587 34.8687 20.3986 34.7502 20.4214 34.6157C20.4465 34.4813 20.459 34.3366 20.459 34.1816Z" fill="white"/>
<defs>
<linearGradient id="paint0_linear_10597_532" x1="0" y1="0" x2="0" y2="40" gradientUnits="userSpaceOnUse">
<stop stop-color="#FFC775"/>
<stop offset="1" stop-color="#E69E34"/>
</linearGradient>
</defs>
</svg>
