<svg width="34" height="40" viewBox="0 0 34 40" fill="none" xmlns="http://www.w3.org/2000/svg">
<path d="M0 28H34V37C34 38.6569 32.6569 40 31 40H3C1.34315 40 0 38.6569 0 37V28Z" fill="#00ACA1"/>
<path d="M0 3C0 1.34315 1.34315 0 3 0H23L34 11V28H0V3Z" fill="#F5F5F5"/>
<path d="M34 11L26 11C24.3431 11 23 9.65685 23 8V0L34 11Z" fill="#DBDBDB"/>
<path fill-rule="evenodd" clip-rule="evenodd" d="M15 21V18.984L11.5 18L15 17V15L9 17V19L15 21ZM19 15V17.016L22.5 18L19 19V21L25 19V17L19 15Z" fill="#00ACA1"/>
<path d="M13.3633 33.0674V36H12.3755V32.3018H13.3018L13.3633 33.0674ZM13.2266 34.021H12.9531C12.9531 33.7635 12.9839 33.5265 13.0454 33.3101C13.1092 33.0913 13.2015 32.9022 13.3223 32.7427C13.4453 32.5809 13.5968 32.4556 13.7769 32.3667C13.9569 32.2778 14.1654 32.2334 14.4023 32.2334C14.5664 32.2334 14.7168 32.2585 14.8535 32.3086C14.9902 32.3564 15.1076 32.4328 15.2056 32.5376C15.3058 32.6401 15.3833 32.7746 15.438 32.9409C15.4927 33.105 15.52 33.3021 15.52 33.5322V36H14.5356V33.6416C14.5356 33.473 14.5129 33.3431 14.4673 33.252C14.4217 33.1608 14.3568 33.097 14.2725 33.0605C14.1904 33.0241 14.0913 33.0059 13.9751 33.0059C13.8475 33.0059 13.7358 33.0321 13.6401 33.0845C13.5467 33.1369 13.4692 33.2098 13.4077 33.3032C13.3462 33.3944 13.3006 33.5015 13.271 33.6245C13.2414 33.7476 13.2266 33.8797 13.2266 34.021ZM15.4277 33.9082L15.0757 33.9526C15.0757 33.7111 15.1053 33.4867 15.1646 33.2793C15.2261 33.0719 15.3161 32.8896 15.4346 32.7324C15.5553 32.5752 15.7046 32.4533 15.8823 32.3667C16.0601 32.2778 16.2651 32.2334 16.4976 32.2334C16.6753 32.2334 16.8371 32.2596 16.9829 32.312C17.1287 32.3621 17.2529 32.443 17.3555 32.5547C17.4603 32.6641 17.54 32.8076 17.5947 32.9854C17.6517 33.1631 17.6802 33.3807 17.6802 33.6382V36H16.6924V33.6382C16.6924 33.4673 16.6696 33.3374 16.624 33.2485C16.5807 33.1574 16.5169 33.0947 16.4326 33.0605C16.3506 33.0241 16.2526 33.0059 16.1387 33.0059C16.0202 33.0059 15.9165 33.0298 15.8276 33.0776C15.7388 33.1232 15.6647 33.187 15.6055 33.269C15.5462 33.3511 15.5018 33.4468 15.4722 33.5562C15.4425 33.6632 15.4277 33.7806 15.4277 33.9082ZM20.6265 35.1934V30.75H21.6177V36H20.7256L20.6265 35.1934ZM18.2886 34.1953V34.1235C18.2886 33.841 18.3205 33.5846 18.3843 33.3545C18.4481 33.1221 18.5415 32.9227 18.6646 32.7563C18.7876 32.59 18.9391 32.4613 19.1191 32.3701C19.2992 32.279 19.5042 32.2334 19.7344 32.2334C19.9508 32.2334 20.14 32.279 20.3018 32.3701C20.4658 32.4613 20.6048 32.5911 20.7188 32.7598C20.835 32.9261 20.9284 33.1232 20.999 33.3511C21.0697 33.5767 21.1209 33.8239 21.1528 34.0928V34.25C21.1209 34.5075 21.0697 34.7467 20.999 34.9678C20.9284 35.1888 20.835 35.3825 20.7188 35.5488C20.6048 35.7129 20.4658 35.8405 20.3018 35.9316C20.1377 36.0228 19.9463 36.0684 19.7275 36.0684C19.4974 36.0684 19.2923 36.0216 19.1123 35.9282C18.9346 35.8348 18.7842 35.7038 18.6611 35.5352C18.5404 35.3665 18.4481 35.1683 18.3843 34.9404C18.3205 34.7126 18.2886 34.4642 18.2886 34.1953ZM19.2729 34.1235V34.1953C19.2729 34.348 19.2843 34.4904 19.3071 34.6226C19.3322 34.7547 19.3721 34.8721 19.4268 34.9746C19.4837 35.0749 19.5566 35.1535 19.6455 35.2104C19.7367 35.2651 19.8472 35.2925 19.9771 35.2925C20.1457 35.2925 20.2847 35.2549 20.394 35.1797C20.5034 35.1022 20.5866 34.9963 20.6436 34.8618C20.7028 34.7274 20.737 34.5724 20.7461 34.397V33.9492C20.7393 33.8057 20.7188 33.6769 20.6846 33.563C20.6527 33.4468 20.6048 33.3477 20.541 33.2656C20.4795 33.1836 20.402 33.1198 20.3086 33.0742C20.2174 33.0286 20.1092 33.0059 19.9839 33.0059C19.8563 33.0059 19.7469 33.0355 19.6558 33.0947C19.5646 33.1517 19.4906 33.2303 19.4336 33.3306C19.3789 33.4308 19.3379 33.5493 19.3105 33.686C19.2855 33.8205 19.2729 33.9663 19.2729 34.1235Z" fill="white"/>
</svg>
