<svg width="24" height="24" viewBox="0 0 24 24" fill="none" xmlns="http://www.w3.org/2000/svg">
<path fill-rule="evenodd" clip-rule="evenodd" d="M15 3H9L7 5H3C2.44771 5 2 5.44772 2 6V20C2 20.5523 2.44771 21 3 21H21C21.5523 21 22 20.5523 22 20V6C22 5.44772 21.5523 5 21 5H17L15 3ZM7.828 7L9.828 5H14.172L16.172 7H20V19H4V7H7.828ZM12 18C8.96243 18 6.5 15.5376 6.5 12.5C6.5 9.46243 8.96243 7 12 7C15.0376 7 17.5 9.46243 17.5 12.5C17.5 15.5376 15.0376 18 12 18ZM15.5 12.5C15.5 14.433 13.933 16 12 16C10.067 16 8.5 14.433 8.5 12.5C8.5 10.567 10.067 9 12 9C13.933 9 15.5 10.567 15.5 12.5Z" fill="black"/>
</svg>
