<svg width="136" height="136" viewBox="0 0 136 136" fill="none" xmlns="http://www.w3.org/2000/svg">
<path d="M119.382 119.665C121.592 117.453 121.592 113.868 119.38 111.657L92.9937 85.27C99.244 77.3253 102.667 67.6013 102.667 57.3333C102.667 45.2237 97.9463 33.8393 89.384 25.2827C80.8273 16.7147 69.443 12 57.3333 12C45.2237 12 33.8393 16.7147 25.2827 25.2827C16.7203 33.8393 12 45.2237 12 57.3333C12 69.443 16.7203 80.8273 25.2827 89.3897C33.8393 97.952 45.2237 102.667 57.3333 102.667C67.4597 102.667 77.0533 99.329 84.9413 93.2373L111.371 119.667C113.583 121.879 117.17 121.878 119.382 119.665ZM33.2953 81.377C26.8693 74.9567 23.3333 66.417 23.3333 57.3333C23.3333 48.244 26.8693 39.7157 33.2953 33.2953C39.7157 26.8693 48.2497 23.3333 57.3333 23.3333C66.417 23.3333 74.951 26.8693 81.3713 33.301C87.7973 39.7157 91.3333 48.244 91.3333 57.3333C91.3333 66.417 87.7973 74.9567 81.3713 81.377C74.951 87.7973 66.417 91.3333 57.3333 91.3333C48.2497 91.3333 39.7157 87.7973 33.2953 81.377Z" fill="#DBDBDB"/>
</svg>
