<svg width="34" height="40" viewBox="0 0 34 40" fill="none" xmlns="http://www.w3.org/2000/svg">
<path d="M0 28H34V37C34 38.6569 32.6569 40 31 40H3C1.34315 40 0 38.6569 0 37V28Z" fill="#2727B0"/>
<path d="M0 3C0 1.34315 1.34315 0 3 0H23L34 11V28H0V3Z" fill="#F5F5F5"/>
<path d="M34 11L26 11C24.3431 11 23 9.65685 23 8V0L34 11Z" fill="#DBDBDB"/>
<path fill-rule="evenodd" clip-rule="evenodd" d="M8.87912 21.941H12.298L16.9521 24.7493C17.0307 24.8138 17.1293 24.849 17.2311 24.849C17.4738 24.8488 17.6705 24.6519 17.6703 24.4092V12.4399C17.6704 12.3381 17.6352 12.2396 17.5707 12.1609C17.4168 11.9732 17.1398 11.9457 16.9521 12.0996L12.298 14.908H8.87912C8.3936 14.908 8 15.3016 8 15.7871V21.0619C8 21.5474 8.3936 21.941 8.87912 21.941ZM12.9258 16.6664L15.9122 15.2224V21.6268L12.9258 20.1829H9.7583V16.6664H12.9258ZM19.8511 16.3517C19.474 16.4092 19.2397 16.6637 19.3283 16.9191L19.3262 16.92C19.5295 17.4995 19.6305 18.098 19.6284 18.6953C19.6305 19.2975 19.5237 19.9014 19.3196 20.4909C19.229 20.7462 19.4682 20.9996 19.8474 21.06C19.9008 21.0683 19.9542 21.072 20.0076 21.072C20.3259 21.072 20.6156 20.9234 20.6922 20.7057C20.9194 20.0451 21.0337 19.37 21.0374 18.6953C21.0349 18.0251 20.9211 17.3575 20.6955 16.7035C20.6053 16.4477 20.229 16.2908 19.8511 16.3517ZM22.1605 14.6028C22.5252 14.5163 22.9259 14.6454 23.055 14.8938C23.6891 16.1157 24 17.4042 24 18.6923C24.0004 19.9895 23.6796 21.2839 23.0521 22.5153C22.9503 22.7123 22.6763 22.8344 22.3828 22.8344C22.3071 22.8344 22.2301 22.8261 22.1543 22.8092C21.7863 22.7251 21.5914 22.4536 21.7185 22.2077C22.2988 21.0761 22.5922 19.8836 22.5931 18.6919C22.5931 17.5056 22.3054 16.3222 21.7276 15.2025C21.6001 14.9563 21.795 14.686 22.1605 14.6028Z" fill="#2727B0"/>
<path d="M13.8076 35.166V33.5186C13.8076 33.4001 13.7882 33.2987 13.7495 33.2144C13.7108 33.1278 13.6504 33.0605 13.5684 33.0127C13.4886 32.9648 13.3849 32.9409 13.2573 32.9409C13.1479 32.9409 13.0534 32.9603 12.9736 32.999C12.8939 33.0355 12.8324 33.089 12.7891 33.1597C12.7458 33.228 12.7241 33.3089 12.7241 33.4023H11.7397C11.7397 33.2451 11.7762 33.0959 11.8491 32.9546C11.922 32.8133 12.028 32.6891 12.167 32.582C12.306 32.4727 12.4712 32.3872 12.6626 32.3257C12.8563 32.2642 13.0728 32.2334 13.312 32.2334C13.5991 32.2334 13.8543 32.2812 14.0776 32.377C14.3009 32.4727 14.4764 32.6162 14.604 32.8076C14.7339 32.999 14.7988 33.2383 14.7988 33.5254V35.1079C14.7988 35.3107 14.8114 35.4771 14.8364 35.6069C14.8615 35.7345 14.8979 35.8462 14.9458 35.9419V36H13.9512C13.9033 35.8997 13.8669 35.7744 13.8418 35.624C13.819 35.4714 13.8076 35.3187 13.8076 35.166ZM13.9375 33.7476L13.9443 34.3047H13.394C13.2642 34.3047 13.1514 34.3195 13.0557 34.3491C12.96 34.3787 12.8813 34.4209 12.8198 34.4756C12.7583 34.528 12.7127 34.5895 12.6831 34.6602C12.6558 34.7308 12.6421 34.8083 12.6421 34.8926C12.6421 34.9769 12.6615 35.0532 12.7002 35.1216C12.7389 35.1877 12.7948 35.2401 12.8677 35.2788C12.9406 35.3153 13.026 35.3335 13.124 35.3335C13.2721 35.3335 13.4009 35.3039 13.5103 35.2446C13.6196 35.1854 13.7039 35.1125 13.7632 35.0259C13.8247 34.9393 13.8566 34.8573 13.8589 34.7798L14.1187 35.1968C14.0822 35.2902 14.0321 35.387 13.9683 35.4873C13.9067 35.5876 13.8281 35.6821 13.7324 35.771C13.6367 35.8576 13.5216 35.9294 13.3872 35.9863C13.2528 36.041 13.0933 36.0684 12.9087 36.0684C12.674 36.0684 12.4609 36.0216 12.2695 35.9282C12.0804 35.8325 11.93 35.7015 11.8184 35.5352C11.709 35.3665 11.6543 35.1751 11.6543 34.9609C11.6543 34.7673 11.6908 34.5952 11.7637 34.4448C11.8366 34.2944 11.9437 34.168 12.085 34.0654C12.2285 33.9606 12.4074 33.882 12.6216 33.8296C12.8358 33.7749 13.0841 33.7476 13.3667 33.7476H13.9375ZM17.5537 35.166V33.5186C17.5537 33.4001 17.5343 33.2987 17.4956 33.2144C17.4569 33.1278 17.3965 33.0605 17.3145 33.0127C17.2347 32.9648 17.131 32.9409 17.0034 32.9409C16.894 32.9409 16.7995 32.9603 16.7197 32.999C16.64 33.0355 16.5785 33.089 16.5352 33.1597C16.4919 33.228 16.4702 33.3089 16.4702 33.4023H15.4858C15.4858 33.2451 15.5223 33.0959 15.5952 32.9546C15.6681 32.8133 15.7741 32.6891 15.9131 32.582C16.0521 32.4727 16.2173 32.3872 16.4087 32.3257C16.6024 32.2642 16.8188 32.2334 17.0581 32.2334C17.3452 32.2334 17.6004 32.2812 17.8237 32.377C18.047 32.4727 18.2225 32.6162 18.3501 32.8076C18.48 32.999 18.5449 33.2383 18.5449 33.5254V35.1079C18.5449 35.3107 18.5575 35.4771 18.5825 35.6069C18.6076 35.7345 18.644 35.8462 18.6919 35.9419V36H17.6973C17.6494 35.8997 17.613 35.7744 17.5879 35.624C17.5651 35.4714 17.5537 35.3187 17.5537 35.166ZM17.6836 33.7476L17.6904 34.3047H17.1401C17.0103 34.3047 16.8975 34.3195 16.8018 34.3491C16.7061 34.3787 16.6274 34.4209 16.5659 34.4756C16.5044 34.528 16.4588 34.5895 16.4292 34.6602C16.4019 34.7308 16.3882 34.8083 16.3882 34.8926C16.3882 34.9769 16.4076 35.0532 16.4463 35.1216C16.485 35.1877 16.5409 35.2401 16.6138 35.2788C16.6867 35.3153 16.7721 35.3335 16.8701 35.3335C17.0182 35.3335 17.147 35.3039 17.2563 35.2446C17.3657 35.1854 17.45 35.1125 17.5093 35.0259C17.5708 34.9393 17.6027 34.8573 17.605 34.7798L17.8647 35.1968C17.8283 35.2902 17.7782 35.387 17.7144 35.4873C17.6528 35.5876 17.5742 35.6821 17.4785 35.771C17.3828 35.8576 17.2677 35.9294 17.1333 35.9863C16.9989 36.041 16.8394 36.0684 16.6548 36.0684C16.4201 36.0684 16.207 36.0216 16.0156 35.9282C15.8265 35.8325 15.6761 35.7015 15.5645 35.5352C15.4551 35.3665 15.4004 35.1751 15.4004 34.9609C15.4004 34.7673 15.4368 34.5952 15.5098 34.4448C15.5827 34.2944 15.6898 34.168 15.8311 34.0654C15.9746 33.9606 16.1535 33.882 16.3677 33.8296C16.5819 33.7749 16.8302 33.7476 17.1128 33.7476H17.6836ZM20.8315 35.2993C20.9523 35.2993 21.0594 35.2765 21.1528 35.231C21.2463 35.1831 21.3192 35.117 21.3716 35.0327C21.4263 34.9461 21.4548 34.8447 21.457 34.7285H22.3833C22.381 34.9883 22.3115 35.2196 22.1748 35.4224C22.0381 35.6229 21.8547 35.7812 21.6245 35.8975C21.3944 36.0114 21.1369 36.0684 20.8521 36.0684C20.5649 36.0684 20.3143 36.0205 20.1001 35.9248C19.8882 35.8291 19.7116 35.6969 19.5703 35.5283C19.429 35.3574 19.3231 35.1592 19.2524 34.9336C19.1818 34.7057 19.1465 34.4619 19.1465 34.2021V34.103C19.1465 33.841 19.1818 33.5972 19.2524 33.3716C19.3231 33.1437 19.429 32.9455 19.5703 32.7769C19.7116 32.606 19.8882 32.4727 20.1001 32.377C20.312 32.2812 20.5604 32.2334 20.8452 32.2334C21.1483 32.2334 21.4137 32.2915 21.6416 32.4077C21.8717 32.5239 22.0518 32.6903 22.1816 32.9067C22.3138 33.1209 22.381 33.375 22.3833 33.6689H21.457C21.4548 33.5459 21.4285 33.4342 21.3784 33.334C21.3306 33.2337 21.2599 33.154 21.1665 33.0947C21.0754 33.0332 20.9626 33.0024 20.8281 33.0024C20.6846 33.0024 20.5672 33.0332 20.4761 33.0947C20.3849 33.154 20.3143 33.236 20.2642 33.3408C20.214 33.4434 20.1787 33.5607 20.1582 33.6929C20.14 33.8228 20.1309 33.9595 20.1309 34.103V34.2021C20.1309 34.3457 20.14 34.4836 20.1582 34.6157C20.1764 34.7479 20.2106 34.8652 20.2607 34.9678C20.3132 35.0703 20.3849 35.1512 20.4761 35.2104C20.5672 35.2697 20.6857 35.2993 20.8315 35.2993Z" fill="white"/>
</svg>
