<svg width="34" height="40" viewBox="0 0 34 40" fill="none" xmlns="http://www.w3.org/2000/svg">
    <defs>
        <linearGradient id="paint0_linear" x1="0" y1="0" x2="0" y2="39.9" gradientUnits="userSpaceOnUse">
            <stop stop-color="#5E7FB0"/>
            <stop offset="1" stop-color="#2C5898"/>
        </linearGradient>
    </defs>
<path fill-rule="evenodd" clip-rule="evenodd" d="M0 3.99C0 2.93179 0.420374 1.91691 1.16864 1.16864C1.91691 0.420374 2.93179 0 3.99 0H23.275L33.25 9.975V35.91C33.25 36.9682 32.8296 37.9831 32.0814 38.7314C31.3331 39.4796 30.3182 39.9 29.26 39.9H3.99C2.93179 39.9 1.91691 39.4796 1.16864 38.7314C0.420374 37.9831 0 36.9682 0 35.91V3.99Z" fill="url(#paint0_linear)"/>
<path d="M26.6242 9.9651C26.191 9.9651 25.762 9.87976 25.3619 9.71396C24.9617 9.54816 24.598 9.30514 24.2918 8.99879C23.9855 8.69244 23.7426 8.32875 23.5769 7.9285C23.4112 7.52825 23.326 7.09929 23.3262 6.6661V0.0581055L33.2462 9.9651H26.6242Z" fill="#254A80"/>
<path fill-rule="evenodd" clip-rule="evenodd" d="M7.98047 14.1312V12.4702H22.9425V14.1322H7.98047V14.1312ZM17.9555 15.7942H7.98047V17.4562H17.9555V15.7942ZM7.98047 20.7802H22.9425V19.1202H7.98047V20.7822V20.7802Z" fill="white" fill-opacity="0.4"/>
<path fill-rule="evenodd" clip-rule="evenodd" d="M11.5508 34.43C11.5508 33.905 11.3618 33.422 10.8438 33.422C10.2978 33.422 10.1158 33.933 10.1158 34.395C10.1158 34.892 10.2978 35.445 10.8438 35.445C11.4248 35.445 11.5508 34.892 11.5508 34.43ZM11.5088 31.252H12.6988V36.25H11.5648V35.83H11.5508C11.3198 36.173 10.9698 36.3549 10.5498 36.3549C9.40878 36.3549 8.92578 35.375 8.92578 34.353C8.92578 33.408 9.42978 32.512 10.4588 32.512C10.9068 32.512 11.2498 32.68 11.4948 33.0089H11.5088V31.252ZM15.246 33.4222C14.693 33.4222 14.525 33.9752 14.525 34.4372C14.525 34.8992 14.693 35.4452 15.246 35.4452C15.799 35.4452 15.974 34.8992 15.974 34.4372C15.974 33.9752 15.799 33.4222 15.246 33.4222ZM15.246 36.3552C14.119 36.3552 13.335 35.5292 13.335 34.4372C13.335 33.3452 14.119 32.5122 15.246 32.5122C16.373 32.5122 17.164 33.3452 17.164 34.4372C17.164 35.5292 16.373 36.3552 15.246 36.3552ZM21.3103 33.9472C21.2263 32.9882 20.4213 32.5122 19.5183 32.5122C18.3493 32.5122 17.6143 33.3382 17.6143 34.4932C17.6143 35.6062 18.4263 36.3552 19.5183 36.3552C20.4843 36.3552 21.2403 35.7952 21.3453 34.8222H20.1903C20.1343 35.2072 19.9243 35.4452 19.5113 35.4452C19.0073 35.4452 18.8043 34.9622 18.8043 34.4932C18.8043 33.9892 18.9093 33.4222 19.5743 33.4222C19.8753 33.4222 20.1483 33.6392 20.1553 33.9472H21.3103ZM22.8067 36.2502H21.4907L22.7507 34.3462L21.5957 32.6172H22.9117L23.4227 33.4852L23.9337 32.6172H25.1937L24.0597 34.3252L25.3477 36.2502H24.0317L23.4017 35.2002L22.8067 36.2502Z" fill="white"/>
</svg>
