<svg width="34" height="40" viewBox="0 0 34 40" fill="none" xmlns="http://www.w3.org/2000/svg">
<path d="M0 3C0 2.20435 0.31607 1.44129 0.87868 0.87868C1.44129 0.31607 2.20435 0 3 0H23.333L33.333 10V37C33.333 37.7956 33.0169 38.5587 32.4543 39.1213C31.8917 39.6839 31.1286 40 30.333 40H3C2.20435 40 1.44129 39.6839 0.87868 39.1213C0.31607 38.5587 0 37.7956 0 37V3Z" fill="#F5F5F5"/>
<path d="M0 28H33.333V37C33.333 37.7956 33.0169 38.5587 32.4543 39.1213C31.8917 39.6839 31.1286 40 30.333 40H3C2.20435 40 1.44129 39.6839 0.87868 39.1213C0.31607 38.5587 0 37.7956 0 37V28Z" fill="#D93831"/>
<path d="M25.8648 9.9901C25.207 9.9901 24.5762 9.72882 24.1111 9.26373C23.646 8.79864 23.3848 8.16784 23.3848 7.5101V0.0581055L33.3308 9.9901H25.8648Z" fill="#DBDBDB"/>
<path d="M13.7886 35.4918C13.6579 35.4953 13.5285 35.4658 13.4123 35.4058C13.2961 35.3459 13.197 35.2575 13.124 35.1491C13.0572 35.0367 13.0087 34.9143 12.9803 34.7867C12.9239 34.5082 12.9239 34.2214 12.9803 33.9429C13.0042 33.815 13.0503 33.6924 13.1166 33.5805C13.186 33.4677 13.2841 33.3753 13.4009 33.3127C13.5176 33.2501 13.6488 33.2195 13.7812 33.2241C13.9129 33.2232 14.0427 33.2561 14.158 33.3198C14.2733 33.3835 14.3703 33.4759 14.4397 33.5879C14.5103 33.6984 14.559 33.8214 14.5834 33.9502C14.6153 34.0866 14.6325 34.2265 14.6325 34.3678C14.6325 34.5103 14.6178 34.6492 14.5907 34.7856C14.5666 34.9149 14.5178 35.0382 14.447 35.1491C14.3766 35.2587 14.2789 35.3481 14.1634 35.4084C14.048 35.4687 13.9188 35.498 13.7886 35.4931V35.4918ZM12 32.5855V37.3701H12.9729V35.6909H12.9864C13.1056 35.8654 13.2567 35.998 13.4397 36.0889C13.6264 36.1749 13.8291 36.219 14.049 36.219C14.2736 36.2267 14.4968 36.1803 14.6996 36.0837C14.9025 35.987 15.0792 35.8431 15.2148 35.6639C15.3475 35.4944 15.4457 35.3003 15.5096 35.0816C15.6358 34.6217 15.6358 34.1363 15.5096 33.6763C15.4518 33.4556 15.3517 33.2483 15.2148 33.0658C15.0807 32.8912 14.9095 32.7485 14.7136 32.6481C14.4904 32.5378 14.2438 32.4833 13.995 32.4896C13.7738 32.4896 13.5736 32.5339 13.3906 32.6199C13.2023 32.7119 13.0451 32.8571 12.9385 33.0375H12.925V32.5855H12ZM18.706 34.347C18.706 34.4944 18.6925 34.6357 18.6642 34.7721C18.6397 34.9025 18.5936 35.0278 18.5278 35.143C18.4596 35.255 18.3624 35.3465 18.2465 35.4079C18.1307 35.4693 18.0004 35.4982 17.8694 35.4918C17.733 35.4955 17.598 35.4625 17.4788 35.3961C17.3734 35.3276 17.2824 35.2391 17.211 35.1357C17.1409 35.0216 17.0903 34.8966 17.0611 34.7659C17.0289 34.6311 17.0125 34.4929 17.012 34.3543C17.012 34.2081 17.0267 34.0694 17.0537 33.9367C17.0819 33.8086 17.1304 33.6858 17.1975 33.573C17.2653 33.4683 17.3571 33.3812 17.4653 33.3188C17.589 33.2514 17.7286 33.2183 17.8694 33.223C18.0291 33.223 18.1618 33.255 18.2674 33.3188C18.4753 33.462 18.6184 33.6813 18.6654 33.9293C18.6925 34.0619 18.706 34.2008 18.706 34.347ZM18.7183 35.6774V36.1294H19.6445V31.2354H18.6716V33.0179H18.6581C18.5494 32.8453 18.3915 32.7091 18.2048 32.6271C18.0194 32.5361 17.8155 32.489 17.609 32.4896C17.3823 32.4858 17.1578 32.5347 16.9532 32.6323C16.7486 32.7299 16.5694 32.8737 16.4297 33.0523C16.2974 33.2299 16.1976 33.4295 16.1349 33.6419C16.0088 34.0994 16.0088 34.5824 16.1349 35.0399C16.2037 35.2683 16.3019 35.4723 16.4297 35.6504C16.5624 35.8236 16.7294 35.9636 16.9297 36.0681C17.1311 36.1688 17.3645 36.219 17.6299 36.219C17.8633 36.219 18.0709 36.1774 18.2539 36.0963C18.4442 36.0066 18.602 35.8603 18.706 35.6774H18.7183ZM20.5928 33.2377V36.1294H21.5657V33.2365H22.2377V32.5855H21.5657V32.3742C21.5657 32.2268 21.594 32.1248 21.648 32.0646C21.7082 32.0007 21.8041 31.9688 21.9367 31.9688C22.0596 31.9688 22.1787 31.9762 22.293 31.9897V31.2625L22.0399 31.2502C21.953 31.2407 21.8657 31.2358 21.7783 31.2354C21.3815 31.2354 21.0842 31.3361 20.8877 31.5375C20.7892 31.6402 20.7124 31.7617 20.6617 31.8947C20.6111 32.0276 20.5877 32.1693 20.5928 32.3114V32.5855H20.0106V33.2365H20.5928V33.2377Z" fill="white"/>
<path fill-rule="evenodd" clip-rule="evenodd" d="M18.39 8.90592C18.215 8.27292 17.787 7.95792 17.426 8.00392C16.99 8.06092 16.526 8.31992 16.34 8.72892C15.854 9.82092 16.768 12.8929 17.028 13.7669L17.073 13.9189C16.015 17.1129 12.394 23.4259 10.62 23.8529C10.583 23.4359 10.806 22.2289 13.146 20.7239C13.266 20.5939 13.406 20.4369 13.471 20.3339C11.493 21.2999 8.93106 22.8509 10.471 24.0109C10.556 24.0769 10.685 24.1309 10.834 24.1869C12.014 24.6239 13.666 23.1949 15.327 19.9539C17.157 19.3499 18.633 18.8959 20.722 18.5799C23.005 20.1299 24.538 20.4459 25.578 20.0469C25.866 19.9349 26.32 19.5729 26.45 19.0999C26.515 18.8769 26.608 18.5149 26.432 18.2269C25.842 17.2659 23.452 17.5949 22.032 17.7899C21.779 17.8249 21.557 17.8559 21.381 17.8739C19.552 16.7699 18.289 14.8009 17.778 13.3799C17.857 13.0779 17.936 12.7889 18.012 12.5119C18.397 11.1119 18.701 10.0059 18.392 8.90592H18.39ZM26.45 19.0999C25.605 20.1399 23.628 19.4159 22.05 18.4219C23.507 18.2639 25.01 18.1719 25.661 18.3759C26.488 18.6359 26.459 19.0439 26.451 19.0999H26.45ZM17.601 12.7399C17.296 11.6539 16.868 9.23992 17.555 8.45992C18.701 9.11592 18.266 10.5379 17.825 11.9829C17.748 12.2359 17.671 12.4889 17.601 12.7399ZM15.439 19.5829C17.156 18.9049 18.354 18.4489 20.118 18.1249C18.818 16.9549 18.028 15.6829 17.378 14.3829C16.915 16.0549 15.948 18.5889 15.438 19.5829H15.439Z" fill="#CFCFCF"/>
</svg>
