<svg width="15" height="14" viewBox="0 0 15 14" fill="none" xmlns="http://www.w3.org/2000/svg">
<path d="M2.83329 9.91667V12.8333H1.66663V1.75H12.8305C12.8816 1.74991 12.9318 1.76327 12.9762 1.78873C13.0205 1.81418 13.0574 1.85084 13.0831 1.89504C13.1088 1.93924 13.1224 1.98941 13.1226 2.04054C13.1228 2.09166 13.1096 2.14194 13.0842 2.18633L11 5.83333L13.0842 9.48033C13.1096 9.52473 13.1228 9.57501 13.1226 9.62613C13.1224 9.67726 13.1088 9.72743 13.0831 9.77163C13.0574 9.81582 13.0205 9.85249 12.9762 9.87794C12.9318 9.9034 12.8816 9.91675 12.8305 9.91667H2.83329ZM2.83329 2.91667V8.75H11.3231L9.65596 5.83333L11.3231 2.91667H2.83329Z" fill="white"/>
</svg>
