<svg width="52" height="16" viewBox="0 0 52 16" fill="none" xmlns="http://www.w3.org/2000/svg">
<path d="M7.75801 2.66699H10.667L8.72701 6.54499H10.667L7.03001 13.333L7.75801 8.48499H5.33301L7.75801 2.66699ZM23.75 8.83599V7.84799H20.496V9.06799H22.176L22.171 9.20699C22.139 10.142 21.403 10.77 20.34 10.77C19.061 10.77 18.256 9.75999 18.256 8.09999C18.256 6.47299 19.024 5.47999 20.276 5.47999C21.178 5.47999 21.828 5.93599 22.069 6.71999H23.681C23.455 5.10899 22.107 4.04999 20.275 4.04999C18.02 4.04999 16.596 5.61999 16.596 8.11699C16.596 10.652 18.009 12.199 20.313 12.199C22.429 12.199 23.751 10.909 23.751 8.83599H23.75ZM26.93 12V4.24999H25.308V12H26.93ZM28.81 4.24999V12H30.432V9.59399H31.962C33.596 9.59399 34.729 8.52399 34.729 6.92999C34.729 5.31799 33.639 4.24999 32.044 4.24999H28.81ZM30.432 5.58199H31.614C32.548 5.58199 33.08 6.05399 33.08 6.93499C33.08 7.80499 32.538 8.27799 31.608 8.27799H30.432V5.58199ZM42.958 12V4.24999H41.335V7.37499H37.845V4.24999H36.222V12H37.844V8.76099H41.335V12H42.958ZM48.608 12V9.14799L51.304 4.24999H49.548L47.845 7.49399H47.749L46.04 4.24999H44.284L46.986 9.14799V12H48.608Z" fill="#006CFF"/>
</svg>
