<svg width="16" height="16" viewBox="0 0 16 16" fill="none" xmlns="http://www.w3.org/2000/svg">
<path fill-rule="evenodd" clip-rule="evenodd" d="M10.694 1.52896C10.5304 1.36532 10.2937 1.29808 10.0685 1.35125C9.84327 1.40442 9.6616 1.57041 9.5884 1.78994L9.16613 3.05682L6.72027 5.50272C5.12809 5.14204 3.59999 5.79015 2.19557 7.19458C1.93481 7.45531 1.93481 7.87811 2.19557 8.13884L4.55625 10.4995L3.1399 11.9159C2.87915 12.1767 2.87915 12.5994 3.1399 12.8601C3.40065 13.1209 3.82342 13.1209 4.08417 12.8601L5.50051 11.4438L7.8612 13.8045C8.12193 14.0652 8.54473 14.0652 8.80547 13.8045C10.2099 12.4 10.858 10.872 10.4973 9.27978L12.9432 6.83391L14.2101 6.41161C14.4296 6.33843 14.5956 6.1568 14.6488 5.93158C14.7019 5.70636 14.6347 5.46967 14.4711 5.30604L10.694 1.52896ZM10.3832 3.62864L10.5137 3.23716L12.7629 5.48638L12.3714 5.61688C12.2731 5.64965 12.1837 5.70488 12.1104 5.77818L9.2776 8.61098C9.09873 8.78984 9.03633 9.05431 9.11627 9.29424C9.43453 10.2489 9.2382 11.2565 8.31287 12.3676L3.6324 7.68718C4.74353 6.76184 5.7511 6.56552 6.7058 6.88378C6.94573 6.96371 7.2102 6.90131 7.38906 6.72244L10.2219 3.88963C10.2951 3.81634 10.3504 3.72698 10.3832 3.62864Z" fill="#7A7A7A"/>
</svg>
