<svg width="24" height="24" viewBox="0 0 24 24" fill="none" xmlns="http://www.w3.org/2000/svg">
<path fill-rule="evenodd" clip-rule="evenodd" d="M6.677 21.168L5.897 21.521C4.029 22.365 3.07 22.562 3.02 22.111C2.962 21.588 2.937 19.657 2.946 16.317C2.956 14.101 2.974 11.895 2.998 9.69796C3.044 9.40796 3.407 9.11096 4.086 8.80396C4.754 8.50096 5.18 8.41796 5.362 8.55296C5.412 8.60696 5.453 8.77296 5.484 9.05296C5.608 10.173 5.638 13.055 5.574 17.698C5.564 18.214 5.56 18.688 5.564 19.121L8.405 17.76C8.684 17.66 8.887 17.737 9.016 17.992C9.145 18.247 9.22 18.478 9.243 18.685C9.326 19.427 9.109 19.935 8.593 20.206L8.069 20.462C7.564 20.729 7.099 20.964 6.677 21.168ZM12.127 18.762C10.868 19.267 10.02 19.078 9.582 18.196C9.144 17.314 8.863 16.313 8.739 15.193C8.682 14.683 8.649 14.123 8.637 13.514C8.581 11.609 8.787 9.89896 9.255 8.38396C9.722 6.86896 10.582 5.82896 11.835 5.26296L11.866 5.24796C13.128 4.76796 13.979 4.95796 14.42 5.81896C14.861 6.68096 15.142 7.65296 15.262 8.73596C15.322 9.27196 15.352 9.85196 15.354 10.477C15.482 14.944 14.406 17.706 12.127 18.762ZM12.051 16.112C12.661 15.785 12.935 14.242 12.875 11.483C12.8684 10.8526 12.832 10.2229 12.766 9.59596C12.7136 9.16803 12.6443 8.74236 12.558 8.31996C12.455 7.79696 12.23 7.57596 11.882 7.65696C11.542 7.80996 11.311 8.33396 11.187 9.22696C11.058 10.2248 11.0079 11.2313 11.037 12.237C11.048 12.948 11.085 13.583 11.147 14.143C11.185 14.484 11.257 14.917 11.367 15.443C11.475 15.97 11.703 16.193 12.051 16.113V16.112ZM20 15.145L19.22 15.497C17.353 16.342 16.394 16.539 16.344 16.088C16.286 15.565 16.262 13.633 16.27 10.294C16.28 8.07796 16.298 5.87096 16.322 3.67396C16.368 3.38596 16.731 3.08796 17.41 2.77996C18.078 2.47796 18.504 2.39496 18.686 2.52996C18.736 2.58296 18.777 2.74996 18.808 3.02996C18.933 4.14996 18.962 7.03196 18.898 11.675C18.888 12.191 18.884 12.665 18.888 13.098L21.729 11.737C22.008 11.637 22.212 11.714 22.34 11.969C22.469 12.224 22.544 12.455 22.567 12.662C22.65 13.404 22.433 13.912 21.917 14.182L21.394 14.438C20.888 14.705 20.424 14.941 20.001 15.145H20Z" fill="#808080"/>
</svg>
