<svg width="24" height="24" viewBox="0 0 24 24" fill="none" xmlns="http://www.w3.org/2000/svg">
<path fill-rule="evenodd" clip-rule="evenodd" d="M9.0965 6.92857C9.94415 6.32452 10.9591 5.99988 12 5.99988C13.326 5.99988 14.5978 6.52667 15.5355 7.46435C16.4732 8.40203 17 9.6738 17 10.9999C17 11.2651 17.1053 11.5195 17.2929 11.707C17.4804 11.8945 17.7347 11.9999 18 11.9999C18.7956 11.9999 19.5587 12.316 20.1213 12.8786C20.6839 13.4412 21 14.2042 21 14.9999C21 15.7955 20.6839 16.5586 20.1213 17.1212C19.5587 17.6838 18.7956 17.9999 18 17.9999C17.7347 17.9999 17.4804 18.1052 17.2929 18.2928C17.1053 18.4803 17 18.7347 17 18.9999C17 19.2651 17.1053 19.5195 17.2929 19.707C17.4804 19.8945 17.7347 19.9999 18 19.9999C19.2423 19.9964 20.439 19.5308 21.3569 18.6936C22.2748 17.8563 22.8483 16.7075 22.9657 15.4706C23.0832 14.2338 22.7361 12.9976 21.9921 12.0026C21.2481 11.0076 20.1605 10.325 18.941 10.0879C18.7429 8.57347 18.055 7.16539 16.9821 6.07838C15.9092 4.99136 14.5103 4.28506 12.9986 4.0672C11.4869 3.84933 9.94545 4.13186 8.60929 4.87168C7.27313 5.6115 6.21559 6.76803 5.59797 8.16488C4.16853 8.50721 2.91447 9.36235 2.07375 10.568C1.23303 11.7737 0.864124 13.2461 1.03704 14.7057C1.20995 16.1654 1.91265 17.5108 3.01181 18.4867C4.11096 19.4625 5.5301 20.001 6.99997 19.9999C7.26518 19.9999 7.51954 19.8945 7.70707 19.707C7.89461 19.5195 7.99997 19.2651 7.99997 18.9999C7.99997 18.7347 7.89461 18.4803 7.70707 18.2928C7.51954 18.1052 7.26518 17.9999 6.99997 17.9999C5.98734 17.9976 5.01325 17.6114 4.27413 16.9192C3.53501 16.2271 3.08584 15.2804 3.01721 14.2701C2.94858 13.2598 3.26559 12.261 3.90431 11.4752C4.54304 10.6895 5.45595 10.1751 6.45897 10.0359C6.64276 10.0111 6.81603 9.93567 6.95943 9.81805C7.10282 9.70044 7.21069 9.54527 7.27097 9.36988C7.61071 8.38603 8.24885 7.53263 9.0965 6.92857ZM11.2929 12.2929C11.4804 12.1054 11.7348 12 12 12C12.2652 12 12.5196 12.1054 12.7071 12.2929C12.8946 12.4804 13 12.7348 13 13V16.5859L13.293 16.2929C13.4816 16.1108 13.7342 16.01 13.9964 16.0122C14.2586 16.0145 14.5094 16.1197 14.6948 16.3051C14.8803 16.4905 14.9854 16.7413 14.9877 17.0035C14.99 17.2657 14.8892 17.5183 14.707 17.7069L12.7206 19.6933C12.7162 19.698 12.7117 19.7026 12.7071 19.7071C12.5196 19.8946 12.2652 20 12 20C11.7348 20 11.4804 19.8946 11.2929 19.7071C11.2869 19.7011 11.281 19.695 11.2751 19.6889L9.29303 17.7068C9.10556 17.5193 9.00024 17.2649 9.00024 16.9998C9.00024 16.7346 9.10556 16.4803 9.29303 16.2928C9.48056 16.1053 9.73487 16 10 16C10.2652 16 10.5195 16.1053 10.707 16.2928L11 16.5858V13C11 12.7348 11.1054 12.4804 11.2929 12.2929Z" fill="black"/>
</svg>
