<svg width="16" height="16" viewBox="0 0 16 16" fill="none" xmlns="http://www.w3.org/2000/svg">
<path fill-rule="evenodd" clip-rule="evenodd" d="M12.471 5.80499C12.731 5.54399 12.731 5.12199 12.471 4.86199C12.211 4.60199 11.789 4.60199 11.529 4.86199L6.66648 9.72359L4.47105 7.52898C4.21105 7.26898 3.78905 7.26898 3.52905 7.52898H3.53005C3.40536 7.65401 3.33533 7.82339 3.33533 7.99998C3.33533 8.17657 3.40536 8.34595 3.53005 8.47098L6.19505 11.138C6.2564 11.2024 6.33002 11.2539 6.41158 11.2895C6.49313 11.325 6.58097 11.3439 6.66992 11.345C6.75887 11.346 6.84715 11.3293 6.92954 11.2958C7.01193 11.2622 7.08679 11.2125 7.14969 11.1496C7.18485 11.1144 7.21588 11.0756 7.24227 11.0337L12.471 5.80499Z" fill="#808080"/>
</svg>
