<svg width="24" height="24" viewBox="0 0 24 24" fill="none" xmlns="http://www.w3.org/2000/svg">
<path fill-rule="evenodd" clip-rule="evenodd" d="M15.2929 7.29289C15.6834 6.90237 16.3166 6.90237 16.7071 7.29289L20.7011 11.287C20.7168 11.3024 20.7319 11.3183 20.7466 11.3347C20.7814 11.3736 20.8126 11.4147 20.8402 11.4574C20.8626 11.492 20.8827 11.5278 20.9004 11.5644C20.9026 11.5689 20.9047 11.5733 20.9068 11.5778C20.9666 11.7061 21 11.8491 21 12C21 12.1561 20.9642 12.3039 20.9004 12.4356C20.8676 12.5034 20.8267 12.5682 20.7777 12.6287C20.7738 12.6335 20.7698 12.6383 20.7658 12.6431C20.745 12.6679 20.723 12.6916 20.6999 12.7143L16.7071 16.7071C16.3166 17.0976 15.6834 17.0976 15.2929 16.7071C14.9024 16.3166 14.9024 15.6834 15.2929 15.2929L17.5858 13H4C3.44772 13 3 12.5523 3 12C3 11.4477 3.44772 11 4 11H17.5858L15.2929 8.70711C14.9024 8.31658 14.9024 7.68342 15.2929 7.29289Z" fill="#006CFF"/>
</svg>
