<svg width="33" height="32" viewBox="0 0 33 32" fill="none" xmlns="http://www.w3.org/2000/svg">
<path d="M16.6088 26.7721C23.4368 26.7721 29.0925 21.2994 29.0925 14.6666C29.0925 8.04553 23.4368 2.56116 16.5967 2.56116C9.76868 2.56116 4.125 8.04553 4.125 14.6666C4.125 21.2994 9.78076 26.7721 16.6088 26.7721ZM16.6088 24.3932C11.0497 24.3932 6.59033 20.0573 6.59033 14.6666C6.59033 9.276 11.0376 4.95178 16.5967 4.95178C22.1558 4.95178 26.6393 9.276 26.6393 14.6666C26.6393 20.0573 22.1678 24.3932 16.6088 24.3932ZM13.1525 19.2721H14.4093C15.0256 19.2721 15.3278 18.944 15.3278 18.4518V10.8698C15.3278 10.3776 15.0256 10.0494 14.4093 10.0494H13.1525C12.5482 10.0494 12.2461 10.3776 12.2461 10.8698V18.4518C12.2461 18.944 12.5482 19.2721 13.1525 19.2721ZM18.8082 19.2721H20.0651C20.6693 19.2721 20.9714 18.944 20.9714 18.4518V10.8698C20.9714 10.3776 20.6693 10.0494 20.0651 10.0494H18.8082C18.1919 10.0494 17.8777 10.3776 17.8777 10.8698V18.4518C17.8777 18.944 18.1919 19.2721 18.8082 19.2721Z" fill="#FF3842"/>
</svg>
