<svg width="24" height="24" viewBox="0 0 24 24" fill="none" xmlns="http://www.w3.org/2000/svg">
<path fill-rule="evenodd" clip-rule="evenodd" d="M12 11C14.2091 11 16 9.20914 16 7C16 4.79086 14.2091 3 12 3C9.79086 3 8 4.79086 8 7C8 9.20914 9.79086 11 12 11ZM12 9C13.1046 9 14 8.10457 14 7C14 5.89543 13.1046 5 12 5C10.8954 5 10 5.89543 10 7C10 8.10457 10.8954 9 12 9ZM12 14C6.4686 14 4 17.6324 4 20C4 20.5523 3.55228 21 3 21C2.44771 21 2 20.5523 2 20C2 16.3676 5.5314 12 12 12C18.4686 12 22 16.3676 22 20C22 20.5523 21.5523 21 21 21C20.4477 21 20 20.5523 20 20C20 17.6324 17.5314 14 12 14Z" fill="black"/>
</svg>
