<svg width="22" height="20" viewBox="0 0 22 20" fill="none" xmlns="http://www.w3.org/2000/svg">
<path d="M4.8125 19.085C5.21094 19.085 5.72656 18.9678 6.35938 18.7334C6.99805 18.499 7.66895 18.1914 8.37207 17.8105C9.0752 17.4355 9.73438 17.0254 10.3496 16.5801C11.5918 16.6035 12.7607 16.4863 13.8564 16.2285C14.9521 15.9707 15.9453 15.5986 16.8359 15.1123C17.7324 14.6201 18.5029 14.0342 19.1475 13.3545C19.7979 12.6689 20.2988 11.9102 20.6504 11.0781C21.002 10.2461 21.1777 9.3584 21.1777 8.41504C21.1777 7.75879 21.084 7.13184 20.8965 6.53418C20.6562 6.72754 20.3955 6.8916 20.1143 7.02637C19.833 7.15527 19.543 7.24609 19.2441 7.29883C19.3555 7.66797 19.4111 8.04004 19.4111 8.41504C19.4111 9.2998 19.1943 10.1318 18.7607 10.9111C18.3271 11.6846 17.7266 12.3672 16.959 12.959C16.1914 13.5449 15.2979 14.0049 14.2783 14.3389C13.2646 14.6729 12.1719 14.8398 11 14.8398C10.918 14.8398 10.8154 14.8398 10.6924 14.8398C10.5752 14.834 10.4404 14.8281 10.2881 14.8223C10.1006 14.8223 9.92773 14.8545 9.76953 14.9189C9.61133 14.9775 9.44727 15.0742 9.27734 15.209C8.92578 15.4668 8.5332 15.7363 8.09961 16.0176C7.67188 16.3047 7.25586 16.5625 6.85156 16.791C6.44727 17.0254 6.11621 17.1953 5.8584 17.3008C5.80566 17.3242 5.77051 17.3213 5.75293 17.292C5.73535 17.2686 5.74707 17.2334 5.78809 17.1865C6.01074 16.9111 6.26562 16.5771 6.55273 16.1846C6.83984 15.7979 7.06543 15.4551 7.22949 15.1562C7.3584 14.9102 7.39355 14.6875 7.33496 14.4883C7.28223 14.2832 7.11523 14.1133 6.83398 13.9785C5.9375 13.5566 5.17285 13.0615 4.54004 12.4932C3.90723 11.9189 3.42383 11.2891 3.08984 10.6035C2.76172 9.91211 2.59766 9.18262 2.59766 8.41504C2.59766 7.53027 2.81152 6.70117 3.23926 5.92773C3.67285 5.1543 4.27344 4.47168 5.04102 3.87988C5.80859 3.28809 6.70215 2.8252 7.72168 2.49121C8.74121 2.15723 9.83398 1.99023 11 1.99023C11.5391 1.99023 12.0635 2.03125 12.5732 2.11328C13.0889 2.18945 13.5811 2.30371 14.0498 2.45605C14.1143 1.83496 14.3223 1.27832 14.6738 0.786133C14.1113 0.604492 13.5195 0.466797 12.8984 0.373047C12.2832 0.279297 11.6504 0.232422 11 0.232422C9.58789 0.232422 8.26367 0.443359 7.02734 0.865234C5.79688 1.28711 4.71582 1.87305 3.78418 2.62305C2.8584 3.36719 2.13184 4.2373 1.60449 5.2334C1.08301 6.22363 0.822266 7.28418 0.822266 8.41504C0.822266 9.37598 1.00977 10.29 1.38477 11.1572C1.75977 12.0244 2.28711 12.8066 2.9668 13.5039C3.65234 14.2012 4.45508 14.7725 5.375 15.2178C5.24609 15.458 5.09375 15.7188 4.91797 16C4.74805 16.2754 4.5752 16.5391 4.39941 16.791C4.22363 17.0488 4.07129 17.2598 3.94238 17.4238C3.75488 17.6699 3.66699 17.9219 3.67871 18.1797C3.69629 18.4375 3.80176 18.6514 3.99512 18.8213C4.18848 18.9971 4.46094 19.085 4.8125 19.085ZM18.1543 6.30566C18.6992 6.30566 19.2002 6.16797 19.6572 5.89258C20.1201 5.61719 20.4893 5.24805 20.7646 4.78516C21.04 4.32227 21.1777 3.81543 21.1777 3.26465C21.1777 2.70801 21.04 2.20117 20.7646 1.74414C20.4893 1.28125 20.1201 0.912109 19.6572 0.636719C19.2002 0.361328 18.6992 0.223633 18.1543 0.223633C17.5918 0.223633 17.082 0.361328 16.625 0.636719C16.168 0.912109 15.8018 1.28125 15.5264 1.74414C15.251 2.20117 15.1133 2.70801 15.1133 3.26465C15.1133 3.81543 15.251 4.32227 15.5264 4.78516C15.8018 5.24805 16.168 5.61719 16.625 5.89258C17.082 6.16797 17.5918 6.30566 18.1543 6.30566Z" fill="#747881"/>
</svg>
