<svg width="24" height="24" viewBox="0 0 24 24" fill="none" xmlns="http://www.w3.org/2000/svg">
<path d="M21 12.79C20.8427 14.4922 20.2039 16.1144 19.1582 17.4668C18.1126 18.8192 16.7035 19.8458 15.0957 20.4265C13.4879 21.0073 11.748 21.1181 10.0795 20.7461C8.41102 20.3741 6.88299 19.5345 5.67423 18.3258C4.46546 17.117 3.62594 15.589 3.25391 13.9205C2.88188 12.252 2.99272 10.5121 3.57346 8.9043C4.1542 7.29651 5.18083 5.88737 6.53321 4.84175C7.8856 3.79614 9.5078 3.15731 11.21 3C10.2134 4.34827 9.73385 6.00945 9.85853 7.68141C9.98322 9.35338 10.7039 10.9251 11.8894 12.1106C13.0749 13.2961 14.6466 14.0168 16.3186 14.1415C17.9906 14.2662 19.6517 13.7866 21 12.79Z" stroke="#7A7A7A" stroke-width="2" stroke-linecap="round" stroke-linejoin="round"/>
</svg>
