<svg width="20" height="24" viewBox="0 0 20 24" fill="none" xmlns="http://www.w3.org/2000/svg">
<path d="M10.0001 16.3333C12.2134 16.3333 14.0001 14.5466 14.0001 12.3333V4.33331C14.0001 2.11998 12.2134 0.333313 10.0001 0.333313C7.78675 0.333313 6.00008 2.11998 6.00008 4.33331V12.3333C6.00008 14.5466 7.78675 16.3333 10.0001 16.3333Z" fill="#747881"/>
<path d="M16.6667 12.3333C16.6667 16.0133 13.6801 19 10.0001 19C6.32008 19 3.33341 16.0133 3.33341 12.3333H0.666748C0.666748 17.04 4.14675 20.9066 8.66675 21.56V25.6666H11.3334V21.56C15.8534 20.9066 19.3334 17.04 19.3334 12.3333H16.6667Z" fill="#747881"/>
</svg>
