<svg width="18" height="24" viewBox="0 0 18 24" fill="none" xmlns="http://www.w3.org/2000/svg">
<path d="M3.50391 23.9062H14.4844C16.2656 23.9062 17.1914 22.957 17.1914 21.0352V12.7383C17.1914 11.0391 16.4648 10.1016 15.0586 9.91406V7.125C15.0586 2.80078 12.1992 0.5625 9 0.5625C5.80078 0.5625 2.94141 2.80078 2.94141 7.125V9.91406C1.53516 10.1016 0.796875 11.0391 0.796875 12.7383V21.0352C0.796875 22.957 1.72266 23.9062 3.50391 23.9062ZM5.13281 6.91406C5.13281 4.17188 6.90234 2.67188 9 2.67188C11.0859 2.67188 12.8672 4.17188 12.8672 6.91406V9.87891H5.13281V6.91406ZM3.84375 21.8086C3.36328 21.8086 3.07031 21.5156 3.07031 20.9531V12.8203C3.07031 12.2578 3.36328 11.9766 3.84375 11.9766H14.1562C14.6484 11.9766 14.918 12.2578 14.918 12.8203V20.9531C14.918 21.5156 14.6484 21.8086 14.1562 21.8086H3.84375Z" fill="#747881"/>
</svg>
