<svg width="24" height="24" viewBox="0 0 24 24" fill="none" xmlns="http://www.w3.org/2000/svg">
<path fill-rule="evenodd" clip-rule="evenodd" d="M18.9998 7.99979C18.9998 7.73462 18.8945 7.48031 18.707 7.29279C18.5195 7.10532 18.2652 7 18 7C17.7349 7 17.4806 7.10532 17.293 7.29279L10 14.5858L6.70703 11.2928C6.5195 11.1053 6.26519 11 6.00003 11C5.73487 11 5.48056 11.1053 5.29303 11.2928C5.10556 11.4803 5.00024 11.7346 5.00024 11.9998C5.00024 12.265 5.10556 12.5193 5.29303 12.7068L9.29303 16.7068C9.48163 16.8889 9.73423 16.9897 9.99643 16.9875C9.99763 16.9875 9.99883 16.9874 10 16.9874C10.0012 16.9874 10.0024 16.9875 10.0036 16.9875C10.2658 16.9897 10.5184 16.8889 10.707 16.7068L18.707 8.70679C18.8945 8.51926 18.9998 8.26495 18.9998 7.99979Z" fill="black"/>
</svg>
