<svg width="24" height="24" viewBox="0 0 24 24" fill="none" xmlns="http://www.w3.org/2000/svg">
<path fill-rule="evenodd" clip-rule="evenodd" d="M9 2C8.44771 2 8 2.44771 8 3V4H5C4.44771 4 4 4.44772 4 5C4 5.55228 4.44771 6 5 6H19C19.5523 6 20 5.55228 20 5C20 4.44772 19.5523 4 19 4H16V3C16 2.44771 15.5523 2 15 2H9ZM7 8C7 7.44772 6.55228 7 6 7C5.44772 7 5 7.44772 5 8V19C5 20.6569 6.34315 22 8 22H16C17.6569 22 19 20.6569 19 19V8C19 7.44772 18.5523 7 18 7C17.4477 7 17 7.44772 17 8V19C17 19.5523 16.5523 20 16 20H8C7.44772 20 7 19.5523 7 19V8ZM10 8C10.5523 8 11 8.44771 11 9V17C11 17.5523 10.5523 18 10 18C9.44771 18 9 17.5523 9 17V9C9 8.44771 9.44771 8 10 8ZM15 9C15 8.44771 14.5523 8 14 8C13.4477 8 13 8.44771 13 9V17C13 17.5523 13.4477 18 14 18C14.5523 18 15 17.5523 15 17V9Z" fill="black"/>
</svg>
