<svg width="24" height="19" viewBox="0 0 24 19" fill="none" xmlns="http://www.w3.org/2000/svg">
    <path fill-rule="evenodd" clip-rule="evenodd"
        d="M11.96 2C8.26563 2 5.20156 4.75636 4.71677 8.32007H6.31992C7.10992 8.32007 7.57992 9.21007 7.12992 9.87007L4.45992 13.7401C4.06992 14.3101 3.22992 14.3101 2.83992 13.7401L0.179922 9.87007C-0.280078 9.21007 0.189922 8.32007 0.989922 8.32007H2.70214C3.19783 3.6451 7.16369 0 11.96 0C13.76 0 15.5 0.51 17.01 1.49L15.92 3.17C14.74 2.4 13.37 2 11.96 2ZM6.90991 17.1201C8.41991 18.1001 10.1599 18.6101 11.9599 18.6101C16.7556 18.6101 20.7211 14.9659 21.2175 10.2999H22.9299C23.7299 10.2999 24.1999 9.40989 23.7499 8.74989L21.0799 4.87989C20.6899 4.30989 19.8499 4.30989 19.4599 4.87989L16.7899 8.74989C16.3399 9.40989 16.8099 10.2999 17.5999 10.2999H19.2031C18.7184 13.8637 15.6543 16.6201 11.9599 16.6201C10.5499 16.6201 9.17991 16.2101 7.99991 15.4501L6.90991 17.1201Z"
        fill="white" />
</svg>
