<svg width="28" height="28" viewBox="0 0 28 28" fill="none" xmlns="http://www.w3.org/2000/svg">
<path d="M9.875 19.3334H12.625V8.66669H9.875V19.3334ZM14 0.666687C6.41 0.666687 0.25 6.64002 0.25 14C0.25 21.36 6.41 27.3334 14 27.3334C21.59 27.3334 27.75 21.36 27.75 14C27.75 6.64002 21.59 0.666687 14 0.666687ZM14 24.6667C7.93625 24.6667 3 19.88 3 14C3 8.12002 7.93625 3.33335 14 3.33335C20.0637 3.33335 25 8.12002 25 14C25 19.88 20.0637 24.6667 14 24.6667ZM15.375 19.3334H18.125V8.66669H15.375V19.3334Z" fill="#FF3742"/>
</svg>
