<svg width="24" height="24" viewBox="0 0 24 24" fill="none" xmlns="http://www.w3.org/2000/svg">
    <defs>
        <clipPath id="clip0">
            <rect width="24" height="24" rx="12" fill="white"/>
        </clipPath>
    </defs>
<g clip-path="url(#clip0)">
<path d="M21.2497 23.9754H2.80034C1.25039 23.9754 1.24507e-05 22.7251 1.24507e-05 21.2251V2.77578C-0.00107673 2.41437 0.0693054 2.05631 0.20711 1.72219C0.344914 1.38808 0.547421 1.08451 0.80298 0.828954C1.05854 0.573395 1.36211 0.370889 1.69622 0.233084C2.03033 0.09528 2.38839 0.0248978 2.74981 0.025987H21.1992C22.7496 -0.024028 24 1.22583 24 2.72577V21.1751C24 22.7256 22.7501 23.9754 21.2497 23.9754Z" fill="#08142D"/>
<path d="M12.9354 17.0527C12.9354 17.7155 12.8249 18.2059 12.6042 18.5235C12.3838 18.8411 12.0445 19 11.5863 19C11.1225 19 10.7776 18.8395 10.5513 18.5195C10.325 18.1991 10.212 17.7102 10.212 17.0527V11.6752C10.212 11.0178 10.3238 10.5307 10.5473 10.2128C10.7705 9.89496 11.1166 9.73634 11.5863 9.73634C12.0445 9.73634 12.3838 9.89496 12.6045 10.2128C12.8252 10.5307 12.9354 11.0178 12.9354 11.6752V17.0527Z" fill="white"/>
<path d="M10 6.54932C10 6.12404 10.1552 5.75961 10.4663 5.4557C10.7773 5.1518 11.1507 5 11.5863 5C12.0159 5 12.3841 5.15211 12.6889 5.4557C12.9947 5.75961 13.1471 6.12404 13.1471 6.54932C13.1471 6.98019 12.9956 7.34494 12.6932 7.64326C12.3906 7.94126 12.0218 8.09027 11.5863 8.09027C11.1396 8.09027 10.7636 7.94126 10.4582 7.64326C10.1527 7.34463 10 6.98019 10 6.54932Z" fill="#5BBF8C"/>
</g>
</svg>
