<svg width="16" height="16" viewBox="0 0 16 16" fill="none" xmlns="http://www.w3.org/2000/svg">
<path d="M6.66663 4.81334L4.40196 6.66667H1.99996V9.33334H4.40196L6.66663 11.1867V4.81334ZM3.92596 10.6667H1.33329C1.15648 10.6667 0.986912 10.5964 0.861888 10.4714C0.736864 10.3464 0.666626 10.1768 0.666626 10V6C0.666626 5.82319 0.736864 5.65362 0.861888 5.5286C0.986912 5.40358 1.15648 5.33334 1.33329 5.33334H3.92596L7.45529 2.44534C7.50413 2.4053 7.56333 2.37996 7.626 2.37227C7.68868 2.36457 7.75225 2.37484 7.80932 2.40187C7.86639 2.4289 7.91461 2.47159 7.94836 2.52496C7.98211 2.57833 8 2.64019 7.99996 2.70334V13.2967C8 13.3598 7.98211 13.4217 7.94836 13.475C7.91461 13.5284 7.86639 13.5711 7.80932 13.5981C7.75225 13.6252 7.68868 13.6354 7.626 13.6277C7.56333 13.62 7.50413 13.5947 7.45529 13.5547L3.92663 10.6667H3.92596ZM12.9373 13.4227L11.9933 12.4787C12.6253 11.9163 13.1309 11.2264 13.4768 10.4545C13.8227 9.68248 14.001 8.84594 14 8C14.0008 7.11073 13.8035 6.23244 13.4225 5.42892C13.0415 4.6254 12.4863 3.91683 11.7973 3.35467L12.744 2.408C13.5563 3.0957 14.2088 3.95233 14.656 4.91813C15.1032 5.88394 15.3343 6.93568 15.3333 8C15.3333 10.1487 14.4093 12.0813 12.9373 13.4227ZM10.5753 11.0607L9.62729 10.1127C9.95094 9.8638 10.213 9.54383 10.3932 9.17749C10.5735 8.81115 10.667 8.40827 10.6666 8C10.6666 7.04667 10.1666 6.21 9.41329 5.73867L10.3726 4.77934C10.8776 5.1508 11.288 5.6359 11.5707 6.19542C11.8535 6.75493 12.0005 7.37313 12 8C12 9.228 11.4466 10.3267 10.5753 11.0607Z" fill="white"/>
</svg>
